<svg width="33" height="34" viewBox="0 0 33 34" fill="none" xmlns="http://www.w3.org/2000/svg">
    <path d="M7.796 29.578a1.01 1.01 0 0 1-1.458-.337 1.087 1.087 0 0 1-.146-.547V8.525c0-1.125.433-2.205 1.205-3.002a4.065 4.065 0 0 1 2.911-1.248l12.375-.023a4.02 4.02 0 0 1 1.58.32c.5.213.956.525 1.34.919.383.394.688.862.896 1.377.209.515.317 1.067.318 1.626v20.2c0 .192-.05.381-.147.547-.096.165-.234.3-.398.39a1.006 1.006 0 0 1-1.06-.053l-8.708-5.993-8.71 5.993h.002zM24.752 8.5l-.014-.25a2.147 2.147 0 0 0-.68-1.34 2.028 2.028 0 0 0-1.37-.535l-12.375.021a2.032 2.032 0 0 0-1.456.624 2.158 2.158 0 0 0-.603 1.501v18.184l7.677-5.283a1.01 1.01 0 0 1 1.145 0l7.678 5.283V8.5h-.002z" fill="#333"/>
</svg>
