<svg 
width="17"
height="27" 
fill="none" 
xmlns="http://www.w3.org/2000/svg">

<path d="M14.9444 26.3889c-.4255.0003-.8338-.1677-1.1359-.4673L8.49991 20.605l-5.26833 5.2522c-.22287.2382-.51279.4032-.83143.473a1.610883 1.610883 0 0 1-.95307-.0817 1.610977 1.610977 0 0 1-.738741-.6077c-.179046-.2727-.2711-.5933-.263986-.9194V2.2222c0-.4273.169742-.83709.471884-1.13923C1.21838.780825 1.62817.611084 2.05546.611084H14.9444c.4272 0 .837.169741 1.1392.471886.3021.30214.4719.71193.4719 1.13923v22.5555c0 .4273-.1698.8371-.4719 1.1393-.3022.3021-.712.4719-1.1392.4719Zm0-1.6112V2.2222H2.05546v22.4992l6.44445-6.3881 6.44449 6.4444Z" fill="#000"/></svg>