<svg width="25" height="23" viewBox="0 0 25 23" fill="none" xmlns="http://www.w3.org/2000/svg">
<circle cx="4" cy="17.0476" r="4" fill="#333333"/>
<circle cx="20.0957" cy="17.0476" r="3" stroke="#333333" stroke-width="2"/>
<path d="M6.0957 17H18.0957" stroke="#333333" stroke-width="2"/>
<path d="M16.8841 8.04678C17.3054 7.25555 17.5251 6.37262 17.5238 5.47619C17.5238 2.45172 15.0721 0 12.0476 0C9.02314 0 6.57142 2.45172 6.57142 5.47619C6.5692 6.76802 7.02585 8.01865 7.85994 9.00512L7.86638 9.01317C7.86863 9.0151 7.87057 9.01768 7.87218 9.01961H7.85994L11.1096 12.4696C11.23 12.5975 11.3754 12.6994 11.5367 12.769C11.698 12.8387 11.8718 12.8746 12.0475 12.8746C12.2231 12.8746 12.397 12.8387 12.5582 12.769C12.7195 12.6994 12.8649 12.5975 12.9853 12.4696L16.2353 9.01961H16.2231L16.2282 9.01349L16.2289 9.01285C16.252 8.98515 16.2752 8.95744 16.2981 8.9291C16.5215 8.65448 16.7179 8.35889 16.8844 8.04646L16.8841 8.04678ZM12.0489 7.57003C11.5363 7.57003 11.0447 7.3664 10.6822 7.00394C10.3198 6.64147 10.1161 6.14986 10.1161 5.63726C10.1161 5.12466 10.3198 4.63305 10.6822 4.27058C11.0447 3.90812 11.5363 3.70448 12.0489 3.70448C12.5615 3.70448 13.0531 3.90812 13.4156 4.27058C13.778 4.63305 13.9817 5.12466 13.9817 5.63726C13.9817 6.14986 13.778 6.64147 13.4156 7.00394C13.0531 7.3664 12.5615 7.57003 12.0489 7.57003Z" fill="#333333"/>
</svg>
