<svg width="24" height="24" viewBox="0 0 24 24" fill="none" xmlns="http://www.w3.org/2000/svg">
    <path d="M12.002 7.75a3 3 0 1 0 0 6 3 3 0 0 0 0-6zm-1.75 3a1.75 1.75 0 1 1 3.5 0 1.75 1.75 0 0 1-3.5 0z" fill="#ACACAC"/>
    <path d="m18.5 16-5.044 5.355a1.999 1.999 0 0 1-2.912 0L5.5 16h.019l-.008-.01-.011-.013a8.461 8.461 0 0 1-2-5.477 8.5 8.5 0 1 1 17 0 8.46 8.46 0 0 1-2 5.477l-.01.013-.009.01h.019zm-.971-.81a7.25 7.25 0 1 0-11.057 0l.154.182 4.828 5.125a.748.748 0 0 0 1.092 0l4.829-5.125.154-.181z" fill="#ACACAC"/>
</svg>
