<svg width="22" height="26" viewBox="0 0 22 26" fill="none" xmlns="http://www.w3.org/2000/svg">
<path d="M11 14.1666C12.933 14.1666 14.5 12.5996 14.5 10.6666C14.5 8.73363 12.933 7.16663 11 7.16663C9.067 7.16663 7.5 8.73363 7.5 10.6666C7.5 12.5996 9.067 14.1666 11 14.1666Z" stroke="#333333" stroke-width="2" stroke-linecap="round" stroke-linejoin="round"/>
<path d="M11 1.33331C8.5246 1.33331 6.15064 2.31664 4.4003 4.06698C2.64996 5.81732 1.66663 8.19129 1.66663 10.6666C1.66663 12.874 2.13563 14.3183 3.41663 15.9166L11 24.6666L18.5833 15.9166C19.8643 14.3183 20.3333 12.874 20.3333 10.6666C20.3333 8.19129 19.35 5.81732 17.5996 4.06698C15.8493 2.31664 13.4753 1.33331 11 1.33331V1.33331Z" stroke="#333333" stroke-width="2" stroke-linecap="round" stroke-linejoin="round"/>
</svg>
