<svg width="120" height="105" viewBox="0 0 120 105" fill="none" xmlns="http://www.w3.org/2000/svg">
<path d="M65.1378 19.9869C65.1378 19.9869 66.3638 15.4578 65.493 9.52564C64.6222 3.59344 60.0619 5.33887 57.9651 9.17199C55.8683 13.0051 54.1152 18.4125 54.1152 18.4125C54.1152 18.4125 41.7634 26.4666 34.0636 37.3385C26.0888 48.5869 23.0868 56.2531 23.2931 66.8969C23.5108 78.4989 32.5741 89.7473 59.2026 91.3102C85.831 92.8845 100.543 79.6283 107.372 69.863C114.201 60.0977 113.857 48.8493 105.711 37.2473C101.231 30.8588 92.66 24.1736 80.7551 22.4282L87.2404 10.5752C87.2404 10.5752 91.0903 0.809864 80.2395 3.25119C69.3888 5.69252 65.1378 19.9869 65.1378 19.9869Z" fill="white" stroke="#40B79F" stroke-width="5" stroke-miterlimit="10" stroke-linecap="round" stroke-linejoin="round"/>
<path d="M44.1239 89.04C44.1239 89.04 36.596 92.3484 36.2408 101.076C36.2408 101.076 31.8639 98.1095 28.7129 99.3301" stroke="#40B79F" stroke-width="5" stroke-miterlimit="10" stroke-linecap="round" stroke-linejoin="round"/>
<path d="M86.5996 88.8003C86.5996 88.8003 93.3255 93.5232 91.939 102.148C91.939 102.148 96.8202 100.106 99.6732 101.92" stroke="#40B79F" stroke-width="5" stroke-miterlimit="10" stroke-linecap="round" stroke-linejoin="round"/>
<path d="M47.1719 72.4982C47.1719 72.4982 49.8645 69.2127 55.8685 68.9846C63.3964 68.6993 66.6162 72.6237 66.6162 72.6237" stroke="#40B79F" stroke-width="4" stroke-miterlimit="10" stroke-linecap="round" stroke-linejoin="round"/>
<path d="M71.8183 51.5986L69.8933 56.8692C69.8933 56.8692 67.9569 61.5693 71.9329 61.5351C75.9432 61.5008 73.8349 56.8121 73.8349 56.8121L71.8183 51.5986Z" fill="#5F7DBE" stroke="#5F7DBE" stroke-width="0.5" stroke-miterlimit="10"/>
<path d="M25.5966 52.0776C25.5966 52.0776 16.877 62.3335 5.43042 64.7064C2.02738 65.4137 1.95863 68.8931 5.53354 67.1933C8.1116 65.9727 7.6189 64.8091 7.6189 64.8091" stroke="#40B79F" stroke-width="5" stroke-miterlimit="10" stroke-linecap="round"/>
<path d="M112.621 52.4199C112.621 52.4199 124.973 58.5232 108.852 58.3521C92.7301 58.181 84.3428 54.3707 84.3428 54.3707C84.3428 54.3707 82.3835 53.6064 81.6273 55.4202C81.1231 56.6409 84.5147 56.5611 84.5147 56.5611C84.5147 56.5611 86.4397 56.4812 86.5313 55.6598" stroke="#40B79F" stroke-width="5" stroke-miterlimit="10" stroke-linecap="round"/>
<path d="M86.0712 16.804C86.0712 16.804 89.0847 12.6514 94.8595 12.834C100.623 13.0051 94.3325 17.2489 94.3325 17.2489C94.3325 17.2489 99.2365 17.6938 99.2365 20.3405C99.2365 20.3405 99.523 24.2078 88.6722 23.01C88.6722 23.01 83.7682 26.2157 68.0477 26.4894C63.6822 26.364 50.9867 26.4666 47.4462 22.1202C44.914 19.0057 49.3253 16.5644 49.3253 16.5644C51.5253 15.3666 53.1294 14.26 64.0718 14.6821C76.8131 15.1726 86.0712 16.804 86.0712 16.804Z" fill="#A6D8D2"/>
<path d="M50.0255 36.1406C47.6423 39.9852 45.2246 50.2296 47.7798 53.2984C50.5297 55.4887 51.2516 51.1651 51.2516 51.1651C51.2516 51.1651 51.8703 43.3848 53.715 38.5477C54.7921 35.7071 51.1943 34.2469 50.0255 36.1406Z" fill="#40B79F" stroke="#3AB7A3" stroke-miterlimit="10"/>
<path d="M64.1527 37.1902C61.7694 41.0347 59.8559 50.0243 62.4111 53.0931C65.161 55.2834 66.2381 51.5872 66.2381 51.5872C66.2381 51.5872 66.9828 44.2404 67.6359 38.2968C67.8995 35.9353 65.3214 35.3078 64.1527 37.1902Z" fill="#40B79F" stroke="#40B79F" stroke-miterlimit="10"/>
</svg>
