<svg width="16" height="16" viewBox="0 0 16 16" fill="none" xmlns="http://www.w3.org/2000/svg">
<path d="M13.8005 11.0449C13.166 12.3278 12.1369 13.3735 10.8643 14.0285C9.60077 14.6772 8.16022 14.8963 6.761 14.6525C5.35744 14.4057 4.07154 13.711 3.09575 12.6724C2.11091 11.6241 1.48386 10.2904 1.30475 8.8632C1.12284 7.43275 1.39684 5.98137 2.08775 4.7157C2.77231 3.45973 3.84207 2.45675 5.1395 1.85445C6.42823 1.25758 7.87652 1.09747 9.2645 1.39845C10.652 1.6992 11.789 2.3832 12.7295 3.4647C12.8428 3.5847 13.2808 4.0692 13.6445 4.80045" stroke="#333333" stroke-width="2" stroke-linecap="round" stroke-linejoin="round"/>
<path d="M10.3018 4.85963L14.0818 5.53988L14.75 1.69238" stroke="#333333" stroke-width="2" stroke-linecap="round" stroke-linejoin="round"/>
</svg>
