<svg width="23" height="24" viewBox="0 0 23 24" fill="none" xmlns="http://www.w3.org/2000/svg">
<path d="M18.8828 16.3333C18.3964 16.3352 17.9154 16.4353 17.4686 16.6277C17.0218 16.8201 16.6185 17.1007 16.2828 17.4528L7.47895 13.0472C7.69552 12.3906 7.69552 11.6817 7.47895 11.025L16.2973 6.54001C16.9289 7.20563 17.7855 7.61263 18.7005 7.68189C19.6155 7.75115 20.5235 7.47773 21.2482 6.91477C21.9728 6.35181 22.4622 5.53953 22.6214 4.63582C22.7805 3.7321 22.5979 2.80151 22.1091 2.02492C21.6203 1.24833 20.8602 0.681218 19.9766 0.433815C19.0929 0.186412 18.1489 0.276392 17.3279 0.686266C16.5069 1.09614 15.8676 1.79663 15.5343 2.65157C15.2011 3.50652 15.1975 4.45485 15.5245 5.31224L6.79284 9.7539C6.32127 9.17717 5.68286 8.76041 4.96513 8.56074C4.24739 8.36107 3.48547 8.38828 2.78381 8.63862C2.08215 8.88897 1.47509 9.3502 1.04584 9.9591C0.616599 10.568 0.386185 11.2948 0.386185 12.0397C0.386185 12.7847 0.616599 13.5115 1.04584 14.1204C1.47509 14.7293 2.08215 15.1905 2.78381 15.4409C3.48547 15.6912 4.24739 15.7184 4.96513 15.5187C5.68286 15.3191 6.32127 14.9023 6.79284 14.3256L15.5028 18.7095C15.3557 19.1046 15.2799 19.5228 15.279 19.9445C15.279 20.6587 15.4907 21.3568 15.8875 21.9507C16.2843 22.5445 16.8483 23.0074 17.5082 23.2807C18.168 23.554 18.8941 23.6255 19.5946 23.4862C20.295 23.3468 20.9385 23.0029 21.4435 22.4979C21.9485 21.9929 22.2925 21.3494 22.4318 20.649C22.5711 19.9485 22.4996 19.2224 22.2263 18.5625C21.953 17.9027 21.4901 17.3387 20.8963 16.9419C20.3024 16.5451 19.6043 16.3333 18.8901 16.3333H18.8828ZM18.8828 1.8889C19.3114 1.8889 19.7303 2.01598 20.0866 2.25405C20.4429 2.49213 20.7206 2.83051 20.8846 3.22642C21.0486 3.62233 21.0915 4.05797 21.0079 4.47826C20.9243 4.89856 20.7179 5.28462 20.4149 5.58763C20.1119 5.89065 19.7258 6.097 19.3055 6.1806C18.8852 6.26421 18.4496 6.2213 18.0537 6.05731C17.6578 5.89332 17.3194 5.61561 17.0813 5.2593C16.8433 4.903 16.7162 4.4841 16.7162 4.05557C16.7162 3.48093 16.9445 2.92983 17.3508 2.5235C17.7571 2.11718 18.3082 1.8889 18.8828 1.8889ZM4.05562 14.1667C3.6271 14.1667 3.20819 14.0396 2.85189 13.8015C2.49558 13.5635 2.21787 13.2251 2.05388 12.8292C1.88989 12.4333 1.84699 11.9976 1.93059 11.5773C2.01419 11.157 2.22054 10.771 2.52356 10.4679C2.82657 10.1649 3.21263 9.95858 3.63293 9.87498C4.05322 9.79138 4.48886 9.83428 4.88477 9.99827C5.28068 10.1623 5.61906 10.44 5.85714 10.7963C6.09522 11.1526 6.22229 11.5715 6.22229 12C6.22229 12.5746 5.99402 13.1258 5.58769 13.5321C5.18136 13.9384 4.63026 14.1667 4.05562 14.1667ZM18.8828 22.1111C18.4543 22.1111 18.0354 21.9841 17.6791 21.746C17.3228 21.5079 17.0451 21.1695 16.8811 20.7736C16.7171 20.3777 16.6742 19.9421 16.7578 19.5218C16.8414 19.1015 17.0478 18.7154 17.3508 18.4124C17.6538 18.1094 18.0399 17.903 18.4601 17.8194C18.8804 17.7358 19.3161 17.7787 19.712 17.9427C20.1079 18.1067 20.4463 18.3844 20.6844 18.7407C20.9224 19.097 21.0495 19.5159 21.0495 19.9445C21.0495 20.5191 20.8212 21.0702 20.4149 21.4765C20.0086 21.8829 19.4575 22.1111 18.8828 22.1111Z" fill="black"/>
</svg>
