<svg xmlns="http://www.w3.org/2000/svg" xmlns:xlink="http://www.w3.org/1999/xlink" viewBox="0 0 197.58 197.65"><defs><style>.cls-1{fill:none;}.cls-2{clip-path:url(#clip-path);}.cls-3{fill:#ffc400;}.cls-4{fill:#fff;}.cls-5{opacity:0.5;}.cls-6{fill:url(#무제_그라디언트_667);}.cls-7{fill:url(#무제_그라디언트_667-2);}.cls-8{fill:url(#무제_그라디언트_667-3);}.cls-9{fill:url(#무제_그라디언트_667-4);}.cls-10{fill:url(#무제_그라디언트_667-5);}.cls-11{fill:url(#무제_그라디언트_667-6);}.cls-12{fill:url(#무제_그라디언트_667-7);}.cls-13{fill:url(#무제_그라디언트_667-8);}.cls-14{fill:url(#무제_그라디언트_667-9);}.cls-15{fill:url(#무제_그라디언트_667-10);}.cls-16{fill:url(#무제_그라디언트_667-11);}.cls-17{fill:url(#무제_그라디언트_667-12);}.cls-18{fill:url(#무제_그라디언트_667-13);}.cls-19{fill:url(#무제_그라디언트_667-14);}.cls-20{fill:url(#무제_그라디언트_667-15);}.cls-21{fill:url(#무제_그라디언트_707);}.cls-22{fill:#231815;}.cls-23{fill:#727272;}.cls-24{fill:#e2e1e1;}</style><clipPath id="clip-path"><path class="cls-1" d="M98.89,197.79A98.89,98.89,0,0,1,29,29,98.89,98.89,0,1,1,168.82,168.82,98.24,98.24,0,0,1,98.89,197.79Z"/></clipPath><linearGradient id="무제_그라디언트_667" x1="176.79" y1="20.72" x2="157.87" y2="105.04" gradientTransform="translate(-76.18 -0.09) rotate(-4.44)" gradientUnits="userSpaceOnUse"><stop offset="0" stop-color="#ffffce" stop-opacity="0"/><stop offset="1" stop-color="#fffff6"/></linearGradient><linearGradient id="무제_그라디언트_667-2" x1="-1100.71" y1="1825.07" x2="-1119.63" y2="1909.38" gradientTransform="translate(1786.87 -1335.8) rotate(19.55)" xlink:href="#무제_그라디언트_667"/><linearGradient id="무제_그라디언트_667-3" x1="-1534.34" y1="3992.93" x2="-1553.27" y2="4077.25" gradientTransform="translate(4032.03 -1798.74) rotate(43.53)" xlink:href="#무제_그라디언트_667"/><linearGradient id="무제_그라디언트_667-4" x1="-1049.21" y1="6149.85" x2="-1068.14" y2="6234.17" gradientTransform="translate(6271.49 -1308.96) rotate(67.52)" xlink:href="#무제_그라디언트_667"/><linearGradient id="무제_그라디언트_667-5" x1="270.89" y1="7923.27" x2="251.97" y2="8007.58" gradientTransform="translate(8118.43 48.94) rotate(91.51)" xlink:href="#무제_그라디언트_667"/><linearGradient id="무제_그라디언트_667-6" x1="2197.94" y1="9006.85" x2="2179.02" y2="9091.17" gradientTransform="matrix(-0.43, 0.9, -0.9, -0.43, 9253.81, 2040.41)" xlink:href="#무제_그라디언트_667"/><linearGradient id="무제_그라디언트_667-7" x1="4399.08" y1="9213.43" x2="4380.15" y2="9297.75" gradientTransform="translate(9481.53 4321.46) rotate(139.48)" xlink:href="#무제_그라디언트_667"/><linearGradient id="무제_그라디언트_667-8" x1="6494.09" y1="8507.33" x2="6475.17" y2="8591.64" gradientTransform="translate(8762.25 6498.09) rotate(163.47)" xlink:href="#무제_그라디언트_667"/><linearGradient id="무제_그라디언트_667-9" x1="8121.11" y1="7010.5" x2="8102.19" y2="7094.82" gradientTransform="translate(7220.21 8194.31) rotate(-172.54)" xlink:href="#무제_그라디언트_667"/><linearGradient id="무제_그라디언트_667-10" x1="8999.1" y1="4981.51" x2="8980.18" y2="5065.83" gradientTransform="translate(5121.78 9117.15) rotate(-148.55)" xlink:href="#무제_그라디언트_667"/><linearGradient id="무제_그라디언트_667-11" x1="8976.4" y1="2770.82" x2="8957.48" y2="2855.14" gradientTransform="matrix(-0.57, -0.82, 0.82, -0.57, 2829.41, 9107.19)" xlink:href="#무제_그라디언트_667"/><linearGradient id="무제_그라디언트_667-12" x1="8056.94" y1="760.29" x2="8038.01" y2="844.61" gradientTransform="matrix(-0.18, -0.98, 0.98, -0.18, 739.07, 8166.16)" xlink:href="#무제_그라디언트_667"/><linearGradient id="무제_그라디언트_667-13" x1="6399.52" y1="-702.81" x2="6380.6" y2="-618.49" gradientTransform="matrix(0.23, -0.97, 0.97, 0.23, -788.17, 6456.6)" xlink:href="#무제_그라디언트_667"/><linearGradient id="무제_그라디언트_667-14" x1="4290.45" y1="-1365.75" x2="4271.52" y2="-1281.43" gradientTransform="matrix(0.61, -0.79, 0.79, 0.61, -1488.51, 4273.8)" xlink:href="#무제_그라디언트_667"/><linearGradient id="무제_그라디언트_667-15" x1="2094.02" y1="-1114.01" x2="2075.09" y2="-1029.69" gradientTransform="translate(-1240.98 1994.82) rotate(-28.62)" xlink:href="#무제_그라디언트_667"/><linearGradient id="무제_그라디언트_707" x1="85.35" y1="159.3" x2="116.58" y2="159.3" gradientUnits="userSpaceOnUse"><stop offset="0" stop-color="#fff"/><stop offset="1" stop-color="#fff"/></linearGradient></defs><title>badge</title><g id="레이어_3" data-name="레이어 3"><g class="cls-2"><path class="cls-3" d="M98.89,197.79A98.89,98.89,0,0,1,29,29,98.89,98.89,0,1,1,168.82,168.82,98.24,98.24,0,0,1,98.89,197.79Z"/><path class="cls-4" d="M98.77,184.46a83,83,0,0,1-82.95-82.95h.35a82.6,82.6,0,0,0,141,58.41,82.07,82.07,0,0,0,24.19-58.41h.35a82.95,82.95,0,0,1-82.94,83Z"/><rect class="cls-3" x="9.76" y="81.21" width="181.16" height="34.36"/><path class="cls-4" d="M20,99.13l-5.46,3.79,0-3.25,2.87-1.93L14.61,95.8l0-3.25,5.42,3.86,5,0v2.72Z"/><path class="cls-4" d="M19.91,91.34a5.61,5.61,0,0,1-2.07-.77,5.37,5.37,0,0,1-2.42-3.45,6.77,6.77,0,0,1,.74-4.61,5.72,5.72,0,0,1,1.45-1.63A5.44,5.44,0,0,1,19.54,80a5.64,5.64,0,0,1,2.21-.08,5.43,5.43,0,0,1,2.08.77,5.37,5.37,0,0,1,1.54,1.46,5.69,5.69,0,0,1,.87,2,6.62,6.62,0,0,1-.74,4.61,5.37,5.37,0,0,1-3.37,2.52A5.69,5.69,0,0,1,19.91,91.34Zm.46-2.81a2.86,2.86,0,0,0,1.17,0,3.06,3.06,0,0,0,1-.49,3,3,0,0,0,.74-.83,2.92,2.92,0,0,0,.39-1.08,3,3,0,0,0,0-1.15,3.08,3.08,0,0,0-.45-1,2.83,2.83,0,0,0-.8-.78,2.87,2.87,0,0,0-1.1-.42,2.92,2.92,0,0,0-1.18,0,2.92,2.92,0,0,0-1.75,1.33A2.92,2.92,0,0,0,18,85.16a3.22,3.22,0,0,0,0,1.16,3.12,3.12,0,0,0,.45,1,3,3,0,0,0,.81.77A2.81,2.81,0,0,0,20.37,88.53Z"/><path class="cls-4" d="M18.57,72.5,24,74.35q.43.15.9.27a2.51,2.51,0,0,0,.89.08,1.41,1.41,0,0,0,.77-.31,2,2,0,0,0,.58-.92,2,2,0,0,0,.11-1.07,1.47,1.47,0,0,0-.43-.72,2.38,2.38,0,0,0-.75-.49c-.29-.12-.58-.24-.87-.34L19.76,69l.88-2.56,5.74,2a4.88,4.88,0,0,1,3,2.22,4.6,4.6,0,0,1-.05,3.61,4.64,4.64,0,0,1-2.18,2.89A4.83,4.83,0,0,1,23.43,77l-5.74-2Z"/><path class="cls-4" d="M30.4,52.91l-1.7,2.81,1.5.9,1.54-2.56,2,1.19-1.55,2.56,3.52,2.12-1.4,2.33-9-5.4,3.1-5.14Z"/><path class="cls-4" d="M34.25,52.2a5.59,5.59,0,0,1-1.4-1.72,5.37,5.37,0,0,1-.33-4.19,6.25,6.25,0,0,1,1.16-2.08,6.5,6.5,0,0,1,1.82-1.52A5.53,5.53,0,0,1,37.57,42a5.27,5.27,0,0,1,2.12.19,5.62,5.62,0,0,1,2,1,5.38,5.38,0,0,1,1.72,5.93,6.15,6.15,0,0,1-1.16,2.06,6.26,6.26,0,0,1-1.82,1.54,5.58,5.58,0,0,1-2.06.66,5.46,5.46,0,0,1-2.12-.2A5.62,5.62,0,0,1,34.25,52.2ZM36.07,50a2.78,2.78,0,0,0,1,.56,3,3,0,0,0,1.11.09,2.93,2.93,0,0,0,1.06-.34,3,3,0,0,0,.89-.74,2.89,2.89,0,0,0,.55-1,3.06,3.06,0,0,0,.14-1.12,2.82,2.82,0,0,0-.3-1.08,2.75,2.75,0,0,0-.73-.91,2.86,2.86,0,0,0-1-.56,2.82,2.82,0,0,0-1.12-.08,2.92,2.92,0,0,0-2,1.08,2.87,2.87,0,0,0-.56,1A2.94,2.94,0,0,0,35,48a3,3,0,0,0,.3,1.08A2.78,2.78,0,0,0,36.07,50Z"/><path class="cls-4" d="M42.65,35.29l3.69,4.33c.2.23.42.46.64.69a2.68,2.68,0,0,0,.72.52,1.46,1.46,0,0,0,.83.12,1.94,1.94,0,0,0,1-.5,1.9,1.9,0,0,0,.64-.86,1.6,1.6,0,0,0,0-.84,2.65,2.65,0,0,0-.41-.8c-.19-.26-.38-.5-.58-.73l-3.7-4.33,2.06-1.76,3.94,4.61a4.9,4.9,0,0,1,1.47,3.44A4.67,4.67,0,0,1,51,42.27a4.71,4.71,0,0,1-3.35,1.38,4.87,4.87,0,0,1-3.17-2l-3.94-4.61Z"/><path class="cls-4" d="M56.59,37.38l-5.36-9L53.56,27l7.6,2.92-3.28-5.49L60.2,23l5.37,9-2.33,1.38L55.65,30.5,58.93,36Z"/><path class="cls-4" d="M64.34,21.1l3.75-1.47a4.87,4.87,0,0,1,2-.32,5.38,5.38,0,0,1,3.58,1.62,5.14,5.14,0,0,1,1.09,1.71,5,5,0,0,1,.35,2,5.21,5.21,0,0,1-.41,2,5.54,5.54,0,0,1-1.11,1.67,4.77,4.77,0,0,1-1.73,1.13l-3.75,1.46Zm5.49,6.61.58-.22a3.24,3.24,0,0,0,1.1-.67,2.59,2.59,0,0,0,.65-.91,2.72,2.72,0,0,0,.21-1.07,3.05,3.05,0,0,0-.24-1.16,3.26,3.26,0,0,0-.61-1,2.64,2.64,0,0,0-2-.88,3.34,3.34,0,0,0-1.24.25l-.58.23Z"/><path class="cls-4" d="M86.2,20.25l-4.56-4.84L84.85,15l2.34,2.55,1.5-3.1,3.21-.47-3,5.93.72,5-2.69.39Z"/><path class="cls-4" d="M93.88,19a5.41,5.41,0,0,1,.46-2.17,5.34,5.34,0,0,1,3-2.89,6.7,6.7,0,0,1,4.67,0,5.45,5.45,0,0,1,1.82,1.2,5.26,5.26,0,0,1,1.19,1.77,5.41,5.41,0,0,1,.4,2.17,5.58,5.58,0,0,1-.45,2.17A5.22,5.22,0,0,1,103.8,23,5.58,5.58,0,0,1,102,24.17a6.61,6.61,0,0,1-2.34.4,6.24,6.24,0,0,1-2.33-.45,5.31,5.31,0,0,1-3-3A5.46,5.46,0,0,1,93.88,19Zm2.85,0A2.71,2.71,0,0,0,97,20.16a2.89,2.89,0,0,0,.63.93,3,3,0,0,0,2.06.84,3.24,3.24,0,0,0,1.13-.2,3,3,0,0,0,1-.6,2.84,2.84,0,0,0,.66-.91,2.89,2.89,0,0,0,.25-1.15,2.75,2.75,0,0,0-.23-1.15,2.84,2.84,0,0,0-.63-.93,3,3,0,0,0-.94-.61,3,3,0,0,0-2.26,0A2.79,2.79,0,0,0,97,17.86,2.58,2.58,0,0,0,96.73,19Z"/><path class="cls-4" d="M112.3,14.86l-1,5.6c0,.3-.1.61-.13.93a2.38,2.38,0,0,0,0,.89,1.44,1.44,0,0,0,.42.72,2,2,0,0,0,1,.43,2,2,0,0,0,1.07-.05,1.52,1.52,0,0,0,.65-.52,2.45,2.45,0,0,0,.37-.82c.08-.31.15-.61.21-.91l1-5.6,2.67.49-1.1,6a4.86,4.86,0,0,1-1.74,3.31,4.63,4.63,0,0,1-3.58.49A4.69,4.69,0,0,1,109,24.05a4.9,4.9,0,0,1-.46-3.71l1.09-6Z"/><path class="cls-4" d="M127.69,29.94l-3.2-1.11-1.14-4.65L122,28l-2.57-.88,3.42-9.9,4,1.39a4.1,4.1,0,0,1,1.36.74,3,3,0,0,1,.79,1,2.82,2.82,0,0,1,.26,1.18,3.41,3.41,0,0,1-.2,1.25,3.07,3.07,0,0,1-1.18,1.65,2.89,2.89,0,0,1-1.93.39Zm-3.76-7.43.49.17a1.91,1.91,0,0,0,1.27.09,1.28,1.28,0,0,0,.63-1.81,2,2,0,0,0-1.06-.72l-.49-.17Z"/><path class="cls-4" d="M143.67,29.31l-2.81-1.67-.9,1.5,2.57,1.53-1.18,2-2.56-1.53-2.1,3.54-2.34-1.39,5.34-9,5.16,3.06Z"/><path class="cls-4" d="M147.29,39.9l-3-2.41-1.62,1-2.27-1.8L150,31l2.33,1.84-3.35,10.69-2.28-1.8Zm.72-2.08,1.2-3.49-3.12,2Z"/><path class="cls-4" d="M158.55,38.46l-2.91,6.2L162,42.15l2,2.15-10.65,4-1.49-1.58,4.62-10.38Z"/><path class="cls-4" d="M161.3,49.19a5.48,5.48,0,0,1,2-.85,5.27,5.27,0,0,1,2.13,0,5.45,5.45,0,0,1,2,.86,6.64,6.64,0,0,1,2.6,3.88,5.41,5.41,0,0,1-.73,4.15,5.46,5.46,0,0,1-1.57,1.57,5.53,5.53,0,0,1-2,.86,5.65,5.65,0,0,1-2.13,0,5.47,5.47,0,0,1-2-.88,6.33,6.33,0,0,1-1.65-1.69A6.41,6.41,0,0,1,159,54.9a5.49,5.49,0,0,1-.05-2.17,5.36,5.36,0,0,1,.8-2A5.19,5.19,0,0,1,161.3,49.19Zm1.59,2.36a2.77,2.77,0,0,0-.83.84,2.88,2.88,0,0,0-.4,1,2.77,2.77,0,0,0,0,1.11,3,3,0,0,0,.45,1.06A3,3,0,0,0,164,56.87a2.81,2.81,0,0,0,1.12,0A2.92,2.92,0,0,0,167,55.61a2.86,2.86,0,0,0,.4-1,3.25,3.25,0,0,0,0-1.12,3.11,3.11,0,0,0-.46-1.06,3,3,0,0,0-.81-.82,2.9,2.9,0,0,0-1-.44,3,3,0,0,0-1.12,0A2.83,2.83,0,0,0,162.89,51.55Z"/><path class="cls-4" d="M168.07,71.76l-1.42-3.08,2.58-4-3.66,1.68-1.14-2.47,9.51-4.38,1.77,3.85a4.1,4.1,0,0,1,.4,1.5,2.93,2.93,0,0,1-.18,1.27,3.07,3.07,0,0,1-.67,1,3.49,3.49,0,0,1-1,.71,3,3,0,0,1-2,.29A2.92,2.92,0,0,1,170.59,67Zm2.76-7.86.21.47a2,2,0,0,0,.82,1,1.12,1.12,0,0,0,1,0,1.13,1.13,0,0,0,.69-.79,2,2,0,0,0-.21-1.26l-.22-.47Z"/><path class="cls-4" d="M179.39,72.9l-9.94,3.3-.85-2.58,9.93-3.3Z"/><path class="cls-4" d="M179.15,81.08l-8,1.83-.61-2.65,7.95-1.83-.5-2.18,2.25-.51,1.61,7-2.25.52Z"/><path class="cls-4" d="M180.76,92.07l-.36-3.22-1.74.2.34,3-2.29.26-.34-3-1.79.2.36,3.22-2.29.25L172,87.05l10.4-1.16.66,5.92Z"/><path class="cls-4" d="M180.51,101.48a3.32,3.32,0,0,0,.54-.88,2.47,2.47,0,0,0,.19-.85,1.47,1.47,0,0,0-.24-.87.79.79,0,0,0-.65-.34.66.66,0,0,0-.46.16,1.46,1.46,0,0,0-.32.43,3.1,3.1,0,0,0-.23.61c-.07.23-.14.45-.22.67a4.23,4.23,0,0,1-1.21,1.94,3,3,0,0,1-1.95.59,3.9,3.9,0,0,1-1.45-.29,3.1,3.1,0,0,1-1.11-.81,3.67,3.67,0,0,1-.7-1.28,5.15,5.15,0,0,1-.24-1.72,6.37,6.37,0,0,1,1.23-3.67l2.18,1.2a4.5,4.5,0,0,0-.82,1.2,2.82,2.82,0,0,0-.28,1.17,1.39,1.39,0,0,0,.29,1,1,1,0,0,0,.69.34,1,1,0,0,0,.41-.08.92.92,0,0,0,.32-.28,2.07,2.07,0,0,0,.28-.5c.09-.21.18-.46.29-.75s.24-.7.38-1a3.15,3.15,0,0,1,.55-.9,2.3,2.3,0,0,1,.84-.62,2.89,2.89,0,0,1,1.29-.23,3.73,3.73,0,0,1,1.41.28,3.09,3.09,0,0,1,1.07.73,3.39,3.39,0,0,1,.69,1.15,4.48,4.48,0,0,1,.23,1.51,6.76,6.76,0,0,1-.24,1.62,7.52,7.52,0,0,1-.65,1.62Z"/><g class="cls-5"><path class="cls-6" d="M99.23,99.17,91.63,1.35s8-6.26,19.54,1.3Z"/><path class="cls-7" d="M99.23,99.17,132.06,6.71s9.83-2.48,17.31,9.13Z"/><path class="cls-8" d="M99.23,99.17,166.81,28s10,1.73,12.11,15.38Z"/><path class="cls-9" d="M99.23,99.17l90.66-37.52s8.42,5.65,4.81,19Z"/><path class="cls-10" d="M99.23,99.17l98.08,2.58s5.4,8.58-3.32,19.29Z"/><path class="cls-11" d="M99.23,99.17l88.56,42.23s1.45,10-10.88,16.28Z"/><path class="cls-12" d="M99.23,99.17,163,173.76s-2.76,9.75-16.55,10.44Z"/><path class="cls-13" d="M99.23,99.17l27.92,94.06S120.66,201,107.77,196Z"/><path class="cls-14" d="M99.23,99.17,86.5,196.45s-9.1,4.48-18.85-5.3Z"/><path class="cls-15" d="M99.23,99.17l-51.18,83.7s-10.13.4-15.06-12.5Z"/><path class="cls-16" d="M99.23,99.17,18.44,154.83S9,151.08,9.76,137.29Z"/><path class="cls-17" d="M99.23,99.17l-96.44,18s-7.08-7.26-.8-19.56Z"/><path class="cls-18" d="M99.23,99.17,3.79,76.42S.28,66.91,11,58.22Z"/><path class="cls-19" d="M99.23,99.17,21.28,39.58s.66-10.12,14-13.68Z"/><path class="cls-20" d="M99.23,99.17,52.24,13s4.71-9,18.35-6.81Z"/></g><circle class="cls-21" cx="100.96" cy="159.3" r="15.62"/><path d="M101,175.43A16.14,16.14,0,1,1,117.1,159.3,16.16,16.16,0,0,1,101,175.43Zm0-31.23a15.1,15.1,0,1,0,15.1,15.1A15.11,15.11,0,0,0,101,144.2Z"/><path class="cls-22" d="M100.84,155.84H96.53l-.22,1.37.55-.06a4.12,4.12,0,0,1,.51,0,4.58,4.58,0,0,1,1.75.33,4,4,0,0,1,2.29,2.3,4.63,4.63,0,0,1,.33,1.76,4.26,4.26,0,0,1-.37,1.82,3.85,3.85,0,0,1-1.05,1.38,4.63,4.63,0,0,1-1.65.87,7,7,0,0,1-2.16.31,8.31,8.31,0,0,1-2.14-.27,6.72,6.72,0,0,1-1.9-.84l.47-3a7.05,7.05,0,0,0,1.69,1.08,4.25,4.25,0,0,0,1.63.37,2.2,2.2,0,0,0,1.57-.54,1.73,1.73,0,0,0,.58-1.33,1.77,1.77,0,0,0-.78-1.49,3.32,3.32,0,0,0-2-.57,5.76,5.76,0,0,0-1.15.12,6.52,6.52,0,0,0-1.18.39l1-6.68h6.53Z"/><path class="cls-22" d="M102.35,158.26h3.37v-3.37h2.12v3.37h3.35v2.12h-3.35v3.36h-2.12v-3.36h-3.37Z"/><path class="cls-4" d="M97,94.23c.48,21.17-10.42,38.58-24.35,38.9-12.92.29-23.91-14.23-25.82-33.22-.15-1.49-.24-3-.28-4.53C46,74.22,56.94,56.8,70.87,56.49S96.48,73.07,97,94.23Z"/><path d="M72.23,133.65c-12.89,0-24-14.38-25.95-33.69-.15-1.5-.24-3-.28-4.57-.23-10.33,2.2-20.12,6.85-27.55S63.94,56.12,70.86,56s13.5,3.76,18.53,11,7.86,16.88,8.1,27.21-2.2,20.12-6.85,27.55-11.09,11.72-18,11.88ZM71.26,57h-.38c-6.55.15-12.64,4.19-17.14,11.38s-6.93,16.84-6.7,27c0,1.5.13,3,.28,4.48,1.9,19,12.78,33.05,25.28,32.76,6.56-.15,12.65-4.2,17.15-11.39s6.93-16.84,6.69-27-3-19.6-7.91-26.65C83.8,60.75,77.68,57,71.26,57Z"/><path d="M47.83,94.94s3-9.14,10.47-12.9a17.45,17.45,0,0,1,12.58-.85c4.69,1.38,9.25,5.61,11.7,12.7,1.29,3.75,2.53,9.23-1,20-2.48,7.66-7,10.62-8.59,11.52A21.4,21.4,0,0,1,62.18,128c-1.88-.12-1.93-.1-1.93-.1s1.3,1.38-3.52-3.39S48.27,109,48,106.32A40.3,40.3,0,0,1,47.83,94.94Z"/><path d="M60.44,128.58c-.24,0-.52-.27-1.08-.81l-3-2.94c-4.93-4.88-8.61-15.74-8.93-18.45a40.46,40.46,0,0,1-.11-11.52l0-.08c.12-.38,3.13-9.39,10.73-13.2A17.82,17.82,0,0,1,71,80.69c5.34,1.57,9.73,6.32,12,13,.94,2.73,2.9,8.41-1,20.38-2.36,7.31-6.54,10.54-8.83,11.82a21.85,21.85,0,0,1-11.13,2.55l-1.35-.08,0,0A.5.5,0,0,1,60.44,128.58Zm0-1.25c.26,0,.77,0,1.81.1A21.09,21.09,0,0,0,72.76,125c2.16-1.2,6.1-4.26,8.35-11.23,3.32-10.26,2.36-15.72,1-19.72-2.21-6.38-6.35-10.89-11.36-12.37a16.84,16.84,0,0,0-12.21.83c-6.94,3.48-10,11.9-10.18,12.54a40,40,0,0,0,.12,11.17c.31,2.57,3.95,13.23,8.64,17.86C59.1,126.07,60,127,60.4,127.33Z"/><circle class="cls-4" cx="69.86" cy="92.5" r="4.17"/><path d="M69.86,97.19a4.86,4.86,0,0,1-1-.11,4.69,4.69,0,1,1,5.58-3.58h0A4.7,4.7,0,0,1,69.86,97.19Zm0-8.34a3.63,3.63,0,1,0,.78.08A4.13,4.13,0,0,0,69.86,88.85Z"/><path class="cls-4" d="M152.67,94c.48,21.17-10.42,38.58-24.35,38.9-12.92.29-23.91-14.23-25.81-33.22-.15-1.49-.25-3-.28-4.53-.48-21.16,10.42-38.58,24.35-38.89S152.19,72.81,152.67,94Z"/><path d="M127.94,133.39c-12.9,0-24-14.39-25.95-33.69-.15-1.5-.25-3-.28-4.57-.49-21.41,10.66-39.1,24.86-39.42H127c14,0,25.75,17,26.23,38.26.24,10.34-2.2,20.12-6.85,27.55s-11.09,11.72-18,11.88Zm-1-76.65h-.37c-13.62.31-24.31,17.52-23.84,38.36,0,1.5.13,3,.27,4.48,1.89,18.77,12.56,32.76,24.92,32.76h.37c6.56-.15,12.65-4.2,17.15-11.39s6.92-16.84,6.69-27C151.68,73.33,140.42,56.74,127,56.74Z"/><path d="M103.57,95.11s2.09-9.56,9.59-13.32a17.35,17.35,0,0,1,14.16-.36c4.28,1.77,8.54,5.55,11,12.64,1.3,3.75,2.53,9.22-1,20.05-2.48,7.66-7,10.61-8.6,11.52a21.41,21.41,0,0,1-10.84,2.48C116,128,116,128,116,128s1.3,1.39-3.51-3.38-8.47-15.47-8.78-18.14A40,40,0,0,1,103.57,95.11Z"/><path d="M116.17,128.76c-.24,0-.52-.27-1.07-.81s-1.63-1.58-3-2.94c-4.93-4.89-8.61-15.74-8.93-18.45A40.29,40.29,0,0,1,103.05,95v0c.09-.4,2.24-9.85,9.86-13.67a17.73,17.73,0,0,1,14.6-.38c3.62,1.5,8.53,5,11.29,13,.94,2.73,2.9,8.4-1,20.38-2.36,7.31-6.55,10.54-8.83,11.81a21.66,21.66,0,0,1-11.13,2.55l-1.35-.08,0,0A.5.5,0,0,1,116.17,128.76Zm0-1.26,1.81.1a20.9,20.9,0,0,0,10.55-2.42c2.16-1.2,6.11-4.25,8.36-11.22,3.32-10.26,2.35-15.73,1-19.72-2.63-7.62-7.27-10.91-10.7-12.33a16.68,16.68,0,0,0-13.75.36c-7,3.52-9.19,12.51-9.29,12.94a39.82,39.82,0,0,0,.12,11.2c.3,2.56,4,13.22,8.63,17.86C114.83,126.25,115.73,127.12,116.13,127.5Z"/><circle class="cls-4" cx="125.56" cy="92.24" r="4.17"/><path d="M125.57,96.92a4.4,4.4,0,0,1-1-.11,4.68,4.68,0,1,1,2-9.15,4.68,4.68,0,0,1,3.57,5.58h0a4.69,4.69,0,0,1-4.57,3.68Zm0-8.33A3.65,3.65,0,1,0,129.13,93h0a3.67,3.67,0,0,0-2.79-4.35A4.13,4.13,0,0,0,125.56,88.59Z"/><polygon class="cls-23" points="43.19 113.15 44.39 113.33 44.63 116.34 48.16 116.66 48.51 120.3 51.92 120.59 52.07 123.96 55.75 124.11 56.22 127.31 74.93 128.32 75.01 125.25 78.11 125.14 78.14 121.58 81.28 121.47 82.13 115.77 88.29 115.7 89.22 121.97 92.6 122.15 92.98 126.12 96.38 126.21 96.63 129.7 119.84 130.84 120.03 127.56 123.55 127.37 123.57 123.88 127.24 123.66 127.14 119.72 130.9 119.68 130.88 116.35 132.47 116.23 153.48 95.39 153.2 90.96 131.7 111.7 43.21 109.86 43.21 110 43.21 110.14 43.19 113.15"/><path d="M120.33,131.39l-24.19-1.2-.25-3.47-3.38-.09-.38-4-3.36-.17-.93-6.24-5.26.06L81.73,122l-3.07.1,0,3.56-3.1.11-.08,3.12L55.76,127.8l-.46-3.18-3.73-.16-.15-3.39L48,120.78l-.35-3.64-3.54-.32-.23-3-1.24-.18,0-4.27,88.81,1.85L153.64,89.8l.38,5.79L132.7,116.74l-1.3.1,0,3.36-3.75,0,.1,3.91-3.68.22,0,3.5-3.54.18ZM97.11,129.2l22.24,1.1.19-3.24,3.49-.18,0-3.49,3.64-.22-.1-4,3.77,0,0-3.3,1.89-.14L153,95.19l-.2-3.08-20.84,20.12h-.22l-88-1.84v2.31l1.16.18.23,3,3.53.32.35,3.63,3.43.3.15,3.35,3.64.15.46,3.2,17.76,1,.07-3,3.09-.11,0-3.56,3.2-.11.85-5.7,7.06-.09.93,6.3,3.41.18.38,4,3.4.09Z"/><rect class="cls-24" x="50.25" y="112.78" width="3.41" height="4.27" transform="translate(-6.85 3.35) rotate(-3.47)"/><path d="M49.89,117.7l-.32-5.3,4.44-.27.32,5.3Zm.78-4.33.2,3.23,2.36-.14L53,113.23Z"/><rect class="cls-24" x="54.15" y="117.35" width="3.23" height="3.83" transform="translate(-7.11 3.59) rotate(-3.47)"/><path d="M53.78,121.83l-.3-4.86,4.26-.26.3,4.86Zm.81-3.89.17,2.79,2.18-.14-.17-2.78Z"/><rect class="cls-24" x="57.91" y="121.53" width="3.06" height="3.75" transform="translate(-7.35 3.82) rotate(-3.47)"/><path d="M57.54,125.92l-.29-4.78,4.1-.25.29,4.78Zm.81-3.8.17,2.7,2-.12L60.37,122Z"/><rect class="cls-24" x="92.01" y="115.32" width="3.78" height="4.14" transform="matrix(1, -0.05, 0.05, 1, -5.37, 4.5)"/><path d="M91.61,120.09l-.24-5.18,4.82-.22.24,5.18Zm.85-4.19.14,3.1,2.74-.13-.15-3.09Z"/><rect class="cls-24" x="96.27" y="119.64" width="3.51" height="3.93" transform="translate(-5.56 4.7) rotate(-2.67)"/><path d="M95.86,124.19l-.23-5,4.55-.21.23,5Zm.86-4,.13,2.89,2.47-.11-.14-2.89Z"/><rect class="cls-24" x="100.48" y="123.96" width="3.51" height="3.93" transform="translate(-5.75 4.9) rotate(-2.67)"/><path d="M100.08,128.52l-.23-5,4.54-.21.23,5Zm.85-4,.14,2.89,2.46-.12-.13-2.88Z"/><polyline class="cls-23" points="43.6 109.72 47.1 105.23 48.28 110.04"/><polygon points="47.77 110.16 46.85 106.4 44.01 110.04 43.19 109.4 47.35 104.06 48.78 109.91 47.77 110.16"/></g></g></svg>