<svg width="24" height="24" viewBox="0 0 24 24" fill="none" xmlns="http://www.w3.org/2000/svg">
<path d="M12.0024 7.75C11.2068 7.75 10.4437 8.06607 9.88112 8.62868C9.31851 9.19129 9.00244 9.95435 9.00244 10.75C9.00244 11.5456 9.31851 12.3087 9.88112 12.8713C10.4437 13.4339 11.2068 13.75 12.0024 13.75C12.7981 13.75 13.5612 13.4339 14.1238 12.8713C14.6864 12.3087 15.0024 11.5456 15.0024 10.75C15.0024 9.95435 14.6864 9.19129 14.1238 8.62868C13.5612 8.06607 12.7981 7.75 12.0024 7.75ZM10.2524 10.75C10.2524 10.2859 10.4368 9.84075 10.765 9.51256C11.0932 9.18437 11.5383 9 12.0024 9C12.4666 9 12.9117 9.18437 13.2399 9.51256C13.5681 9.84075 13.7524 10.2859 13.7524 10.75C13.7524 11.2141 13.5681 11.6592 13.2399 11.9874C12.9117 12.3156 12.4666 12.5 12.0024 12.5C11.5383 12.5 11.0932 12.3156 10.765 11.9874C10.4368 11.6592 10.2524 11.2141 10.2524 10.75Z" fill="#ACACAC"/>
<path d="M18.5 16L13.456 21.355C13.269 21.5536 13.0434 21.7118 12.793 21.8199C12.5426 21.9281 12.2728 21.9838 12 21.9838C11.7273 21.9838 11.4574 21.9281 11.207 21.8199C10.9566 21.7118 10.731 21.5536 10.544 21.355L5.50001 16H5.51901L5.51051 15.99L5.50001 15.9775C4.20536 14.4463 3.49657 12.5051 3.50001 10.5C3.50001 5.8055 7.30551 2 12 2C16.6945 2 20.5 5.8055 20.5 10.5C20.5035 12.5051 19.7947 14.4463 18.5 15.9775L18.4895 15.99L18.481 16H18.5ZM17.5285 15.1905C18.6426 13.8819 19.253 12.2186 19.25 10.5C19.25 6.496 16.004 3.25 12 3.25C7.99601 3.25 4.75001 6.496 4.75001 10.5C4.75001 12.29 5.39701 13.926 6.47151 15.1905L6.62551 15.372L11.454 20.4975C11.5241 20.572 11.6087 20.6313 11.7026 20.6718C11.7965 20.7124 11.8977 20.7333 12 20.7333C12.1023 20.7333 12.2035 20.7124 12.2974 20.6718C12.3913 20.6313 12.4759 20.572 12.546 20.4975L17.3745 15.372L17.5285 15.1905Z" fill="#ACACAC"/>
</svg>
