<svg width="22" height="21" viewBox="0 0 22 21" fill="none" xmlns="http://www.w3.org/2000/svg">
<path d="M21.3928 3.43255L14.7924 0.116841C14.6396 0.0400045 14.4711 0 14.3002 0C14.1293 0 13.9607 0.0400045 13.8079 0.116841L7.61458 3.22808L1.44767 1.16239C1.2823 1.10705 1.1062 1.09199 0.933896 1.11844C0.76159 1.14489 0.598007 1.21211 0.456627 1.31454C0.315247 1.41697 0.200118 1.55169 0.120728 1.7076C0.0413373 1.86351 -4.19444e-05 2.03614 3.19046e-08 2.21126V16.5804C3.19046e-08 16.9993 0.235412 17.3817 0.60833 17.5685L7.20866 20.8842C7.36149 20.9604 7.52978 21 7.70038 21C7.87098 21 8.03927 20.9604 8.19211 20.8842L14.3854 17.7741L20.5523 19.8398C20.7177 19.8954 20.8939 19.9106 21.0663 19.8843C21.2387 19.8579 21.4024 19.7907 21.5438 19.6883C21.6853 19.5858 21.8004 19.4509 21.8797 19.2949C21.9591 19.1389 22.0003 18.9661 22 18.7909V4.42063C22.0005 4.21544 21.9439 4.01419 21.8366 3.8396C21.7293 3.665 21.5756 3.52402 21.3928 3.43255V3.43255ZM8.80044 5.10477L13.2007 2.8943V15.8952L8.80044 18.1056V5.10477ZM2.20011 3.74422L6.60033 5.2175V18.1056L2.20011 15.8952V3.74422ZM19.801 17.2579L15.4008 15.7836V2.8943L19.801 5.10477V17.2579Z" fill="#333333"/>
</svg>
