<svg xmlns="http://www.w3.org/2000/svg" xmlns:xlink="http://www.w3.org/1999/xlink" viewBox="0 0 197.58 197.65"><defs><style>.cls-1{fill:none;}.cls-2{clip-path:url(#clip-path);}.cls-3{fill:#00ccae;}.cls-4{fill:#fff;}.cls-5{opacity:0.5;}.cls-6{fill:url(#무제_그라디언트_667);}.cls-7{fill:url(#무제_그라디언트_667-2);}.cls-8{fill:url(#무제_그라디언트_667-3);}.cls-9{fill:url(#무제_그라디언트_667-4);}.cls-10{fill:url(#무제_그라디언트_667-5);}.cls-11{fill:url(#무제_그라디언트_667-6);}.cls-12{fill:url(#무제_그라디언트_667-7);}.cls-13{fill:url(#무제_그라디언트_667-8);}.cls-14{fill:url(#무제_그라디언트_667-9);}.cls-15{fill:url(#무제_그라디언트_667-10);}.cls-16{fill:url(#무제_그라디언트_667-11);}.cls-17{fill:url(#무제_그라디언트_667-12);}.cls-18{fill:url(#무제_그라디언트_667-13);}.cls-19{fill:url(#무제_그라디언트_667-14);}.cls-20{fill:url(#무제_그라디언트_667-15);}.cls-21{fill:#f4c01a;}.cls-22{fill:#f1f1f1;}.cls-23{fill:#cbcbcb;}.cls-24{fill:url(#무제_그라디언트_707);}.cls-25{fill:#231815;}</style><clipPath id="clip-path"><path class="cls-1" d="M98.77,197.63A98.78,98.78,0,0,1,28.93,29,98.78,98.78,0,0,1,168.62,168.7,98.16,98.16,0,0,1,98.77,197.63Z"/></clipPath><linearGradient id="무제_그라디언트_667" x1="178.89" y1="-14.7" x2="159.99" y2="69.51" gradientTransform="translate(-74.8 35.46) rotate(-4.44)" gradientUnits="userSpaceOnUse"><stop offset="0" stop-color="#ffffce" stop-opacity="0"/><stop offset="1" stop-color="#fffff6"/></linearGradient><linearGradient id="무제_그라디언트_667-2" x1="-1073.59" y1="1978.5" x2="-1092.49" y2="2062.71" gradientTransform="translate(1813.33 -1489.4) rotate(19.55)" xlink:href="#무제_그라디언트_667"/><linearGradient id="무제_그라디언트_667-3" x1="-1407.58" y1="4308.73" x2="-1426.49" y2="4392.94" gradientTransform="translate(4158.3 -2114.96) rotate(43.53)" xlink:href="#무제_그라디언트_667"/><linearGradient id="무제_그라디언트_667-4" x1="-765.41" y1="6573.49" x2="-784.31" y2="6657.71" gradientTransform="translate(6555.06 -1733.18) rotate(67.52)" xlink:href="#무제_그라디언트_667"/><linearGradient id="무제_그라디언트_667-5" x1="742.01" y1="8381.59" x2="723.11" y2="8465.81" gradientTransform="translate(8589.62 -410.01) rotate(91.51)" xlink:href="#무제_그라디언트_667"/><linearGradient id="무제_그라디언트_667-6" x1="2854.31" y1="9420.71" x2="2835.4" y2="9504.93" gradientTransform="matrix(-0.43, 0.9, -0.9, -0.43, 9910.54, 1626.01)" xlink:href="#무제_그라디언트_667"/><linearGradient id="무제_그라디언트_667-7" x1="5206.61" y1="9511.36" x2="5187.71" y2="9595.58" gradientTransform="translate(10289.66 4023.2) rotate(139.48)" xlink:href="#무제_그라디언트_667"/><linearGradient id="무제_그라디언트_667-8" x1="7392.61" y1="8637.88" x2="7373.7" y2="8722.1" gradientTransform="translate(9661.49 6367.47) rotate(163.47)" xlink:href="#무제_그라디언트_667"/><linearGradient id="무제_그라디언트_667-9" x1="9034.71" y1="6951.16" x2="9015.8" y2="7035.37" gradientTransform="translate(8134.54 8253.91) rotate(-172.54)" xlink:href="#무제_그라디언트_667"/><linearGradient id="무제_그라디언트_667-10" x1="9849.27" y1="4742.53" x2="9830.37" y2="4826.74" gradientTransform="translate(5972.56 9356.66) rotate(-148.55)" xlink:href="#무제_그라디언트_667"/><linearGradient id="무제_그라디언트_667-11" x1="9695.59" y1="2393.5" x2="9676.69" y2="2477.72" gradientTransform="matrix(-0.57, -0.82, 0.82, -0.57, 3548.99, 9485.25)" xlink:href="#무제_그라디언트_667"/><linearGradient id="무제_그라디언트_667-12" x1="8600.22" y1="309.82" x2="8581.32" y2="394.04" gradientTransform="matrix(-0.18, -0.98, 0.98, -0.18, 1282.46, 8617.46)" xlink:href="#무제_그라디언트_667"/><linearGradient id="무제_그라디언트_667-13" x1="6752.36" y1="-1148.59" x2="6733.46" y2="-1064.37" gradientTransform="matrix(0.23, -0.97, 0.97, 0.23, -435.53, 6903.19)" xlink:href="#무제_그라디언트_667"/><linearGradient id="무제_그라디언트_667-14" x1="4471.2" y1="-1729.82" x2="4452.29" y2="-1645.6" gradientTransform="matrix(0.61, -0.79, 0.79, 0.61, -1308.23, 4638.55)" xlink:href="#무제_그라디언트_667"/><linearGradient id="무제_그라디언트_667-15" x1="2150.75" y1="-1333.47" x2="2131.85" y2="-1249.25" gradientTransform="translate(-1184.9 2214.71) rotate(-28.62)" xlink:href="#무제_그라디언트_667"/><linearGradient id="무제_그라디언트_707" x1="69.4" y1="162.3" x2="128.68" y2="162.3" gradientUnits="userSpaceOnUse"><stop offset="0" stop-color="#fff"/><stop offset="1" stop-color="#fff"/></linearGradient></defs><title>badge</title><g id="레이어_3" data-name="레이어 3"><g class="cls-2"><path class="cls-3" d="M98.77,197.63A98.78,98.78,0,0,1,28.93,29,98.78,98.78,0,0,1,168.62,168.7,98.16,98.16,0,0,1,98.77,197.63Z"/><path class="cls-4" d="M98.64,184.31A82.85,82.85,0,0,1,15.8,101.47h.35A82.49,82.49,0,0,0,157,159.8a81.94,81.94,0,0,0,24.16-58.33h.35a82.85,82.85,0,0,1-82.85,82.84Z"/><rect class="cls-3" x="6.62" y="90.55" width="180.94" height="34.32" transform="translate(-4.3 4.04) rotate(-2.33)"/><path class="cls-4" d="M21.09,111.15l-4.81,4.57-.48-3.21,2.54-2.34-3.11-1.48-.48-3.21,5.94,3,5-.74.41,2.69Z"/><path class="cls-4" d="M19.78,103.47A5.37,5.37,0,0,1,14.71,100a6.13,6.13,0,0,1-.41-2.34,6.26,6.26,0,0,1,.43-2.32,5.43,5.43,0,0,1,2.94-3,5.46,5.46,0,0,1,2.18-.41,5.4,5.4,0,0,1,3.91,1.65,5.44,5.44,0,0,1,1.16,1.84,6.11,6.11,0,0,1,.41,2.33,6.33,6.33,0,0,1-.43,2.34,5.51,5.51,0,0,1-1.18,1.81A5.59,5.59,0,0,1,22,103.06,5.46,5.46,0,0,1,19.78,103.47Zm0-2.84A2.75,2.75,0,0,0,21,100.4a2.79,2.79,0,0,0,.92-.63,2.93,2.93,0,0,0,.83-2.06,3,3,0,0,0-.21-1.13,2.84,2.84,0,0,0-.6-1A3,3,0,0,0,21,95a2.93,2.93,0,0,0-2.3,0,2.82,2.82,0,0,0-.92.64,3,3,0,0,0-.61.94,3,3,0,0,0-.22,1.13,3.1,3.1,0,0,0,.21,1.13,2.8,2.8,0,0,0,.6.94,2.94,2.94,0,0,0,.91.64A2.72,2.72,0,0,0,19.8,100.63Z"/><path class="cls-4" d="M15.57,85.09l5.6,1c.3,0,.61.1.93.13a2.61,2.61,0,0,0,.89,0,1.43,1.43,0,0,0,.71-.43,1.9,1.9,0,0,0,.43-1,1.85,1.85,0,0,0-.06-1.07,1.45,1.45,0,0,0-.52-.65,2.65,2.65,0,0,0-.82-.36c-.31-.08-.61-.15-.91-.2l-5.6-1,.47-2.66,6,1.06A4.9,4.9,0,0,1,26,81.59a4.58,4.58,0,0,1,.5,3.57,4.64,4.64,0,0,1-1.7,3.19,4.9,4.9,0,0,1-3.71.48l-6-1.06Z"/><path class="cls-4" d="M32.88,64.58l-1.32,3.11-4.72.81,3.7,1.58-1.07,2.5-9.61-4.11,1.66-3.89a4.16,4.16,0,0,1,.83-1.3,2.9,2.9,0,0,1,1.07-.71,3,3,0,0,1,1.19-.19,3.58,3.58,0,0,1,1.23.3A3.13,3.13,0,0,1,27.4,64a2.89,2.89,0,0,1,.25,2Zm-7.66,3.23.2-.47a2,2,0,0,0,.18-1.27,1.28,1.28,0,0,0-1.76-.75,1.93,1.93,0,0,0-.79,1l-.2.48Z"/><path class="cls-4" d="M29.84,53.73,28.2,56.51l1.5.89,1.55-2.62,2,1.17-1.55,2.62,1.55.92,1.65-2.78,2,1.17-3,5.12-9-5.32,3-5.12Z"/><path class="cls-4" d="M36.91,48,40.3,43.8a15,15,0,0,1,1.13,1,5.44,5.44,0,0,1,.81,1,5.11,5.11,0,0,1,.63,1.52A5,5,0,0,1,43,48.92a5.53,5.53,0,0,1-.43,1.55,6.29,6.29,0,0,1-.89,1.45,5.77,5.77,0,0,1-1.71,1.48A5.11,5.11,0,0,1,38,54a5,5,0,0,1-2.06-.23,5.87,5.87,0,0,1-2-1.1A6,6,0,0,1,32.39,51a4.94,4.94,0,0,1-.65-2A5.12,5.12,0,0,1,32,47a6,6,0,0,1,1.12-2,5.64,5.64,0,0,1,2.36-1.79A4.9,4.9,0,0,1,38.39,43l-.79,2.67a2.67,2.67,0,0,0-1.55,0,2.48,2.48,0,0,0-1.12.79,2.82,2.82,0,0,0-.52,1,2.32,2.32,0,0,0,0,1.08,3,3,0,0,0,.44,1.07,4.18,4.18,0,0,0,.91,1,4,4,0,0,0,1.06.64,2.92,2.92,0,0,0,1.1.22,2.42,2.42,0,0,0,1-.26,2.93,2.93,0,0,0,.93-.79,2.81,2.81,0,0,0,.41-.66,1.8,1.8,0,0,0,.2-.7,1.72,1.72,0,0,0-.09-.71,2,2,0,0,0-.44-.69l-1.41,1.73Z"/><path class="cls-4" d="M41.41,36.44,48.65,44l-2,1.88-7.24-7.54Z"/><path class="cls-4" d="M50.58,32.29a3.31,3.31,0,0,0-1,.12,2.45,2.45,0,0,0-.79.4,1.37,1.37,0,0,0-.52.72.77.77,0,0,0,.14.72.64.64,0,0,0,.41.26,1.43,1.43,0,0,0,.54,0,4.9,4.9,0,0,0,.62-.2l.66-.25a4.16,4.16,0,0,1,2.26-.26,2.94,2.94,0,0,1,1.68,1.15,3.83,3.83,0,0,1,.68,1.31,3,3,0,0,1,.06,1.37A3.7,3.7,0,0,1,54.73,39a5.34,5.34,0,0,1-1.19,1.25,6.22,6.22,0,0,1-3.63,1.33l-.42-2.44A4.69,4.69,0,0,0,50.93,39,2.89,2.89,0,0,0,52,38.48a1.47,1.47,0,0,0,.6-.85,1,1,0,0,0-.17-.75.8.8,0,0,0-.32-.27.75.75,0,0,0-.41-.08,2.22,2.22,0,0,0-.57.09l-.76.25c-.35.13-.7.24-1,.34a3.05,3.05,0,0,1-1,.14,2.5,2.5,0,0,1-1-.27,3.06,3.06,0,0,1-1-.86A3.81,3.81,0,0,1,45.64,35a3.2,3.2,0,0,1-.09-1.3A3.28,3.28,0,0,1,46,32.4a4.37,4.37,0,0,1,1-1.12,6.63,6.63,0,0,1,1.41-.83,7.32,7.32,0,0,1,1.67-.5Z"/><path class="cls-4" d="M57.86,27.11l4.2,7-2.33,1.4-4.2-7-1.91,1.15-1.19-2L58.59,24l1.19,2Z"/><path class="cls-4" d="M67.78,22.19l-2.94,1.34.72,1.59,2.78-1.26,1,2.09-2.78,1.27.75,1.64,2.94-1.34,1,2.1-5.42,2.46-4.32-9.52,5.42-2.46Z"/><path class="cls-4" d="M82,26.1l-3.23,1L75.07,24l1.17,3.85-2.6.79-3-10,4-1.24a4.06,4.06,0,0,1,1.53-.19,2.89,2.89,0,0,1,1.24.35,3.16,3.16,0,0,1,.91.8,3.42,3.42,0,0,1,.56,1.13,3,3,0,0,1,0,2A3,3,0,0,1,77.56,23Zm-7.4-3.8.49-.14a2,2,0,0,0,1.09-.68,1.28,1.28,0,0,0-.56-1.83,1.92,1.92,0,0,0-1.27,0l-.5.15Z"/><path class="cls-4" d="M88.31,16.79l-3.19.53L85.41,19l3-.5.38,2.27-3,.5.3,1.78,3.18-.53.38,2.27-5.87,1L82.06,15.49l5.87-1Z"/><path class="cls-4" d="M92,14l4-.12a4.75,4.75,0,0,1,2,.37,5.57,5.57,0,0,1,1.67,1.1A5.41,5.41,0,0,1,100.84,17a5.23,5.23,0,0,1,.12,4,5.55,5.55,0,0,1-1,1.71,5.39,5.39,0,0,1-1.6,1.19,4.73,4.73,0,0,1-2,.49l-4,.12Zm3,8.07.63,0a3.24,3.24,0,0,0,1.25-.26,2.66,2.66,0,0,0,.92-.64,2.57,2.57,0,0,0,.56-.93,3.25,3.25,0,0,0,.16-1.18,3.16,3.16,0,0,0-.24-1.16A2.75,2.75,0,0,0,97.6,17a2.57,2.57,0,0,0-1-.58,3.32,3.32,0,0,0-1.25-.19l-.62,0Z"/><path class="cls-4" d="M112.83,20.56l-2.68-6.07,3.18.63,1.35,3.18,2.45-2.43,3.18.64-4.81,4.58-1,4.92-2.67-.53Z"/><path class="cls-4" d="M120.47,21.91A5.49,5.49,0,0,1,121.62,20a5.36,5.36,0,0,1,1.72-1.24,5.48,5.48,0,0,1,2.11-.48,6.35,6.35,0,0,1,2.34.41,6.21,6.21,0,0,1,2,1.19,5.58,5.58,0,0,1,1.32,1.73,5.41,5.41,0,0,1,.53,2.06,5.58,5.58,0,0,1-.34,2.19,5.49,5.49,0,0,1-1.15,1.89A5.56,5.56,0,0,1,128.47,29a5.72,5.72,0,0,1-2.13.47,6.46,6.46,0,0,1-2.33-.4,6.2,6.2,0,0,1-2.05-1.2,5.43,5.43,0,0,1-1.31-1.73,5.42,5.42,0,0,1-.18-4.24Zm2.67,1a2.82,2.82,0,0,0-.17,1.17,2.78,2.78,0,0,0,.28,1.07,3,3,0,0,0,1.66,1.48,3,3,0,0,0,1.14.19,3.1,3.1,0,0,0,1.09-.25,2.78,2.78,0,0,0,.92-.64,2.82,2.82,0,0,0,.62-1,2.78,2.78,0,0,0,.17-1.16,3,3,0,0,0-2-2.56,3,3,0,0,0-1.14-.18,2.83,2.83,0,0,0-1.08.24,2.89,2.89,0,0,0-.91.64A2.77,2.77,0,0,0,123.14,22.88Z"/><path class="cls-4" d="M139.21,24.17l-2.83,4.93c-.15.26-.3.54-.44.83a2.5,2.5,0,0,0-.25.85,1.39,1.39,0,0,0,.16.82,1.9,1.9,0,0,0,.79.74,1.93,1.93,0,0,0,1,.31,1.51,1.51,0,0,0,.79-.28,2.37,2.37,0,0,0,.62-.64c.17-.26.34-.53.49-.79L142.41,26l2.34,1.35-3,5.25A4.86,4.86,0,0,1,139,35.14a4.64,4.64,0,0,1-3.53-.74A4.67,4.67,0,0,1,133,31.71a4.8,4.8,0,0,1,.81-3.64l3-5.25Z"/><path class="cls-4" d="M148.66,43.52,146,41.41l.49-4.76L144,39.79l-2.12-1.7,6.54-8.16,3.29,2.64a4.06,4.06,0,0,1,1,1.16,2.75,2.75,0,0,1,.4,1.22,2.91,2.91,0,0,1-.14,1.2,3.42,3.42,0,0,1-.61,1.1,3,3,0,0,1-1.66,1.15,2.86,2.86,0,0,1-1.95-.27Zm-1-8.25.4.33a2,2,0,0,0,1.17.51,1.14,1.14,0,0,0,.94-.48,1.11,1.11,0,0,0,.26-1,2,2,0,0,0-.75-1l-.4-.32Z"/><path class="cls-4" d="M155.51,51l-1.71-2.11,8.12-6.59,2.72,3.36a3.7,3.7,0,0,1,1,2.67,4,4,0,0,1-4,3.25A3.7,3.7,0,0,1,159.22,50l-1-1.25Zm4.4-3.57.56.7c.63.78,1.29.89,2,.34s.7-1.21.07-2l-.57-.7Z"/><path class="cls-4" d="M164.51,64.23l-1.75-2.89,2.11-4.3-3.45,2.08L160,56.79l8.95-5.4L171.16,55a4,4,0,0,1,.56,1.44,2.88,2.88,0,0,1,0,1.28,3,3,0,0,1-.55,1.08,3.69,3.69,0,0,1-1,.83,3,3,0,0,1-1.95.5,2.89,2.89,0,0,1-1.74-.93Zm1.86-8.1.27.44a2,2,0,0,0,.92.88,1.15,1.15,0,0,0,1-.12,1.13,1.13,0,0,0,.6-.86,2,2,0,0,0-.35-1.23l-.27-.44Z"/><path class="cls-4" d="M169.93,63.27a5.41,5.41,0,0,1,2.18-.41,5.57,5.57,0,0,1,2.07.45A5.64,5.64,0,0,1,176,64.57a6.37,6.37,0,0,1,1.26,2,6.46,6.46,0,0,1,.48,2.32,5.62,5.62,0,0,1-.41,2.14,5.33,5.33,0,0,1-1.18,1.77,5.48,5.48,0,0,1-1.85,1.2,5.39,5.39,0,0,1-2.17.41A5.3,5.3,0,0,1,170,74a5.52,5.52,0,0,1-1.77-1.27,6.64,6.64,0,0,1-1.74-4.32,5.39,5.39,0,0,1,1.59-3.89A5.45,5.45,0,0,1,169.93,63.27ZM171,65.91a2.87,2.87,0,0,0-1,.64,3,3,0,0,0-.61.94,2.86,2.86,0,0,0-.21,1.09,3.2,3.2,0,0,0,.22,1.13,3.16,3.16,0,0,0,.62,1,3.23,3.23,0,0,0,.91.65,2.94,2.94,0,0,0,1.09.25,2.79,2.79,0,0,0,1.16-.2,3,3,0,0,0,1-.65,2.87,2.87,0,0,0,.61-.94,3,3,0,0,0,.21-1.1,3.08,3.08,0,0,0-.84-2.1,2.84,2.84,0,0,0-.91-.64,2.89,2.89,0,0,0-1.09-.25A2.67,2.67,0,0,0,171,65.91Z"/><path class="cls-4" d="M179.22,82.26l-.75-3.19-1.7.41.69,2.9-2.24.53-.69-2.9-4,.95-.63-2.64,10.17-2.42,1.38,5.82Z"/><path class="cls-4" d="M182.38,87.81,172,89.24l-.37-2.69L182,85.12Z"/><path class="cls-4" d="M182.91,94.46l-8.14.36.14,3.25-2.3.1-.26-6,10.44-.46Z"/><path class="cls-4" d="M180.28,106.85l.22-3.23-1.74-.12-.21,3-2.3-.16.21-3-1.8-.12-.22,3.22-2.3-.16.42-5.93,10.42.72-.41,5.93Z"/><g class="cls-5"><path class="cls-6" d="M100,99.13,92.37,1.43s8-6.25,19.51,1.3Z"/><path class="cls-7" d="M100,99.13,132.75,6.78S142.57,4.31,150,15.9Z"/><path class="cls-8" d="M100,99.13l67.5-71s10,1.73,12.09,15.36Z"/><path class="cls-9" d="M100,99.13l90.55-37.47s8.41,5.64,4.8,19Z"/><path class="cls-10" d="M100,99.13l98,2.58s5.4,8.57-3.31,19.27Z"/><path class="cls-11" d="M100,99.13l88.45,42.18s1.45,10-10.86,16.26Z"/><path class="cls-12" d="M100,99.13l63.67,74.5s-2.76,9.74-16.54,10.43Z"/><path class="cls-13" d="M100,99.13l27.88,93.94s-6.48,7.79-19.35,2.82Z"/><path class="cls-14" d="M100,99.13,87.24,196.29s-9.08,4.48-18.82-5.29Z"/><path class="cls-15" d="M100,99.13l-51.12,83.6s-10.12.4-15-12.49Z"/><path class="cls-16" d="M100,99.13l-80.69,55.6S9.86,151,10.6,137.2Z"/><path class="cls-17" d="M100,99.13l-96.32,18s-7.07-7.25-.8-19.54Z"/><path class="cls-18" d="M100,99.13,4.64,76.41s-3.51-9.5,7.22-18.17Z"/><path class="cls-19" d="M100,99.13,22.11,39.62s.66-10.11,14-13.67Z"/><path class="cls-20" d="M100,99.13,53,13.11s4.71-9,18.33-6.81Z"/></g><path class="cls-21" d="M133.11,103.06l.35-43.2-23.54.26-.31,26.79s7.81,6.63,8.93,7.74,6.27,4.4,7.53,11.65l7.07-3.84"/><path d="M125.68,107.11l-.12-.72a17.4,17.4,0,0,0-6.64-10.71c-.32-.27-.57-.48-.75-.66-1.09-1.09-8.82-7.65-8.9-7.71l-.19-.16.33-27.54L134,59.34l-.36,43.73h-.51ZM110.13,86.67c1.22,1,7.74,6.58,8.77,7.62l.69.6a18.41,18.41,0,0,1,6.85,10.62l6.16-3.35.34-41.77-22.51.25Z"/><path class="cls-22" d="M62.32,120.4c-.11,0-2.6,10,6,15.42,10.73,6.81,27.94,1.78,27.94,1.78s34.22-14.69,36.62-19.57.53-7.78.53-7.78Z"/><path d="M82.93,139.9c-7.47,0-12.18-1.91-14.91-3.64-8.92-5.66-6.28-15.78-6.25-15.88a.59.59,0,0,1,.49-.5l71.39-10.19.18.28c.08.13,2,3.21-.51,8.29-1.57,3.21-15,9.71-19.45,11.85-8.76,4.24-17.34,7.93-17.43,8l-.06,0a54.72,54.72,0,0,1-10,1.68C85.14,139.86,84,139.9,82.93,139.9Zm-20.2-19c-.32,1.53-1.59,9.79,5.85,14.51,10.21,6.48,26.68,2,27.48,1.73,9.49-4.08,34.44-15.46,36.33-19.31s1.07-6.17.71-7Zm-.33,0h0Z"/><path class="cls-23" d="M74,104.74c-9.54,6.31-11.6,15.19-11.6,15.19A26.79,26.79,0,0,0,77,129.21c9.34,2.16,11.79,1,18.48-1.26s19.67-9.28,20.93-9.9l17.16-8.51s1.08-2.46,1.36-8.88-1.19-9.52-1.19-9.52L123.44,97s-7.11,4.5-12.56-3.14-9.62-6.49-9.62-6.49L74,104.74"/><path d="M85.05,130.86a36.52,36.52,0,0,1-8.22-1.15A27.07,27.07,0,0,1,62,120.24l-.14-.2,0-.23c.09-.37,2.22-9.15,11.82-15.5h0L101,86.89l.08,0c.19-.05,4.6-1.16,10.19,6.69,5.08,7.13,11.58,3.17,11.85,3l10.76-6.15.24.51c.07.13,1.52,3.29,1.24,9.76s-1.36,9-1.4,9.07l-.08.17-.17.08-17.16,8.51-1.15.6c-3.47,1.83-14,7.4-19.84,9.34l-1.24.41C90.86,130,88.43,130.86,85.05,130.86Zm-22-11a26.6,26.6,0,0,0,14.05,8.88c8.61,2,11.23,1.11,17-.83l1.24-.41C101,125.55,111.5,120,115,118.19l1.17-.61,17-8.42a30.73,30.73,0,0,0,1.25-8.52,24.75,24.75,0,0,0-.93-8.75l-9.73,5.56c-.06,0-7.58,4.66-13.24-3.29-4.76-6.68-8.47-6.38-9-6.3L74.32,105.18A27.6,27.6,0,0,0,63,119.82Z"/><path class="cls-4" d="M74.35,105.58s6.47,3,14.28,7.27c4.31,2.38,8.06-1.6,5-6-1.57-2.27-5.33-5.07-11-6.9S72.36,100.29,74.35,105.58Z"/><path d="M91.2,114.09a5.9,5.9,0,0,1-2.82-.78c-7.71-4.26-14.18-7.23-14.25-7.26l-.19-.09-.08-.2c-.83-2.2-.61-4.12.61-5.4,1.64-1.71,4.84-2.07,8.36-.93,7.58,2.46,10.52,6.06,11.24,7.11,1.53,2.22,1.6,4.67.18,6.24A4.07,4.07,0,0,1,91.2,114.09ZM74.76,105.2c1.15.53,7.14,3.33,14.12,7.2,1.75,1,3.55.84,4.6-.32.86-1,1.25-2.76-.26-5-1.39-2-4.94-4.84-10.71-6.71-3.09-1-6-.74-7.29.66C74.31,102,74.16,103.45,74.76,105.2Z"/><path class="cls-4" d="M81.32,99.2s8,1.77,12.33,7.63c0,0,8.58.21,6.91-6-.84-3.1-5.45-6.1-11.1-7.93S79.34,93.91,81.32,99.2Z"/><path d="M93.77,107.35h-.39l-.15-.21c-4.16-5.64-11.94-7.42-12-7.44l-.27-.06-.1-.26c-.89-2.35-.62-4.44.74-5.86,1.67-1.76,4.75-2.18,8-1.12,6.22,2,10.61,5.2,11.44,8.3a4.56,4.56,0,0,1-.63,4.23C98.62,107.24,94.57,107.35,93.77,107.35Zm-12-8.59c1.48.37,8.19,2.32,12.18,7.55.94,0,4.3-.21,5.72-2a3.61,3.61,0,0,0,.44-3.32c-.74-2.72-5-5.7-10.76-7.58-2.9-.94-5.57-.62-7,.85C81.31,95.31,81.09,96.91,81.72,98.76Z"/><path class="cls-4" d="M89.42,92.22a30.71,30.71,0,0,1,11.28,7.25C104.88,101,111,98,107.5,93a25.44,25.44,0,0,0-9.76-6.43C92.09,84.73,87.43,86.93,89.42,92.22Z"/><path d="M103,100.38a7.33,7.33,0,0,1-2.5-.42l-.12,0-.08-.09a30.28,30.28,0,0,0-11.06-7.12L89,92.63l-.08-.23c-.83-2.21-.62-4.12.61-5.4,1.63-1.72,4.83-2.07,8.35-.93a25.59,25.59,0,0,1,10,6.57l0,0c1.87,2.69,1,4.58.33,5.47A6.68,6.68,0,0,1,103,100.38ZM101,99c2.3.76,5.22.09,6.44-1.51.88-1.15.77-2.6-.34-4.21a24.89,24.89,0,0,0-9.51-6.25c-3.09-1-6-.74-7.28.65-.91,1-1.07,2.36-.47,4.1A30.88,30.88,0,0,1,101,99Z"/><path class="cls-4" d="M101.41,87.42s-4.67-1.74-.68-8.73c3.67-6.42,7.82-4,7.82-4,1.15.77,3.21,4,.21,8.93C105,89.63,101.41,87.42,101.41,87.42Z"/><path d="M103.07,88.32a4.15,4.15,0,0,1-1.87-.42,4.35,4.35,0,0,1-2.31-2.5c-.66-1.84-.2-4.19,1.39-7,2-3.5,4.18-4.48,5.66-4.69a4.82,4.82,0,0,1,2.87.45l0,0c1.45,1,3.45,4.6.36,9.63C106.94,87.53,104.63,88.32,103.07,88.32ZM101.68,87c.15.08,3.26,1.81,6.63-3.68,2.94-4.79.75-7.67,0-8.22-.29-.15-3.82-1.87-7.09,3.86-1.41,2.48-1.87,4.59-1.32,6.11a3.29,3.29,0,0,0,1.73,1.89Z"/><path class="cls-4" d="M102.09,75.83S86,66.32,82.27,77.38c0,0-1.64,7.15,6.2,8.2,1.85.24,10.4-1,10.4-1A13.87,13.87,0,0,1,102.09,75.83Z"/><path d="M89.14,86.13a4.81,4.81,0,0,1-.73,0,7.68,7.68,0,0,1-5.6-3,8,8,0,0,1-1-5.83v-.05a7.75,7.75,0,0,1,4.67-5.12c2.64-1,6.13-.73,10.38.77a35,35,0,0,1,5.54,2.52l.52.31-.38.47a13.54,13.54,0,0,0-3.11,8.45l0,.47-.47.07C98.62,85.19,91.86,86.13,89.14,86.13Zm-6.37-8.61a7.06,7.06,0,0,0,.9,5,6.69,6.69,0,0,0,4.87,2.55c1.37.18,7.17-.52,9.81-.88a14.54,14.54,0,0,1,3-8.2c-2-1.09-9.52-4.78-14.51-2.91A6.69,6.69,0,0,0,82.77,77.52Z"/><path d="M100.09,80.11a14.51,14.51,0,0,0-7.17-.88l-.2-1a15.23,15.23,0,0,1,7.75.93Z"/><path class="cls-4" d="M110.79,79s17.78,5.88,11.9,15.94c0,0-4.3,5.94-10.26.73-1.4-1.23-6.14-8.44-6.14-8.44A13.89,13.89,0,0,0,110.79,79Z"/><path d="M117.34,98.3A8,8,0,0,1,112.09,96c-1.44-1.26-6-8.25-6.23-8.55l-.26-.4.37-.29a13.49,13.49,0,0,0,4.31-7.9l.1-.61.58.2c.43.14,10.6,3.56,13,9.81a7.74,7.74,0,0,1-.78,6.88l0,0a8,8,0,0,1-5.08,3A5.32,5.32,0,0,1,117.34,98.3ZM107,87.29c1.47,2.22,4.75,7,5.79,8a6.7,6.7,0,0,0,5.13,2,7,7,0,0,0,4.35-2.61,6.72,6.72,0,0,0,.7-6c-1.89-5-9.6-8.18-11.76-9A14.54,14.54,0,0,1,107,87.29Z"/><path d="M114.73,88.35a14.29,14.29,0,0,0-5.39-4.82l.48-.93a15.14,15.14,0,0,1,5.81,5.22Z"/><path class="cls-4" d="M109.47,75.18a57.35,57.35,0,0,1,8.84-13.5c5.76-6.43,12-.47,7.69,5.24s-4.73,4.13-11.43,13.83"/><path d="M115,81.05l-.86-.59a57.22,57.22,0,0,1,7.52-9.36,40.71,40.71,0,0,0,3.93-4.5c2-2.61,1.54-5.2.07-6.42S121.4,59,118.7,62A57.08,57.08,0,0,0,110,75.39L109,75a57.92,57.92,0,0,1,8.93-13.63c3.15-3.53,6.49-3.53,8.39-2s2.48,4.72.1,7.85a42.26,42.26,0,0,1-4,4.6A56.28,56.28,0,0,0,115,81.05Z"/><path class="cls-4" d="M114.76,80.65s-.53-.59-4-1.8c0,0,.31-1.32-1-3.94"/><path d="M114.39,81a14.06,14.06,0,0,0-3.83-1.67l-.45-.15.11-.46s.23-1.22-1-3.58l.92-.48a8.33,8.33,0,0,1,1.12,3.82c3,1.08,3.73,1.66,3.87,1.81l-.78.69.39-.34Z"/><path class="cls-4" d="M107.65,73.9s-3.54-7.2-12.12-15.78S73.25,54,73.25,54,59,57.22,61.68,72.71,58,87.53,55.51,88.06s-4.35,1.74-3.6,4.18c.85,2.78,2.58,3.27,6,2a14.84,14.84,0,0,0,7.67-5.77c5.19-7.65,3.06-13.3,2.52-16.78s-2.21-8.93,5.29-12.8c11.4-5.88,19.53,3.86,19.53,3.86s3.83,2.93,6,10.93l3.76,2.16Z"/><path d="M55,95.43a3.55,3.55,0,0,1-1.6-.35,4.1,4.1,0,0,1-2-2.69,3.24,3.24,0,0,1,.21-2.68c.6-1,1.87-1.75,3.78-2.15a8,8,0,0,1,.81-.14,5.57,5.57,0,0,0,4.15-2c1.58-2.19,1.86-6.42.8-12.57-2.65-15.48,11.27-19.12,12-19.29s14.24-4.3,22.78,4.24,12.18,15.84,12.21,15.92l.25.5-5.71,2.26L98.48,74l-.06-.21c-2.09-7.7-5.78-10.62-5.82-10.65l-.08-.08c-.32-.38-8-9.34-18.89-3.73-6.55,3.38-5.75,8-5.17,11.36.06.31.11.61.16.9.06.45.16.94.26,1.46.7,3.53,1.76,8.86-2.87,15.69a15.31,15.31,0,0,1-7.92,6A9.43,9.43,0,0,1,55,95.43Zm26.5-42.06h-.25a28.88,28.88,0,0,0-7.79,1.14h0A17.41,17.41,0,0,0,66.78,58c-4.11,3.5-5.66,8.43-4.59,14.64,1.11,6.53.79,10.9-1,13.36a6.6,6.6,0,0,1-4.84,2.47l-.75.12a4.65,4.65,0,0,0-3.1,1.67,2.24,2.24,0,0,0-.1,1.85,3.09,3.09,0,0,0,1.41,2.06c.83.41,2.07.29,3.91-.39a14.24,14.24,0,0,0,7.42-5.58c4.39-6.46,3.42-11.33,2.72-14.89-.11-.54-.21-1-.28-1.51,0-.28-.1-.58-.15-.88-.6-3.48-1.51-8.74,5.72-12.46,11.22-5.79,19.48,3.22,20.12,3.94.46.37,4,3.41,6.09,11l3.36,1.93,4.18-1.64A69.88,69.88,0,0,0,95.17,58.48C91,54.28,85.44,53.37,81.46,53.37Z"/><ellipse class="cls-24" cx="99.04" cy="162.3" rx="29.64" ry="12.48"/><path d="M99,175.3c-8,0-15.5-1.31-21.16-3.69s-9-5.75-9-9.31,3.2-6.86,9-9.3,13.18-3.7,21.16-3.7,15.5,1.32,21.16,3.7,9,5.75,9,9.3-3.2,6.86-9,9.31S107,175.3,99,175.3Zm0-25c-7.85,0-15.22,1.29-20.75,3.62s-8.37,5.23-8.37,8.34,3,6.08,8.37,8.35,12.9,3.61,20.75,3.61,15.22-1.28,20.75-3.61,8.37-5.24,8.37-8.35-3-6.07-8.37-8.34S106.89,150.34,99,150.34Z"/><path class="cls-25" d="M79.39,156.56a1.16,1.16,0,0,1,.1-.49,1.22,1.22,0,0,1,.27-.41,1.46,1.46,0,0,1,.41-.27,1.13,1.13,0,0,1,.49-.1,1.16,1.16,0,0,1,.49.1,1.46,1.46,0,0,1,.41.27,1.39,1.39,0,0,1,.27.41,1.16,1.16,0,0,1,.1.49,1.21,1.21,0,0,1-.1.5,1.34,1.34,0,0,1-.27.4,1.3,1.3,0,0,1-.41.28,1.34,1.34,0,0,1-.49.1,1.26,1.26,0,0,1-.9-.38,1.18,1.18,0,0,1-.27-.4A1.21,1.21,0,0,1,79.39,156.56ZM81.8,159v6.4H79.54V159Z"/><path class="cls-25" d="M83,159h2.26v.79a2.92,2.92,0,0,1,2.07-.89,2.41,2.41,0,0,1,2.17,1.2,2.42,2.42,0,0,1,2.17-1.21,2.61,2.61,0,0,1,.85.13,1.72,1.72,0,0,1,.69.41,2,2,0,0,1,.45.73,2.94,2.94,0,0,1,.17,1.09v4.15H91.6v-3.15a3.48,3.48,0,0,0-.07-.8,1.32,1.32,0,0,0-.19-.49.64.64,0,0,0-.31-.24,1.15,1.15,0,0,0-.37-.06c-.73,0-1.09.53-1.09,1.59v3.15H87.31v-3.15a4.47,4.47,0,0,0-.06-.81,1.38,1.38,0,0,0-.18-.5.56.56,0,0,0-.31-.26,1.14,1.14,0,0,0-.43-.07,1.25,1.25,0,0,0-.4.06.67.67,0,0,0-.33.25,1.29,1.29,0,0,0-.23.5,3.63,3.63,0,0,0-.08.83v3.15H83Z"/><path class="cls-25" d="M100,159h2.27v6.4H100v-.71a2.36,2.36,0,0,1-2,.91,3.19,3.19,0,0,1-1.29-.25,3.05,3.05,0,0,1-1-.72,3.3,3.3,0,0,1-.68-1.09,3.74,3.74,0,0,1-.24-1.36,3.78,3.78,0,0,1,.23-1.3,3.33,3.33,0,0,1,.67-1.08,3.08,3.08,0,0,1,1-.73,3,3,0,0,1,1.29-.27,2.62,2.62,0,0,1,2,.84Zm-2.85,3.18a1.4,1.4,0,0,0,.12.58,1.35,1.35,0,0,0,.3.47,1.33,1.33,0,0,0,.46.31,1.43,1.43,0,0,0,.58.12,1.39,1.39,0,0,0,.57-.12,1.33,1.33,0,0,0,.46-.31,1.44,1.44,0,0,0,.31-.46,1.34,1.34,0,0,0,.12-.56,1.39,1.39,0,0,0-.12-.57,1.43,1.43,0,0,0-.77-.78,1.56,1.56,0,0,0-.57-.11,1.62,1.62,0,0,0-.58.11,1.49,1.49,0,0,0-.46.31,1.52,1.52,0,0,0-.3.46A1.26,1.26,0,0,0,97.19,162.2Z"/><path class="cls-25" d="M110.69,159v6a7.06,7.06,0,0,1-.06,1,4.63,4.63,0,0,1-.17.75,2.34,2.34,0,0,1-.47.76,3,3,0,0,1-.77.62,4.36,4.36,0,0,1-1,.41,4.82,4.82,0,0,1-1.23.15,4.65,4.65,0,0,1-1.38-.19,3.65,3.65,0,0,1-1.09-.51,3,3,0,0,1-.77-.78,2.53,2.53,0,0,1-.39-1h2.54a1,1,0,0,0,1.07.63,1.44,1.44,0,0,0,1.1-.4,1.54,1.54,0,0,0,.38-1.11v-.61a3.75,3.75,0,0,1-.48.39,2.75,2.75,0,0,1-.47.26,2.19,2.19,0,0,1-.5.14,3.45,3.45,0,0,1-.57.05,3.3,3.3,0,0,1-1.27-.24,3.07,3.07,0,0,1-1-.66,3,3,0,0,1-.65-1,3.64,3.64,0,0,1-.23-1.31,3.79,3.79,0,0,1,.25-1.37,3.71,3.71,0,0,1,.68-1.1,3.07,3.07,0,0,1,2.32-1,2.51,2.51,0,0,1,1.91.84V159Zm-5.06,3.17a1.58,1.58,0,0,0,.11.58,1.54,1.54,0,0,0,.31.47,1.33,1.33,0,0,0,.46.31,1.4,1.4,0,0,0,.58.11,1.38,1.38,0,0,0,.57-.11,1.33,1.33,0,0,0,.46-.31,1.54,1.54,0,0,0,.31-.47,1.39,1.39,0,0,0,.12-.57,1.35,1.35,0,0,0-.12-.57,1.52,1.52,0,0,0-.32-.46,1.25,1.25,0,0,0-.47-.31,1.34,1.34,0,0,0-1.11,0,1.49,1.49,0,0,0-.46.31,1.36,1.36,0,0,0-.32.46A1.31,1.31,0,0,0,105.63,162.19Z"/><path class="cls-25" d="M114.1,162.6c0,1,.46,1.46,1.37,1.46a1.23,1.23,0,0,0,1.11-.6h2.19a3,3,0,0,1-3.31,2.2,4.38,4.38,0,0,1-1.48-.24,3.46,3.46,0,0,1-1.16-.7,3,3,0,0,1-.74-1.07,3.49,3.49,0,0,1-.26-1.4,3.89,3.89,0,0,1,.25-1.44,2.9,2.9,0,0,1,.71-1.09,3.11,3.11,0,0,1,1.12-.69,4.42,4.42,0,0,1,2.93,0,2.85,2.85,0,0,1,1.1.7,3.15,3.15,0,0,1,.69,1.13,4.47,4.47,0,0,1,.24,1.51v.23Zm2.65-1.31a1.37,1.37,0,0,0-.47-.76,1.28,1.28,0,0,0-.84-.29,1.33,1.33,0,0,0-.86.28,1.25,1.25,0,0,0-.42.77Z"/></g></g></svg>