<svg xmlns="http://www.w3.org/2000/svg" xmlns:xlink="http://www.w3.org/1999/xlink" viewBox="0 0 197.58 197.65"><defs><style>.cls-1{fill:none;}.cls-2{clip-path:url(#clip-path);}.cls-3{fill:#00ccae;}.cls-4{fill:#fff;}.cls-5{opacity:0.5;}.cls-6{fill:url(#무제_그라디언트_667);}.cls-7{fill:url(#무제_그라디언트_667-2);}.cls-8{fill:url(#무제_그라디언트_667-3);}.cls-9{fill:url(#무제_그라디언트_667-4);}.cls-10{fill:url(#무제_그라디언트_667-5);}.cls-11{fill:url(#무제_그라디언트_667-6);}.cls-12{fill:url(#무제_그라디언트_667-7);}.cls-13{fill:url(#무제_그라디언트_667-8);}.cls-14{fill:url(#무제_그라디언트_667-9);}.cls-15{fill:url(#무제_그라디언트_667-10);}.cls-16{fill:url(#무제_그라디언트_667-11);}.cls-17{fill:url(#무제_그라디언트_667-12);}.cls-18{fill:url(#무제_그라디언트_667-13);}.cls-19{fill:url(#무제_그라디언트_667-14);}.cls-20{fill:url(#무제_그라디언트_667-15);}.cls-21{fill:url(#무제_그라디언트_707);}.cls-22{fill:#231815;}.cls-23{fill:#f4c01a;}.cls-24{fill:#f1f1f1;}.cls-25{fill:url(#무제_그라디언트_2);}.cls-26{fill:url(#무제_그라디언트_2-2);}</style><clipPath id="clip-path"><path class="cls-1" d="M98.89,197.55A98.78,98.78,0,1,1,168.82,28.93,98.78,98.78,0,0,1,98.89,197.55Z"/></clipPath><linearGradient id="무제_그라디언트_667" x1="160.38" y1="-16.71" x2="141.48" y2="67.5" gradientTransform="translate(-57.22 34.78) rotate(-4.44)" gradientUnits="userSpaceOnUse"><stop offset="0" stop-color="#ffffce" stop-opacity="0"/><stop offset="1" stop-color="#fffff6"/></linearGradient><linearGradient id="무제_그라디언트_667-2" x1="-999" y1="1964.56" x2="-1017.91" y2="2048.8" gradientTransform="translate(1737.38 -1502.48) rotate(19.55)" xlink:href="#무제_그라디언트_667"/><linearGradient id="무제_그라디언트_667-3" x1="-1252.79" y1="4246.04" x2="-1271.71" y2="4330.32" gradientTransform="translate(4001.94 -2177.4) rotate(43.53)" xlink:href="#무제_그라디언트_667"/><linearGradient id="무제_그라디언트_667-4" x1="-557.16" y1="6433.65" x2="-576.09" y2="6517.97" gradientTransform="translate(6345.3 -1873.4) rotate(67.52)" xlink:href="#무제_그라디언트_667"/><linearGradient id="무제_그라디언트_667-5" x1="967.73" y1="8149.56" x2="948.81" y2="8233.88" gradientTransform="translate(8362.68 -642.99) rotate(91.51)" xlink:href="#무제_그라디언트_667"/><linearGradient id="무제_그라디언트_667-6" x1="3058.51" y1="9097.37" x2="3039.59" y2="9181.66" gradientTransform="matrix(-0.43, 0.9, -0.9, -0.43, 9705.63, 1301.29)" xlink:href="#무제_그라디언트_667"/><linearGradient id="무제_그라디언트_667-7" x1="5354.04" y1="9113.36" x2="5335.13" y2="9197.6" gradientTransform="translate(10142.17 3623.61) rotate(139.48)" xlink:href="#무제_그라디언트_667"/><linearGradient id="무제_그라디언트_667-8" x1="7457.81" y1="8194.73" x2="7438.9" y2="8278.95" gradientTransform="translate(9596.9 5922.83) rotate(163.47)" xlink:href="#무제_그라디언트_667"/><linearGradient id="무제_그라디언트_667-9" x1="9006.43" y1="6500.15" x2="8987.53" y2="6584.38" gradientTransform="translate(8164.01 7801.8) rotate(-172.54)" xlink:href="#무제_그라디언트_667"/><linearGradient id="무제_그라디언트_667-10" x1="9732.4" y1="4322.33" x2="9713.49" y2="4406.59" gradientTransform="translate(6090.99 8935.98) rotate(-148.55)" xlink:href="#무제_그라디언트_667"/><linearGradient id="무제_그라디언트_667-11" x1="9510.31" y1="2037.47" x2="9491.39" y2="2121.77" gradientTransform="matrix(-0.57, -0.82, 0.82, -0.57, 3735.93, 9129.44)" xlink:href="#무제_그라디언트_667"/><linearGradient id="무제_그라디언트_667-12" x1="8378.51" y1="40.24" x2="8359.58" y2="124.56" gradientTransform="matrix(-0.18, -0.98, 0.98, -0.18, 1505.62, 8348.77)" xlink:href="#무제_그라디언트_667"/><linearGradient id="무제_그라디언트_667-13" x1="6532.51" y1="-1324.35" x2="6513.59" y2="-1240.04" gradientTransform="matrix(0.23, -0.97, 0.97, 0.23, -214.7, 6728.82)" xlink:href="#무제_그라디언트_667"/><linearGradient id="무제_그라디언트_667-14" x1="4291.19" y1="-1820.6" x2="4272.27" y2="-1736.33" gradientTransform="matrix(0.61, -0.79, 0.79, 0.61, -1127.88, 4549.4)" xlink:href="#무제_그라디언트_667"/><linearGradient id="무제_그라디언트_667-15" x1="2041.69" y1="-1362.81" x2="2022.79" y2="-1278.58" gradientTransform="translate(-1076.17 2186.97) rotate(-28.62)" xlink:href="#무제_그라디언트_667"/><linearGradient id="무제_그라디언트_707" x1="53.87" y1="158.31" x2="147.58" y2="158.31" gradientUnits="userSpaceOnUse"><stop offset="0" stop-color="#fff"/><stop offset="1" stop-color="#fff"/></linearGradient><linearGradient id="무제_그라디언트_2" x1="44.59" y1="119.23" x2="96.58" y2="93.92" gradientUnits="userSpaceOnUse"><stop offset="0.23" stop-color="#f4c01a"/><stop offset="0.26" stop-color="#f3b61f"/><stop offset="0.45" stop-color="#ee7c3d"/><stop offset="0.63" stop-color="#ea4f54"/><stop offset="0.78" stop-color="#e72e65"/><stop offset="0.91" stop-color="#e61a6f"/><stop offset="1" stop-color="#e51373"/></linearGradient><linearGradient id="무제_그라디언트_2-2" x1="-3030.51" y1="118.31" x2="-2978.51" y2="93.01" gradientTransform="matrix(-1, 0, 0, 1, -2873.77, 0)" xlink:href="#무제_그라디언트_2"/></defs><title>badge</title><g id="레이어_3" data-name="레이어 3"><g class="cls-2"><path class="cls-3" d="M98.89,197.55A98.78,98.78,0,1,1,168.82,28.93,98.78,98.78,0,0,1,98.89,197.55Z"/><path class="cls-4" d="M98.77,184.23a82.9,82.9,0,0,1-82.95-82.84h.35a82.62,82.62,0,0,0,141,58.33,81.9,81.9,0,0,0,24.19-58.33h.35a82.88,82.88,0,0,1-82.94,82.84Z"/><rect class="cls-3" x="6.62" y="90.47" width="181.16" height="34.32" transform="translate(-4.29 4.04) rotate(-2.33)"/><path class="cls-4" d="M21.12,111.07l-4.82,4.57-.48-3.21,2.54-2.34-3.11-1.48-.48-3.21,5.95,3,5-.74.4,2.69Z"/><path class="cls-4" d="M19.81,103.39a5.41,5.41,0,0,1-5.09-3.47,6.53,6.53,0,0,1-.41-2.34,6.32,6.32,0,0,1,.44-2.33,5.6,5.6,0,0,1,1.18-1.83,5.26,5.26,0,0,1,1.77-1.19,5.69,5.69,0,0,1,4.34,0,5.65,5.65,0,0,1,1.75,1.21A5.48,5.48,0,0,1,25,95.31a6.11,6.11,0,0,1,.41,2.33,6.24,6.24,0,0,1-.43,2.33,5.42,5.42,0,0,1-1.19,1.82A5.19,5.19,0,0,1,22,103,5.38,5.38,0,0,1,19.81,103.39Zm0-2.84a3,3,0,0,0,1.16-.23,3.13,3.13,0,0,0,.92-.63,3,3,0,0,0,.61-.94,3.25,3.25,0,0,0,.22-1.13,3.1,3.1,0,0,0-.21-1.13,2.9,2.9,0,0,0-.6-.94,2.79,2.79,0,0,0-2.07-.89,2.6,2.6,0,0,0-1.15.23,2.68,2.68,0,0,0-.92.64,3.06,3.06,0,0,0-.61.93A3.11,3.11,0,0,0,17,97.59a3,3,0,0,0,.21,1.13,2.8,2.8,0,0,0,.6.94,3,3,0,0,0,.91.65A2.75,2.75,0,0,0,19.82,100.55Z"/><path class="cls-4" d="M15.59,85l5.61,1,.92.13a2.66,2.66,0,0,0,.9-.06,1.43,1.43,0,0,0,.71-.43,2.33,2.33,0,0,0,.37-2.06,1.52,1.52,0,0,0-.52-.65,2.45,2.45,0,0,0-.82-.37l-.92-.2-5.6-1,.47-2.66,6,1.06A4.87,4.87,0,0,1,26,81.5a5.79,5.79,0,0,1-1.2,6.76,4.89,4.89,0,0,1-3.71.49l-6-1.06Z"/><path class="cls-4" d="M32.92,64.5l-1.33,3.11-4.72.81L30.58,70l-1.07,2.5-9.63-4.1,1.66-3.89a4.06,4.06,0,0,1,.84-1.3,3.06,3.06,0,0,1,1.07-.72,3,3,0,0,1,1.19-.18,3.67,3.67,0,0,1,1.24.29,3.12,3.12,0,0,1,1.55,1.29,3,3,0,0,1,.26,2Zm-7.67,3.22.2-.47A2,2,0,0,0,25.63,66a1.13,1.13,0,0,0-.71-.77,1.11,1.11,0,0,0-1.05,0,1.93,1.93,0,0,0-.79,1l-.2.47Z"/><path class="cls-4" d="M29.88,53.65l-1.65,2.78,1.51.89,1.55-2.62,2,1.17-1.55,2.62,1.55.92,1.65-2.78,2,1.17-3,5.12-9-5.32,3-5.12Z"/><path class="cls-4" d="M37,47.91l3.4-4.19a15,15,0,0,1,1.13,1,5.36,5.36,0,0,1,.81,1,5.27,5.27,0,0,1,.63,1.53A4.62,4.62,0,0,1,43,48.83a5.19,5.19,0,0,1-.43,1.56,6.29,6.29,0,0,1-.89,1.45A6.08,6.08,0,0,1,40,53.32,5.16,5.16,0,0,1,38,54a5.11,5.11,0,0,1-2.07-.23,6.23,6.23,0,0,1-2-1.1,6.3,6.3,0,0,1-1.49-1.72,5,5,0,0,1-.65-2A5.29,5.29,0,0,1,32,46.86a6.43,6.43,0,0,1,1.13-2,5.67,5.67,0,0,1,2.36-1.78,4.93,4.93,0,0,1,2.94-.15l-.8,2.68a2.67,2.67,0,0,0-1.55,0,2.36,2.36,0,0,0-1.11.78,2.64,2.64,0,0,0-.52,1,2.42,2.42,0,0,0,0,1.07,3.08,3.08,0,0,0,.44,1.08,4.4,4.4,0,0,0,.91,1,4.27,4.27,0,0,0,1.07.64,2.87,2.87,0,0,0,1.09.22A2.48,2.48,0,0,0,39,51.05a3,3,0,0,0,.93-.78,3.8,3.8,0,0,0,.41-.66,2,2,0,0,0,.2-.71,1.69,1.69,0,0,0-.09-.7,2.15,2.15,0,0,0-.44-.7l-1.41,1.74Z"/><path class="cls-4" d="M41.46,36.35l7.25,7.54-2,1.89L39.5,38.23Z"/><path class="cls-4" d="M50.64,32.21a3.31,3.31,0,0,0-1,.12,2.34,2.34,0,0,0-.79.39,1.43,1.43,0,0,0-.52.73.77.77,0,0,0,.14.72.68.68,0,0,0,.41.26,1.69,1.69,0,0,0,.54,0,3.59,3.59,0,0,0,.62-.19l.66-.25a4.2,4.2,0,0,1,2.27-.26,2.87,2.87,0,0,1,1.67,1.14,3.73,3.73,0,0,1,.69,1.32,3.12,3.12,0,0,1,.06,1.36,3.67,3.67,0,0,1-.56,1.36,5.4,5.4,0,0,1-1.2,1.25A6.28,6.28,0,0,1,50,41.46L49.55,39A4.69,4.69,0,0,0,51,38.91a3,3,0,0,0,1.1-.52,1.35,1.35,0,0,0,.59-.85,1,1,0,0,0-.48-1,1.08,1.08,0,0,0-.42-.08,2.86,2.86,0,0,0-.57.1l-.76.25c-.35.12-.7.24-1.05.34a3.35,3.35,0,0,1-1,.14,2.67,2.67,0,0,1-1-.27,3,3,0,0,1-1-.87,3.83,3.83,0,0,1-.66-1.26,3.2,3.2,0,0,1-.1-1.3,3.25,3.25,0,0,1,.47-1.25,4.2,4.2,0,0,1,1-1.12,6.24,6.24,0,0,1,1.41-.83,7.32,7.32,0,0,1,1.67-.5Z"/><path class="cls-4" d="M57.93,27l4.21,7-2.34,1.4-4.2-7-1.91,1.15-1.19-2,6.16-3.69,1.19,2Z"/><path class="cls-4" d="M67.86,22.11l-2.94,1.33.72,1.6,2.78-1.26,1,2.09-2.78,1.26.75,1.64,2.94-1.33,1,2.09L65.81,32l-4.32-9.52L66.91,20Z"/><path class="cls-4" d="M82.05,26l-3.24,1-3.65-3.09,1.17,3.84-2.6.79-3-10,4-1.23a4.33,4.33,0,0,1,1.54-.2,3,3,0,0,1,1.23.36,2.91,2.91,0,0,1,.91.8A3.54,3.54,0,0,1,79,19.4a3,3,0,0,1,0,2,2.89,2.89,0,0,1-1.33,1.45Zm-7.4-3.8.49-.15a2,2,0,0,0,1.08-.67,1.16,1.16,0,0,0,.14-1,1.19,1.19,0,0,0-.7-.79,2,2,0,0,0-1.27,0l-.5.15Z"/><path class="cls-4" d="M88.42,16.7l-3.19.53L85.52,19l3-.5.38,2.27-3,.5L86.19,23l3.19-.54.38,2.27-5.87,1L82.17,15.41l5.87-1Z"/><path class="cls-4" d="M92.1,14l4-.11a4.75,4.75,0,0,1,2,.37,5.39,5.39,0,0,1,1.67,1.1A5.28,5.28,0,0,1,101,16.94a4.94,4.94,0,0,1,.46,2,5,5,0,0,1-.34,2,5.38,5.38,0,0,1-2.65,2.9,4.88,4.88,0,0,1-2,.49l-4,.11Zm3,8.07h.63a3.43,3.43,0,0,0,1.25-.26,2.66,2.66,0,0,0,.92-.64,2.61,2.61,0,0,0,.56-.94,3.5,3.5,0,0,0-.08-2.33,2.65,2.65,0,0,0-.61-.91,2.59,2.59,0,0,0-1-.59,3.32,3.32,0,0,0-1.25-.18l-.63,0Z"/><path class="cls-4" d="M113,20.48l-2.68-6.08,3.18.64,1.35,3.18,2.45-2.43,3.19.63L115.64,21l-1,4.92L112,25.4Z"/><path class="cls-4" d="M120.62,21.83a5.34,5.34,0,0,1,1.15-1.89,5.21,5.21,0,0,1,1.72-1.24,5.31,5.31,0,0,1,2.12-.48,6.34,6.34,0,0,1,2.34.4,6.41,6.41,0,0,1,2,1.2,5.47,5.47,0,0,1,1.32,1.73,5.37,5.37,0,0,1,.53,2.06,5.67,5.67,0,0,1-1.49,4.07,5.25,5.25,0,0,1-1.73,1.24,5.53,5.53,0,0,1-2.13.47,6.27,6.27,0,0,1-2.34-.4,6.2,6.2,0,0,1-2-1.2,5.25,5.25,0,0,1-1.31-1.72,5.42,5.42,0,0,1-.18-4.24Zm2.67,1a2.78,2.78,0,0,0-.17,1.16A3,3,0,0,0,123.4,25a2.93,2.93,0,0,0,.68.89,2.9,2.9,0,0,0,1,.59,3.06,3.06,0,0,0,2.23-.06,2.88,2.88,0,0,0,.92-.64,2.75,2.75,0,0,0,.61-1,2.72,2.72,0,0,0-.12-2.24,2.68,2.68,0,0,0-.68-.89,3,3,0,0,0-1-.59,3,3,0,0,0-1.14-.19,2.9,2.9,0,0,0-2,.89A2.77,2.77,0,0,0,123.29,22.8Z"/><path class="cls-4" d="M139.38,24.09,136.54,29c-.15.27-.29.54-.43.83a2.64,2.64,0,0,0-.26.86,1.59,1.59,0,0,0,.16.82,2.48,2.48,0,0,0,1.83,1.05,1.51,1.51,0,0,0,.79-.28,2.53,2.53,0,0,0,.62-.64c.18-.27.34-.53.49-.8l2.84-4.92,2.35,1.35-3,5.25a4.87,4.87,0,0,1-2.75,2.53,4.64,4.64,0,0,1-3.53-.74,4.72,4.72,0,0,1-2.43-2.69A4.92,4.92,0,0,1,134,28l3-5.25Z"/><path class="cls-4" d="M148.84,43.44l-2.64-2.12.49-4.75-2.52,3.13L142.05,38l6.55-8.15,3.3,2.64a4.17,4.17,0,0,1,1,1.15,3,3,0,0,1,.4,1.22,2.87,2.87,0,0,1-.14,1.2,3.39,3.39,0,0,1-.62,1.11,3,3,0,0,1-1.66,1.15A2.87,2.87,0,0,1,149,38Zm-1.05-8.25.41.32a2,2,0,0,0,1.17.52,1.3,1.3,0,0,0,1.2-1.5,2,2,0,0,0-.76-1l-.4-.32Z"/><path class="cls-4" d="M155.71,50.86,154,48.75l8.13-6.59,2.73,3.36a3.7,3.7,0,0,1,1,2.67,4,4,0,0,1-4,3.25,3.71,3.71,0,0,1-2.42-1.51l-1-1.25Zm4.39-3.56.57.7c.63.77,1.28.89,2,.34s.7-1.21.07-2l-.57-.7Z"/><path class="cls-4" d="M164.71,64.15,163,61.25,165.07,57,161.62,59l-1.4-2.32,9-5.4,2.19,3.62a4.23,4.23,0,0,1,.57,1.44,3,3,0,0,1-.05,1.28,3,3,0,0,1-.55,1.07,3.51,3.51,0,0,1-1,.83,3.09,3.09,0,0,1-1.95.51,2.86,2.86,0,0,1-1.74-.94Zm1.87-8.1.26.44a2,2,0,0,0,.93.88,1.27,1.27,0,0,0,1.64-1,2,2,0,0,0-.35-1.23l-.27-.43Z"/><path class="cls-4" d="M170.14,63.19a5.41,5.41,0,0,1,2.18-.41,5.38,5.38,0,0,1,3.84,1.7,6.44,6.44,0,0,1,1.27,2,6.28,6.28,0,0,1,.47,2.32,5.4,5.4,0,0,1-.4,2.14,5.28,5.28,0,0,1-1.18,1.77,5.71,5.71,0,0,1-4,1.62,5.48,5.48,0,0,1-2.08-.46,5.31,5.31,0,0,1-1.77-1.27,6.28,6.28,0,0,1-1.27-2,6.37,6.37,0,0,1-.47-2.33,5.39,5.39,0,0,1,.4-2.13,5.59,5.59,0,0,1,1.19-1.76A5.48,5.48,0,0,1,170.14,63.19Zm1.06,2.63a3.05,3.05,0,0,0-1,.65,2.87,2.87,0,0,0-.82,2,3,3,0,0,0,.22,1.13,3.11,3.11,0,0,0,.62,1,3.07,3.07,0,0,0,.91.66,2.94,2.94,0,0,0,1.1.25,2.91,2.91,0,0,0,2.13-.86,2.77,2.77,0,0,0,.61-.94,2.87,2.87,0,0,0,.21-1.1,2.9,2.9,0,0,0-.22-1.12,2.9,2.9,0,0,0-2.62-1.87A3,3,0,0,0,171.2,65.82Z"/><path class="cls-4" d="M179.45,82.17,178.69,79l-1.7.4.69,2.91-2.25.53-.69-2.9-4,.95-.63-2.65,10.18-2.42,1.39,5.83Z"/><path class="cls-4" d="M182.6,87.72l-10.36,1.44-.38-2.69L182.23,85Z"/><path class="cls-4" d="M183.14,94.38l-8.16.35.15,3.26-2.3.1-.27-6L183,91.66Z"/><path class="cls-4" d="M180.5,106.76l.22-3.22-1.74-.12-.22,3-2.3-.16.22-3-1.8-.13-.23,3.23-2.3-.16.42-5.94,10.44.73-.41,5.93Z"/><g class="cls-5"><path class="cls-6" d="M98.93,97.88,91.33.18s8-6.25,19.54,1.3Z"/><path class="cls-7" d="M98.93,97.88,131.76,5.53s9.83-2.47,17.31,9.12Z"/><path class="cls-8" d="M98.93,97.88l67.58-71s10,1.73,12.11,15.36Z"/><path class="cls-9" d="M98.93,97.88l90.66-37.47s8.42,5.64,4.81,19Z"/><path class="cls-10" d="M98.93,97.88,197,100.46s5.4,8.57-3.32,19.27Z"/><path class="cls-11" d="M98.93,97.88l88.56,42.18s1.45,10-10.88,16.26Z"/><path class="cls-12" d="M98.93,97.88l63.74,74.5s-2.76,9.74-16.55,10.43Z"/><path class="cls-13" d="M98.93,97.88l27.92,93.94s-6.49,7.79-19.38,2.82Z"/><path class="cls-14" d="M98.93,97.88,86.2,195s-9.1,4.48-18.85-5.29Z"/><path class="cls-15" d="M98.93,97.88l-51.18,83.6s-10.13.4-15.06-12.49Z"/><path class="cls-16" d="M98.93,97.88l-80.79,55.6S8.72,149.73,9.46,136Z"/><path class="cls-17" d="M98.93,97.88l-96.44,18s-7.08-7.25-.8-19.53Z"/><path class="cls-18" d="M98.93,97.88,3.49,75.16S0,65.66,10.72,57Z"/><path class="cls-19" d="M98.93,97.88,21,38.37s.65-10.11,14-13.67Z"/><path class="cls-20" d="M98.93,97.88l-47-86s4.71-9,18.35-6.8Z"/></g><ellipse class="cls-21" cx="100.72" cy="158.31" rx="46.85" ry="12.48"/><path d="M100.72,171.31c-26.56,0-47.37-5.71-47.37-13s20.81-13,47.37-13,47.38,5.71,47.38,13S127.29,171.31,100.72,171.31Zm0-25c-25.11,0-46.33,5.48-46.33,12s21.22,12,46.33,12,46.33-5.48,46.33-12S125.84,146.35,100.72,146.35Z"/><path class="cls-22" d="M63.87,152.57a1.25,1.25,0,0,1,.78-1.17,1.16,1.16,0,0,1,.49-.1,1.31,1.31,0,0,1,.9.37,1.26,1.26,0,0,1,.38.9,1.34,1.34,0,0,1-.1.49,1.3,1.3,0,0,1-.28.41,1.27,1.27,0,0,1-.41.27,1.13,1.13,0,0,1-.49.1,1.16,1.16,0,0,1-.49-.1,1.27,1.27,0,0,1-.41-.27,1.13,1.13,0,0,1-.27-.41A1.16,1.16,0,0,1,63.87,152.57ZM66.28,155v6.4H64V155Z"/><path class="cls-22" d="M67.51,155h2.27v.81a2.42,2.42,0,0,1,.93-.76,3.16,3.16,0,0,1,1.12-.19,2.68,2.68,0,0,1,1.15.22,2.26,2.26,0,0,1,.82.62,1.65,1.65,0,0,1,.37.72,3.62,3.62,0,0,1,.1.91v4.07H72V158.2a3.26,3.26,0,0,0-.07-.77.88.88,0,0,0-.24-.47.81.81,0,0,0-.34-.21,1.25,1.25,0,0,0-.4-.06,1.12,1.12,0,0,0-.88.34,1.45,1.45,0,0,0-.3,1v3.42H67.51Z"/><path class="cls-22" d="M78,156.91v4.52H75.76v-4.52H75V155h.75v-1.92H78V155h1.29v1.88Z"/><path class="cls-22" d="M79.85,155h2.26v1.05a2.47,2.47,0,0,1,.88-.88,2.34,2.34,0,0,1,1.23-.31h.19l.25,0v2.15a2.17,2.17,0,0,0-1-.22,1.46,1.46,0,0,0-1.18.47,2.08,2.08,0,0,0-.39,1.36v2.75H79.85Z"/><path class="cls-22" d="M85.16,158.17a3.17,3.17,0,0,1,.28-1.33,3.23,3.23,0,0,1,.8-1.07,4,4,0,0,1,1.22-.72,4.52,4.52,0,0,1,1.54-.26,4.47,4.47,0,0,1,1.53.26,3.74,3.74,0,0,1,1.23.71,3.17,3.17,0,0,1,.8,1.08,3.22,3.22,0,0,1,.29,1.4,3.19,3.19,0,0,1-1.1,2.47,3.55,3.55,0,0,1-1.23.71,4.89,4.89,0,0,1-1.55.25,4.72,4.72,0,0,1-1.53-.25,3.67,3.67,0,0,1-1.2-.71,3.29,3.29,0,0,1-.8-1.11A3.48,3.48,0,0,1,85.16,158.17Zm2.38,0a1.45,1.45,0,0,0,.12.59,1.67,1.67,0,0,0,.31.47,1.62,1.62,0,0,0,.46.31,1.53,1.53,0,0,0,1.14,0,1.38,1.38,0,0,0,.46-.31,1.7,1.7,0,0,0,.32-.47,1.44,1.44,0,0,0,0-1.15,1.7,1.7,0,0,0-.32-.47,1.38,1.38,0,0,0-.46-.31,1.53,1.53,0,0,0-1.14,0,1.62,1.62,0,0,0-.46.31,1.67,1.67,0,0,0-.31.47A1.31,1.31,0,0,0,87.54,158.2Z"/><path class="cls-22" d="M98.79,151.07h2.27v10.36H98.79v-.71a2.38,2.38,0,0,1-2,.91,3.2,3.2,0,0,1-1.29-.26,3.26,3.26,0,0,1-1.71-1.81,3.85,3.85,0,0,1,0-2.65,3,3,0,0,1,.66-1.08,3.08,3.08,0,0,1,1-.73,3.17,3.17,0,0,1,1.31-.27,2.65,2.65,0,0,1,2,.83Zm-2.85,7.14a1.58,1.58,0,0,0,.11.58,1.67,1.67,0,0,0,.31.47,1.49,1.49,0,0,0,.46.31,1.56,1.56,0,0,0,1.15,0,1.49,1.49,0,0,0,.46-.31,1.77,1.77,0,0,0,.31-.46,1.39,1.39,0,0,0,0-1.13,1.54,1.54,0,0,0-.31-.47,1.33,1.33,0,0,0-.46-.31,1.41,1.41,0,0,0-1.14,0,1.33,1.33,0,0,0-.46.31,1.57,1.57,0,0,0-.31.45A1.34,1.34,0,0,0,95.94,158.21Z"/><path class="cls-22" d="M104.55,155v3.6a1,1,0,0,0,1.15,1.19c.76,0,1.14-.4,1.14-1.19V155h2.27v4a2.29,2.29,0,0,1-.86,2,5.35,5.35,0,0,1-5.11,0,2.29,2.29,0,0,1-.86-2v-4Z"/><path class="cls-22" d="M115.17,157.1a2.1,2.1,0,0,0-1.19-.4,1.74,1.74,0,0,0-.61.11,1.49,1.49,0,0,0-.49.32,1.51,1.51,0,0,0-.33.49,1.54,1.54,0,0,0-.12.63,1.59,1.59,0,0,0,.12.62,1.55,1.55,0,0,0,.32.48,1.43,1.43,0,0,0,.5.32,1.74,1.74,0,0,0,.61.11,1.89,1.89,0,0,0,1.19-.43v1.92a4,4,0,0,1-1.59.36,3.69,3.69,0,0,1-1.33-.24,3.32,3.32,0,0,1-1.11-.68,3.29,3.29,0,0,1-.77-1.06,3.25,3.25,0,0,1-.29-1.38,3.35,3.35,0,0,1,.28-1.39,3.3,3.3,0,0,1,.74-1.08,3.41,3.41,0,0,1,1.13-.72,3.88,3.88,0,0,1,1.41-.25,3.31,3.31,0,0,1,1.53.35Z"/><path class="cls-22" d="M118.66,156.91v4.52H116.4v-4.52h-.75V155h.75v-1.92h2.26V155H120v1.88Z"/><path class="cls-22" d="M120.51,152.57a1.26,1.26,0,0,1,.38-.9,1.09,1.09,0,0,1,.4-.27,1.21,1.21,0,0,1,.5-.1,1.16,1.16,0,0,1,.49.1,1.22,1.22,0,0,1,.41.27,1.46,1.46,0,0,1,.27.41,1.13,1.13,0,0,1,.1.49,1.16,1.16,0,0,1-.1.49,1.46,1.46,0,0,1-.27.41,1.39,1.39,0,0,1-.41.27,1.16,1.16,0,0,1-.49.1,1.21,1.21,0,0,1-.5-.1,1.23,1.23,0,0,1-.4-.27,1.3,1.3,0,0,1-.28-.41A1.34,1.34,0,0,1,120.51,152.57Zm2.41,2.46v6.4h-2.26V155Z"/><path class="cls-22" d="M123.91,158.17a3.18,3.18,0,0,1,.29-1.33,3.23,3.23,0,0,1,.8-1.07,4,4,0,0,1,1.22-.72,4.66,4.66,0,0,1,3.07,0,3.6,3.6,0,0,1,1.22.71,3.07,3.07,0,0,1,.81,1.08,3.37,3.37,0,0,1,.29,1.4,3.21,3.21,0,0,1-.3,1.39,3.17,3.17,0,0,1-.8,1.08,3.55,3.55,0,0,1-1.23.71,4.9,4.9,0,0,1-1.56.25,4.61,4.61,0,0,1-1.52-.25,3.72,3.72,0,0,1-1.21-.71,3.26,3.26,0,0,1-.79-1.11A3.48,3.48,0,0,1,123.91,158.17Zm2.39,0a1.45,1.45,0,0,0,.12.59,1.43,1.43,0,0,0,.77.78,1.53,1.53,0,0,0,1.14,0,1.49,1.49,0,0,0,.46-.31,1.67,1.67,0,0,0,.31-.47,1.44,1.44,0,0,0,0-1.15,1.67,1.67,0,0,0-.31-.47,1.49,1.49,0,0,0-.46-.31,1.53,1.53,0,0,0-1.14,0,1.43,1.43,0,0,0-.77.78A1.31,1.31,0,0,0,126.3,158.2Z"/><path class="cls-22" d="M132.59,155h2.26v.81a2.44,2.44,0,0,1,.94-.76,3.14,3.14,0,0,1,1.11-.19,2.73,2.73,0,0,1,1.16.22,2.26,2.26,0,0,1,.82.62,1.77,1.77,0,0,1,.37.72,3.62,3.62,0,0,1,.1.91v4.07h-2.26V158.2a3.26,3.26,0,0,0-.07-.77.88.88,0,0,0-.24-.47.81.81,0,0,0-.34-.21,1.29,1.29,0,0,0-.4-.06,1.11,1.11,0,0,0-.88.34,1.46,1.46,0,0,0-.31,1v3.42h-2.26Z"/><path class="cls-23" d="M98.64,102.54l.28-34.43-18.79.21-.25,21.35S86.11,95,87,95.84s5,3.5,6,9.29l5.64-3.07"/><path d="M92.63,105.93l-.13-.71a13.76,13.76,0,0,0-5.26-8.48l-.61-.53c-.86-.87-7-6.09-7.09-6.14l-.19-.16.26-22.11,19.83-.22-.28,35h-.3ZM80.4,89.43c1.06.9,6.15,5.23,7,6a6.45,6.45,0,0,0,.54.47,15.13,15.13,0,0,1,5.48,8.39l4.73-2.57.27-33.12-17.75.19Z"/><path class="cls-24" d="M42.14,116.36c-.09,0-2.08,8,4.77,12.29,8.57,5.43,22.3,1.42,22.3,1.42s27.31-11.71,29.22-15.6.43-6.2.43-6.2Z"/><path d="M58.62,132c-3.81,0-8.35-.61-12-2.92-7.18-4.55-5.05-12.69-5-12.77.1-.36.31-.46.48-.47l57-8.14.18.28c.06.11,1.62,2.61-.4,6.71-1.94,4-26.67,14.64-29.49,15.85l-.06,0a42.34,42.34,0,0,1-8,1.34C60.47,132,59.57,132,58.62,132ZM42.55,116.83c-.27,1.35-1.18,7.7,4.64,11.38,8.09,5.12,21.14,1.57,21.84,1.37,7.57-3.25,27.44-12.29,28.94-15.34,1.38-2.82.88-4.71.59-5.4Zm-.33,0h0Z"/><path class="cls-25" d="M51.49,103.88A22.05,22.05,0,0,0,42.23,116a21.39,21.39,0,0,0,11.58,7.39c7.46,1.73,9.41.78,14.76-1s15.69-7.39,16.7-7.89L99,107.7s.86-2,1.09-7.07-1-7.59-1-7.59l-8.18,4.67s-5.68,3.59-10-2.5S73.21,90,73.21,90L51.49,103.88"/><path d="M60.28,124.81a29.73,29.73,0,0,1-6.58-.92,21.75,21.75,0,0,1-11.89-7.6l-.14-.19.06-.23a22.27,22.27,0,0,1,9.47-12.42h0L73,89.56l.08,0c.15,0,3.74-.94,8.24,5.38,4,5.6,9.1,2.49,9.32,2.36l8.69-5,.24.51c.05.1,1.22,2.65,1,7.83s-1.1,7.18-1.13,7.26l-.08.18-.17.08L85.5,115l-.91.48c-2.78,1.46-11.22,5.9-15.86,7.45l-1,.33A21.81,21.81,0,0,1,60.28,124.81ZM42.8,115.87a21.18,21.18,0,0,0,11.13,7c6.84,1.58,8.92.88,13.48-.66l1-.33c4.56-1.52,12.95-5.93,15.7-7.38L85,114l13.52-6.69a25.14,25.14,0,0,0,1-6.72,20.35,20.35,0,0,0-.7-6.82l-7.65,4.37c-.05,0-6.13,3.76-10.71-2.65-3.71-5.2-6.6-5.05-7.06-5L51.77,104.32A22,22,0,0,0,42.8,115.87Z"/><path class="cls-4" d="M51.74,104.55s5.16,2.35,11.4,5.79c3.44,1.9,6.43-1.27,4-4.79-1.25-1.82-4.25-4-8.76-5.51S50.15,100.34,51.74,104.55Z"/><path d="M65.19,111.43a4.73,4.73,0,0,1-2.3-.63C56.74,107.41,51.57,105,51.52,105l-.19-.09-.08-.2c-.67-1.8-.49-3.36.51-4.42,1.33-1.39,3.93-1.68,6.78-.76,4.1,1.33,7.48,3.46,9,5.7,1.25,1.81,1.3,3.82.13,5.11A3.33,3.33,0,0,1,65.19,111.43Zm-13-7.26c1,.47,5.73,2.68,11.23,5.72a2.83,2.83,0,0,0,3.54-.23c.66-.73.95-2.12-.22-3.82s-3.91-3.82-8.49-5.3c-2.43-.79-4.67-.59-5.71.49A3,3,0,0,0,52.16,104.17Z"/><path class="cls-4" d="M57.31,99.46s6.38,1.42,9.83,6.09c0,0,6.85.17,5.52-4.78-.67-2.48-4.35-4.87-8.86-6.33S55.72,95.25,57.31,99.46Z"/><path d="M67.23,106.07h-.36l-.15-.2c-3.28-4.46-9.46-5.88-9.53-5.89l-.27-.06-.1-.27a4.39,4.39,0,0,1,.61-4.78c1.37-1.43,3.87-1.78,6.53-.92,5,1.62,8.52,4.19,9.2,6.69a3.77,3.77,0,0,1-.52,3.47C71.17,106,67.88,106.07,67.23,106.07ZM57.7,99c1.29.34,6.53,1.9,9.7,6,.8,0,3.34-.2,4.42-1.57a2.77,2.77,0,0,0,.33-2.56c-.57-2.14-3.92-4.48-8.51-6-2.28-.73-4.37-.49-5.46.65A3.31,3.31,0,0,0,57.7,99Z"/><path class="cls-4" d="M63.77,93.9a24.46,24.46,0,0,1,9,5.78c3.34,1.2,8.21-1.16,5.43-5.17a20.24,20.24,0,0,0-7.79-5.12C65.9,87.93,62.18,89.69,63.77,93.9Z"/><path d="M74.61,100.51a6.08,6.08,0,0,1-2-.34l-.12,0-.08-.09a24.12,24.12,0,0,0-8.79-5.65l-.23-.08-.09-.23c-.67-1.8-.49-3.37.51-4.42,1.33-1.39,3.93-1.68,6.78-.76a20.29,20.29,0,0,1,8,5.27l0,0c1.53,2.2.82,3.75.26,4.48A5.46,5.46,0,0,1,74.61,100.51Zm-1.55-1.28a4.81,4.81,0,0,0,5-1.17c.67-.87.58-2-.27-3.22a19.8,19.8,0,0,0-7.54-5c-2.43-.79-4.67-.59-5.71.49a2.94,2.94,0,0,0-.36,3.11A24.9,24.9,0,0,1,73.06,99.23Z"/><path class="cls-4" d="M73.34,90.08s-3.73-1.39-.54-7C75.72,78,79,79.89,79,79.89c.92.61,2.56,3.22.17,7.12C76.23,91.84,73.34,90.08,73.34,90.08Z"/><path d="M74.67,90.89a3.47,3.47,0,0,1-1.55-.34,3.55,3.55,0,0,1-1.89-2c-.55-1.5-.17-3.4,1.11-5.64,1.62-2.83,3.39-3.62,4.6-3.79a3.88,3.88,0,0,1,2.35.37l0,0c1.19.79,2.83,3.74.32,7.82C77.81,90.25,75.94,90.89,74.67,90.89Zm-1.06-1.26c.1.06,2.51,1.39,5.14-2.9,2.3-3.73.62-6,0-6.4-.24-.12-3-1.41-5.51,3-1.11,1.93-1.47,3.58-1,4.76a2.5,2.5,0,0,0,1.32,1.46Z"/><path class="cls-4" d="M73.88,80.83S61,73.26,58.06,82.07c0,0-1.31,5.7,4.95,6.53,1.47.2,8.3-.75,8.3-.75A11.06,11.06,0,0,1,73.88,80.83Z"/><path d="M63.55,89.15a5.16,5.16,0,0,1-.61,0,6.24,6.24,0,0,1-4.53-2.43A6.49,6.49,0,0,1,57.55,82v0a6.27,6.27,0,0,1,3.79-4.15c5-1.88,12.48,2.44,12.8,2.63l.52.31-.39.46a10.6,10.6,0,0,0-2.45,6.67l0,.47-.47.07C70.75,88.46,65.68,89.15,63.55,89.15Zm-5-6.94a5.52,5.52,0,0,0,.71,3.89,5.25,5.25,0,0,0,3.81,2,59.37,59.37,0,0,0,7.71-.69A11.72,11.72,0,0,1,73.1,81c-1.76-.92-7.53-3.7-11.39-2.26A5.25,5.25,0,0,0,58.56,82.21Z"/><path d="M72.25,84.35a11.49,11.49,0,0,0-5.67-.7l-.2-1a12.3,12.3,0,0,1,6.24.75Z"/><path class="cls-4" d="M80.83,83.34S95,88,90.32,96.05c0,0-3.44,4.73-8.19.57-1.12-1-4.9-6.72-4.9-6.72A11.08,11.08,0,0,0,80.83,83.34Z"/><path d="M86.05,98.85A6.47,6.47,0,0,1,81.79,97c-1.14-1-4.6-6.24-5-6.84l-.27-.4.38-.29a10.67,10.67,0,0,0,3.4-6.24l.1-.6.58.19c.35.12,8.51,2.87,10.41,7.89a6.27,6.27,0,0,1-.64,5.58l0,0a6.48,6.48,0,0,1-4.13,2.47ZM77.92,90a59.76,59.76,0,0,0,4.55,6.24,5.23,5.23,0,0,0,4,1.56,5.48,5.48,0,0,0,3.4-2,5.23,5.23,0,0,0,.54-4.66C89,87.25,83.08,84.74,81.22,84A11.74,11.74,0,0,1,77.92,90Z"/><path d="M83.88,90.87a11.49,11.49,0,0,0-4.26-3.81l.48-.92a12.32,12.32,0,0,1,4.68,4.2Z"/><path class="cls-4" d="M79.77,80.32a45.34,45.34,0,0,1,7.06-10.76c4.59-5.13,9.6-.37,6.13,4.17s-3.78,3.3-9.12,11"/><path d="M84.27,85.06l-.86-.59a45.63,45.63,0,0,1,6-7.48,33.38,33.38,0,0,0,3.13-3.57c1.54-2,1.2-4,.07-5s-3.3-.9-5.41,1.46a45.11,45.11,0,0,0-7,10.62l-1-.42a45.65,45.65,0,0,1,7.15-10.9c2.56-2.86,5.28-2.85,6.84-1.57s2,3.86.1,6.41a33.83,33.83,0,0,1-3.22,3.67A44.61,44.61,0,0,0,84.27,85.06Z"/><path class="cls-4" d="M84,84.68s-.42-.48-3.22-1.43c0,0,.25-1.06-.82-3.15"/><path d="M83.62,85.05a10.46,10.46,0,0,0-3-1.31l-.44-.16.1-.45h0a5,5,0,0,0-.77-2.79l.92-.47a7,7,0,0,1,.91,3c2.39.84,2.94,1.31,3.06,1.44l-.39.35Z"/><path class="cls-4" d="M78.31,79.3a53.25,53.25,0,0,0-9.66-12.58c-6.85-6.84-17.78-3.27-17.78-3.27S39.51,66,41.63,78.35,38.71,90.16,36.7,90.59,33.24,92,33.83,93.92c.68,2.21,2.06,2.6,4.79,1.6a11.81,11.81,0,0,0,6.12-4.6c4.14-6.1,2.44-10.6,2-13.37S45,70.42,51,67.34c9.09-4.68,15.58,3.08,15.58,3.08s3.06,2.33,4.79,8.71l3,1.72Z"/><path d="M36.26,96.56a2.94,2.94,0,0,1-1.32-.28,3.4,3.4,0,0,1-1.61-2.21,2.68,2.68,0,0,1,.18-2.22,4.44,4.44,0,0,1,3.08-1.77l.66-.11a4.36,4.36,0,0,0,3.24-1.59c1.25-1.73,1.46-5.07.62-9.94C39,66.06,50.09,63.11,50.72,63S62.1,59.45,69,66.35a53.29,53.29,0,0,1,9.77,12.72l.25.5-4.71,1.86-3.41-2-.06-.21c-1.66-6.1-4.58-8.41-4.61-8.43l-.08-.08c-.26-.3-6.34-7.38-14.94-3-5.16,2.66-4.56,6.14-4.07,8.94,0,.25.08.5.12.73s.13.74.21,1.16a14.8,14.8,0,0,1-2.31,12.58A12.31,12.31,0,0,1,38.8,96,7.57,7.57,0,0,1,36.26,96.56ZM57.41,63.05a23.42,23.42,0,0,0-6.38.89L51,64c-.44.1-10.85,2.6-8.84,14.3C43,83.49,42.77,87,41.33,89a5.38,5.38,0,0,1-3.93,2c-.22,0-.42.06-.59.1a3.54,3.54,0,0,0-2.4,1.27,1.67,1.67,0,0,0-.08,1.4,2.35,2.35,0,0,0,1.08,1.57c.63.32,1.59.22,3-.31a11.3,11.3,0,0,0,5.87-4.41c3.48-5.11,2.71-9,2.15-11.79-.08-.43-.16-.83-.22-1.2s-.08-.46-.12-.71c-.48-2.8-1.22-7,4.62-10,9-4.63,15.61,2.52,16.18,3.16.4.33,3.2,2.77,4.88,8.74l2.6,1.5L77.58,79a55.88,55.88,0,0,0-9.3-11.94A15,15,0,0,0,57.41,63.05Z"/><path class="cls-23" d="M102.69,101.62l-.28-34.43,18.79.21.25,21.35s-6.23,5.28-7.13,6.17-5,3.51-6,9.29l-5.64-3.07"/><path d="M108.7,105l-6.23-3.38h-.3l-.28-35,19.82.22L122,89l-.18.16c-.07,0-6.23,5.28-7.1,6.14a7.57,7.57,0,0,1-.6.53,13.81,13.81,0,0,0-5.27,8.48Zm-5.49-4.17,4.73,2.58A15,15,0,0,1,113.42,95c.23-.19.42-.36.54-.47.82-.82,5.9-5.14,7-6l-.24-20.59-17.75-.2Z"/><path class="cls-24" d="M159.19,115.45c.08,0,2.07,8-4.77,12.28-8.57,5.43-22.3,1.42-22.3,1.42s-27.31-11.71-29.23-15.59-.42-6.2-.42-6.2Z"/><path d="M142.71,131.09c-1,0-1.86,0-2.69-.09a42.6,42.6,0,0,1-8-1.35l-.06,0c-2.82-1.21-27.55-11.9-29.49-15.85s-.47-6.6-.4-6.7l.18-.29.33,0,56.71,8.09c.17,0,.38.12.48.47,0,.08,2.15,8.22-5,12.77C151.06,130.48,146.52,131.09,142.71,131.09Zm-10.41-2.43c.7.2,13.76,3.75,21.84-1.37,5.82-3.68,4.91-10,4.64-11.38l-56-8c-.29.69-.8,2.58.59,5.41C104.86,116.37,124.72,125.41,132.3,128.66ZM159.1,116h0Z"/><path class="cls-26" d="M149.84,103a22,22,0,0,1,9.25,12.11,21.43,21.43,0,0,1-11.58,7.4c-7.46,1.72-9.4.77-14.75-1s-15.7-7.39-16.7-7.89l-13.69-6.78s-.87-2-1.09-7.08,1-7.59,1-7.59l8.18,4.67s5.68,3.59,10-2.5,7.68-5.17,7.68-5.17L149.84,103"/><path d="M141.05,123.89a21.81,21.81,0,0,1-7.47-1.6l-1-.33c-4.64-1.55-13.08-6-15.86-7.45l-.91-.48-13.69-6.78-.17-.08-.08-.17c0-.09-.91-2.11-1.13-7.27s.95-7.73,1-7.83l.24-.51,8.67,5c.23.15,5.34,3.25,9.34-2.35,4.5-6.31,8.09-5.41,8.24-5.37l.08,0,.06,0,21.74,13.85A22.4,22.4,0,0,1,159.6,115l.05.23-.14.2A21.77,21.77,0,0,1,147.63,123,29.14,29.14,0,0,1,141.05,123.89Zm-38.27-17.48,13.51,6.69.94.49c2.75,1.45,11.14,5.86,15.7,7.38l1,.33c4.57,1.54,6.65,2.24,13.49.66a21.1,21.1,0,0,0,11.12-7,21.9,21.9,0,0,0-9-11.56L127.92,89.61c-.45-.06-3.34-.24-7.07,5-4.57,6.42-10.66,2.68-10.72,2.64l-7.63-4.35a19.69,19.69,0,0,0-.7,6.81A24.6,24.6,0,0,0,102.78,106.41Z"/><path class="cls-4" d="M149.59,103.63s-5.16,2.35-11.4,5.8c-3.44,1.89-6.43-1.28-4-4.8,1.25-1.81,4.25-4,8.76-5.5S151.17,99.42,149.59,103.63Z"/><path d="M136.14,110.52a3.33,3.33,0,0,1-2.51-1.08c-1.17-1.29-1.12-3.29.13-5.1,1.55-2.25,4.92-4.38,9-5.71,2.85-.92,5.44-.63,6.78.77,1,1,1.18,2.62.51,4.41l-.08.2-.2.09c-.05,0-5.21,2.39-11.36,5.78A4.74,4.74,0,0,1,136.14,110.52Zm9.78-11.38a9.26,9.26,0,0,0-2.81.48c-4.59,1.49-7.39,3.72-8.49,5.31s-.88,3.08-.22,3.81a2.81,2.81,0,0,0,3.54.23c5.5-3,10.22-5.25,11.23-5.72a2.93,2.93,0,0,0-.36-3.13A3.9,3.9,0,0,0,145.92,99.14Z"/><path class="cls-4" d="M144,98.54s-6.39,1.42-9.83,6.09c0,0-6.86.17-5.52-4.78.67-2.47,4.35-4.87,8.86-6.33S145.61,94.33,144,98.54Z"/><path d="M134.1,105.15c-.65,0-3.94-.09-5.41-2a3.74,3.74,0,0,1-.52-3.47c.67-2.5,4.2-5.06,9.2-6.68,2.66-.86,5.16-.51,6.53.91,1.11,1.17,1.33,2.87.61,4.79l-.1.26-.28.06c-.06,0-6.24,1.44-9.52,5.89l-.15.2h-.36Zm6.07-11.55a8.16,8.16,0,0,0-2.48.42c-4.6,1.48-7.94,3.83-8.52,6a2.72,2.72,0,0,0,.34,2.55c1.07,1.37,3.62,1.55,4.42,1.57,3.16-4.1,8.4-5.67,9.69-6a3.29,3.29,0,0,0-.48-3.45A4,4,0,0,0,140.17,93.6Z"/><path class="cls-4" d="M137.56,93a24.41,24.41,0,0,0-9,5.79c-3.34,1.19-8.21-1.17-5.43-5.18a20.27,20.27,0,0,1,7.79-5.11C135.43,87,139.14,88.77,137.56,93Z"/><path d="M126.71,99.59a5.46,5.46,0,0,1-4.27-1.81c-.56-.73-1.27-2.28.26-4.48l0,0a20.57,20.57,0,0,1,8-5.27c2.85-.92,5.44-.63,6.78.77,1,1,1.18,2.62.51,4.41l-.09.23-.24.08a24.28,24.28,0,0,0-8.78,5.65l-.09.09-.12,0A6,6,0,0,1,126.71,99.59Zm-3.17-5.67c-.85,1.23-.94,2.35-.27,3.23a4.85,4.85,0,0,0,5,1.17,24.65,24.65,0,0,1,8.88-5.75,2.94,2.94,0,0,0-.37-3.11c-1-1.08-3.27-1.28-5.7-.49A19.71,19.71,0,0,0,123.54,93.92Z"/><path class="cls-4" d="M128,89.16s3.73-1.39.54-7C125.61,77.08,122.3,79,122.3,79c-.92.61-2.56,3.23-.17,7.12C125.1,90.92,128,89.16,128,89.16Z"/><path d="M126.66,90c-1.27,0-3.15-.65-5-3.62-2.51-4.08-.87-7,.32-7.82l0,0a3.94,3.94,0,0,1,2.35-.37c1.2.17,3,1,4.59,3.79,1.29,2.25,1.66,4.15,1.12,5.65a3.55,3.55,0,0,1-1.89,2A3.47,3.47,0,0,1,126.66,90Zm-4.09-10.56c-.61.42-2.29,2.66,0,6.4,2.64,4.29,5.05,3,5.15,2.89l.08,0a2.47,2.47,0,0,0,1.33-1.46c.41-1.18.05-2.82-1-4.76s-2.44-3.07-3.83-3.27A2.94,2.94,0,0,0,122.57,79.42Z"/><path class="cls-4" d="M127.45,79.92s12.87-7.58,15.82,1.23c0,0,1.31,5.7-5,6.54-1.47.19-8.29-.75-8.29-.75A11.13,11.13,0,0,0,127.45,79.92Z"/><path d="M137.77,88.23c-2.12,0-7.19-.69-7.82-.78l-.48-.06,0-.48A10.69,10.69,0,0,0,127,80.25l-.38-.47.52-.31c.32-.19,7.76-4.51,12.8-2.63A6.23,6.23,0,0,1,143.76,81l0,.05a6.53,6.53,0,0,1-.86,4.73,6.2,6.2,0,0,1-4.54,2.43A4.93,4.93,0,0,1,137.77,88.23Zm-7.23-1.75a57.65,57.65,0,0,0,7.71.69,5.24,5.24,0,0,0,3.81-2,5.51,5.51,0,0,0,.71-3.89,5.31,5.31,0,0,0-3.16-3.48c-3.86-1.44-9.63,1.34-11.38,2.27A11.7,11.7,0,0,1,130.54,86.48Z"/><path d="M129.08,83.43l-.38-1a12.34,12.34,0,0,1,6.25-.75l-.2,1,.1-.51-.1.51A11.48,11.48,0,0,0,129.08,83.43Z"/><path class="cls-4" d="M120.5,82.42S106.32,87.11,111,95.13c0,0,3.43,4.74,8.19.58,1.11-1,4.9-6.73,4.9-6.73A11.08,11.08,0,0,1,120.5,82.42Z"/><path d="M115.28,97.94a3.52,3.52,0,0,1-.56,0,6.45,6.45,0,0,1-4.13-2.47l0,0a6.26,6.26,0,0,1-.63-5.58c1.9-5,10.06-7.77,10.41-7.88l.58-.19.1.6a10.61,10.61,0,0,0,3.4,6.23l.37.3-.26.39c-.39.6-3.85,5.84-5,6.84A6.52,6.52,0,0,1,115.28,97.94Zm-3.83-3.1a5.44,5.44,0,0,0,3.39,2,5.23,5.23,0,0,0,4-1.55,58.86,58.86,0,0,0,4.56-6.25,11.74,11.74,0,0,1-3.3-5.95c-1.86.7-7.75,3.21-9.21,7.06A5.26,5.26,0,0,0,111.45,94.84Z"/><path d="M117.45,90l-.9-.52a12.15,12.15,0,0,1,4.68-4.2l.48.92A11.31,11.31,0,0,0,117.45,90Z"/><path class="cls-4" d="M121.56,79.4a45.72,45.72,0,0,0-7.06-10.76c-4.59-5.13-9.6-.37-6.14,4.17s3.78,3.3,9.13,11"/><path d="M117.06,84.14a45.75,45.75,0,0,0-5.89-7.34A32.87,32.87,0,0,1,108,73.13c-1.94-2.55-1.42-5.15.1-6.4s4.27-1.3,6.84,1.57A45.85,45.85,0,0,1,122,79.19l-1,.42a45.34,45.34,0,0,0-7-10.62c-2.1-2.35-4.23-2.43-5.4-1.46s-1.48,2.94.07,5a31.38,31.38,0,0,0,3.13,3.57,46.2,46.2,0,0,1,6,7.48Z"/><path class="cls-4" d="M117.34,83.76s.42-.47,3.22-1.43c0,0-.25-1.06.82-3.14"/><path d="M117.71,84.13l-.76-.71c.11-.13.66-.6,3.06-1.45a7,7,0,0,1,.9-3l.93.47a5,5,0,0,0-.78,2.8l.09.44-.42.16A10.88,10.88,0,0,0,117.71,84.13Z"/><path class="cls-4" d="M123,78.38a52.91,52.91,0,0,1,9.66-12.58c6.85-6.84,17.78-3.27,17.78-3.27s11.36,2.56,9.24,14.9,2.92,11.81,4.93,12.24,3.46,1.39,2.87,3.33c-.68,2.21-2.06,2.6-4.79,1.6a11.88,11.88,0,0,1-6.13-4.6c-4.14-6.1-2.43-10.6-2-13.37s1.77-7.12-4.22-10.21c-9.1-4.68-15.58,3.08-15.58,3.08s-3.06,2.33-4.8,8.71l-3,1.72Z"/><path d="M165.06,95.65a7.62,7.62,0,0,1-2.53-.56,12.34,12.34,0,0,1-6.38-4.8,14.83,14.83,0,0,1-2.31-12.58c.09-.41.16-.81.22-1.16s.08-.47.12-.72c.49-2.8,1.09-6.29-4.07-8.94-8.6-4.43-14.69,2.64-14.94,2.94l-.08.08s-3,2.34-4.61,8.44l-.06.21-3.41,2-4.71-1.86.25-.5a53.06,53.06,0,0,1,9.76-12.72c6.92-6.9,17.61-3.62,18.29-3.4s11.74,3.11,9.62,15.49c-.84,4.87-.63,8.22.62,9.94a4.31,4.31,0,0,0,3.24,1.59l.65.11a4.46,4.46,0,0,1,3.09,1.77,2.68,2.68,0,0,1,.17,2.22,3.34,3.34,0,0,1-1.61,2.21A2.89,2.89,0,0,1,165.06,95.65ZM144.53,64.41A13.12,13.12,0,0,1,150.59,66c5.83,3,5.1,7.24,4.62,10-.05.25-.09.48-.12.71s-.14.78-.22,1.2c-.56,2.82-1.33,6.68,2.15,11.8a11.25,11.25,0,0,0,5.86,4.4c1.44.53,2.41.63,3,.32A2.4,2.4,0,0,0,167,92.85a1.68,1.68,0,0,0-.08-1.39,3.55,3.55,0,0,0-2.4-1.28l-.59-.1a5.33,5.33,0,0,1-3.93-2c-1.44-2-1.71-5.49-.81-10.72,2-11.7-8.4-14.21-8.84-14.31h0c-.11,0-10.71-3.39-17.25,3.14a56,56,0,0,0-9.3,11.94l3.18,1.25,2.6-1.49c1.67-6,4.47-8.42,4.88-8.75C134.84,68.64,138.75,64.41,144.53,64.41Z"/></g></g></svg>