<svg xmlns="http://www.w3.org/2000/svg" xmlns:xlink="http://www.w3.org/1999/xlink" viewBox="0 0 197.58 197.65"><defs><style>.cls-1{fill:none;}.cls-2{clip-path:url(#clip-path);}.cls-3{fill:#278284;}.cls-4{fill:#fff;}.cls-5{opacity:0.5;}.cls-6{fill:url(#무제_그라디언트_667);}.cls-7{fill:url(#무제_그라디언트_667-2);}.cls-8{fill:url(#무제_그라디언트_667-3);}.cls-9{fill:url(#무제_그라디언트_667-4);}.cls-10{fill:url(#무제_그라디언트_667-5);}.cls-11{fill:url(#무제_그라디언트_667-6);}.cls-12{fill:url(#무제_그라디언트_667-7);}.cls-13{fill:url(#무제_그라디언트_667-8);}.cls-14{fill:url(#무제_그라디언트_667-9);}.cls-15{fill:url(#무제_그라디언트_667-10);}.cls-16{fill:url(#무제_그라디언트_667-11);}.cls-17{fill:url(#무제_그라디언트_667-12);}.cls-18{fill:url(#무제_그라디언트_667-13);}.cls-19{fill:url(#무제_그라디언트_667-14);}.cls-20{fill:url(#무제_그라디언트_667-15);}.cls-21{fill:url(#무제_그라디언트_707);}.cls-22{fill:#231815;}.cls-23{fill:#d0e8f7;}.cls-24{fill:#f4c01a;}</style><clipPath id="clip-path"><path class="cls-1" d="M98.89,197.55A98.78,98.78,0,1,1,168.82,28.93,98.78,98.78,0,0,1,98.89,197.55Z"/></clipPath><linearGradient id="무제_그라디언트_667" x1="177.18" y1="2.84" x2="158.28" y2="87.06" gradientTransform="translate(-75.48 17.75) rotate(-4.44)" gradientUnits="userSpaceOnUse"><stop offset="0" stop-color="#ffffce" stop-opacity="0"/><stop offset="1" stop-color="#fffff6"/></linearGradient><linearGradient id="무제_그라디언트_667-2" x1="-1087.74" y1="1902.22" x2="-1106.65" y2="1986.46" gradientTransform="translate(1800.15 -1412.88) rotate(19.55)" xlink:href="#무제_그라디언트_667"/><linearGradient id="무제_그라디언트_667-3" x1="-1471.25" y1="4151.79" x2="-1490.17" y2="4236.07" gradientTransform="translate(4095.4 -1957.44) rotate(43.53)" xlink:href="#무제_그라디언트_667"/><linearGradient id="무제_그라디언트_667-4" x1="-907.11" y1="6362.98" x2="-926.03" y2="6447.3" gradientTransform="translate(6413.8 -1521.86) rotate(67.52)" xlink:href="#무제_그라디언트_667"/><linearGradient id="무제_그라디언트_667-5" x1="507.24" y1="8153.89" x2="488.32" y2="8238.2" gradientTransform="translate(8354.89 -181.38) rotate(91.51)" xlink:href="#무제_그라디언트_667"/><linearGradient id="무제_그라디언트_667-6" x1="2527.51" y1="9215.16" x2="2508.59" y2="9299.45" gradientTransform="matrix(-0.43, 0.9, -0.9, -0.43, 9583.39, 1832.45)" xlink:href="#무제_그라디언트_667"/><linearGradient id="무제_그라디언트_667-7" x1="4804.74" y1="9363.47" x2="4785.83" y2="9447.72" gradientTransform="translate(9887.08 4171.78) rotate(139.48)" xlink:href="#무제_그라디언트_667"/><linearGradient id="무제_그라디언트_667-8" x1="6945.59" y1="8573.18" x2="6926.69" y2="8657.4" gradientTransform="translate(9213.53 6432.54) rotate(163.47)" xlink:href="#무제_그라디언트_667"/><linearGradient id="무제_그라디언트_667-9" x1="8580.27" y1="6980.79" x2="8561.37" y2="7065.01" gradientTransform="translate(7679.06 8224.22) rotate(-172.54)" xlink:href="#무제_그라디언트_667"/><linearGradient id="무제_그라디언트_667-10" x1="9426.4" y1="4861.34" x2="9407.49" y2="4945.59" gradientTransform="translate(5548.74 9237.34) rotate(-148.55)" xlink:href="#무제_그라디언트_667"/><linearGradient id="무제_그라디언트_667-11" x1="9337.82" y1="2580.95" x2="9318.9" y2="2665.25" gradientTransform="matrix(-0.57, -0.82, 0.82, -0.57, 3190.53, 9296.91)" xlink:href="#무제_그라디언트_667"/><linearGradient id="무제_그라디언트_667-12" x1="8329.82" y1="533.54" x2="8310.89" y2="617.86" gradientTransform="matrix(-0.18, -0.98, 0.98, -0.18, 1011.77, 8392.64)" xlink:href="#무제_그라디언트_667"/><linearGradient id="무제_그라디언트_667-13" x1="6576.53" y1="-927.23" x2="6557.61" y2="-842.93" gradientTransform="matrix(0.23, -0.97, 0.97, 0.23, -611.2, 6680.72)" xlink:href="#무제_그라디언트_667"/><linearGradient id="무제_그라디언트_667-14" x1="4380.8" y1="-1549.04" x2="4361.89" y2="-1464.78" gradientTransform="matrix(0.61, -0.79, 0.79, 0.61, -1398.04, 4456.85)" xlink:href="#무제_그라디언트_667"/><linearGradient id="무제_그라디언트_667-15" x1="2121.93" y1="-1224.51" x2="2103.02" y2="-1140.29" gradientTransform="translate(-1212.84 2105.17) rotate(-28.62)" xlink:href="#무제_그라디언트_667"/><linearGradient id="무제_그라디언트_707" x1="85.35" y1="159.1" x2="116.58" y2="159.1" gradientUnits="userSpaceOnUse"><stop offset="0" stop-color="#fff"/><stop offset="1" stop-color="#fff"/></linearGradient></defs><title>badge</title><g id="레이어_3" data-name="레이어 3"><g class="cls-2"><path class="cls-3" d="M98.89,197.55A98.78,98.78,0,1,1,168.82,28.93,98.78,98.78,0,0,1,98.89,197.55Z"/><path class="cls-4" d="M98.77,184.23a82.9,82.9,0,0,1-82.95-82.84h.35a82.62,82.62,0,0,0,141,58.33,81.9,81.9,0,0,0,24.19-58.33h.35a82.88,82.88,0,0,1-82.94,82.84Z"/><rect class="cls-3" x="9.76" y="74.33" width="181.16" height="34.32"/><path class="cls-4" d="M20.12,94.14l-5.69,3.43.22-3.23,3-1.75-2.73-2.11.22-3.24,5.17,4.19,5,.33-.19,2.72Z"/><path class="cls-4" d="M20.49,86.36A5.48,5.48,0,0,1,17,83.92a5.26,5.26,0,0,1-.74-2,6.17,6.17,0,0,1,.09-2.37,6.39,6.39,0,0,1,.93-2.18,5.54,5.54,0,0,1,1.55-1.54,5.52,5.52,0,0,1,7.66,1.72,5.47,5.47,0,0,1,.74,2,6.36,6.36,0,0,1-.09,2.37,6.23,6.23,0,0,1-.93,2.18,5.6,5.6,0,0,1-1.54,1.53,5.7,5.7,0,0,1-2,.78A5.5,5.5,0,0,1,20.49,86.36Zm.62-2.77a2.94,2.94,0,0,0,1.18,0,3.11,3.11,0,0,0,1-.42,2.93,2.93,0,0,0,.79-.78,2.88,2.88,0,0,0,.46-1.06,3,3,0,0,0,0-1.15,2.9,2.9,0,0,0-1.13-1.88,2.79,2.79,0,0,0-1.08-.48,2.77,2.77,0,0,0-2.21.4,2.83,2.83,0,0,0-.79.79,3.05,3.05,0,0,0-.46,1.06,2.87,2.87,0,0,0,1.1,3A2.76,2.76,0,0,0,21.11,83.59Z"/><path class="cls-4" d="M20.31,67.5l5.26,2.17c.28.12.57.23.88.33a2.49,2.49,0,0,0,.88.14,1.44,1.44,0,0,0,.79-.27,1.94,1.94,0,0,0,.63-.88,1.88,1.88,0,0,0,.17-1.06,1.48,1.48,0,0,0-.37-.75,2.49,2.49,0,0,0-.72-.53L27,66.26l-5.26-2.17,1-2.5,5.61,2.32a4.92,4.92,0,0,1,2.87,2.39A4.65,4.65,0,0,1,31,69.9a4.65,4.65,0,0,1-2.35,2.75,4.88,4.88,0,0,1-3.73-.32L19.27,70Z"/><path class="cls-4" d="M29.14,50.44l6.45,2.71-4-5.89,1.33-1.71,6.7,2.38-4.24-5.56,1.74-2.25L43.5,49l-1.7,2.19L35.74,49.1l3.54,5.33-1.7,2.19L27.39,52.69Z"/><path class="cls-4" d="M53.35,39.75,50.82,42,46.2,40.72l2.68,3-2,1.81-7-7.8,3.16-2.81a4,4,0,0,1,1.31-.83,3,3,0,0,1,1.27-.19,3,3,0,0,1,1.16.34,3.67,3.67,0,0,1,1,.79,3.09,3.09,0,0,1,.86,1.83,2.93,2.93,0,0,1-.6,1.88ZM45,39.41l.38-.34a2,2,0,0,0,.7-1.07,1.27,1.27,0,0,0-1.27-1.43,2,2,0,0,0-1.15.57l-.38.34Z"/><path class="cls-4" d="M51.38,34.61a5.63,5.63,0,0,1-.8-2.06,5.39,5.39,0,0,1,.06-2.12,5.48,5.48,0,0,1,.9-2,6.17,6.17,0,0,1,1.75-1.61,6.06,6.06,0,0,1,2.19-.9A5.53,5.53,0,0,1,62,30.43a5.27,5.27,0,0,1-.07,2.13,5.44,5.44,0,0,1-.92,2,6.23,6.23,0,0,1-1.73,1.61,6.39,6.39,0,0,1-2.2.91,5.46,5.46,0,0,1-2.17,0,5.28,5.28,0,0,1-1.95-.84A5.44,5.44,0,0,1,51.38,34.61Zm2.4-1.53a2.86,2.86,0,0,0,.82.84,3.09,3.09,0,0,0,1,.43,3,3,0,0,0,1.12,0,3,3,0,0,0,1.07-.43A2.93,2.93,0,0,0,59.17,31a2.9,2.9,0,0,0-1.24-1.94,2.8,2.8,0,0,0-1-.42,3,3,0,0,0-3,1.21,3.05,3.05,0,0,0-.47,1,3,3,0,0,0,0,1.11A2.91,2.91,0,0,0,53.78,33.08Z"/><path class="cls-4" d="M66.34,22.82l3.38,7.42-2.48,1.12-3.37-7.42-2,.92-.95-2.1,6.55-3,.95,2.09Z"/><path class="cls-4" d="M76.75,19.07l-3.08,1,.54,1.66,2.91-.93L77.83,23l-2.91.93.55,1.72,3.08-1,.71,2.19-5.67,1.82L70.38,18.7l5.67-1.82Z"/><path class="cls-4" d="M89.31,19.79l-4.36-5,3.23-.33,2.23,2.64L92,14l3.23-.34L92,19.5l.53,5-2.71.28Z"/><path class="cls-4" d="M97,18.82A5.43,5.43,0,0,1,98.84,15a5.69,5.69,0,0,1,1.89-1.08,6.41,6.41,0,0,1,2.35-.3,6.21,6.21,0,0,1,2.31.54,5.62,5.62,0,0,1,1.78,1.26,5.27,5.27,0,0,1,1.11,1.81,5.7,5.7,0,0,1-.22,4.34,5.34,5.34,0,0,1-3.18,2.77,6.47,6.47,0,0,1-2.35.3,6.22,6.22,0,0,1-2.32-.54,5.53,5.53,0,0,1-1.76-1.26A5.4,5.4,0,0,1,97.35,21,5.53,5.53,0,0,1,97,18.82Zm2.85.14a2.78,2.78,0,0,0,.18,1.16,2.67,2.67,0,0,0,.59.95,2.81,2.81,0,0,0,.9.65,3,3,0,0,0,1.12.27,2.89,2.89,0,0,0,1.14-.16,3.06,3.06,0,0,0,1-.55,3.13,3.13,0,0,0,.69-.88,2.91,2.91,0,0,0,.29-1.14,2.78,2.78,0,0,0-.18-1.16,2.84,2.84,0,0,0-.6-1,3,3,0,0,0-.91-.65,3,3,0,0,0-1.12-.27,3,3,0,0,0-2.11.71,3.1,3.1,0,0,0-.68.88A2.91,2.91,0,0,0,99.87,19Z"/><path class="cls-4" d="M115.57,15.44,114.32,21c-.06.3-.12.61-.17.92a2.64,2.64,0,0,0,0,.89,1.5,1.5,0,0,0,.4.74,2,2,0,0,0,1,.47,1.91,1.91,0,0,0,1.07,0,1.55,1.55,0,0,0,.68-.5,2.61,2.61,0,0,0,.4-.8q.14-.45.24-.9l1.24-5.55,2.65.6-1.34,5.91A4.89,4.89,0,0,1,118.61,26a5.83,5.83,0,0,1-6.71-1.51,4.83,4.83,0,0,1-.31-3.72l1.33-5.91Z"/><path class="cls-4" d="M130.35,31.09l-3.15-1.23-1-4.69-1.47,3.75-2.53-1,3.8-9.74,4,1.54a4.19,4.19,0,0,1,1.33.79,3.16,3.16,0,0,1,.75,1,3.22,3.22,0,0,1,.22,1.19A3.62,3.62,0,0,1,132,24a3,3,0,0,1-1.24,1.59,2.85,2.85,0,0,1-2,.32Zm-3.46-7.56.48.19a2,2,0,0,0,1.27.13,1.11,1.11,0,0,0,.75-.73,1.13,1.13,0,0,0-.06-1.05,2,2,0,0,0-1-.76l-.48-.18Z"/><path class="cls-4" d="M144.13,39.47l-2.82-1.89.09-4.78-2.24,3.34-2.26-1.51,5.82-8.69,3.52,2.36a4.09,4.09,0,0,1,1.12,1.06,2.91,2.91,0,0,1,.51,1.18,3,3,0,0,1,0,1.2,3.54,3.54,0,0,1-.52,1.16,3.07,3.07,0,0,1-1.56,1.29,3,3,0,0,1-2-.11Zm-1.75-8.13.42.28A2,2,0,0,0,144,32a1.15,1.15,0,0,0,.89-.55,1.13,1.13,0,0,0,.17-1,2,2,0,0,0-.84-1l-.43-.29Z"/><path class="cls-4" d="M155.37,38.49l-2.43-2.13-1.16,1.31,2.3,2-1.52,1.73-2.3-2-1.19,1.36,2.43,2.13L150,44.62l-4.47-3.93,6.9-7.85,4.48,3.92Z"/><path class="cls-4" d="M161.05,41l-3.17,6.07,6.48-2.24,1.93,2.24-10.81,3.49-1.41-1.64,5.05-10.15Z"/><path class="cls-4" d="M169.49,51.92l-8.67,5.86-1.52-2.26L168,49.67Z"/><path class="cls-4" d="M172.45,61.72l-1.51-2.86-1.54.82,1.42,2.69-2,1.08-1.42-2.7-1.6.84,1.51,2.86-2,1.07-2.77-5.26,9.26-4.87,2.77,5.26Z"/><path class="cls-4" d="M177.08,66l-5.81,3.89,7.11-.08.7,2.05-5.68,4.28,7-.48.92,2.69-10.91.43-.9-2.63,5.08-3.9-6.41,0-.89-2.63,8.89-6.33Z"/><path class="cls-4" d="M180,87.79a3.47,3.47,0,0,0,.39-1,2.4,2.4,0,0,0,0-.88,1.4,1.4,0,0,0-.38-.81.8.8,0,0,0-.7-.23.64.64,0,0,0-.42.24,1.35,1.35,0,0,0-.24.48,3.58,3.58,0,0,0-.14.64c0,.23-.06.46-.1.69a4.25,4.25,0,0,1-.87,2.11,2.94,2.94,0,0,1-1.82.91,3.65,3.65,0,0,1-1.48,0,3,3,0,0,1-1.23-.61,3.61,3.61,0,0,1-.91-1.14,5.68,5.68,0,0,1-.52-1.66,6.28,6.28,0,0,1,.61-3.81l2.34.81a4.82,4.82,0,0,0-.61,1.32,3,3,0,0,0-.08,1.21,1.42,1.42,0,0,0,.46.93.93.93,0,0,0,.73.21.86.86,0,0,0,.39-.14.89.89,0,0,0,.28-.32,2.69,2.69,0,0,0,.19-.55c.05-.21.1-.48.16-.79s.12-.72.2-1.07a3.24,3.24,0,0,1,.39-1,2.48,2.48,0,0,1,.73-.75,2.87,2.87,0,0,1,1.23-.44,3.59,3.59,0,0,1,1.43,0,3,3,0,0,1,1.18.54,3.11,3.11,0,0,1,.87,1,4.07,4.07,0,0,1,.48,1.45,6.75,6.75,0,0,1,0,1.63,7.09,7.09,0,0,1-.38,1.7Z"/><g class="cls-5"><path class="cls-6" d="M98.94,99.05l-7.6-97.7s8-6.26,19.53,1.3Z"/><path class="cls-7" d="M98.94,99.05,131.76,6.7s9.83-2.47,17.32,9.12Z"/><path class="cls-8" d="M98.94,99.05l67.57-71s10,1.73,12.11,15.37Z"/><path class="cls-9" d="M98.94,99.05l90.65-37.47s8.43,5.64,4.81,19Z"/><path class="cls-10" d="M98.94,99.05,197,101.63s5.4,8.57-3.33,19.26Z"/><path class="cls-11" d="M98.94,99.05l88.55,42.18s1.45,10-10.87,16.25Z"/><path class="cls-12" d="M98.94,99.05l63.74,74.49s-2.76,9.75-16.56,10.44Z"/><path class="cls-13" d="M98.94,99.05,126.85,193s-6.49,7.78-19.37,2.81Z"/><path class="cls-14" d="M98.94,99.05,86.2,196.21s-9.1,4.48-18.84-5.3Z"/><path class="cls-15" d="M98.94,99.05l-51.19,83.6s-10.13.39-15.06-12.49Z"/><path class="cls-16" d="M98.94,99.05l-80.8,55.59s-9.42-3.75-8.67-17.52Z"/><path class="cls-17" d="M98.94,99.05,2.49,117s-7.08-7.25-.79-19.54Z"/><path class="cls-18" d="M98.94,99.05,3.5,76.32S0,66.82,10.72,58.15Z"/><path class="cls-19" d="M98.94,99.05,21,39.53s.65-10.1,14-13.66Z"/><path class="cls-20" d="M98.94,99.05l-47-86s4.72-9,18.36-6.8Z"/></g><ellipse class="cls-21" cx="100.96" cy="159.1" rx="15.62" ry="15.6"/><path d="M101,175.22A16.12,16.12,0,1,1,117.1,159.1,16.15,16.15,0,0,1,101,175.22Zm0-31.2a15.08,15.08,0,1,0,15.1,15.08A15.11,15.11,0,0,0,101,144Z"/><path class="cls-22" d="M96,155.64H94.15v-2.73h5v12.43H96Z"/><path class="cls-22" d="M102.36,158.07h3.36V154.7h2.12v3.37h3.35v2.11h-3.35v3.36h-2.12v-3.36h-3.36Z"/><path class="cls-4" d="M53.43,55.68a8,8,0,0,1,4.22-5.35,11.51,11.51,0,0,1,3.88-.68l57.52-.54a7.58,7.58,0,0,1,6.4,5.1c1.65,4.81,16.23,62.22,16.23,62.22l3.67,16.6-62.25-.21L62.92,56.3s-1.51-5.91-5.13-4.72-2.51.55-4.55,3.86"/><path d="M146,133.55l-63.3-.21-.1-.39L62.42,56.44s-.86-3.25-2.65-4.23A2.17,2.17,0,0,0,58,52.07l-.92.3c-1.75.56-1.75.56-2.41,1.75l-.4.71a5.24,5.24,0,0,0-.28.93l-1-.16s0-.14.07-.32l-.18-.11.48-.81a8.6,8.6,0,0,1,4.13-4.49,11.78,11.78,0,0,1,4.12-.74l57.53-.54h0A8.19,8.19,0,0,1,125.94,54c1.64,4.78,15.65,59.92,16.24,62.26ZM83.51,132.3l61.19.2-3.53-16C141,116,126.58,59.11,125,54.38A7.09,7.09,0,0,0,119,49.63l-57.49.54a10.83,10.83,0,0,0-3.65.62c-.28.15-.54.3-.79.46l.53-.17a3.24,3.24,0,0,1,2.64.22c2.19,1.2,3.12,4.73,3.16,4.87Z"/><path class="cls-23" d="M65.46,66.36c5,19.87,17.63,66.26,17.63,66.26s9-3.17,8.28-16l62.36-.34s2.79,12.4-7.76,17l-63-.44"/><path d="M146.08,133.86H146l-63-.44v-.19l-.19.07-.14-.54c-.13-.47-12.66-46.63-17.64-66.27l1-.26c4.67,18.44,16,60.27,17.48,65.68,1.86-.89,8-4.63,7.41-15.23l0-.54,63.32-.35.09.41a19.73,19.73,0,0,1,.09,7,13.54,13.54,0,0,1-8.14,10.64Zm-61.4-1.46,61.18.42c8.87-4,7.78-13.85,7.43-16l-61.38.33C92.22,126.65,87.21,130.87,84.68,132.4Z"/><path class="cls-23" d="M65.23,65.16l-12.58-.68.24-6.05s-.15-4.57,2.24-6.46A6.16,6.16,0,0,1,60,51.15c.3.12,2.24.27,3.43,6.86.22,1.2.94,4.17,2,8.26"/><path d="M64.9,66.4c-.07-.26-.13-.51-.19-.75L52.11,65l.26-6.55c0-.38-.07-4.88,2.43-6.86a6.76,6.76,0,0,1,5.37-.9l.07,0c2.54.77,3.42,5.64,3.7,7.24.21,1.12.87,3.89,2,8.23ZM53.19,64l11.25.6c-.83-3.33-1.34-5.51-1.52-6.49-.68-3.76-1.74-6.05-3-6.42l-.13,0a5.72,5.72,0,0,0-4.35.75c-2.15,1.7-2,6-2,6v0Z"/><path class="cls-22" d="M75.5,69.65,75.81,75l-1.39.08-.31-5.35Z"/><path class="cls-22" d="M78.09,72.29l.15,2.57L77,74.93l-.15-2.56-.43,0-.06-1.07.43,0-.07-1.1L78,70.13,78,71.22l.73,0,.06,1.07Z"/><path class="cls-22" d="M82.64,71l1,1.87.79-2,.81,0,1,1.92.8-2,1.43-.09-1.69,3.75-.86,0-1-1.94-.75,2-.87,0L81.21,71Z"/><path class="cls-22" d="M91.55,70.43l1.29-.07L93.05,74l-1.29.08,0-.4a1.38,1.38,0,0,1-1.09.58,2,2,0,0,1-.74-.1,1.8,1.8,0,0,1-.6-.38,1.67,1.67,0,0,1-.42-.59,2.13,2.13,0,0,1-.19-.77,2.34,2.34,0,0,1,.09-.75,1.91,1.91,0,0,1,.34-.63,1.84,1.84,0,0,1,.55-.45,1.93,1.93,0,0,1,.73-.2,1.55,1.55,0,0,1,1.16.41ZM90,72.33a.73.73,0,0,0,.08.33,1,1,0,0,0,.19.26.92.92,0,0,0,.27.16.73.73,0,0,0,.33,0,.8.8,0,0,0,.57-.27,1,1,0,0,0,.17-.27.91.91,0,0,0,0-.33.9.9,0,0,0-.09-.32,1,1,0,0,0-.19-.25.71.71,0,0,0-.28-.16.7.7,0,0,0-.32,0,1.14,1.14,0,0,0-.33.08.82.82,0,0,0-.25.2.92.92,0,0,0-.16.27A.65.65,0,0,0,90,72.33Z"/><path class="cls-22" d="M96.17,71.1a1.4,1.4,0,0,0-.7-.14.44.44,0,0,0-.29.09.22.22,0,0,0-.1.19c0,.05,0,.08,0,.1s0,0,.08.07a.54.54,0,0,0,.18.06l.31,0a1.51,1.51,0,0,1,.82.33.94.94,0,0,1,.3.69,1.24,1.24,0,0,1-.09.58,1.35,1.35,0,0,1-.33.45,1.79,1.79,0,0,1-.53.3,2.48,2.48,0,0,1-.7.14,2.83,2.83,0,0,1-1.47-.34l.41-.93a1.85,1.85,0,0,0,1,.31.5.5,0,0,0,.29-.1.21.21,0,0,0,.1-.2.37.37,0,0,0,0-.12.2.2,0,0,0-.08-.08l-.17-.06-.29,0a1.67,1.67,0,0,1-.86-.31.85.85,0,0,1-.27-.64,1.14,1.14,0,0,1,.08-.56,1,1,0,0,1,.3-.43,1.43,1.43,0,0,1,.5-.29,2.21,2.21,0,0,1,.66-.14,3.16,3.16,0,0,1,1.18.17Z"/><path class="cls-22" d="M103.79,69.72l.2,3.39a5,5,0,0,1,0,.55,2.54,2.54,0,0,1-.08.43,1.23,1.23,0,0,1-.24.45,1.62,1.62,0,0,1-.41.37,2.5,2.5,0,0,1-.57.27,2.86,2.86,0,0,1-1.48.07,2.38,2.38,0,0,1-.63-.26,1.67,1.67,0,0,1-.46-.41,1.5,1.5,0,0,1-.26-.54L101.3,74a.58.58,0,0,0,.63.33.85.85,0,0,0,.61-.26.86.86,0,0,0,.18-.65l0-.34-.26.24a1.74,1.74,0,0,1-.26.15.94.94,0,0,1-.28.1,1.53,1.53,0,0,1-.32,0,2,2,0,0,1-.73-.1,1.62,1.62,0,0,1-.58-.34,1.59,1.59,0,0,1-.4-.55,2.17,2.17,0,0,1-.18-.75,2.23,2.23,0,0,1,.1-.78,2,2,0,0,1,.35-.65,1.91,1.91,0,0,1,.56-.45,1.71,1.71,0,0,1,.72-.19,1.4,1.4,0,0,1,1.11.41l0-.38Zm-2.77,2a.89.89,0,0,0,.08.32.83.83,0,0,0,.19.26.85.85,0,0,0,.28.16.88.88,0,0,0,.33,0,.9.9,0,0,0,.32-.09.92.92,0,0,0,.25-.19.85.85,0,0,0,.16-.28.7.7,0,0,0,.05-.32.9.9,0,0,0-.09-.33.92.92,0,0,0-.19-.25,1,1,0,0,0-.28-.16.69.69,0,0,0-.32,0,.65.65,0,0,0-.31.08,1.24,1.24,0,0,0-.26.19.92.92,0,0,0-.16.27A.72.72,0,0,0,101,71.69Z"/><path class="cls-22" d="M104.79,69.66l1.28-.08,0,.6a1.43,1.43,0,0,1,.47-.53,1.28,1.28,0,0,1,.69-.21h.25l.07,1.22a1.18,1.18,0,0,0-.56-.09.83.83,0,0,0-.66.3,1.18,1.18,0,0,0-.17.79l.09,1.56L105,73.3Z"/><path class="cls-22" d="M109.41,71.43c0,.56.31.82.83.79a.72.72,0,0,0,.61-.38l1.24-.07a1.73,1.73,0,0,1-1.8,1.35,2.4,2.4,0,0,1-.86-.09,1.72,1.72,0,0,1-.67-.35,1.66,1.66,0,0,1-.46-.59,2.13,2.13,0,0,1-.2-.78,2.23,2.23,0,0,1,.1-.83,1.75,1.75,0,0,1,.36-.64,1.72,1.72,0,0,1,.62-.43,2.3,2.3,0,0,1,.83-.19,2.23,2.23,0,0,1,.83.09,1.71,1.71,0,0,1,.65.36,2,2,0,0,1,.43.62,2.72,2.72,0,0,1,.18.85v.13Zm1.46-.83a.75.75,0,0,0-.29-.42.84.84,0,0,0-1,0,.73.73,0,0,0-.21.45Z"/><path class="cls-22" d="M115.53,69l1.29-.07.21,3.63-1.29.08,0-.4a1.37,1.37,0,0,1-1.08.58,2,2,0,0,1-.74-.1,1.84,1.84,0,0,1-.61-.38,1.81,1.81,0,0,1-.42-.59,2.12,2.12,0,0,1-.18-.77,1.89,1.89,0,0,1,.09-.75,1.75,1.75,0,0,1,.34-.63,1.6,1.6,0,0,1,.55-.45,1.88,1.88,0,0,1,.73-.2,1.5,1.5,0,0,1,1.15.41ZM114,70.93a.89.89,0,0,0,.08.33,1,1,0,0,0,.19.26.92.92,0,0,0,.27.16,1,1,0,0,0,.34,0,.72.72,0,0,0,.32-.08.79.79,0,0,0,.25-.19.85.85,0,0,0,.21-.6.9.9,0,0,0-.09-.32.79.79,0,0,0-.19-.25,1,1,0,0,0-.27-.17.93.93,0,0,0-.33,0,.89.89,0,0,0-.33.08,1,1,0,0,0-.25.2,1,1,0,0,0-.16.26A.85.85,0,0,0,114,70.93Z"/><path class="cls-22" d="M119.18,69.89l.16,2.57-1.29.07L117.9,70l-.42,0-.07-1.07.43,0-.06-1.1,1.28-.07.06,1.09.73,0,.06,1.07Z"/><path class="cls-22" d="M120.7,70.56,120.49,67l1.33-.08.21,3.53Zm-.1,1.14a.85.85,0,0,1,0-.32.88.88,0,0,1,.17-.28.79.79,0,0,1,.25-.19.9.9,0,0,1,.32-.09,1,1,0,0,1,.33.05A.92.92,0,0,1,122,71a.83.83,0,0,1,.19.26.85.85,0,0,1,.09.32.89.89,0,0,1-.21.6.73.73,0,0,1-.26.19.65.65,0,0,1-.31.08.72.72,0,0,1-.33,0,1,1,0,0,1-.28-.16,1,1,0,0,1-.19-.26A.84.84,0,0,1,120.6,71.7Z"/><polygon class="cls-24" points="85 97.21 86.36 100.98 90.37 100.86 87.2 103.31 88.56 107.09 85.24 104.83 82.06 107.29 83.18 103.44 79.86 101.19 83.88 101.06 85 97.21"/><polygon class="cls-24" points="90.95 84.41 92.31 88.18 96.33 88.06 93.15 90.52 94.52 94.29 91.19 92.04 88.02 94.5 89.14 90.64 85.82 88.39 89.83 88.26 90.95 84.41"/><polygon class="cls-24" points="104.33 79.64 105.69 83.41 109.71 83.29 106.53 85.75 107.9 89.52 104.57 87.27 101.4 89.73 102.52 85.87 99.2 83.62 103.21 83.49 104.33 79.64"/><polygon class="cls-24" points="118.14 83.88 119.5 87.65 123.51 87.52 120.34 89.98 121.7 93.76 118.38 91.5 115.2 93.96 116.32 90.11 113 87.86 117.02 87.73 118.14 83.88"/><polygon class="cls-24" points="127.19 93.98 128.55 97.75 132.56 97.63 129.39 100.09 130.75 103.86 127.43 101.61 124.26 104.07 125.38 100.21 122.05 97.96 126.07 97.83 127.19 93.98"/></g></g></svg>