<svg xmlns="http://www.w3.org/2000/svg" xmlns:xlink="http://www.w3.org/1999/xlink" viewBox="0 0 197.58 197.65"><defs><style>.cls-1{fill:none;}.cls-2{clip-path:url(#clip-path);}.cls-3{fill:#c7c7c7;}.cls-4{fill:#fff;}.cls-5{fill:url(#무제_그라디언트_11);}.cls-6{fill:url(#무제_그라디언트_11-2);}.cls-7{fill:url(#무제_그라디언트_11-3);}.cls-8{fill:url(#무제_그라디언트_11-4);}.cls-9{fill:url(#무제_그라디언트_11-5);}.cls-10{fill:url(#무제_그라디언트_11-6);}.cls-11{fill:url(#무제_그라디언트_11-7);}.cls-12{fill:url(#무제_그라디언트_11-8);}.cls-13{fill:url(#무제_그라디언트_11-9);}.cls-14{fill:url(#무제_그라디언트_11-10);}.cls-15{fill:url(#무제_그라디언트_11-11);}.cls-16{fill:url(#무제_그라디언트_11-12);}.cls-17{fill:url(#무제_그라디언트_11-13);}.cls-18{fill:url(#무제_그라디언트_11-14);}.cls-19{fill:url(#무제_그라디언트_11-15);}.cls-20{fill:url(#무제_그라디언트_10);}.cls-21{fill:#1b1b1b;}.cls-22{fill:#e3e3e3;}.cls-23{fill:#f7f7f7;}.cls-24{fill:#9d9d9e;}.cls-25{fill:#b3b3b3;}.cls-26{fill:#e2e2e2;}.cls-27{fill:#bebebe;}.cls-28{fill:#cbcbcb;}</style><clipPath id="clip-path"><path class="cls-1" d="M98.77,197.55A98.78,98.78,0,0,1,28.93,28.93,98.78,98.78,0,0,1,168.62,168.62,98.16,98.16,0,0,1,98.77,197.55Z"/></clipPath><linearGradient id="무제_그라디언트_11" x1="128.82" y1="-122.49" x2="109.92" y2="-38.28" gradientTransform="translate(-18.75 138.88) rotate(-4.44)" gradientUnits="userSpaceOnUse"><stop offset="0" stop-color="#fafafa" stop-opacity="0"/><stop offset="1" stop-color="#fefefe"/></linearGradient><linearGradient id="무제_그라디언트_11-2" x1="-772.83" y1="2395.93" x2="-791.73" y2="2480.15" gradientTransform="translate(1667.34 -1983.56) rotate(19.55)" xlink:href="#무제_그라디언트_11"/><linearGradient id="무제_그라디언트_11-3" x1="-572.78" y1="5063.41" x2="-591.68" y2="5147.62" gradientTransform="translate(4070.67 -3237.24) rotate(43.53)" xlink:href="#무제_그라디언트_11"/><linearGradient id="무제_그라디언트_11-4" x1="694.42" y1="7419.18" x2="675.52" y2="7503.39" gradientTransform="translate(6776.1 -3405.6) rotate(67.52)" xlink:href="#무제_그라디언트_11"/><linearGradient id="무제_그라디언트_11-5" x1="2809.88" y1="9056.33" x2="2790.98" y2="9140.54" gradientTransform="translate(9316.32 -2459.57) rotate(91.51)" xlink:href="#무제_그라디언트_11"/><linearGradient id="무제_그라디언트_11-6" x1="5408.21" y1="9692.07" x2="5389.3" y2="9776.28" gradientTransform="matrix(-0.43, 0.9, -0.9, -0.43, 11252.55, -562.54)" xlink:href="#무제_그라디언트_11"/><linearGradient id="무제_그라디언트_11-7" x1="8040.58" y1="9216.59" x2="8021.67" y2="9300.8" gradientTransform="translate(12250.35 1957.79) rotate(139.48)" xlink:href="#무제_그라디언트_11"/><linearGradient id="무제_그라디언트_11-8" x1="10252.3" y1="7712.02" x2="10233.4" y2="7796.23" gradientTransform="translate(12137.36 4666.1) rotate(163.47)" xlink:href="#무제_그라디언트_11"/><linearGradient id="무제_그라디언트_11-9" x1="11661.34" y1="5438.24" x2="11642.44" y2="5522.46" gradientTransform="translate(10933.11 7094.57) rotate(-172.54)" xlink:href="#무제_그라디언트_11"/><linearGradient id="무제_그라디언트_11-10" x1="12024.32" y1="2788.01" x2="12005.41" y2="2872.23" gradientTransform="translate(8845.6 8823.73) rotate(-148.55)" xlink:href="#무제_그라디언트_11"/><linearGradient id="무제_그라디언트_11-11" x1="11278.53" y1="219.11" x2="11259.63" y2="303.33" gradientTransform="matrix(-0.57, -0.82, 0.82, -0.57, 6235.41, 9554.9)" xlink:href="#무제_그라디언트_11"/><linearGradient id="무제_그라디언트_11-12" x1="9552.8" y1="-1824.73" x2="9533.89" y2="-1740.52" gradientTransform="matrix(-0.18, -0.98, 0.98, -0.18, 3553.4, 9161.78)" xlink:href="#무제_그라디언트_11"/><linearGradient id="무제_그라디언트_11-13" x1="7145.21" y1="-2990.48" x2="7126.31" y2="-2906.27" gradientTransform="matrix(0.23, -0.97, 0.97, 0.23, 1262.84, 7712.28)" xlink:href="#무제_그라디언트_11"/><linearGradient id="무제_그라디언트_11-14" x1="4471.64" y1="-3076.78" x2="4452.73" y2="-2992.57" gradientTransform="matrix(0.61, -0.79, 0.79, 0.61, -240.61, 5456.77)" xlink:href="#무제_그라디언트_11"/><linearGradient id="무제_그라디언트_11-15" x1="1993.88" y1="-2068.72" x2="1974.98" y2="-1984.51" gradientTransform="translate(-697.27 2784.85) rotate(-28.62)" xlink:href="#무제_그라디언트_11"/><linearGradient id="무제_그라디언트_10" x1="84.61" y1="159.1" x2="115.8" y2="159.1" gradientUnits="userSpaceOnUse"><stop offset="0" stop-color="#fff"/><stop offset="1" stop-color="#fff"/></linearGradient></defs><title>[bw]badge</title><g id="레이어_3" data-name="레이어 3"><g class="cls-2"><path class="cls-3" d="M98.77,197.55A98.78,98.78,0,0,1,28.93,28.93,98.78,98.78,0,0,1,168.62,168.62,98.16,98.16,0,0,1,98.77,197.55Z"/><path class="cls-4" d="M98.64,184.23A82.85,82.85,0,0,1,15.8,101.39h.35A82.5,82.5,0,0,0,157,159.72a82,82,0,0,0,24.16-58.33h.35a82.85,82.85,0,0,1-82.85,82.84Z"/><rect class="cls-3" x="6.62" y="96.71" width="180.94" height="34.32"/><path class="cls-4" d="M22.9,119.18l-4.3,5.06-.82-3.14,2.28-2.6-3.25-1.15L16,114.21l6.22,2.34,4.86-1.26.68,2.63Z"/><path class="cls-4" d="M20.79,111.69a5.39,5.39,0,0,1-2.2-.21,5.37,5.37,0,0,1-3.21-2.71,6.23,6.23,0,0,1-.65-2.28,6.13,6.13,0,0,1,.18-2.36,5.6,5.6,0,0,1,1-1.95,5.39,5.39,0,0,1,1.63-1.37,5.52,5.52,0,0,1,2.12-.64,5.39,5.39,0,0,1,2.2.21,5.4,5.4,0,0,1,3.21,2.73,6.23,6.23,0,0,1,.65,2.27,6.16,6.16,0,0,1-.18,2.37,5.36,5.36,0,0,1-1,1.93A5.21,5.21,0,0,1,22.91,111,5.53,5.53,0,0,1,20.79,111.69Zm-.28-2.83a2.78,2.78,0,0,0,1.12-.35,2.84,2.84,0,0,0,.85-.73,2.72,2.72,0,0,0,.5-1,2.92,2.92,0,0,0,.1-1.14,2.93,2.93,0,0,0-1-2,2.88,2.88,0,0,0-1-.54,2.55,2.55,0,0,0-1.17-.12,2.77,2.77,0,0,0-1.12.34,2.89,2.89,0,0,0-.85.74,2.85,2.85,0,0,0-.5,1,2.92,2.92,0,0,0-.1,1.14,3,3,0,0,0,.32,1.11,2.83,2.83,0,0,0,.7.87,2.79,2.79,0,0,0,1,.54A2.84,2.84,0,0,0,20.51,108.86Z"/><path class="cls-4" d="M14.67,93.85l5.67.4c.3,0,.62,0,.94,0a2.41,2.41,0,0,0,.87-.14,1.46,1.46,0,0,0,.67-.51,1.88,1.88,0,0,0,.32-1A2,2,0,0,0,23,91.54a1.46,1.46,0,0,0-.59-.59,2.5,2.5,0,0,0-.85-.28l-.93-.1-5.67-.4.19-2.69,6,.42a4.89,4.89,0,0,1,3.48,1.37,5.79,5.79,0,0,1-.49,6.85,4.89,4.89,0,0,1-3.63.87l-6-.43Z"/><path class="cls-4" d="M28,77.35,27.18,80l-10-3,1.25-4.13a3.75,3.75,0,0,1,1.66-2.32,3.41,3.41,0,0,1,2.74-.14A3.48,3.48,0,0,1,25,72a3.72,3.72,0,0,1,.09,2.85l-.47,1.54Zm-5.41-1.64.26-.86c.29-1,0-1.56-.81-1.82s-1.4.1-1.69,1.06l-.26.86Z"/><path class="cls-4" d="M31.1,64.32l-1.65,3.52,1.39,1.33L29.61,71.8l-7.79-8,1.25-2.69,11.16.81L33,64.52Zm-2.18-.22-3.67-.36,2.64,2.58Z"/><path class="cls-4" d="M40.08,53.09,38.21,55.9l-4.79-.07,3.35,2.23-1.51,2.26-8.7-5.8L28.91,51A4.09,4.09,0,0,1,30,49.88a2.85,2.85,0,0,1,2.39-.47,3.79,3.79,0,0,1,1.15.51,3,3,0,0,1,1.29,1.55,2.91,2.91,0,0,1-.1,2ZM32,54.85l.28-.42a2,2,0,0,0,.41-1.22,1.1,1.1,0,0,0-.56-.88,1.12,1.12,0,0,0-1-.18,2,2,0,0,0-1,.84l-.29.43Z"/><path class="cls-4" d="M37.78,43.34l6.16,5.34-1.78,2.06L36,45.39l-1.46,1.69L32.8,45.57l4.7-5.42,1.74,1.5Z"/><path class="cls-4" d="M41.59,36.19l7.22,7.55-2,1.88-7.23-7.55Z"/><path class="cls-4" d="M52.71,31.6a2.9,2.9,0,0,0-2.55.51,3,3,0,0,0-.76.87,2.72,2.72,0,0,0-.33,1,2.67,2.67,0,0,0,.08,1.08,3.06,3.06,0,0,0,.53,1,2.92,2.92,0,0,0,.87.78,2.79,2.79,0,0,0,2.11.3,2.85,2.85,0,0,0,1-.5,3.18,3.18,0,0,0,1.17-2.31l2,2.54-.16.25a9.06,9.06,0,0,1-.72,1,6,6,0,0,1-.79.73,5.43,5.43,0,0,1-1.89,1,5.62,5.62,0,0,1-2.08.15,5.72,5.72,0,0,1-2-.65,5.37,5.37,0,0,1-1.72-1.48,5.37,5.37,0,0,1-1.1-4.14,5.46,5.46,0,0,1,.69-2,5.39,5.39,0,0,1,1.41-1.6,5.72,5.72,0,0,1,1-.65A7.72,7.72,0,0,1,50.73,29Z"/><path class="cls-4" d="M56,25.48l5.46,8.91L59.1,35.81,53.63,26.9Z"/><path class="cls-4" d="M66.41,31.71,64,32.87l-4.47-9.45,3.91-1.85a3.68,3.68,0,0,1,2.83-.32,3.47,3.47,0,0,1,2,1.93,3.47,3.47,0,0,1,.26,2.73,3.72,3.72,0,0,1-2.05,2l-1.45.69ZM64,26.6l.81-.39c.91-.42,1.17-1,.8-1.82s-1-1-1.91-.53l-.82.38Z"/><path class="cls-4" d="M78.16,25.27l-3.71,1.15,0,1.92-2.77.86L72.33,18l2.83-.88,6.9,8.8-2.77.86Zm-1.3-1.76-2.2-3-.13,3.68Z"/><path class="cls-4" d="M86,17.08l1.4,8-2.68.47-1.39-8-2.2.38-.4-2.26,7.08-1.24.39,2.27Z"/><path class="cls-4" d="M97.05,16.06l-3.23.19L93.93,18l3-.18.14,2.3-3,.18.11,1.8,3.22-.19.14,2.3-5.94.35L91,14.11l5.93-.35Z"/><path class="cls-4" d="M101,13.71l4,.31a4.76,4.76,0,0,1,2,.59,5.39,5.39,0,0,1,1.54,1.26,5.25,5.25,0,0,1,1,1.75,5.06,5.06,0,0,1,.25,2A5.29,5.29,0,0,1,108,23.15a5.34,5.34,0,0,1-1.72,1,4.82,4.82,0,0,1-2,.28l-4-.32Zm2.08,8.34.63.05A3.45,3.45,0,0,0,105,22a2.51,2.51,0,0,0,1-.53,2.62,2.62,0,0,0,.65-.88,3.19,3.19,0,0,0,.29-1.15,3.09,3.09,0,0,0-.11-1.18,2.75,2.75,0,0,0-.52-1,2.8,2.8,0,0,0-.89-.68,3.47,3.47,0,0,0-1.22-.32l-.62,0Z"/><path class="cls-4" d="M122.61,17.21l-2.79,10.07-2.62-.72L120,16.48Z"/><path class="cls-4" d="M122.65,28l4.06-9.63,2.5,1.05,2.14,7.84,2.49-5.89,2.49,1.05-4.06,9.64L129.78,31l-2.14-7.84-2.49,5.89Z"/><path class="cls-4" d="M144.5,33.83l.18-6.64,2.6,1.94-.14,3.45,3.25-1.15L153,33.36l-6.31,2.09-3,4-2.18-1.62Z"/><path class="cls-4" d="M150.83,38.32a5.51,5.51,0,0,1,1.85-1.22,5.37,5.37,0,0,1,2.08-.39,5.56,5.56,0,0,1,2.12.47,6.11,6.11,0,0,1,1.94,1.36,6.19,6.19,0,0,1,1.34,2,5.45,5.45,0,0,1,.46,2.13,5.22,5.22,0,0,1-.4,2.09A5.37,5.37,0,0,1,159,46.54a5.45,5.45,0,0,1-1.85,1.23,5.56,5.56,0,0,1-2.09.38,5.77,5.77,0,0,1-2.12-.48A6.28,6.28,0,0,1,151,46.31a6.16,6.16,0,0,1-1.35-2,5.32,5.32,0,0,1-.45-2.12,5.39,5.39,0,0,1,.41-2.08A5.47,5.47,0,0,1,150.83,38.32Zm2,2a2.59,2.59,0,0,0-.65,1,3,3,0,0,0-.21,1.09,3.13,3.13,0,0,0,.23,1.09,3.08,3.08,0,0,0,.65,1,3,3,0,0,0,2,.89,2.8,2.8,0,0,0,1.1-.18,2.83,2.83,0,0,0,1-.65,2.9,2.9,0,0,0,.65-1,3,3,0,0,0,.19-1.11,3.17,3.17,0,0,0-.23-1.09,3,3,0,0,0-.65-1,2.84,2.84,0,0,0-.94-.65,2.65,2.65,0,0,0-1.09-.24,2.78,2.78,0,0,0-1.1.19A2.68,2.68,0,0,0,152.84,40.34Z"/><path class="cls-4" d="M166.81,48.32l-4.66,3.25c-.25.18-.5.36-.74.57a2.42,2.42,0,0,0-.59.66,1.45,1.45,0,0,0-.21.81,2,2,0,0,0,.41,1,1.87,1.87,0,0,0,.79.72,1.61,1.61,0,0,0,.84.08,2.37,2.37,0,0,0,.83-.32c.27-.16.54-.33.79-.51l4.66-3.25,1.55,2.22-5,3.47A4.91,4.91,0,0,1,162,58.15,4.66,4.66,0,0,1,159.06,56,4.71,4.71,0,0,1,158,52.52a4.91,4.91,0,0,1,2.28-3l5-3.47Z"/><path class="cls-4" d="M167.14,69.83l-1.49-3,2.46-4.11-3.6,1.78L163.31,62l9.38-4.61,1.86,3.79A4.2,4.2,0,0,1,175,62.7a3.09,3.09,0,0,1-.16,1.27,3,3,0,0,1-.64,1,3.72,3.72,0,0,1-1,.74,3,3,0,0,1-2,.33A2.79,2.79,0,0,1,169.54,65Zm2.55-7.91.23.46a2,2,0,0,0,.84,1,1.29,1.29,0,0,0,1.72-.84,2,2,0,0,0-.24-1.26l-.23-.46Z"/><path class="cls-4" d="M178.1,82.5a2.92,2.92,0,0,0,.56-2.54,2.85,2.85,0,0,0-.49-1,2.78,2.78,0,0,0-.8-.73,2.63,2.63,0,0,0-1-.35,3.21,3.21,0,0,0-1.15.06,2.92,2.92,0,0,0-1.07.49,2.68,2.68,0,0,0-.74.8,2.52,2.52,0,0,0-.38,1,2.71,2.71,0,0,0,.05,1.13,3.17,3.17,0,0,0,1.63,2l-3.12.77-.16-.25a7.58,7.58,0,0,1-.59-1,4.88,4.88,0,0,1-.36-1,5.44,5.44,0,0,1,.6-4.08,5.67,5.67,0,0,1,1.42-1.6,5.35,5.35,0,0,1,2.05-1,5.44,5.44,0,0,1,5.75,2.1,5.52,5.52,0,0,1,1.06,3.15,7.76,7.76,0,0,1-.09,1.33Z"/><path class="cls-4" d="M172.64,95.16l-.35-3.36,3.73-3-4,.42-.28-2.7,10.4-1.09.44,4.21a4.26,4.26,0,0,1-.1,1.54,2.94,2.94,0,0,1-.59,1.14,2.87,2.87,0,0,1-.95.74,3.52,3.52,0,0,1-1.22.35,3.07,3.07,0,0,1-2-.38,2.83,2.83,0,0,1-1.18-1.58Zm5.13-6.54,0,.51a2,2,0,0,0,.46,1.19,1.16,1.16,0,0,0,1,.33,1.14,1.14,0,0,0,.91-.53,2,2,0,0,0,.2-1.26l0-.51Z"/><path class="cls-4" d="M180.58,103.19l.09-3.23-1.75,0-.08,3-2.3-.06.08-3-1.8,0-.09,3.22-2.3-.05.15-5.95,10.46.27-.16,5.94Z"/><path class="cls-4" d="M182.39,109.31l-7,.47,6.2,3.48-.42,2.12-7.05.87,6.28,3.08-.55,2.78L170.21,117l.54-2.72,6.34-.85-5.55-3.18.54-2.72,10.86-1Z"/><path class="cls-5" d="M97.74,99,90.15,1.27s8-6.26,19.51,1.3Z"/><path class="cls-6" d="M97.74,99,130.52,6.62s9.82-2.48,17.3,9.12Z"/><path class="cls-7" d="M97.74,99l67.49-71s10,1.73,12.1,15.37Z"/><path class="cls-8" d="M97.74,99,188.29,61.5s8.41,5.64,4.8,19Z"/><path class="cls-9" d="M97.74,99l98,2.57s5.39,8.58-3.32,19.27Z"/><path class="cls-10" d="M97.74,99l88.45,42.18s1.44,10-10.86,16.25Z"/><path class="cls-11" d="M97.74,99l63.66,74.49s-2.75,9.75-16.53,10.44Z"/><path class="cls-12" d="M97.74,99l27.88,93.94s-6.48,7.78-19.35,2.81Z"/><path class="cls-13" d="M97.74,99,85,196.13s-9.09,4.48-18.82-5.3Z"/><path class="cls-14" d="M97.74,99l-51.12,83.6s-10.12.39-15-12.49Z"/><path class="cls-15" d="M97.74,99,17,154.56S7.64,150.81,8.38,137Z"/><path class="cls-16" d="M97.74,99,1.41,117S-5.66,109.7.62,97.42Z"/><path class="cls-17" d="M97.74,99,2.42,76.24s-3.51-9.5,7.21-18.17Z"/><path class="cls-18" d="M97.74,99,19.89,39.45s.65-10.1,14-13.66Z"/><path class="cls-19" d="M97.74,99l-46.94-86s4.71-9,18.33-6.8Z"/><circle class="cls-20" cx="100.2" cy="159.1" r="15.6"/><path d="M100.2,175.22a16.12,16.12,0,1,1,16.12-16.12A16.13,16.13,0,0,1,100.2,175.22Zm0-31.2a15.08,15.08,0,1,0,15.08,15.08A15.1,15.1,0,0,0,100.2,144Z"/><path class="cls-21" d="M89,155.64H87.16v-2.73h5v12.43H89Z"/><path class="cls-21" d="M93.84,159.11a8.8,8.8,0,0,1,.39-2.7,6.35,6.35,0,0,1,1.08-2.07A5.1,5.1,0,0,1,97,153a4.88,4.88,0,0,1,5.93,1.33,6.35,6.35,0,0,1,1.08,2.07,9.75,9.75,0,0,1,0,5.39,6.5,6.5,0,0,1-1.08,2.08,4.81,4.81,0,0,1-1.67,1.34,5.06,5.06,0,0,1-4.26,0,5,5,0,0,1-1.67-1.34,6.5,6.5,0,0,1-1.08-2.08A8.74,8.74,0,0,1,93.84,159.11Zm3.2,0a6.93,6.93,0,0,0,.15,1.5,4.46,4.46,0,0,0,.42,1.17,2.38,2.38,0,0,0,.65.77,1.47,1.47,0,0,0,1.7,0,2.28,2.28,0,0,0,.66-.77,4.85,4.85,0,0,0,.41-1.17,7.53,7.53,0,0,0,0-3,4.78,4.78,0,0,0-.41-1.18,2.21,2.21,0,0,0-.66-.75,1.43,1.43,0,0,0-1.7,0,2.29,2.29,0,0,0-.65.75,4.4,4.4,0,0,0-.42,1.18A6.9,6.9,0,0,0,97,159.11Z"/><path class="cls-21" d="M104.26,158.07h3.36V154.7h2.11v3.37h3.35v2.11h-3.35v3.36h-2.11v-3.36h-3.36Z"/><path class="cls-22" d="M133.72,55.67,67.25,65.23l71.69.89C139.06,54.71,133.72,55.67,133.72,55.67Z"/><path d="M139.45,66.64l-72.21-.89-.06-1,66.46-9.56a3.88,3.88,0,0,1,3,1c1.94,1.64,2.9,5,2.85,10ZM73.94,64.79l64.48.8c0-5.4-1.34-7.68-2.46-8.64a2.82,2.82,0,0,0-2.16-.77h0Z"/><path class="cls-23" d="M133.72,55.67s-11.55.42-11.91,26.48a73.1,73.1,0,0,0,2.39,19.16c2.31,9.48,3.12,30.39-7,31.41-.47.05-23.1-2.86-23.57-2.9l-46.45-7.14S53,121,60.75,108a46.64,46.64,0,0,0,6.17-28.84c-.94-8.94-1.45-25.57,7.81-25.07A293.57,293.57,0,0,0,133.72,55.67Z"/><path d="M117.21,133.24c-.49,0-4.83-.53-18-2.19l-5.63-.71h0l-48.75-7.5,2.22-.66a12.75,12.75,0,0,0,3.77-2.46c2.16-1.85,5.57-5.44,9.51-12a46.36,46.36,0,0,0,6.1-28.52c-1.58-15.09.88-21.19,3.22-23.65a6.29,6.29,0,0,1,5.14-2h0a294.63,294.63,0,0,0,58.79,1.61h.1l.05,1h-.05c-.33,0-2.9.36-5.48,3.37-4.68,5.47-5.79,15.31-5.89,22.6a72.26,72.26,0,0,0,2.38,19c1.94,8,2.63,22.2-1.93,28.65a7.54,7.54,0,0,1-5.54,3.4Zm-23.52-3.93c.27,0,2.16.26,5.65.71,6.4.8,17.08,2.16,17.82,2.18a6.54,6.54,0,0,0,4.77-3c4.33-6.12,3.61-20.21,1.77-27.81a73.07,73.07,0,0,1-2.41-19.29c.15-10.93,2.24-18.78,6.22-23.34a12.15,12.15,0,0,1,2.74-2.39,295.49,295.49,0,0,1-55.57-1.84,5.29,5.29,0,0,0-4.31,1.67c-4.17,4.4-3.63,16.19-2.94,22.83a47.36,47.36,0,0,1-6.23,29.16c-5.52,9.2-10.05,12.82-12.31,14.18Z"/><path class="cls-22" d="M116.65,132.72s-5.49-1.41-1.82-15.31L43.32,108.3s-3.08,8,.4,13.58a4.83,4.83,0,0,0,3.47,2.29Z"/><path d="M116.58,133.24l-69.46-8.56a5.33,5.33,0,0,1-3.84-2.53c-1.49-2.36-2-5.54-1.58-9.2a22.92,22.92,0,0,1,1.14-4.84l.14-.38.41,0,72.1,9.19-.15.57c-3.47,13.12,1.39,14.67,1.44,14.68Zm-72.9-24.37c-.54,1.64-2.4,8.16.48,12.73a4.3,4.3,0,0,0,3.09,2.05L114.78,132a5.16,5.16,0,0,1-.52-.75c-1.11-1.89-2-5.73-.08-13.37Z"/><path d="M112.68,110.72h0L72.09,107.6a.53.53,0,0,1-.48-.56.52.52,0,0,1,.56-.48l40.55,3.12a.52.52,0,0,1,0,1Z"/><path d="M109.56,107.6h0L75.2,104.48a.52.52,0,0,1,.09-1l34.32,3.12a.52.52,0,0,1,.47.56A.52.52,0,0,1,109.56,107.6Z"/><polygon class="cls-24" points="79.88 94.93 82.1 94.27 83.15 96.33 83.85 97.7 83.89 97.72 87.57 89.11 82.05 86.75 78.37 95.36 78.41 95.37 79.88 94.93"/><path d="M84.16,98.4l-.69-.29-1.64-3.22-3.45,1-.69-.3,4.09-9.57,6.47,2.78Zm-1.8-4.75,1.47,2.88,3.06-7.15-4.57-1.95-3,7.15Z"/><polygon class="cls-24" points="98.53 94.93 96.32 94.27 95.27 96.33 94.57 97.7 94.53 97.72 90.85 89.11 96.37 86.75 100.05 95.36 100.01 95.37 98.53 94.93"/><path d="M94.26,98.4l-4.1-9.56,6.48-2.78,4.09,9.57-.69.3-3.45-1L95,98.11Zm-2.73-9,3.06,7.15,1.46-2.88,3.1.93-3.06-7.15Z"/><path class="cls-25" d="M91.5,67.46h0a2.14,2.14,0,0,1,3.91,1.27h0a2.14,2.14,0,0,0,2.86,2.08h0a2.14,2.14,0,0,1,2.42,3.33h0a2.15,2.15,0,0,0,1.1,3.37h0a2.14,2.14,0,0,1,0,4.11h0a2.15,2.15,0,0,0-1.1,3.37h0a2.15,2.15,0,0,1-2.42,3.33h0a2.14,2.14,0,0,0-2.86,2.08h0a2.14,2.14,0,0,1-3.91,1.27h0a2.14,2.14,0,0,0-3.54,0h0A2.15,2.15,0,0,1,84,90.4h0a2.14,2.14,0,0,0-2.86-2.08h0A2.15,2.15,0,0,1,78.76,85h0a2.15,2.15,0,0,0-1.09-3.37h0a2.14,2.14,0,0,1,0-4.11h0a2.15,2.15,0,0,0,1.09-3.37h0a2.15,2.15,0,0,1,2.42-3.33h0A2.14,2.14,0,0,0,84,68.73h0A2.15,2.15,0,0,1,88,67.46h0A2.15,2.15,0,0,0,91.5,67.46Z"/><path d="M93.24,93.13A2.61,2.61,0,0,1,91.07,92a1.61,1.61,0,0,0-1.34-.71h0a1.59,1.59,0,0,0-1.34.71,2.67,2.67,0,0,1-4.87-1.58,1.61,1.61,0,0,0-2.16-1.57,2.67,2.67,0,0,1-3-4.14,1.62,1.62,0,0,0-.83-2.55,2.66,2.66,0,0,1,0-5.11A1.63,1.63,0,0,0,78.61,76a1.6,1.6,0,0,0-.26-1.49,2.67,2.67,0,0,1,3-4.14,1.61,1.61,0,0,0,1.5-.21,1.59,1.59,0,0,0,.66-1.36,2.67,2.67,0,0,1,4.87-1.58,1.58,1.58,0,0,0,1.34.7,1.6,1.6,0,0,0,1.34-.7h0a2.66,2.66,0,0,1,4.86,1.58,1.62,1.62,0,0,0,2.17,1.57,2.66,2.66,0,0,1,3,4.14,1.64,1.64,0,0,0,.83,2.55,2.66,2.66,0,0,1,0,5.11,1.58,1.58,0,0,0-1.08,1.06,1.6,1.6,0,0,0,.25,1.49,2.66,2.66,0,0,1-3,4.14,1.58,1.58,0,0,0-1.5.21,1.6,1.6,0,0,0-.67,1.36A2.63,2.63,0,0,1,94.09,93,2.85,2.85,0,0,1,93.24,93.13Zm-3.51-2.92h0a2.69,2.69,0,0,1,2.2,1.16,1.62,1.62,0,0,0,3-1A2.68,2.68,0,0,1,96,88.18a2.64,2.64,0,0,1,2.46-.35,1.63,1.63,0,0,0,1.83-2.53,2.67,2.67,0,0,1,1.36-4.18,1.63,1.63,0,0,0,0-3.12,2.62,2.62,0,0,1-1.78-1.73,2.66,2.66,0,0,1,.42-2.45,1.62,1.62,0,0,0-1.83-2.52,2.66,2.66,0,0,1-3.56-2.58,1.62,1.62,0,0,0-3-1,2.67,2.67,0,0,1-4.4,0,1.63,1.63,0,0,0-3,1A2.65,2.65,0,0,1,81,71.3a1.63,1.63,0,0,0-1.84,2.52,2.67,2.67,0,0,1,.43,2.45A2.64,2.64,0,0,1,77.82,78a1.62,1.62,0,0,0,0,3.12,2.66,2.66,0,0,1,1.35,4.18A1.63,1.63,0,0,0,81,87.83a2.65,2.65,0,0,1,3.55,2.58,1.63,1.63,0,0,0,3,1A2.69,2.69,0,0,1,89.73,90.21Z"/><circle class="cls-26" cx="89.73" cy="79.56" r="8.5"/><path d="M89.73,88.58a9,9,0,1,1,9-9A9,9,0,0,1,89.73,88.58Zm0-17a8,8,0,1,0,8,8A8,8,0,0,0,89.73,71.58Z"/><path d="M87.73,82.86l-3.49-3.49a.53.53,0,0,1,0-.74.52.52,0,0,1,.73,0l2.76,2.76,5.87-5.88a.52.52,0,0,1,.73,0,.51.51,0,0,1,0,.74Z"/><path class="cls-24" d="M153.29,71.82a2.82,2.82,0,0,1-.07-.31A14.76,14.76,0,0,0,149.7,65h0l-.24-.24-.22-.23-.47-.45h0a14.7,14.7,0,0,0-6.51-3.51l-.31-.08c-5.18-1.24-6.81,3.64-7.31,6.34a20.12,20.12,0,0,1-2.57,6.83,28.23,28.23,0,0,1-6.35,7.22l3.48,3.48,3.7,3.71a28,28,0,0,1,7.22-6.36A20.12,20.12,0,0,1,147,79.13C149.66,78.63,154.54,77,153.29,71.82Z"/><path d="M133,88.85l-8-8,.47-.36a27.78,27.78,0,0,0,6.23-7.08,19.42,19.42,0,0,0,2.5-6.65c.38-2,1.27-4.78,3.37-6.15a5.7,5.7,0,0,1,4.57-.6l.3.07a15.21,15.21,0,0,1,6.38,3.31h0l.37.34c.17.15.33.31.49.47l.15.15.15.15.17.18.34.37h0a15.16,15.16,0,0,1,3.31,6.39c0,.1.05.19.07.29h0a5.66,5.66,0,0,1-.6,4.57c-1.36,2.1-4.09,3-6.14,3.37a19.68,19.68,0,0,0-6.66,2.5,28.21,28.21,0,0,0-7.08,6.23Zm-6.46-7.93,6.36,6.36a28.93,28.93,0,0,1,7-6,20.47,20.47,0,0,1,7-2.64c1.51-.28,4.23-1,5.46-2.92a4.64,4.64,0,0,0,.46-3.75h0c0-.11-.05-.22-.07-.33a14.32,14.32,0,0,0-3.39-6.27l-.14-.15h0L149,65a1.85,1.85,0,0,1-.14-.14l-.3-.3-.16-.13a14,14,0,0,0-6.27-3.39l-.32-.08a4.63,4.63,0,0,0-3.76.47c-1.89,1.22-2.64,3.94-2.92,5.46a20.48,20.48,0,0,1-2.63,7A29.13,29.13,0,0,1,126.49,80.92Z"/><path class="cls-27" d="M128.83,84l.35.36,0,0-3.48-3.48h0Z"/><polygon points="129.19 85.08 128.46 84.38 124.91 80.83 125.75 80.2 126.08 80.51 129.94 84.36 129.19 85.08"/><path class="cls-27" d="M129.18,84.37l.58.57,3.13,3.13h0l-3.7-3.71Z"/><polygon points="132.96 88.85 132.52 88.44 128.44 84.36 129.2 83.63 133.58 88 132.96 88.85"/><path class="cls-24" d="M118.06,95.12,107.49,84.55l-.71,1.14a2.3,2.3,0,0,0,.33,2.82l8.75,8.74,9.29,9.29a2.18,2.18,0,0,0,2.62.36l1.32-.75Z"/><path d="M126.7,107.7a2.72,2.72,0,0,1-1.92-.79l-18-18a2.81,2.81,0,0,1-.41-3.47l1-1.7,22.55,22.56L128,107.35A2.61,2.61,0,0,1,126.7,107.7ZM107.59,85.38l-.36.58a1.76,1.76,0,0,0,.25,2.18l18,18a1.67,1.67,0,0,0,2,.28l.73-.42Z"/><path class="cls-28" d="M134.72,94.82l-8-8-8.09-8.09a6.42,6.42,0,0,0-9.83.89L107.09,82a1.85,1.85,0,0,0,.4,2.59l10.57,10.57,11,11c.59.59,1.27,1.35,2.53.45l.13-.09,1.65-1.11A7,7,0,0,0,134.72,94.82Z"/><path d="M130.54,107.54a2.55,2.55,0,0,1-1.75-1l-.06-.06L107.12,84.91a2.33,2.33,0,0,1-.45-3.27l1.68-2.36a6.93,6.93,0,0,1,10.62-1L135.1,94.47a7.35,7.35,0,0,1,1.93,5.91,7.62,7.62,0,0,1-3.34,5.46l-1.65,1.1-.11.09A2.43,2.43,0,0,1,130.54,107.54ZM114.1,77.32a6.05,6.05,0,0,0-4.91,2.56l-1.7,2.4c-.45.56-.33,1.2.37,1.9l21.66,21.67c.62.62,1,.91,1.81.33l.13-.11,1.66-1.1a6.54,6.54,0,0,0,2.88-4.71,6.33,6.33,0,0,0-1.65-5.08L118.23,79.06a5.77,5.77,0,0,0-2.34-1.45A5.83,5.83,0,0,0,114.1,77.32Z"/><path class="cls-28" d="M134.48,89.64l-1.58-1.58h0l-3.13-3.13-.58-.57-.35-.36-3.13-3.13h0L123.83,79a3.52,3.52,0,0,0-3.66-.84l-1.57.54,6.07,6.07-6.07-6.07,8.09,8.09h0l7.87,7.87.16.17.56-1.51A3.47,3.47,0,0,0,134.48,89.64Z"/><path d="M134.92,95.79l-.58-.61-.15-.17L117.64,78.47l2.36-.81a4.08,4.08,0,0,1,4.2,1l2.31,2.32h0l6.33,6.33h0l.44.41,1.58,1.58a4,4,0,0,1,.92,4.22Zm-8.22-9.73.36.35,7.46,7.47.28-.75a3,3,0,0,0-.69-3.12L133,88.85l-.44-.41-7.61-7.61h0l-1.46-1.46a3,3,0,0,0-3.12-.72l-.78.27L125,84.39h0Z"/><path class="cls-28" d="M126.69,86.78h0l8,8-.16-.17Z"/><path d="M134.36,95.19,126,86.78l.74-.73.37.36,7.86,7.87.18.19Z"/></g></g></svg>