<svg xmlns="http://www.w3.org/2000/svg" xmlns:xlink="http://www.w3.org/1999/xlink" viewBox="0 0 197.58 197.65"><defs><style>.cls-1{fill:none;}.cls-2{clip-path:url(#clip-path);}.cls-3{fill:#c7c7c7;}.cls-4{fill:#fff;}.cls-5{fill:url(#무제_그라디언트_11);}.cls-6{fill:url(#무제_그라디언트_11-2);}.cls-7{fill:url(#무제_그라디언트_11-3);}.cls-8{fill:url(#무제_그라디언트_11-4);}.cls-9{fill:url(#무제_그라디언트_11-5);}.cls-10{fill:url(#무제_그라디언트_11-6);}.cls-11{fill:url(#무제_그라디언트_11-7);}.cls-12{fill:url(#무제_그라디언트_11-8);}.cls-13{fill:url(#무제_그라디언트_11-9);}.cls-14{fill:url(#무제_그라디언트_11-10);}.cls-15{fill:url(#무제_그라디언트_11-11);}.cls-16{fill:url(#무제_그라디언트_11-12);}.cls-17{fill:url(#무제_그라디언트_11-13);}.cls-18{fill:url(#무제_그라디언트_11-14);}.cls-19{fill:url(#무제_그라디언트_11-15);}.cls-20{fill:#f9f9f9;}.cls-21{fill:#c6c8c8;}.cls-22{fill:url(#무제_그라디언트_10);}.cls-23{fill:#1b1b1b;}.cls-24{fill:#b1b1b1;}.cls-25{fill:#cbcbcb;}.cls-26{fill:#d7d7d7;}.cls-27{fill:#6a6a6a;}</style><clipPath id="clip-path"><path class="cls-1" d="M98.77,197.55A98.78,98.78,0,0,1,28.93,28.93,98.78,98.78,0,0,1,168.62,168.62,98.16,98.16,0,0,1,98.77,197.55Z"/></clipPath><linearGradient id="무제_그라디언트_11" x1="130.98" y1="-140.82" x2="112.08" y2="-56.6" gradientTransform="translate(-18.07 156.6) rotate(-4.44)" gradientUnits="userSpaceOnUse"><stop offset="0" stop-color="#fafafa" stop-opacity="0"/><stop offset="1" stop-color="#fefefe"/></linearGradient><linearGradient id="무제_그라디언트_11-2" x1="-758.56" y1="2471.29" x2="-777.46" y2="2555.51" gradientTransform="translate(1680.52 -2060.08) rotate(19.55)" xlink:href="#무제_그라디언트_11"/><linearGradient id="무제_그라디언트_11-3" x1="-509.35" y1="5219.43" x2="-528.25" y2="5303.65" gradientTransform="translate(4133.57 -3394.77) rotate(43.53)" xlink:href="#무제_그라디언트_11"/><linearGradient id="무제_그라디언트_11-4" x1="835.55" y1="7628.92" x2="816.65" y2="7713.13" gradientTransform="translate(6917.36 -3616.93) rotate(67.52)" xlink:href="#무제_그라디언트_11"/><linearGradient id="무제_그라디언트_11-5" x1="3043.85" y1="9283.55" x2="3024.95" y2="9367.77" gradientTransform="translate(9551.05 -2688.19) rotate(91.51)" xlink:href="#무제_그라디언트_11"/><linearGradient id="무제_그라디언트_11-6" x1="5734.09" y1="9897.53" x2="5715.19" y2="9981.75" gradientTransform="matrix(-0.43, 0.9, -0.9, -0.43, 11579.7, -768.98)" xlink:href="#무제_그라디언트_11"/><linearGradient id="무제_그라디언트_11-7" x1="8441.6" y1="9364.8" x2="8422.7" y2="9449.01" gradientTransform="translate(12652.92 1809.21) rotate(139.48)" xlink:href="#무제_그라디언트_11"/><linearGradient id="무제_그라디언트_11-8" x1="10698.69" y1="7777.37" x2="10679.79" y2="7861.59" gradientTransform="translate(12585.32 4601.03) rotate(163.47)" xlink:href="#무제_그라디언트_11"/><linearGradient id="무제_그라디언트_11-9" x1="12115.5" y1="5409.46" x2="12096.6" y2="5493.67" gradientTransform="translate(11388.58 7124.26) rotate(-172.54)" xlink:href="#무제_그라디언트_11"/><linearGradient id="무제_그라디언트_11-10" x1="12447.31" y1="2670.06" x2="12428.4" y2="2754.27" gradientTransform="translate(9269.42 8943.04) rotate(-148.55)" xlink:href="#무제_그라디언트_11"/><linearGradient id="무제_그라디언트_11-11" x1="11636.78" y1="32.36" x2="11617.88" y2="116.58" gradientTransform="matrix(-0.57, -0.82, 0.82, -0.57, 6593.87, 9743.23)" xlink:href="#무제_그라디언트_11"/><linearGradient id="무제_그라디언트_11-12" x1="9823.94" y1="-2048.02" x2="9805.04" y2="-1963.81" gradientTransform="matrix(-0.18, -0.98, 0.98, -0.18, 3824.09, 9386.6)" xlink:href="#무제_그라디언트_11"/><linearGradient id="무제_그라디언트_11-13" x1="7321.92" y1="-3211.74" x2="7303.01" y2="-3127.53" gradientTransform="matrix(0.23, -0.97, 0.97, 0.23, 1438.52, 7934.75)" xlink:href="#무제_그라디언트_11"/><linearGradient id="무제_그라디언트_11-14" x1="4562.88" y1="-3257.79" x2="4543.98" y2="-3173.58" gradientTransform="matrix(0.61, -0.79, 0.79, 0.61, -150.8, 5638.46)" xlink:href="#무제_그라디언트_11"/><linearGradient id="무제_그라디언트_11-15" x1="2023.41" y1="-2178.22" x2="2004.51" y2="-2094" gradientTransform="translate(-669.33 2894.39) rotate(-28.62)" xlink:href="#무제_그라디언트_11"/><linearGradient id="무제_그라디언트_10" x1="84.61" y1="159.1" x2="115.8" y2="159.1" gradientUnits="userSpaceOnUse"><stop offset="0" stop-color="#fff"/><stop offset="1" stop-color="#fff"/></linearGradient></defs><title>w]badge</title><g id="레이어_3" data-name="레이어 3"><g class="cls-2"><path class="cls-3" d="M98.77,197.55A98.78,98.78,0,0,1,28.93,28.93,98.78,98.78,0,0,1,168.62,168.62,98.16,98.16,0,0,1,98.77,197.55Z"/><path class="cls-4" d="M98.64,184.23A82.85,82.85,0,0,1,15.8,101.39h.35A82.5,82.5,0,0,0,157,159.72a82,82,0,0,0,24.16-58.33h.35a82.85,82.85,0,0,1-82.85,82.84Z"/><rect class="cls-3" x="10.47" y="75.65" width="175.93" height="34.32"/><path class="cls-4" d="M20.32,99.23,14.84,103l0-3.25,2.89-1.9-2.84-2,0-3.25,5.39,3.89,5,.06,0,2.72Z"/><path class="cls-4" d="M20.25,91.44a5.42,5.42,0,0,1-3.6-2.24,5.47,5.47,0,0,1-.86-2,6.32,6.32,0,0,1,0-2.38,6.25,6.25,0,0,1,.8-2.23A5.39,5.39,0,0,1,18,81a5.21,5.21,0,0,1,1.92-.9A5.65,5.65,0,0,1,22.15,80a5.45,5.45,0,0,1,2.08.79,5.36,5.36,0,0,1,1.53,1.47,5.6,5.6,0,0,1,.85,2,6.27,6.27,0,0,1,0,2.37,6.11,6.11,0,0,1-.8,2.23,5.49,5.49,0,0,1-1.45,1.61,5.58,5.58,0,0,1-1.93.89A5.46,5.46,0,0,1,20.25,91.44Zm.47-2.8a2.86,2.86,0,0,0,1.17,0,3,3,0,0,0,1-.48,2.94,2.94,0,0,0,.75-.82,3.1,3.1,0,0,0,.4-1.09,3.17,3.17,0,0,0,0-1.15,2.9,2.9,0,0,0-.44-1,2.74,2.74,0,0,0-.8-.79,2.82,2.82,0,0,0-1.09-.42,2.75,2.75,0,0,0-1.18,0,2.88,2.88,0,0,0-1,.49,3.09,3.09,0,0,0-1.12,3.06,3.1,3.1,0,0,0,.44,1,3.3,3.3,0,0,0,.8.78A2.87,2.87,0,0,0,20.72,88.64Z"/><path class="cls-4" d="M19,72.63l5.37,1.87.89.28a2.78,2.78,0,0,0,.89.09,1.55,1.55,0,0,0,.78-.31,2.45,2.45,0,0,0,.69-2,1.51,1.51,0,0,0-.41-.73,2.63,2.63,0,0,0-.75-.49c-.3-.13-.59-.24-.87-.34l-5.37-1.88.89-2.55,5.72,2a4.9,4.9,0,0,1,3,2.23,5.81,5.81,0,0,1-2.27,6.49,4.85,4.85,0,0,1-3.73-.12l-5.72-2Z"/><path class="cls-4" d="M34.31,62.86l-7.68-7.32,1.51-2.23,5.79,1.38-3.46-4.84L32,47.62,41.64,52l-1.52,2.24-5.49-2.62L38.24,57l-.61.9-6.29-1.42,4.48,4.11Z"/><path class="cls-4" d="M46.41,44.49,43.7,47.26,44.56,49l-2,2.07L37.85,40.89l2.07-2.12,10.26,4.47-2,2.07Zm-2-.93L41.09,42l1.64,3.3Z"/><path class="cls-4" d="M45.44,33.67l3.23-2.39a4.91,4.91,0,0,1,1.86-.85,5.85,5.85,0,0,1,2-.05,5.46,5.46,0,0,1,1.88.68,5.13,5.13,0,0,1,1.5,1.36,5,5,0,0,1,.86,1.83,5.35,5.35,0,0,1,.11,2,5.46,5.46,0,0,1-.63,1.9,4.78,4.78,0,0,1-1.36,1.55l-3.23,2.39Zm7,4.94.5-.37a3.34,3.34,0,0,0,.88-.93,2.69,2.69,0,0,0,.39-1.05,2.48,2.48,0,0,0-.08-1.08,3.34,3.34,0,0,0-.53-1.07,3.46,3.46,0,0,0-.86-.81,2.55,2.55,0,0,0-1-.39,2.62,2.62,0,0,0-1.11.06,3.21,3.21,0,0,0-1.14.57l-.5.37Z"/><path class="cls-4" d="M62.4,25.42,59.57,27l.84,1.53L63.08,27l1.11,2-2.67,1.47.87,1.58,2.83-1.56,1.11,2-5.21,2.86-5-9.16,5.21-2.86Z"/><path class="cls-4" d="M79.41,23.45a12,12,0,0,0,.89-1.81l1.89,1a8.1,8.1,0,0,1-.33.77c-.13.26-.29.54-.47.85l-.14.24,2.93,1.73-3.25,1-1.15-.66a6.49,6.49,0,0,1-3.09,2.2,4.13,4.13,0,0,1-1.36.17,3,3,0,0,1-1.18-.31,2.71,2.71,0,0,1-.93-.72,2.69,2.69,0,0,1-.58-1.08,3,3,0,0,1-.14-1,2.59,2.59,0,0,1,.29-1,3.32,3.32,0,0,1,.46-.71,6.57,6.57,0,0,1,.7-.68l.24-.22L74,23a3.19,3.19,0,0,1-1.31-1.62,2.7,2.7,0,0,1-.08-1.16A2.74,2.74,0,0,1,73,19.14a3.17,3.17,0,0,1,.82-.86A3.7,3.7,0,0,1,75,17.71a4,4,0,0,1,1.31-.16,3.36,3.36,0,0,1,1.16.29,2.93,2.93,0,0,1,.91.69,2.67,2.67,0,0,1,.55,1,2.62,2.62,0,0,1,.11.75,1.78,1.78,0,0,1-.13.71,3.08,3.08,0,0,1-.41.71,8.07,8.07,0,0,1-.72.78Zm-3.15-1.84a1.63,1.63,0,0,0,.57-1.52.94.94,0,0,0-.44-.57.8.8,0,0,0-.71-.09.84.84,0,0,0-.59,1.08C75.18,20.83,75.57,21.2,76.26,21.61Zm-.44,2.5c-.52.58-.72,1.06-.6,1.45a.82.82,0,0,0,.21.36,1,1,0,0,0,.34.24,1.43,1.43,0,0,0,.42.09,1.29,1.29,0,0,0,.47-.06,2.75,2.75,0,0,0,1.24-.84Z"/><path class="cls-4" d="M93.5,14.68l.55,8.13,3.25-.21.15,2.29-6,.4-.7-10.43Z"/><path class="cls-4" d="M105.94,17l-3.23-.15-.08,1.75,3.05.14-.11,2.3-3-.14-.08,1.8,3.22.15-.1,2.3-6-.28.49-10.44,5.94.27Z"/><path class="cls-4" d="M109.12,15.25l4,.73a4.66,4.66,0,0,1,1.89.78,5.76,5.76,0,0,1,1.41,1.42,5.47,5.47,0,0,1,.78,1.84,5,5,0,0,1,0,2,5.13,5.13,0,0,1-.74,1.87,5.34,5.34,0,0,1-3.2,2.28,4.76,4.76,0,0,1-2.06.06l-4-.73Zm1.2,8.51.61.11a3.25,3.25,0,0,0,1.28,0,2.69,2.69,0,0,0,1-.43,2.84,2.84,0,0,0,.74-.8,3.55,3.55,0,0,0,.41-1.12,3.34,3.34,0,0,0,0-1.18,2.55,2.55,0,0,0-.41-1,2.6,2.6,0,0,0-.81-.77,3.25,3.25,0,0,0-1.18-.44l-.62-.12Z"/><path class="cls-4" d="M128.15,26l-1.33-6.5,3,1.29.64,3.39,2.9-1.85,3,1.3-5.67,3.46-2,4.6-2.49-1.08Z"/><path class="cls-4" d="M135.32,29A5.39,5.39,0,0,1,141,26.48a6.15,6.15,0,0,1,2.2.89A6,6,0,0,1,144.9,29a5.48,5.48,0,0,1,.93,2,5.34,5.34,0,0,1-.72,4.18,5.33,5.33,0,0,1-1.52,1.61,5.47,5.47,0,0,1-2,.85,5.7,5.7,0,0,1-2.18,0,6.22,6.22,0,0,1-2.19-.89,6.29,6.29,0,0,1-1.75-1.6,5.53,5.53,0,0,1-.92-2,5.39,5.39,0,0,1-.07-2.12A5.5,5.5,0,0,1,135.32,29Zm2.4,1.52a2.83,2.83,0,0,0-.41,1.1,3,3,0,0,0,.05,1.11,3,3,0,0,0,.47,1,3.13,3.13,0,0,0,.84.78,3,3,0,0,0,1.07.42,3,3,0,0,0,1.12,0,3.06,3.06,0,0,0,1-.43,2.86,2.86,0,0,0,.81-.85,2.74,2.74,0,0,0,.41-1.1,2.82,2.82,0,0,0-.05-1.12,2.85,2.85,0,0,0-.48-1,3.17,3.17,0,0,0-.84-.79,3.07,3.07,0,0,0-1.07-.42,3.24,3.24,0,0,0-1.12,0,3.07,3.07,0,0,0-1,.44A2.78,2.78,0,0,0,137.72,30.47Z"/><path class="cls-4" d="M153.15,35.09l-3.8,4.23q-.3.33-.6.72a2.29,2.29,0,0,0-.42.78,1.38,1.38,0,0,0,0,.83,1.91,1.91,0,0,0,.62.89,2,2,0,0,0,.94.52,1.56,1.56,0,0,0,.83-.1,2.68,2.68,0,0,0,.74-.5c.23-.23.45-.45.65-.68l3.81-4.22,2,1.81-4.05,4.5a4.9,4.9,0,0,1-3.21,1.9,4.63,4.63,0,0,1-3.3-1.46,4.7,4.7,0,0,1-1.81-3.13,4.89,4.89,0,0,1,1.55-3.4l4-4.51Z"/><path class="cls-4" d="M158.34,56l-2.14-2.62,1.48-4.55-3.12,2.55-1.72-2.11,8.1-6.61,2.67,3.27a4.06,4.06,0,0,1,.77,1.35,3,3,0,0,1,.14,1.27,2.87,2.87,0,0,1-.39,1.14,3.46,3.46,0,0,1-.84,1,3.08,3.08,0,0,1-1.86.78,2.93,2.93,0,0,1-1.85-.68Zm.7-8.28.32.4a2,2,0,0,0,1,.74,1.14,1.14,0,0,0,1-.27,1.12,1.12,0,0,0,.47-.94,2,2,0,0,0-.52-1.17l-.33-.39Z"/><path class="cls-4" d="M171.88,65.83a2.9,2.9,0,0,0,0-2.6,2.8,2.8,0,0,0-.71-.91,2.65,2.65,0,0,0-.94-.52,2.77,2.77,0,0,0-1.08-.12,3.1,3.1,0,0,0-2,1,2.77,2.77,0,0,0-.54.94,2.64,2.64,0,0,0-.14,1.08,2.74,2.74,0,0,0,.3,1.09,3.17,3.17,0,0,0,2.05,1.58l-2.87,1.46-.21-.2a7.22,7.22,0,0,1-.81-.9,5.1,5.1,0,0,1-.58-.9,5.19,5.19,0,0,1-.57-2,5.38,5.38,0,0,1,.23-2.08,5.67,5.67,0,0,1,1-1.88,5.65,5.65,0,0,1,3.95-2,5.55,5.55,0,0,1,2.09.3,5.37,5.37,0,0,1,1.81,1,5.45,5.45,0,0,1,1.32,1.69,5.9,5.9,0,0,1,.43,1.15,6.51,6.51,0,0,1,.21,1.32Z"/><path class="cls-4" d="M169.44,79.44l-1.1-3.2,3-3.76-3.81,1.31-.88-2.57,9.89-3.4,1.37,4a4,4,0,0,1,.25,1.53,2.91,2.91,0,0,1-.31,1.24,3,3,0,0,1-.76.94,3.72,3.72,0,0,1-1.11.61,3.08,3.08,0,0,1-2,.08,2.9,2.9,0,0,1-1.5-1.28ZM173,71.91l.17.49a1.93,1.93,0,0,0,.71,1,1.14,1.14,0,0,0,1,.1,1.12,1.12,0,0,0,.76-.72,2,2,0,0,0-.08-1.27l-.17-.49Z"/><path class="cls-4" d="M179,85.45l-.65-3.16-1.71.35.61,3-2.26.46-.61-3-1.76.36.65,3.17-2.26.46-1.19-5.83L180,79.16,181.23,85Z"/><path class="cls-4" d="M182.12,91l-6.69,2,6.82,2,.07,2.16-6.67,2.44,6.8,1.58.1,2.84L172,101.29l-.09-2.77,6-2.26-6.12-1.85-.09-2.77L182,88.18Z"/><path class="cls-5" d="M99.16,98.24,91.57.54s8-6.25,19.51,1.3Z"/><path class="cls-6" d="M99.16,98.24,131.94,5.89s9.82-2.47,17.3,9.13Z"/><path class="cls-7" d="M99.16,98.24l67.49-71s10,1.73,12.1,15.36Z"/><path class="cls-8" d="M99.16,98.24l90.55-37.47s8.41,5.64,4.8,19Z"/><path class="cls-9" d="M99.16,98.24l98,2.58s5.39,8.57-3.32,19.27Z"/><path class="cls-10" d="M99.16,98.24l88.45,42.18s1.44,10-10.87,16.26Z"/><path class="cls-11" d="M99.16,98.24l63.66,74.5s-2.76,9.74-16.53,10.43Z"/><path class="cls-12" d="M99.16,98.24l27.88,94S120.56,200,107.69,195Z"/><path class="cls-13" d="M99.16,98.24,86.44,195.41s-9.09,4.47-18.82-5.3Z"/><path class="cls-14" d="M99.16,98.24,48,181.84s-10.12.4-15-12.49Z"/><path class="cls-15" d="M99.16,98.24l-80.7,55.6s-9.4-3.75-8.66-17.53Z"/><path class="cls-16" d="M99.16,98.24l-96.33,18S-4.24,109,2,96.7Z"/><path class="cls-17" d="M99.16,98.24,3.84,75.52S.32,66,11.05,57.35Z"/><path class="cls-18" d="M99.16,98.24,21.31,38.73s.65-10.11,14-13.67Z"/><path class="cls-19" d="M99.16,98.24l-46.94-86s4.71-9,18.33-6.8Z"/><path class="cls-20" d="M56.79,72.05a7.72,7.72,0,0,0-2.64,2.82,8.54,8.54,0,0,0-2.72-2.79A10,10,0,0,0,54,69.2,7.25,7.25,0,0,0,56.79,72.05Z"/><path class="cls-20" d="M155.87,122a7.68,7.68,0,0,0-2.63,2.82,8.66,8.66,0,0,0-2.73-2.79,9.57,9.57,0,0,0,2.59-2.88A7.32,7.32,0,0,0,155.87,122Z"/><path class="cls-20" d="M46.94,106a7.6,7.6,0,0,0-2.63,2.82A8.56,8.56,0,0,0,41.58,106a9.57,9.57,0,0,0,2.59-2.88A7.25,7.25,0,0,0,46.94,106Z"/><path class="cls-20" d="M84.61,62.69A7.72,7.72,0,0,0,82,65.51a8.45,8.45,0,0,0-2.72-2.79,9.83,9.83,0,0,0,2.59-2.88A7.25,7.25,0,0,0,84.61,62.69Z"/><path class="cls-20" d="M134.57,85.7a7.68,7.68,0,0,0-2.63,2.82,8.66,8.66,0,0,0-2.73-2.79,9.57,9.57,0,0,0,2.59-2.88A7.32,7.32,0,0,0,134.57,85.7Z"/><path class="cls-20" d="M43.54,68.89a4.69,4.69,0,0,0-.43.47,4.53,4.53,0,0,0-.49-.49q.23-.24.42-.48A3.93,3.93,0,0,0,43.54,68.89Z"/><path class="cls-20" d="M141.08,140c-.12.11-.22.23-.32.34a4.31,4.31,0,0,0-.37-.37,3.38,3.38,0,0,0,.31-.35A3.41,3.41,0,0,0,141.08,140Z"/><path class="cls-20" d="M72.13,136.92c-.12.11-.22.23-.32.34a4.31,4.31,0,0,0-.37-.37c.11-.11.22-.23.31-.34A4.4,4.4,0,0,0,72.13,136.92Z"/><circle class="cls-20" cx="62.78" cy="69.75" r="1.12"/><circle class="cls-20" cx="131.39" cy="139.26" r="1.12"/><circle class="cls-20" cx="91.78" cy="116.74" r="1.12"/><circle class="cls-20" cx="62.72" cy="126.67" r="1.12"/><circle class="cls-20" cx="156.34" cy="104.94" r="1.12"/><circle class="cls-20" cx="63.89" cy="140.37" r="1.12"/><path class="cls-20" d="M109.27,84.7a7.8,7.8,0,0,0-2.66,2.79,8.62,8.62,0,0,0-2.69-2.82,9.87,9.87,0,0,0,2.62-2.85A7.26,7.26,0,0,0,109.27,84.7Z"/><path class="cls-20" d="M70.86,90.56a7.64,7.64,0,0,0-2.66,2.79,8.52,8.52,0,0,0-2.69-2.82,10,10,0,0,0,2.62-2.85A7.33,7.33,0,0,0,70.86,90.56Z"/><path class="cls-20" d="M121.66,49.67a7.66,7.66,0,0,0-2.66,2.8,8.68,8.68,0,0,0-2.7-2.83,9.48,9.48,0,0,0,2.62-2.85A7.28,7.28,0,0,0,121.66,49.67Z"/><path class="cls-20" d="M67.87,53.46a6.33,6.33,0,0,0-.44.46,3.72,3.72,0,0,0-.48-.49,4.69,4.69,0,0,0,.43-.47A4.65,4.65,0,0,0,67.87,53.46Z"/><path class="cls-20" d="M147.37,65.89a3.4,3.4,0,0,0-.32.34,4.44,4.44,0,0,0-.37-.38c.11-.11.22-.22.32-.34A3.34,3.34,0,0,0,147.37,65.89Z"/><path class="cls-20" d="M87.87,86.46c-.11.1-.22.22-.32.33a4.25,4.25,0,0,0-.36-.37l.31-.35A4.59,4.59,0,0,0,87.87,86.46Z"/><circle class="cls-20" cx="96.39" cy="56.41" r="1.12"/><circle class="cls-20" cx="115.58" cy="101.84" r="1.12"/><circle class="cls-20" cx="86.41" cy="111.45" r="1.12"/><circle class="cls-20" cx="127.52" cy="118.33" r="1.12"/><path class="cls-21" d="M130.73,114.54,91.45,66,81.11,53a14.37,14.37,0,0,0-12.47,9s-2.3,7.14-9.56,8.31l9.86,12.31s8-.41,10.73-8.25c0,0,1.93-8.28,11.78-8.44"/><path d="M130.32,114.87,91.21,66.48c-9.1.28-11,7.71-11,8v0c-2.85,8.08-11.11,8.6-11.19,8.6l-.27,0L58.12,70l.88-.14c6.84-1.11,9.12-7.89,9.15-8v0A15,15,0,0,1,81.1,52.51h.26l10.5,13.12,39.27,48.59ZM60,70.67,69.17,82.1a11.89,11.89,0,0,0,10-7.86,12.26,12.26,0,0,1,11.24-8.76L80.87,53.56A13.72,13.72,0,0,0,69.13,62.2C69,62.69,66.72,69.11,60,70.67Z"/><path class="cls-21" d="M75.84,114.54,115.12,66,125.46,53a14.37,14.37,0,0,1,12.47,9s2.3,7.14,9.56,8.31l-9.86,12.31s-8-.41-10.73-8.25c0,0-1.93-8.28-11.78-8.44"/><path d="M76.25,114.87l-.81-.65,39.28-48.59,10.49-13.12h.26a15,15,0,0,1,12.94,9.31v0c0,.07,2.31,6.85,9.15,8l.88.14L137.87,83.18l-.27,0c-.08,0-8.34-.52-11.19-8.6v0c-.08-.32-1.94-7.75-11-8ZM127.4,74.24a11.9,11.9,0,0,0,10,7.86l9.15-11.43c-6.7-1.56-8.94-8-9.11-8.47a13.72,13.72,0,0,0-11.74-8.64l-9.54,11.92a12.38,12.38,0,0,1,9,4.42A11.81,11.81,0,0,1,127.4,74.24Z"/><circle class="cls-22" cx="100.2" cy="159.1" r="15.6"/><path d="M100.2,175.22a16.12,16.12,0,1,1,16.12-16.12A16.13,16.13,0,0,1,100.2,175.22Zm0-31.2a15.08,15.08,0,1,0,15.08,15.08A15.1,15.1,0,0,0,100.2,144Z"/><path class="cls-23" d="M95.08,165.34h-10l3.08-3.2A26.43,26.43,0,0,0,90.06,160a11.05,11.05,0,0,0,1-1.49,4.14,4.14,0,0,0,.43-1,3.47,3.47,0,0,0,.08-.64,1.71,1.71,0,0,0-.09-.55,1.34,1.34,0,0,0-.28-.47,1.27,1.27,0,0,0-.43-.33,1.4,1.4,0,0,0-.6-.12,1.27,1.27,0,0,0-1,.43,1.56,1.56,0,0,0-.38,1.07,4.72,4.72,0,0,0,0,.53H85.32a5.21,5.21,0,0,1,.35-2,4.51,4.51,0,0,1,1-1.54,4.65,4.65,0,0,1,1.52-1,5.31,5.31,0,0,1,1.94-.34,5.45,5.45,0,0,1,1.92.33,4.7,4.7,0,0,1,1.53.92A4.28,4.28,0,0,1,94.94,157a4.13,4.13,0,0,1-.43,1.89,6.49,6.49,0,0,1-1.4,1.77l-2.06,1.93h4Z"/><path class="cls-23" d="M94.5,159.11a8.8,8.8,0,0,1,.39-2.7A6.35,6.35,0,0,1,96,154.34,4.94,4.94,0,0,1,97.64,153a4.9,4.9,0,0,1,5.93,1.32,6.35,6.35,0,0,1,1.08,2.07,8.81,8.81,0,0,1,.38,2.7,8.7,8.7,0,0,1-.38,2.69,6.5,6.5,0,0,1-1.08,2.08,4.81,4.81,0,0,1-1.67,1.34,5.06,5.06,0,0,1-4.26,0A5,5,0,0,1,96,163.88a6.5,6.5,0,0,1-1.08-2.08A8.69,8.69,0,0,1,94.5,159.11Zm3.2,0a6.93,6.93,0,0,0,.15,1.5,4.46,4.46,0,0,0,.42,1.17,2.38,2.38,0,0,0,.65.77,1.44,1.44,0,0,0,.86.27,1.43,1.43,0,0,0,.84-.27,2.28,2.28,0,0,0,.66-.77,4.85,4.85,0,0,0,.41-1.17,7.53,7.53,0,0,0,0-3,4.56,4.56,0,0,0-.41-1.17,2.15,2.15,0,0,0-.66-.76,1.37,1.37,0,0,0-.84-.28,1.39,1.39,0,0,0-.86.28,2.23,2.23,0,0,0-.65.76,4.21,4.21,0,0,0-.42,1.17A6.9,6.9,0,0,0,97.7,159.11Z"/><path class="cls-23" d="M104.92,158.07h3.36v-3.36h2.11v3.36h3.35v2.11h-3.35v3.36h-2.11v-3.36h-3.36Z"/><path class="cls-24" d="M107.34,91.41,130,76.3a2.3,2.3,0,0,1,3.35.89l7.56,15.11a2.31,2.31,0,0,1-2.07,3.35H108.62A2.31,2.31,0,0,1,107.34,91.41Z"/><path d="M138.85,96.17H108.62A2.83,2.83,0,0,1,107.05,91l22.67-15.12A2.84,2.84,0,0,1,133.83,77l7.56,15.12a2.84,2.84,0,0,1-2.54,4.1ZM131.3,76.43a1.78,1.78,0,0,0-1,.3L107.63,91.84a1.8,1.8,0,0,0,1,3.29h30.23a1.8,1.8,0,0,0,1.61-2.6L132.9,77.42a1.8,1.8,0,0,0-1.14-.93A1.88,1.88,0,0,0,131.3,76.43Z"/><path class="cls-24" d="M94.48,91.41,71.81,76.3a2.31,2.31,0,0,0-3.36.89L60.9,92.3A2.31,2.31,0,0,0,63,95.65H93.19A2.32,2.32,0,0,0,94.48,91.41Z"/><path d="M93.19,96.17H63a2.84,2.84,0,0,1-2.54-4.1L68,77a2.84,2.84,0,0,1,1.81-1.47,2.81,2.81,0,0,1,2.29.38L94.77,91a2.83,2.83,0,0,1-1.58,5.19ZM70.52,76.43a1.82,1.82,0,0,0-.46.06,1.8,1.8,0,0,0-1.14.93L61.36,92.53A1.8,1.8,0,0,0,63,95.13H93.19a1.8,1.8,0,0,0,1-3.29L71.52,76.73A1.8,1.8,0,0,0,70.52,76.43Z"/><path class="cls-24" d="M107.34,91.41,130,76.3a2.3,2.3,0,0,1,3.35.89l7.56,15.11a2.31,2.31,0,0,1-2.07,3.35H108.62A2.31,2.31,0,0,1,107.34,91.41Z"/><path d="M138.85,96.17H108.62A2.83,2.83,0,0,1,107.05,91l22.67-15.12A2.84,2.84,0,0,1,133.83,77l7.56,15.12a2.84,2.84,0,0,1-2.54,4.1ZM131.3,76.43a1.78,1.78,0,0,0-1,.3L107.63,91.84a1.8,1.8,0,0,0,1,3.29h30.23a1.8,1.8,0,0,0,1.61-2.6L132.9,77.42a1.8,1.8,0,0,0-1.14-.93A1.88,1.88,0,0,0,131.3,76.43Z"/><path class="cls-24" d="M94.48,91.41,71.81,76.3a2.31,2.31,0,0,0-3.36.89L60.9,92.3A2.31,2.31,0,0,0,63,95.65H93.19A2.32,2.32,0,0,0,94.48,91.41Z"/><path d="M93.19,96.17H63a2.84,2.84,0,0,1-2.54-4.1L68,77a2.84,2.84,0,0,1,1.81-1.47,2.81,2.81,0,0,1,2.29.38L94.77,91a2.83,2.83,0,0,1-1.58,5.19ZM70.52,76.43a1.82,1.82,0,0,0-.46.06,1.8,1.8,0,0,0-1.14.93L61.36,92.53A1.8,1.8,0,0,0,63,95.13H93.19a1.8,1.8,0,0,0,1-3.29L71.52,76.73A1.8,1.8,0,0,0,70.52,76.43Z"/><path class="cls-25" d="M141.78,126.86a3.1,3.1,0,0,0,3-2.46l8.42-39.28a3.11,3.11,0,0,0-4.32-1.74l-20,10a3.12,3.12,0,0,1-3.59-.58l-20.49-20.5a3.12,3.12,0,0,0-4.4,0L79.91,92.85a3.1,3.1,0,0,1-3.45.65L52.77,83a3.11,3.11,0,0,0-4.19,1.8l9,42.09Z"/><path d="M141.78,127.38H57.18L48,84.74l.05-.14a3.64,3.64,0,0,1,2-2.13,3.57,3.57,0,0,1,2.88,0L76.67,93a2.61,2.61,0,0,0,2.88-.53l20.57-20.57a3.61,3.61,0,0,1,5.12,0l20.5,20.49a2.59,2.59,0,0,0,3,.49l20-10a3.5,3.5,0,0,1,2.95-.13A3.65,3.65,0,0,1,153.73,85l.05.14,0,.14-8.42,39.28A3.66,3.66,0,0,1,141.78,127.38Zm-83.76-1h83.76a2.59,2.59,0,0,0,2.53-2l8.39-39.13a2.62,2.62,0,0,0-1.45-1.42,2.53,2.53,0,0,0-2.1.1l-20,10a3.64,3.64,0,0,1-4.19-.68l-20.49-20.5a2.59,2.59,0,0,0-3.66,0L80.28,93.22a3.63,3.63,0,0,1-4,.75L52.56,83.44a2.57,2.57,0,0,0-2.05,0,2.63,2.63,0,0,0-1.39,1.39Z"/><path class="cls-26" d="M57.6,126.86h86.69l9-41.74a3.11,3.11,0,0,0-4.32-1.74l-20,10a3.12,3.12,0,0,1-3.59-.58l-20.49-20.5a3.12,3.12,0,0,0-4.4,0L79.91,92.85a3.1,3.1,0,0,1-3.45.65L52.77,83a3.11,3.11,0,0,0-4.19,1.8Z"/><path d="M144.71,127.38H57.18L48,84.74l.05-.14a3.64,3.64,0,0,1,2-2.13,3.57,3.57,0,0,1,2.88,0L76.67,93a2.61,2.61,0,0,0,2.88-.53l20.57-20.57a3.61,3.61,0,0,1,5.12,0l20.5,20.49a2.59,2.59,0,0,0,3,.49l20-10a3.5,3.5,0,0,1,2.95-.13A3.65,3.65,0,0,1,153.73,85l.05.14,0,.14Zm-86.69-1h85.85l8.83-41.17a2.62,2.62,0,0,0-1.45-1.42,2.53,2.53,0,0,0-2.1.1l-20,10a3.64,3.64,0,0,1-4.19-.68l-20.49-20.5a2.59,2.59,0,0,0-3.66,0L80.28,93.22a3.63,3.63,0,0,1-4,.75L52.56,83.44a2.57,2.57,0,0,0-2.05,0,2.63,2.63,0,0,0-1.39,1.39Z"/><ellipse class="cls-25" cx="100.95" cy="126.86" rx="43.35" ry="10.4"/><path d="M101,137.78c-21.57,0-43.87-4.08-43.87-10.92s22.3-10.92,43.87-10.92,43.86,4.08,43.86,10.92S122.51,137.78,101,137.78Zm0-20.8c-25.62,0-42.83,5.11-42.83,9.88s17.21,9.88,42.83,9.88,42.82-5.11,42.82-9.88S126.57,117,101,117Z"/><ellipse class="cls-24" cx="100.95" cy="126.86" rx="43.35" ry="10.4"/><path d="M101,137.78c-21.57,0-43.87-4.08-43.87-10.92s22.3-10.92,43.87-10.92,43.86,4.08,43.86,10.92S122.51,137.78,101,137.78Zm0-20.8c-25.62,0-42.83,5.11-42.83,9.88s17.21,9.88,42.83,9.88,42.82-5.11,42.82-9.88S126.57,117,101,117Z"/><path class="cls-25" d="M101,133.61c-10.73,0-20.78-1-28.3-2.8a33.75,33.75,0,0,1-7.57-2.58,1.55,1.55,0,0,1,0-2.74,33.75,33.75,0,0,1,7.57-2.58c7.52-1.8,17.57-2.8,28.3-2.8s20.77,1,28.29,2.8a33.55,33.55,0,0,1,7.57,2.58,1.55,1.55,0,0,1,0,2.74,33.55,33.55,0,0,1-7.57,2.58C121.72,132.61,111.67,133.61,101,133.61Z"/><path d="M101,134.13c-10.77,0-20.86-1-28.42-2.82a34.61,34.61,0,0,1-7.69-2.62,2.06,2.06,0,0,1,0-3.66,34.61,34.61,0,0,1,7.69-2.62c7.56-1.82,17.65-2.82,28.42-2.82s20.85,1,28.41,2.82a34.72,34.72,0,0,1,7.7,2.62,2.07,2.07,0,0,1,0,3.66,34.72,34.72,0,0,1-7.7,2.62C121.8,133.13,111.71,134.13,101,134.13Zm0-13.5c-10.69,0-20.7,1-28.18,2.79A33.68,33.68,0,0,0,65.32,126a1,1,0,0,0-.55.91,1,1,0,0,0,.55.9,33.11,33.11,0,0,0,7.45,2.54c7.48,1.8,17.49,2.79,28.18,2.79s20.69-1,28.17-2.79a33.11,33.11,0,0,0,7.45-2.54,1,1,0,0,0,.55-.9,1,1,0,0,0-.55-.91,33.68,33.68,0,0,0-7.45-2.53C121.64,121.62,111.63,120.63,101,120.63Z"/><polygon class="cls-27" points="138.91 96.59 139.13 101.34 143.24 98.96 143.03 94.21 138.91 96.59"/><path d="M138.65,102.23l-.27-5.93,5.13-3,.26,5.92Zm.8-5.34.16,3.57,3.1-1.79-.16-3.58Z"/><polygon class="cls-27" points="63.34 96.59 63.13 101.34 59.02 98.96 59.23 94.21 63.34 96.59"/><path d="M63.61,102.23l-5.13-3,.27-5.92,5.13,3Zm-4.06-3.56,3.1,1.79.16-3.57-3.1-1.8Z"/><polygon class="cls-27" points="106.44 87.47 102.77 93.54 99.09 87.47 102.77 81.4 106.44 87.47"/><path d="M102.77,94.54l-4.29-7.07,4.29-7.07,4.28,7.07ZM99.7,87.47l3.07,5.07,3.07-5.07-3.07-5.06Z"/><path d="M57.48,120.6l-.37-1A135.79,135.79,0,0,1,85,113.1c15.09-2,37.62-2.47,59.22,6.53l-.4,1c-21.38-8.9-43.7-8.43-58.65-6.47A135.43,135.43,0,0,0,57.48,120.6Z"/><path d="M82.06,106.19l1.17-6.88H85L86.37,103l1.37-3.67h1.77l1.17,6.88H88.9l-.59-4-1.63,4H86l-1.54-4-.59,4Z"/><path d="M95.8,105H93.24l-.41,1.2h-1.9l2.61-6.88h2l2.61,6.88h-1.9Zm-.48-1.36-.8-2.29-.8,2.29Z"/><path d="M102.45,101.07a2,2,0,0,0-.59-.35,1.45,1.45,0,0,0-.56-.12.94.94,0,0,0-.57.17.53.53,0,0,0-.22.43.44.44,0,0,0,.11.3,1.06,1.06,0,0,0,.29.2,2.08,2.08,0,0,0,.4.15l.44.14a2.68,2.68,0,0,1,1.29.78,1.93,1.93,0,0,1,.4,1.27,2.45,2.45,0,0,1-.18,1,1.81,1.81,0,0,1-.52.73,2.19,2.19,0,0,1-.83.48,3.62,3.62,0,0,1-1.13.17,4.13,4.13,0,0,1-2.42-.78l.77-1.44a3.21,3.21,0,0,0,.79.53,1.83,1.83,0,0,0,.78.17.89.89,0,0,0,.65-.2.6.6,0,0,0,.21-.45.68.68,0,0,0,0-.27.6.6,0,0,0-.18-.21,1.2,1.2,0,0,0-.34-.18l-.49-.18-.68-.24a2.13,2.13,0,0,1-.6-.36,1.68,1.68,0,0,1-.42-.55,2,2,0,0,1-.16-.84,2.52,2.52,0,0,1,.17-.93,2.17,2.17,0,0,1,.48-.71,2,2,0,0,1,.75-.46,2.76,2.76,0,0,1,1-.16,4,4,0,0,1,1.07.14,4.64,4.64,0,0,1,1.07.41Z"/><path d="M107,100.82v5.37H105.2v-5.37h-1.47V99.31h4.73v1.51Z"/><path d="M112.94,100.82h-2.13V102h2v1.52h-2v1.18h2.13v1.52H109V99.31h3.91Z"/><path d="M119.72,106.19h-2.23l-1.7-2.65v2.65H114V99.31h2.78a2.56,2.56,0,0,1,1,.17,1.86,1.86,0,0,1,.71.46,1.81,1.81,0,0,1,.42.67,2.48,2.48,0,0,1,.14.82,2.05,2.05,0,0,1-.38,1.28,1.94,1.94,0,0,1-1.11.66Zm-3.93-3.81h.33a1.24,1.24,0,0,0,.81-.22.74.74,0,0,0,.29-.63.76.76,0,0,0-.29-.63,1.31,1.31,0,0,0-.81-.21h-.33Z"/></g></g></svg>