<?xml version="1.0" encoding="utf-8"?>
<!-- Generator: Adobe Illustrator 24.0.1, SVG Export Plug-In . SVG Version: 6.00 Build 0)  -->
<svg version="1.1" id="레이어_1" xmlns="http://www.w3.org/2000/svg" xmlns:xlink="http://www.w3.org/1999/xlink" x="0px"
	 y="0px" viewBox="0 0 450 145.7" style="enable-background:new 0 0 450 145.7;" xml:space="preserve">
<style type="text/css">
	.st0{fill:#FFFFFF;}
	.st1{fill:#00D0AE;}
	.st2{fill:#ABE8D4;}
	.st3{fill:#FEFFFF;}
	.st4{fill:#FDFFFE;}
</style>
<g>
	<path class="st0" d="M79.5,181.5c-4,2.7-7.6,6-10.9,9.5c-3.5,3.7-6.5,7.8-9.1,12.1c-2.4,4-4.4,8.2-6,12.5c-1.1,3-2.2,6-2.8,9.2
		c-0.9,4.9-1.4,9.8-0.1,14.6c0.9,3.5,2.9,6.3,5.5,8.7c3.1,2.9,6.7,5,10.6,6.7c3.8,1.6,7.6,2.9,11.6,3.8c4.4,1,8.9,1.8,13.5,2.1
		c2.4,0.2,4.9,0.4,7.3,0.3c4.2-0.1,8.4-0.4,12.5-1.2c6-1.2,11.7-3.2,17.2-5.8c5.1-2.4,9.8-5.6,14-9.4c4-3.6,7.2-7.8,9.4-12.7
		c1.9-4.1,3-8.3,3-12.8c0-4.4-0.3-8.8-1.8-13c-1.4-4.1-3.8-7.5-6.6-10.7c-4.8-5.3-10.7-8.9-17.2-11.7c-2.1-0.9-4.2-1.5-6.4-2.1
		c-0.6-0.2-1.2-0.3-1.8-0.6c-0.1-0.1-0.2-0.1-0.4-0.2c-4.2,0.8-10.7,1.6-20.3,2.1c0,0-14.5-0.3-18.6-2c0,0-0.5-0.2-1.3-0.5
		c0,0-0.1,0-0.1,0C80.5,181,80,181.3,79.5,181.5z M94.1,211.9c0-2.9,0.4-5.7,0.9-8.5c0.4-1.8,0.7-3.7,1.2-5.5
		c0.2-0.9,0.6-1.7,1.2-2.5c0.9-1.3,2.4-1.8,3.8-1.1c1.2,0.6,1.9,1.7,2,3.1c0.1,1.6-0.2,3.2-0.5,4.7c-0.4,2.6-0.9,5.3-1.1,7.9
		c-0.1,1.4-0.2,2.9-0.5,4.3c-0.3,1.1-0.7,2.1-1.6,2.8c-1.9,1.4-4.4,0.6-5.1-1.8C94.1,214.2,94.1,213.1,94.1,211.9z M92.7,242.2
		c3.3-0.4,6.5-1.3,9.5-2.7c3.1-1.4,6-3.2,8.4-5.5c2.1-2,3.9-4.3,5.1-7c0.2-0.5,0.3-1.1,0.6-1.6c0.3-0.5,0-0.8-0.6-0.7
		c-0.7,0.2-1.4,0.4-2,0.7c-1.1,0.5-2.1,0.3-2.9-0.5c-0.9-0.8-1.1-1.8-0.8-2.9c0.2-0.6,0.5-1.1,1-1.4c2.4-1.4,4.9-2,7.7-1.5
		c2.2,0.4,4.1,1.3,5.6,2.9c1.5,1.5,2.4,3.2,2.9,5.3c0.5,2.1,0.5,4.2,0.1,6.4c-0.2,1.2-1.8,2.4-2.9,2.2c-1.5-0.2-2.7-1.8-2.5-3.1
		c0-0.7,0.2-1.4,0.2-2.2c0-0.6-0.2-1.2-0.2-1.8c0-0.2-0.1-0.4-0.3-0.4c-0.2,0-0.3,0.2-0.4,0.4c-0.2,0.6-0.5,1.2-0.8,1.7
		c-1.2,2.4-2.8,4.5-4.6,6.5c-1.2,1.3-2.6,2.5-4,3.5c-1.7,1.2-3.4,2.3-5.3,3.3c-1.6,0.8-3.3,1.6-5.1,2.2c-2.1,0.7-4.2,1.3-6.4,1.6
		c-0.9,0.1-1.8,0.3-2.7,0.4c-2.5,0.3-5,0.2-7.5,0.1c-2.4-0.2-4.7-0.6-6.9-1.3c-1.8-0.6-3.5-1.3-5.2-2.2c-1.9-1.1-3.7-2.3-5.3-3.9
		c-2.9-2.9-4.7-6.3-5.3-10.3c-0.1-0.7-0.2-1.4,0-2.2c0.4-1.2,1.6-2.2,2.7-2.1c1.5,0.2,2.6,1,2.7,2.6c0.4,4,2.3,6.9,5.4,9.3
		c2.5,2,5.3,3.1,8.4,3.8C85,242.6,88.9,242.7,92.7,242.2z M82.4,193.6c1.8-0.3,3.6,1.7,3.1,3.6c-0.4,1.8-1,3.6-1.4,5.5
		c-0.4,2-0.7,4-0.9,6c-0.2,1.8-0.3,3.7-0.6,5.5c-0.2,1.2-0.8,2.2-1.8,3c-0.5,0.4-1.1,0.7-1.8,0.7c-1.3,0-2.6-0.8-3.1-2.1
		c-0.5-1.3-0.6-2.7-0.5-4.1c0.1-1.3,0.1-2.5,0.3-3.8c0.4-3.5,1.1-7,2.6-10.2c0.5-1.1,1.2-2.2,2.1-3C81.1,194,81.7,193.7,82.4,193.6z
		"/>
	<path class="st0" d="M121.3,181.1c0.6,0.2,1.2,0.4,1.8,0.6c2.2,0.6,4.3,1.2,6.4,2.1c6.5,2.8,12.4,6.4,17.2,11.7
		c2.9,3.2,5.2,6.6,6.6,10.7c1.5,4.2,1.8,8.5,1.8,13c0,4.5-1.1,8.7-3,12.8c-2.3,4.9-5.4,9.1-9.4,12.7c-4.2,3.8-8.8,7-14,9.4
		c-5.5,2.6-11.2,4.6-17.2,5.8c-4.1,0.8-8.3,1.1-12.5,1.2c-2.4,0.1-4.9-0.2-7.3-0.3c-4.6-0.3-9-1.1-13.5-2.1c-4-0.9-7.8-2.2-11.6-3.8
		c-3.9-1.6-7.5-3.8-10.6-6.7c-2.6-2.4-4.6-5.3-5.5-8.7c-1.3-4.9-0.8-9.8,0.1-14.6c0.6-3.2,1.7-6.2,2.8-9.2c1.6-4.4,3.6-8.6,6-12.5
		c2.6-4.3,5.6-8.4,9.1-12.1c3.3-3.6,6.9-6.8,10.9-9.5c0.4-0.3,0.9-0.5,1.1-1c0,0,0,0,0,0c-1.5,1-3,2-4.4,3.1c-2,1.6-3.9,3.3-5.7,5.2
		c-1.3,1.4-2.6,2.7-3.8,4.1c-2.2,2.6-4.2,5.3-6,8.1c-1.2,1.9-2.3,3.8-3.4,5.7c-1.5,2.8-2.9,5.8-4,8.8c-1,2.9-2.1,5.8-2.7,8.8
		c-0.4,1.8-0.7,3.6-0.9,5.5c-0.2,2.6-0.3,5.3,0.2,7.9c0.5,2.3,1.2,4.6,2.4,6.6c2.2,3.5,5.3,6,8.7,8.1c1.5,1,3.2,1.8,4.8,2.5
		c2.8,1.2,5.6,2.2,8.5,3.1c2.3,0.7,4.6,1.2,6.9,1.6c1.6,0.3,3.3,0.6,4.9,0.9c1.9,0.3,3.9,0.5,5.9,0.6c2.3,0.2,4.7,0.4,7,0.3
		c1.3,0,2.7-0.1,4-0.2c0,0,0.1,0,0.1,0c1.7-0.1,3.5-0.3,5.2-0.5c1.8-0.2,3.5-0.6,5.2-0.9c2.2-0.5,4.3-1.2,6.5-1.9
		c2-0.7,3.9-1.4,5.8-2.2c1.7-0.7,3.3-1.5,4.9-2.3c2.1-1,4-2.2,5.9-3.5c2.4-1.6,4.6-3.5,6.8-5.4c2.4-2.2,4.5-4.7,6.2-7.4
		c1.5-2.3,2.7-4.7,3.7-7.2c0.8-2.1,1.5-4.4,1.8-6.6c0.4-2.5,0.4-4.9,0.2-7.4c-0.2-2.2-0.5-4.3-0.9-6.4c-0.8-3.9-2.5-7.4-4.8-10.5
		c-1.8-2.5-3.9-4.8-6.3-6.8c-2.3-2-4.9-3.7-7.5-5.3c-1.8-1.1-3.8-2-5.7-2.8c-1.2-0.5-2.3-1-3.5-1.3c-1.8-0.6-3.5-1.1-5.3-1.6
		c-0.1,0-0.2,0-0.3,0.1C121.1,181,121.2,181.1,121.3,181.1z"/>
	<path class="st0" d="M125.2,159.3c0-1.9-0.6-2.7-2.5-3c-2.8-0.5-5.3,0.4-7.7,1.6c-3.3,1.7-6.2,3.9-8.7,6.7c-0.4,0.5-0.8,1-1.1,1.5
		c-0.2,0.3-0.4,0.7-0.8,0.8c4.2,0.3,10,1,16.6,2.1c0.2-1,1-1.7,1.6-2.6C123.9,164.2,125.2,162,125.2,159.3z"/>
	<path class="st0" d="M105.2,166.2c0.4-0.5,0.7-1.1,1.1-1.5c2.5-2.8,5.4-5.1,8.7-6.7c2.4-1.2,4.9-2.1,7.7-1.6c1.9,0.3,2.5,1.1,2.5,3
		c0.1,2.7-1.2,5-2.6,7.2c-0.5,0.9-1.3,1.6-1.6,2.6c0,0,0,0,0,0c0.2-0.3,0.4-0.6,0.7-0.9c1.4-1.9,2.6-3.9,3.3-6.2
		c0.4-1.3,0.6-2.6,0.2-4c-0.3-0.9-0.8-1.6-1.8-1.8c-0.8-0.2-1.6-0.3-2.5-0.3c-2.1,0.2-4.1,0.8-6,1.7c-3,1.6-5.7,3.5-8,6
		c-1,1-1.9,2.2-2.6,3.4c0,0,0,0,0,0C104.8,166.9,105,166.5,105.2,166.2z"/>
	<path class="st0" d="M98,163.7c-0.1-1.2,0-2.4-0.4-3.6c-0.3-0.9-0.5-1-1.3-0.5c-1.4,0.8-2.4,2.1-3.3,3.3c-0.8,1.1-1.5,2.3-2,3.5
		c0,0.1-0.1,0.1-0.1,0.2c1.8-0.1,3.8-0.1,6,0c0,0,0.4,0,1.2,0C97.8,165.6,98,164.6,98,163.7z"/>
	<path class="st0" d="M91,166.4c0.6-1.2,1.2-2.4,2-3.5c0.9-1.3,1.9-2.5,3.3-3.3c0.8-0.5,1-0.4,1.3,0.5c0.4,1.2,0.3,2.4,0.4,3.6
		c0.1,1-0.2,2,0.1,3c0,0,0,0,0.1,0c0.1-1.8,0.1-3.5-0.1-5.3c-0.1-0.7-0.3-1.4-0.6-2.1c-0.1-0.3-0.2-0.4-0.6-0.3
		c-0.6,0.2-1.2,0.5-1.6,1c-2,1.8-3.5,4-4.6,6.5c0,0,0,0.1-0.1,0.1c0.1,0,0.1,0,0.2,0C90.9,166.5,91,166.4,91,166.4z"/>
	<path class="st1" d="M72.9,237.8c-3.1-2.4-5-5.4-5.4-9.3c-0.2-1.6-1.3-2.4-2.7-2.6c-1.1-0.1-2.3,0.9-2.7,2.1
		c-0.2,0.7-0.1,1.4,0,2.2c0.6,4.1,2.4,7.5,5.3,10.3c1.6,1.5,3.3,2.8,5.3,3.9c1.7,0.9,3.4,1.6,5.2,2.2c2.3,0.7,4.6,1.2,6.9,1.3
		c2.5,0.2,5,0.2,7.5-0.1c0.9-0.1,1.8-0.3,2.7-0.4c2.2-0.3,4.3-0.9,6.4-1.6c1.7-0.6,3.4-1.3,5.1-2.2c1.8-0.9,3.6-2,5.3-3.3
		c1.4-1.1,2.8-2.2,4-3.5c1.9-1.9,3.5-4.1,4.6-6.5c0.3-0.6,0.5-1.2,0.8-1.7c0.1-0.2,0.2-0.4,0.4-0.4c0.3,0,0.3,0.2,0.3,0.4
		c0.1,0.6,0.2,1.2,0.2,1.8c0,0.8-0.2,1.5-0.2,2.2c-0.2,1.3,1,2.9,2.5,3.1c1.1,0.2,2.7-1,2.9-2.2c0.4-2.1,0.5-4.2-0.1-6.4
		c-0.5-2-1.4-3.8-2.9-5.3c-1.5-1.6-3.4-2.5-5.6-2.9c-2.8-0.5-5.3,0.1-7.7,1.5c-0.6,0.3-0.9,0.8-1,1.4c-0.3,1.1,0,2.1,0.8,2.9
		c0.9,0.8,1.8,0.9,2.9,0.5c0.6-0.3,1.3-0.5,2-0.7c0.5-0.1,0.9,0.2,0.6,0.7c-0.3,0.5-0.4,1.1-0.6,1.6c-1.2,2.7-2.9,5-5.1,7
		c-2.5,2.3-5.4,4.1-8.4,5.5c-3,1.4-6.2,2.2-9.5,2.7c-3.8,0.5-7.7,0.4-11.5-0.5C78.2,240.9,75.4,239.8,72.9,237.8z"/>
	<path class="st1" d="M75.8,207.8c-0.1,1.3-0.2,2.5-0.3,3.8c-0.1,1.4,0,2.8,0.5,4.1c0.5,1.2,1.7,2.1,3.1,2.1c0.7,0,1.3-0.2,1.8-0.7
		c0.9-0.8,1.6-1.8,1.8-3c0.3-1.8,0.4-3.7,0.6-5.5c0.2-2,0.5-4,0.9-6c0.3-1.8,1-3.6,1.4-5.5c0.4-1.9-1.3-3.9-3.1-3.6
		c-0.7,0.1-1.3,0.5-1.8,1c-0.9,0.9-1.6,1.9-2.1,3C76.9,200.8,76.2,204.3,75.8,207.8z"/>
	<path class="st1" d="M99.5,217.1c0.9-0.7,1.4-1.7,1.6-2.8c0.3-1.4,0.4-2.8,0.5-4.3c0.2-2.7,0.7-5.3,1.1-7.9
		c0.3-1.6,0.6-3.1,0.5-4.7c-0.1-1.4-0.8-2.5-2-3.1c-1.3-0.7-2.8-0.1-3.8,1.1c-0.6,0.8-0.9,1.6-1.2,2.5c-0.5,1.8-0.9,3.6-1.2,5.5
		c-0.5,2.8-0.9,5.7-0.9,8.5c0,1.2,0,2.3,0.3,3.4C95.1,217.7,97.6,218.5,99.5,217.1z"/>
	<path class="st2" d="M88.3,159c0.4-0.4,0.7-0.8,1-1.2c-1,1.1-2,2.5-2.9,4.2c0.2-0.4,0.5-0.8,0.7-1.2C87.6,160.1,88,159.6,88.3,159z
		"/>
	<path class="st1" d="M90.7,166.6c0,0,0-0.1,0.1-0.1c1.1-2.5,2.6-4.7,4.6-6.5c0.5-0.4,1-0.7,1.6-1c0.3-0.1,0.4-0.1,0.6,0.3
		c0.3,0.7,0.5,1.4,0.6,2.1c0.1,1.8,0.2,3.5,0.1,5.3c1.2,0,3.4,0.2,6.3,0.4c0.7-1.3,1.6-2.4,2.6-3.4c2.3-2.5,5-4.4,8-6
		c1.9-1,3.9-1.6,6-1.7c0.8-0.1,1.7,0.1,2.5,0.3c0.9,0.3,1.5,0.9,1.8,1.8c0.4,1.4,0.2,2.7-0.2,4c-0.7,2.3-1.9,4.3-3.3,6.2
		c-0.2,0.3-0.4,0.6-0.7,0.9c1,0.2,2,0.3,3,0.5c0,0,1.2,0.2,1.9,0.4c0,0,0.5,0.3,1.1-0.6c0,0,0.5-0.9,2.1-2c0.1-0.1,0.1-0.2,0.2-0.3
		c0,0,0,0,0,0c0.1-0.1,0.1-0.3,0.2-0.4c0-0.1,0.1-0.2,0.1-0.2c0.4-1,0.8-2,1.2-3.1c0.1-0.4,0.2-0.8,0.2-1.2c0.3-1.8,0.4-3.5,0-5.3
		c-0.2-0.8-0.5-1.5-0.8-2.2c-0.2-0.2-0.3-0.4-0.4-0.6c-0.6-0.9-1.4-1.6-2.1-2.3c-0.2,0-0.3-0.1-0.4-0.2c-0.7-0.2-1.2-0.6-1.8-0.8
		c-1.6-0.5-3.2-0.7-4.8-0.6c-1.4,0.1-2.7,0.4-4,0.6c-1,0.5-2.1,0.7-3.1,1.2c-1.2,0.6-2.4,1.3-3.6,1.9c-0.1,0.2-0.2,0.2-0.4,0.2
		c-0.1,0.2-0.4,0.3-0.6,0.4c-0.1,0.2-0.4,0.3-0.6,0.4c-0.5,0.4-1.1,0.9-1.6,1.3c-1,0.7-1.9,1.6-2.8,2.4c-0.2,0.3-0.4,0.4-0.5,0
		c-0.2-0.7-0.5-1.4-0.7-2.1c-0.6-0.8-1.2-1.6-1.9-2.3c-0.2-0.1-0.5-0.2-0.6-0.4c-0.3-0.1-0.5-0.2-0.8-0.4c-1.3-0.4-2.7-0.3-4,0
		c0,0,0,0,0,0c0,0-2.8,1.1-5.5,3.9c-0.1,0.1-0.1,0.2-0.2,0.2c-0.1,0.1-0.2,0.2-0.3,0.3c-0.3,0.5-0.6,0.9-1,1.2
		c-0.3,0.6-0.8,1.1-1.2,1.7c-0.2,0.4-0.5,0.8-0.7,1.2c0,0.1-0.1,0.1-0.1,0.2c-0.3,0.6-0.5,1.3-0.8,1.9c-0.4,1-0.6,2.1-0.9,3.3
		c1.3-0.3,2.8-0.5,4.5-0.7C89.7,166.6,90.2,166.6,90.7,166.6z"/>
	<g>
		<polygon class="st2" points="137.7,164.9 137.7,164.9 137.7,164.9 		"/>
		<path class="st2" d="M86.4,162.1c0,0,0,0.1,0,0.1C86.4,162.1,86.4,162,86.4,162.1C86.4,162,86.4,162,86.4,162.1z"/>
		<path class="st2" d="M139.4,170.7c-1.2-0.2-0.6-0.9-0.6-0.9c1.2-1.8,0.7-2.9,0.7-2.9c-0.9-2.6-4-2.1-4-2.1
			c-3.1,0.7-5.2,1.7-6.5,2.6c-1.6,1.1-2.1,2-2.1,2c-0.6,0.9-1.1,0.6-1.1,0.6c-0.6-0.2-1.9-0.4-1.9-0.4c-1-0.2-2-0.4-3-0.5
			c0,0,0,0,0,0c-6.6-1.1-12.4-1.7-16.6-2.1c0,0,0,0,0,0c-2.9-0.2-5-0.3-6.3-0.4c0,0,0,0-0.1,0c-0.8,0-1.2,0-1.2,0
			c-2.2-0.1-4.2-0.1-6,0c-0.1,0-0.1,0-0.2,0c-0.5,0-1,0.1-1.5,0.1c-1.7,0.2-3.2,0.4-4.5,0.7c0,0,0,0,0,0c-7.5,1.8-8.3,5.6-8.3,5.6
			c-0.5,1.3-0.5,2.4-0.2,3.3c0.7,2.1,2.9,3.5,4.4,4.1c0,0,0,0,0,0.1c0,0,0,0,0,0c0,0,0.1,0,0.1,0c0.8,0.3,1.3,0.5,1.3,0.5
			c4.2,1.7,18.6,2,18.6,2c9.6-0.4,16.1-1.3,20.3-2.1c0.1,0,0.2,0,0.3-0.1c4.2-0.8,5.9-1.5,5.9-1.5c2.3-1,4-0.6,4-0.6
			c0.6,0.2,2.6,0.5,2.6,0.5c0.1,0,0.1,0,0.2,0c0.1,0,0.2,0,0.3,0c0,0,0,0,0,0c0,0,0.1,0,0.1,0c0,0,0,0,0,0c0,0,0,0,0,0
			c7.6-0.2,8.4-4,8.4-4C144,171.5,139.4,170.7,139.4,170.7z M142.1,172C142.1,172,142.1,172,142.1,172L142.1,172
			C142.1,172,142.1,172,142.1,172z M142.9,173.6L142.9,173.6C142.9,173.6,142.9,173.6,142.9,173.6
			C142.9,173.6,142.9,173.6,142.9,173.6z"/>
		<path class="st2" d="M85.6,164.1c0.2-0.6,0.5-1.3,0.8-1.9C86.1,162.8,85.8,163.4,85.6,164.1z"/>
		<polygon class="st2" points="95.4,153.3 95.4,153.3 95.4,153.3 		"/>
		<path class="st2" d="M89.9,157.2c-0.1,0.1-0.1,0.1-0.2,0.2C89.7,157.4,89.8,157.3,89.9,157.2z"/>
	</g>
	<g>
		<polygon class="st1" points="140,178.2 140,178.2 140,178.2 		"/>
		<polygon class="st1" points="142.7,175.7 142.7,175.7 142.7,175.7 		"/>
		<path class="st1" d="M179.5,213.7c-0.2-1.2-0.6-2.3-0.9-3.4c-0.2-0.3-0.4-0.6-0.4-1c-0.6-1-1.3-1.9-1.9-2.9
			c-0.6-0.6-1.3-1.3-1.9-1.9c-0.3-0.1-0.6-0.3-0.8-0.6c-0.1,0-0.2-0.1-0.2-0.2c-0.2,0-0.3,0-0.4-0.2c-0.3,0-0.4-0.2-0.6-0.4
			c-0.6-0.4-1.3-0.5-1.9-1c-0.3-0.1-0.7-0.1-1-0.4c-0.4-0.1-0.9-0.2-1.3-0.4c-0.3,0-0.5,0-0.8-0.1c-1.7-0.3-3.4-0.1-5.1,0.3
			c-1.3,0.3-2.5,0.9-3.7,1.6c-0.6-1.5-1.2-2.9-2-4.3c-0.2-0.4-0.5-0.9-0.7-1.3c0,0,0,0,0-0.1c0,0,0-0.1-0.1-0.1c0,0,0-0.1-0.1-0.1
			c0,0,0,0,0,0c0,0,0-0.1-0.1-0.1c0,0,0-0.1-0.1-0.1c0,0,0,0,0-0.1c0,0,0,0,0,0l0,0c0,0,0-0.1-0.1-0.1c0-0.1-0.1-0.1-0.1-0.2
			c0,0,0,0,0,0c0,0,0-0.1-0.1-0.1c0,0,0-0.1-0.1-0.1c0-0.1-0.1-0.1-0.1-0.2c0,0,0,0,0,0c0,0,0-0.1,0-0.1l0,0
			c-0.1-0.1-0.2-0.3-0.3-0.4c0,0,0,0,0-0.1c0,0-0.5-0.8-0.7-1c0,0,0,0,0,0c-0.3-0.4-0.5-0.7-0.8-1.1c0,0,0,0,0,0
			c-0.2-0.3-0.5-0.6-0.7-0.9c0,0,0,0-0.1-0.1c-0.4-0.4-0.7-0.8-1.1-1.2c0,0-0.1-0.1-0.1-0.1c0,0-0.1-0.1-0.1-0.1
			c-0.1-0.1-0.1-0.1-0.2-0.2c-0.9-1-1.9-1.9-2.8-2.8c-0.4-0.4-0.9-0.8-1.3-1.1c-0.4-0.3-0.8-0.7-1.2-1c-0.1,0-0.1-0.1-0.2-0.1
			c0,0-0.1,0-0.1-0.1c-0.1-0.1-0.1-0.1-0.2-0.2c-0.2-0.2-0.4-0.3-0.6-0.5c-0.1-0.1-0.2-0.2-0.3-0.3c-0.1-0.1-0.2-0.2-0.4-0.3
			c-0.1-0.1-0.2-0.1-0.3-0.2c-0.1-0.1-0.3-0.2-0.4-0.3c-0.2-0.1-0.4-0.3-0.5-0.4c-0.3-0.2-0.7-0.5-1-0.7c-0.2-0.2-0.5-0.3-0.7-0.5
			c-0.6-0.4-1.2-0.7-1.7-1.1c-0.2-0.1-0.3-0.2-0.5-0.3c-0.1,0-0.1-0.1-0.2-0.1c-0.1,0-0.2-0.1-0.2-0.1c-0.3-0.2-0.6-0.4-0.9-0.5
			c-0.1-0.1-0.2-0.1-0.4-0.2c-0.2-0.1-0.4-0.2-0.6-0.3c-1-0.5-1.7-0.9-2.3-1.1c-0.1,0-0.3,0-0.4,0c-0.1,0-0.1,0-0.2,0
			c0,0-2-0.3-2.6-0.5c0,0-1.7-0.4-4,0.6c0,0-1.7,0.7-5.9,1.5c1.8,0.5,3.6,1,5.3,1.6c1.2,0.4,2.4,0.9,3.5,1.3c2,0.8,3.9,1.8,5.7,2.8
			c2.6,1.6,5.2,3.2,7.5,5.3c2.4,2,4.4,4.3,6.3,6.8c2.3,3.2,4,6.7,4.8,10.5c0.4,2.1,0.7,4.3,0.9,6.4c0.2,2.5,0.1,5-0.2,7.4
			c-0.3,2.3-0.9,4.5-1.8,6.6c-1,2.5-2.2,5-3.7,7.2c-1.8,2.7-3.8,5.2-6.2,7.4c-2.1,2-4.4,3.8-6.8,5.4c-1.9,1.3-3.8,2.5-5.9,3.5
			c-1.6,0.8-3.3,1.6-4.9,2.3c-1.9,0.8-3.8,1.6-5.8,2.2c-2.1,0.7-4.3,1.4-6.5,1.9c-1.7,0.4-3.4,0.8-5.2,0.9c-1.7,0.2-3.5,0.4-5.2,0.5
			c0,0-0.1,0-0.1,0c-1.3,0.1-2.7,0.1-4,0.2c-2.3,0.1-4.7-0.2-7-0.3c-2-0.1-3.9-0.3-5.9-0.6c-1.6-0.3-3.3-0.6-4.9-0.9
			c-2.3-0.4-4.6-1-6.9-1.6c-2.9-0.9-5.7-1.9-8.5-3.1c-1.7-0.7-3.3-1.5-4.8-2.5c-3.4-2.1-6.5-4.6-8.7-8.1c-1.3-2-2-4.3-2.4-6.6
			c-0.5-2.6-0.4-5.3-0.2-7.9c0.2-1.8,0.5-3.6,0.9-5.5c0.6-3,1.6-5.9,2.7-8.8c1.1-3,2.5-5.9,4-8.8c1-2,2.2-3.9,3.4-5.7
			c1.8-2.8,3.8-5.5,6-8.1c1.2-1.4,2.6-2.8,3.8-4.1c1.8-1.9,3.7-3.6,5.7-5.2c1.4-1.1,2.9-2.1,4.4-3.1c0,0,0,0,0,0c0,0,0,0,0,0
			c0,0,0,0,0-0.1c-1.5-0.7-3.7-2-4.4-4.1c0,0,0,0,0,0c-1.3,1.1-2.6,2.1-4,3.1c-0.1,0.1-0.1,0.2-0.2,0.2c-3.5,2.9-6.7,6-9.6,9.4
			c-3.3,3.8-6.2,7.8-8.6,12.2c-1.4,2.4-2.8,4.9-3.8,7.5c-0.5,1.4-1.2,2.7-1.7,4.1c-0.2,0.6-0.6,0.8-1.2,0.8c-0.8,0-1.6-0.1-2.4-0.1
			c-2.2-0.2-4.3-0.8-6.3-1.7c-2.7-1.2-3.7-3.6-3.6-6.2c0.1-2.3,0.9-4.4,2-6.5c0.9-1.8,2.1-3.4,3.6-4.8c0.3-0.3,0.6-0.4,0.9-0.1
			c0.9,0.7,2,0.7,3,0.6c0.8-0.1,1.5-0.4,2.2-0.7c1.9-1,2.9-2.5,2.9-4.6c0-1.7-1.2-3.1-3.1-3.5c-1.1-0.2-2.2,0.1-3.3,0.4
			c-1.9,0.5-3.7,1.3-5.3,2.4c-2.9,2.1-5,5-6.6,8.2c-1.1,2.1-1.8,4.2-2.2,6.5c-0.1,1.5-0.1,3.1,0,4.6c0.1,0.6,0.3,1.3,0.4,1.9
			c0.2,0.5,0.5,1,0.6,1.5c0.1,0,0.2,0.1,0.2,0.2c0.1,0.3,0.3,0.5,0.4,0.8c0.2,0.2,0.3,0.4,0.4,0.6c0.2,0.1,0.3,0.3,0.4,0.6
			c0.3,0.4,0.8,0.7,1,1.1c0.4,0.3,0.8,0.6,1.1,1c0.1,0,0.2,0.1,0.2,0.2c0.2,0.1,0.4,0.2,0.6,0.4c0.2,0.1,0.4,0.2,0.6,0.4
			c0.2,0,0.3,0.1,0.4,0.2c0.3,0.1,0.5,0.2,0.8,0.4c0.2,0,0.3,0.1,0.4,0.2c0.2,0,0.3,0.1,0.4,0.2c0.3,0.1,0.7,0.1,1,0.4
			c2.7,0.9,5.5,1.3,8.4,1.2c-0.4,1.8-0.8,3.4-1.3,5c0,0.2,0,0.4-0.1,0.6c-0.7,4-1,8-0.6,12c0.2,1.5,0.4,2.9,0.8,4.3
			c0.3,1.2,0.8,2.4,1.2,3.6c0.1,0.1,0.2,0.2,0.2,0.4c0.2,0.3,0.3,0.6,0.4,0.9c0.1,0,0.2,0.1,0.2,0.2c0.3,0.4,0.6,0.9,0.8,1.3
			c0.3,0.3,0.5,0.6,0.6,0.9c0.1,0,0.2,0.1,0.2,0.2c0.6,0.6,1.1,1.2,1.5,1.9c1,1,2.1,2,3.1,3.1c0.2,0.1,0.4,0.2,0.5,0.4
			c0.1,0.1,0.3,0.2,0.4,0.4c0.4,0.2,0.7,0.4,1,0.8c0.4,0.2,0.8,0.4,1.1,0.8c0.6,0.4,1.2,0.7,1.7,1.1c0.5,0.3,1,0.6,1.6,0.9
			c0.6,0.3,1.3,0.7,1.9,1c1.2,0.6,2.4,1.1,3.7,1.7c0.2,0,0.4,0.1,0.6,0.2c0,0,0,0,0,0c0.1,0.1,0.1,0.3,0,0.4c-1,0.5-1.9,1.1-2.9,1.6
			c-0.4,0.4-0.8,0.7-1.3,1c-1,1-1.9,1.9-2.9,2.9c-0.1,0.3-0.3,0.6-0.6,0.8c-0.1,0.3-0.3,0.6-0.6,0.8c-0.1,0.4-0.4,0.7-0.7,1
			c-0.4,0.5-0.4,0.5-0.9,0c-0.1-0.1-0.2-0.2-0.2-0.3c-0.7-0.5-1.5-0.9-2.1-1.6c-0.2,0-0.5-0.1-0.6-0.4c-0.4-0.2-0.8-0.4-1.1-0.8
			c-0.8-0.4-1.5-0.8-2.1-1.3c-0.8-0.3-1.5-0.9-2.3-1.2c-1.4-0.5-2.9,0.2-3.5,1.5c-0.5,1.1-0.4,2.1,0.1,3.1c0.4,0.4,0.9,0.8,1.3,1.1
			c0.2,0.1,0.4,0.2,0.6,0.4c0.3,0.1,0.5,0.2,0.8,0.4c0.7,0.4,1.5,0.8,2.1,1.3c0.5,0.3,1,0.5,1.4,0.9c0.2,0,0.3,0.1,0.4,0.2
			c0.8,0.5,1.5,1.1,2.1,1.7c0.5,0.4,1,0.9,1.4,1.5c0.1,0,0.2,0.1,0.2,0.2c0.4,0.3,0.8,0.6,1.3,0.8c1.2,0.4,2.4,0.5,3.5-0.4
			c0.4-0.3,0.7-0.8,0.9-1.2c0.2-0.3,0.3-0.6,0.6-0.8c0.2-0.4,0.4-0.8,0.8-1.1c0.3-0.7,0.8-1.4,1.3-1.9c0.5-0.9,1.2-1.6,2-2.3
			c0.5-0.7,1.2-1.2,1.9-1.5c0.1-0.2,0.2-0.2,0.4-0.2c0.2-0.3,0.6-0.4,1-0.6c0.1-0.1,0.2-0.2,0.4-0.2c0.1-0.2,0.2-0.2,0.4-0.2
			c0.5-0.3,1-0.5,1.5-0.6c0.8-0.5,1.7-0.6,2.6-0.9c2.1-0.6,4.2-0.8,6.3-0.3c3.4,0.8,6.8,1.3,10.3,1.7c2,0.2,4,0.3,5.9,0.4
			c3.1,0.2,6.3,0.1,9.4-0.1c1.9-0.1,3.9-0.4,5.8-0.6c0.6-0.3,1.3-0.3,1.9-0.4c1.3-0.3,2.6-0.6,3.9-0.9c0.9-0.2,1.7-0.6,2.7-0.7
			c0.6-0.3,1.3-0.5,1.9-0.6c0.6-0.5,1.4-0.5,2.1-0.8c0.2-0.2,0.5-0.2,0.8-0.2c1-0.6,1.1-0.6,1.6,0.2c0.4,0.4,0.7,0.9,1,1.3
			c0.6,0.6,1.1,1.2,1.5,1.9c0.2,0.1,0.3,0.2,0.4,0.4c0.1,0,0.2,0.1,0.2,0.2c0.2,0.1,0.3,0.2,0.4,0.4c0.6,0.5,1.2,1,1.7,1.5
			c1.1,0.6,2.2,1.3,3.3,1.9c0.2,0.1,0.5,0.1,0.7,0.2c2.8,1.1,5.6,1.7,8.6,1.2c0.5-0.1,1.1-0.2,1.6-0.3c0.7-0.4,1.5-0.5,2.3-0.8
			c0.2-0.2,0.5-0.3,0.8-0.4c0.4-0.3,0.8-0.5,1.3-0.6c0.2-0.3,0.5-0.3,0.8-0.4c0.1-0.1,0.2-0.2,0.4-0.2c0.1-0.2,0.2-0.2,0.4-0.2
			c0.1-0.2,0.2-0.2,0.4-0.2c0.1-0.2,0.3-0.3,0.5-0.4c0.7-0.4,0.7-0.4,0.9,0.3c0.5,1.9,0.9,3.8,1.2,5.7c0.6,1.5,1.8,2.2,3.4,2.1
			c0.3-0.2,0.6-0.3,1-0.4c0.3-0.3,0.6-0.6,0.9-0.8c0.4-0.8,0.6-1.6,0.5-2.6c-0.6-3.4-1.5-6.7-2.3-10.1c-0.1-0.6-0.3-1.2-0.7-1.7
			c-0.8-1-1.9-1.3-3.2-1.2c-0.1,0.2-0.4,0.2-0.6,0.2c-0.2,0.2-0.3,0.3-0.6,0.4c0,0.1-0.1,0.2-0.2,0.2c-0.2,0.3-0.4,0.5-0.7,0.6
			c0,0.1-0.1,0.2-0.2,0.2c-0.3,0.3-0.6,0.6-1,0.8c-0.6,0.6-1.3,1.1-2.1,1.4c-0.1,0.1-0.2,0.2-0.4,0.3c-1.2,0.6-2.5,1.3-3.8,1.7
			c-2.3,0.7-4.5,0.6-6.7-0.5c-0.7-0.1-1.3-0.6-1.9-0.9c-0.4-0.2-0.9-0.4-1.1-0.8c-1.3-0.8-2.4-1.8-3.3-3.1c-0.3-0.1-0.4-0.3-0.1-0.5
			c0.2-0.1,0.4-0.2,0.7-0.3c0.2-0.2,0.3-0.3,0.6-0.4c0.2-0.2,0.5-0.3,0.8-0.4c0.4-0.2,0.7-0.5,1.2-0.6c0.6-0.5,1.4-0.8,2.1-1.2
			c0.1-0.1,0.2-0.2,0.4-0.2c0-0.1,0.1-0.2,0.2-0.2c0.1-0.2,0.2-0.2,0.4-0.2c0.2-0.3,0.6-0.5,1-0.6c0.1-0.2,0.3-0.3,0.6-0.4
			c0.1-0.2,0.2-0.2,0.4-0.2c0-0.1,0.1-0.2,0.2-0.2c0.1-0.2,0.2-0.2,0.4-0.2c0.1-0.2,0.3-0.3,0.6-0.4c0.1-0.2,0.3-0.3,0.6-0.4
			c0-0.1,0.1-0.2,0.2-0.2c0.5-0.4,1-0.8,1.6-1.1c0.1-0.2,0.2-0.2,0.4-0.2c0-0.1,0.1-0.2,0.2-0.2c0.1-0.2,0.3-0.4,0.6-0.4
			c0-0.1,0.1-0.2,0.2-0.2c0.3-0.3,0.5-0.7,1-0.8c0-0.1,0.1-0.2,0.2-0.2c0.2-0.2,0.4-0.5,0.8-0.6c0-0.1,0.1-0.2,0.2-0.2
			c0.5-0.5,1.1-1.1,1.7-1.5c1-1,1.9-1.9,2.9-2.9c0.1-0.2,0.2-0.3,0.4-0.4c0-0.1,0.1-0.2,0.2-0.2c0-0.2,0.2-0.3,0.4-0.4
			c0.7-1,1.4-2,2.3-2.9c0.6-1.1,1.4-2.2,2.1-3.3c0.5-1.1,1.1-2.1,1.7-3.1c0.4-1.1,0.9-2,1.4-3.1c0.1-0.3,0.2-0.5,0.3-0.8
			c0.8-1.8,1.3-3.8,1.8-5.7c0.3-1.3,0.5-2.6,0.6-3.9c0.3-2.9,0.2-5.7,0-8.6c-0.1-1.3-0.4-2.6-0.5-3.9c-0.1-0.7,0.2-1.2,0.7-1.5
			c0.3-0.2,0.5-0.3,0.9-0.4c0.1-0.2,0.4-0.2,0.6-0.2c0.1-0.1,0.2-0.2,0.3-0.2c2.7-0.7,5.1-0.3,7.2,1.5c0.3,0.1,0.5,0.4,0.7,0.6
			c0.4,0.3,0.8,0.6,1,1.1c0.2,0.1,0.3,0.3,0.4,0.6c0.2,0.1,0.3,0.3,0.4,0.5c0.6,1.4,1,2.9,1.1,4.5c0.1,1.8-0.1,3.5-0.5,5.2
			c-0.1,0.4-0.1,0.8-0.4,1.2c0,0,0,0.1,0,0.1c-0.4,1.8-1.3,3.4-2,5.1c-0.2,0.4-0.5,0.4-0.9,0.2c-0.9-0.4-1.8-0.4-2.7-0.2
			c-0.9,0.2-1.5,0.8-2.3,1.2c-0.1,0.4-0.5,0.6-0.7,0.9c-1.3,2.3-1.5,4.8-0.5,7.3c0.4,0.3,0.7,0.6,1,1c0.1,0,0.2,0.1,0.2,0.2
			c0.8,0.4,1.6,0.6,2.5,0.5c0.6-0.1,1.1-0.3,1.7-0.5c0.6-0.4,1.2-0.8,1.7-1.1c0.1-0.2,0.2-0.2,0.3-0.2c0.5-0.4,0.9-0.9,1.4-1.3
			c0.1-0.2,0.2-0.3,0.4-0.4c0.6-0.8,1.3-1.7,1.9-2.5c0.1-0.3,0.3-0.7,0.6-1c0.4-0.9,0.8-1.7,1.3-2.5c0.2-0.5,0.3-1.1,0.8-1.5
			c0-0.2,0.1-0.4,0.1-0.6c0.6-1.4,1.1-2.9,1.4-4.4C179.9,219.8,180,216.8,179.5,213.7z"/>
		<polygon class="st1" points="142.9,173.6 142.9,173.6 142.9,173.6 		"/>
		<polygon class="st1" points="142.1,172 142.1,172 142.1,172 		"/>
	</g>
</g>
<g>
	<path class="st1" d="M299.5,60.6c2.6,0,4.7,0.3,6.2,0.9c1.6,0.6,2.7,1.4,3.6,2.3c0.8,0.9,1.4,2,1.6,3.2c0.3,1.2,0.4,2.4,0.4,3.5
		c0,1.5-0.1,2.8-0.4,4c-0.3,1.2-0.8,2.3-1.6,3.2c-0.8,0.9-2,1.7-3.6,2.2c-1.6,0.5-3.6,0.8-6.2,0.8h-44.1v3.9c0,2.6-0.4,4.7-1.1,6.3
		c-0.7,1.6-1.7,2.8-2.8,3.7c-1.1,0.9-2.5,1.5-4,1.8c-1.5,0.3-3.1,0.5-4.7,0.5c-1.7,0-3.2-0.2-4.7-0.5c-1.5-0.3-2.8-0.9-4-1.8
		c-1.2-0.9-2.1-2.1-2.8-3.7c-0.7-1.6-1-3.7-1-6.3v-3.9h-43.6c-2.6,0-4.7-0.3-6.2-0.8c-1.6-0.5-2.7-1.2-3.6-2.2
		c-0.8-0.9-1.4-2-1.6-3.2c-0.3-1.2-0.4-2.5-0.4-4c0-1.1,0.1-2.3,0.4-3.5c0.3-1.2,0.8-2.3,1.6-3.2c0.8-0.9,2-1.7,3.6-2.3
		c1.6-0.6,3.6-0.9,6.2-0.9H299.5z M187.2,16.1c0-1.6,0.2-2.9,0.5-4c0.4-1.1,1.1-2.1,2.1-2.9c1-0.8,2.5-1.3,4.3-1.7
		c1.9-0.4,4.2-0.5,7.1-0.5h83.2c2.9,0,5.3,0.2,7.1,0.5c1.9,0.4,3.3,0.9,4.3,1.7c1,0.8,1.7,1.7,2.1,2.9c0.4,1.1,0.5,2.5,0.5,4
		c0,1.2-0.2,2.4-0.5,3.5c-0.4,1.1-1.1,2-2.1,2.8c-1,0.8-2.5,1.4-4.3,1.9c-1.9,0.5-4.2,0.7-7.1,0.7h-23.9c1.6,1.9,3.5,3.4,5.8,4.6
		c2.3,1.2,4.9,2.2,7.7,3c2.8,0.8,5.8,1.5,8.9,2c3.2,0.5,6.4,0.9,9.7,1.2c4,0.5,7,1.7,9,3.4c2,1.8,2.7,4.6,2.2,8.5
		c-0.3,2.1-0.9,3.6-1.8,4.7c-0.9,1.1-1.9,1.9-3.2,2.4c-1.2,0.5-2.6,0.8-4.2,0.9c-1.6,0.1-3.1,0-4.7-0.1c-8.6-0.7-17-2.5-25.2-5.4
		c-8.2-2.9-15.2-6.5-21-10.9c-5.8,4.3-12.8,8-20.9,10.9c-8.2,2.9-16.6,4.7-25.1,5.4c-1.6,0.1-3.1,0.1-4.7,0.1
		c-1.6-0.1-2.9-0.3-4.2-0.9c-1.2-0.5-2.3-1.3-3.2-2.4c-0.9-1.1-1.5-2.7-1.8-4.7c-0.5-3.9,0.2-6.8,2.2-8.5c2-1.8,5-2.9,9-3.4
		c3.2-0.3,6.4-0.7,9.5-1.2c3.2-0.5,6.2-1.2,9-2c2.8-0.8,5.4-1.8,7.8-3c2.3-1.2,4.3-2.7,5.8-4.6h-25.9c-2.9,0-5.3-0.2-7.1-0.7
		c-1.9-0.5-3.3-1.1-4.3-1.9c-1-0.8-1.7-1.7-2.1-2.8C187.4,18.5,187.2,17.3,187.2,16.1z M197.7,86.4c3.2,0,6.1,0.9,8.6,2.8
		c2.5,1.9,3.9,5.3,4,10.2h68.1c0.1-5,1.4-8.4,3.9-10.2c2.5-1.9,5.4-2.8,8.7-2.8c1.7,0,3.2,0.2,4.6,0.6c1.4,0.4,2.6,1.1,3.7,2.2
		c1.1,1,1.9,2.4,2.6,4.2c0.6,1.8,0.9,3.9,0.9,6.5v29.6c0,1.6-0.1,3-0.3,4.3c-0.2,1.3-0.8,2.4-1.6,3.4c-0.9,1-2.1,1.8-3.8,2.3
		c-1.7,0.6-3.9,0.9-6.8,0.9h-91.7c-2.9,0-5.2-0.3-6.8-0.9c-1.7-0.6-2.9-1.3-3.8-2.3c-0.9-1-1.4-2.1-1.6-3.4
		c-0.2-1.3-0.3-2.7-0.3-4.3V99.9c0-5.2,1.1-8.7,3.4-10.6C191.6,87.3,194.4,86.4,197.7,86.4z M278.4,122.4v-6.1h-68.1v6.1H278.4z"/>
	<path class="st1" d="M372.2,7.2c2.8,0,5,0.3,6.5,0.9c1.6,0.6,2.7,1.3,3.6,2.3c0.8,1,1.3,2.2,1.6,3.6c0.2,1.4,0.3,3.1,0.3,5v15.2
		c0,3.1-0.4,6.5-1.1,10.2c-0.7,3.7-1.9,7.3-3.5,11c-1.6,3.7-3.7,7.2-6.4,10.5c-2.6,3.3-5.9,6.2-9.7,8.5c-3,1.9-5.8,2.5-8.4,1.8
		c-2.6-0.7-4.8-1.7-6.7-3.2c-1.1-0.8-2.1-1.9-2.8-3.2c-0.7-1.3-1.2-2.7-1.3-4.1c-0.2-1.4,0-2.9,0.4-4.4c0.4-1.5,1.2-2.8,2.5-4
		c3.3-3.2,6.1-6.5,8.3-9.9c2.2-3.4,3.3-7.4,3.3-12.1v-6.7h-28.4c-2.9,0-5.3-0.3-7.1-0.9c-1.9-0.6-3.3-1.3-4.3-2.3
		c-1-1-1.7-2.1-2.1-3.4c-0.4-1.3-0.5-2.7-0.5-4.3c0-1.2,0.2-2.5,0.5-3.8c0.4-1.3,1.1-2.4,2.1-3.4c1-1,2.5-1.8,4.3-2.4
		c1.9-0.6,4.2-0.9,7.1-0.9H372.2z M352,140.4c-4.9-0.1-9-1-12.4-2.7c-3.4-1.7-6.2-3.9-8.2-6.5c-2.1-2.6-3.6-5.7-4.5-9.1
		s-1.4-6.9-1.4-10.6c0-3.6,0.4-7.2,1.2-10.6c0.8-3.5,2.3-6.5,4.3-9.2c2-2.6,4.8-4.8,8.2-6.4c3.5-1.7,7.8-2.5,13.1-2.6h66.4
		c5.3,0,9.6,0.8,13.1,2.5c3.5,1.7,6.2,3.8,8.2,6.5c2,2.7,3.4,5.8,4.3,9.2c0.8,3.5,1.2,7,1.2,10.6c0,3.6-0.5,7.1-1.4,10.6
		c-0.9,3.4-2.5,6.4-4.6,9.1c-2.1,2.6-4.9,4.8-8.2,6.5c-3.4,1.7-7.5,2.6-12.3,2.7H352z M412.1,119.3c3-0.2,5.2-0.9,6.5-1.9
		c1.3-1.1,2-3,2-5.8c0-2.9-0.7-4.9-2-6c-1.3-1.1-3.5-1.7-6.5-1.9H359c-3,0.2-5.2,0.9-6.5,1.9c-1.3,1.1-2,3.1-2,6
		c0,2.8,0.7,4.7,2,5.8c1.3,1.1,3.5,1.7,6.5,1.9H412.1z M418.5,18.9c0-5.2,1.3-8.7,3.8-10.6c2.5-1.9,5.5-2.9,8.8-2.9
		c1.7,0,3.2,0.2,4.7,0.6c1.5,0.4,2.8,1.1,4,2.2c1.1,1,2.1,2.4,2.8,4.2c0.7,1.8,1.1,3.9,1.1,6.5v45.5c0,2.7-0.4,4.9-1.1,6.7
		c-0.7,1.8-1.7,3.2-2.8,4.2c-1.1,1-2.5,1.8-4,2.2c-1.5,0.4-3.1,0.6-4.7,0.6c-1.7,0-3.2-0.2-4.7-0.6c-1.5-0.4-2.8-1.1-4-2.2
		c-1.2-1-2.1-2.4-2.8-4.2c-0.7-1.8-1-4-1-6.7V18.9z"/>
</g>
<g>
	<path class="st1" d="M72.7,11.6c1.1-0.9,2-1.8,3-2.7c2.2-1.9,4.5-3.4,7-4.9c3.1-1.8,6.3-2.9,9.8-3.4c1.4-0.2,2.8-0.1,4.2,0
		c1.4,0.1,2.6,0.5,3.8,1c2.3,0.9,3.9,2.6,5,4.8c0.6,1.2,0.9,2.4,1.1,3.7c0.3,1.7,0,3.4-0.3,5.1c-0.4,2.3-1.3,4.5-2.4,6.5
		c-1.6,3.1-3.6,5.9-5.8,8.6c-0.1,0.1-0.2,0.3-0.3,0.4c-0.4,0.5-0.3,0.7,0.3,0.9c1.6,0.4,3.1,0.9,4.7,1.3c3,0.9,6,1.9,8.9,3.3
		c3.2,1.5,6.3,3.2,9.2,5.1c2.4,1.5,4.6,3.1,6.8,4.9c2.3,1.9,4.4,4,6.3,6.3c1.5,1.8,3,3.7,4.3,5.6c0.8,1.2,1.4,2.5,1.9,3.9
		c0.5,1.1,0.9,2.2,1.5,3.2c0.3,0.5,0.4,1.1,0.6,1.7c1,2.9,2,5.7,2.2,8.7c0.1,0.9,0.4,1.8,0.4,2.8c0.3,3.2,0.3,6.4,0.1,9.6
		c-0.1,2.3-0.5,4.6-1.1,6.8c-0.7,2.9-1.8,5.7-2.9,8.5c-0.6,1.4-1.3,2.7-2,4.1c-1.3,2.4-2.8,4.7-4.5,6.9c-2,2.6-4.2,5-6.6,7.2
		c-1.8,1.7-3.7,3.3-5.6,4.8c-1.2,1-2.5,1.8-3.7,2.7c-2,1.4-4.1,2.6-6.2,3.9c-0.9,0.6-1.9,1.2-2.9,1.5c-0.6,0.2-1,0.6-1.6,0.9
		c-1.4,0.7-2.9,1.1-4.3,1.7c-0.7,0.3-1.3,0.6-2,0.9c-2.9,1.3-5.9,2.3-8.9,3.2c-1.8,0.6-3.7,1.1-5.5,1.5c-2.1,0.5-4.3,0.8-6.4,1.2
		c-2.9,0.4-5.7,0.6-8.6,0.8c-3.5,0.3-7.1,0.3-10.6,0.1c-2.8-0.2-5.6-0.4-8.5-0.8c-2.2-0.3-4.5-0.7-6.7-1c-1.6-0.2-3.3-0.5-4.9-0.9
		c-1.9-0.4-3.9-0.8-5.7-1.6c-0.8-0.3-1.6-0.5-2.5-0.8c-3.5-1-6.8-2.4-10.1-3.9c-3.1-1.4-5.9-3.2-8.6-5.2c-2.1-1.5-3.9-3.2-5.7-5.1
		c-1.9-1.9-3.3-4.1-4.5-6.5c-1.3-2.5-2-5.2-2.6-7.9c-0.9-4-0.8-8-0.6-12.1c0.1-2.2,0.5-4.4,0.9-6.6c0.5-2.8,1.2-5.5,2-8.2
		c0.4-1.2,0.9-2.3,1.1-3.5c0.1-0.7,0.6-1.3,0.9-2c1-2.7,2.1-5.4,3.2-8c0.4-1.1,1-2,1.5-3.1c0.7-1.5,1.5-2.9,2.3-4.4
		c1.5-2.7,3.2-5.3,5-7.9c1.5-2.1,3-4.2,4.7-6.2c1.4-1.7,2.9-3.3,4.3-4.9c2-2.2,4.1-4.2,6.3-6.2c0.9-0.8,1.8-1.5,2.7-2.2
		c1.6-1.2,3-2.5,4.5-3.6c2.1-1.6,4.3-3.1,6.6-4.4c0.4-0.2,0.7-0.6,1.2-0.7c0.4-0.1,0.3-0.4,0.3-0.7c0.2-1.5,0.3-2.9,0.6-4.4
		c0.4-1.7,0.9-3.3,1.5-4.9c0.8-2.2,2-4.1,3.4-6c1.5-2,3.2-4,5.4-5.4c1.7-1,3.4-1.8,5.4-1.8c1.6,0,3,0.5,4.1,1.5
		c1.3,1.2,2.3,2.6,2.8,4.4C72.2,11,72.4,11.3,72.7,11.6z M95.4,105.5c0.2,0.8,0.2,1.4,0.4,1.9c0.9,2.1,2.5,3.5,4.9,3.8
		c2.8,0.4,5.5-1.2,6.6-3.8c0.3-0.9,0.4-1.7,0.5-2.6c0.3-2.1,0.2-4.1-0.3-6.1c-0.7-3.1-2.1-5.9-4.1-8.3c-2.5-3-5.5-5.2-9.2-6.4
		c-3-1-6-1.2-9-0.3c-2.1,0.6-4.1,1.5-5.7,2.9c-2.2,1.9-2.8,4.9-1.5,7.5c1,2,3.4,3.8,6.5,3.2c0.5-0.1,1-0.2,1.6-0.4
		c-0.6,1.6-1.5,2.9-2.5,4.1c-3,3.7-6.8,6.4-11,8.5c-3.4,1.7-6.9,2.8-10.6,3.5c-2.2,0.4-4.4,0.7-6.6,0.7c-2.9,0-5.7-0.1-8.6-0.8
		c-3.3-0.8-6.4-2-9.1-4.1c-2.1-1.7-3.7-3.8-4.3-6.4c-0.3-1.3-0.3-2.6-0.3-3.9c0-0.9-0.3-1.8-0.6-2.6c-1.1-2.3-3.5-3.6-6.1-3.4
		c-2.4,0.2-4.6,2.1-5.2,4.3c-0.3,1.2-0.4,2.4-0.4,3.6c0.2,4.5,1.5,8.6,4,12.4c3.6,5.2,8.5,8.5,14.3,10.7c2.7,1,5.5,1.7,8.5,2.1
		c3.6,0.5,7.2,0.8,10.9,0.3c1.5-0.2,3-0.3,4.5-0.5c2.4-0.4,4.8-1,7.1-1.7c2.7-0.8,5.2-1.8,7.7-3c3.6-1.7,6.9-3.8,10-6.4
		c2.6-2.2,5-4.7,6.9-7.5C94.8,106.3,95,106,95.4,105.5z M70.3,49c-2.4,0.1-4.3,1.3-5.5,3.6c-1,2-1.7,4.1-2.3,6.2
		c-0.9,3.6-1.6,7.3-1.8,11c-0.1,1.4-0.3,2.9-0.3,4.3c0.1,1.7,0.1,3.5,0.3,5.2c0.3,2.1,0.9,4,2.1,5.7c1.5,2,3.5,3.1,6.1,2.7
		c2.5-0.4,4.2-1.8,4.9-4.2c0.5-1.7,0.4-3.4-0.6-5c-0.3-0.5-0.5-1-0.5-1.5c-0.1-2.6-0.1-5.1,0.2-7.7c0.3-2,0.6-4.1,1-6.1
		c0.4-1.7,0.9-3.4,1.6-5c0.9-1.8,1.2-3.6,0.4-5.6C75,50.6,72.9,49.1,70.3,49z M54.2,56.7c0-1.5,0-1.5-0.5-2.8
		c-1.4-3.1-5.4-4.7-8.8-2.6c-1.7,1-2.5,2.6-3.3,4.3c-1,2.2-1.6,4.4-2.1,6.8c-0.5,2.4-1,4.9-1.2,7.3c-0.3,2.9-0.5,5.7-0.4,8.6
		c0.1,2.1,0.4,4.2,1.1,6.1c0.9,2.4,2.5,4,5.1,4.5c2.4,0.4,4.3-0.5,5.8-2.3c1.5-1.9,1.6-4,0.7-6.2c-0.2-0.4-0.4-0.9-0.4-1.3
		c0-1.2-0.1-2.3-0.1-3.5c0-3.1,0.4-6.2,1-9.3c0.5-2.5,1.2-5,2.5-7.2C54.1,58.3,54.3,57.4,54.2,56.7z"/>
	<path class="st3" d="M95.4,105.5c-0.4,0.5-0.6,0.8-0.9,1.2c-1.9,2.9-4.3,5.3-6.9,7.5c-3,2.6-6.4,4.7-10,6.4c-2.5,1.2-5.1,2.2-7.7,3
		c-2.3,0.7-4.7,1.3-7.1,1.7c-1.5,0.2-3,0.3-4.5,0.5c-3.6,0.4-7.2,0.2-10.9-0.3c-2.9-0.4-5.7-1.1-8.5-2.1
		c-5.8-2.2-10.8-5.5-14.3-10.7c-2.5-3.7-3.8-7.9-4-12.4c-0.1-1.2,0.1-2.4,0.4-3.6c0.6-2.2,2.8-4.1,5.2-4.3c2.6-0.2,5.1,1.1,6.1,3.4
		c0.4,0.8,0.6,1.7,0.6,2.6c0,1.3,0,2.6,0.3,3.9c0.7,2.7,2.2,4.7,4.3,6.4c2.7,2.1,5.8,3.4,9.1,4.1c2.8,0.7,5.7,0.8,8.6,0.8
		c2.2,0,4.5-0.3,6.6-0.7c3.7-0.7,7.2-1.9,10.6-3.5c4.2-2.1,8-4.8,11-8.5c1-1.2,1.9-2.6,2.5-4.1c-0.6,0.1-1.1,0.3-1.6,0.4
		C81.4,97.9,79,96,78,94.1c-1.3-2.6-0.7-5.6,1.5-7.5c1.7-1.4,3.6-2.3,5.7-2.9c3.1-0.9,6.1-0.7,9,0.3c3.7,1.2,6.7,3.3,9.2,6.4
		c2,2.5,3.4,5.3,4.1,8.3c0.5,2,0.6,4.1,0.3,6.1c-0.1,0.9-0.2,1.8-0.5,2.6c-1.1,2.6-3.8,4.3-6.6,3.8c-2.3-0.3-3.9-1.7-4.9-3.8
		C95.6,106.9,95.6,106.3,95.4,105.5z"/>
	<path class="st3" d="M70.3,49c2.6,0.1,4.7,1.6,5.7,3.7c0.9,2,0.5,3.8-0.4,5.6c-0.8,1.6-1.2,3.3-1.6,5c-0.5,2-0.7,4-1,6.1
		c-0.4,2.5-0.3,5.1-0.2,7.7c0,0.5,0.2,1,0.5,1.5c1,1.6,1.1,3.3,0.6,5c-0.7,2.3-2.4,3.8-4.9,4.2c-2.6,0.4-4.6-0.7-6.1-2.7
		c-1.3-1.7-1.8-3.6-2.1-5.7c-0.3-1.7-0.3-3.5-0.3-5.2c-0.1-1.4,0.2-2.9,0.3-4.3c0.2-3.7,0.9-7.4,1.8-11c0.6-2.2,1.3-4.3,2.3-6.2
		C65.9,50.3,67.8,49.1,70.3,49z"/>
	<path class="st4" d="M54.2,56.7c0.1,0.7-0.1,1.5-0.6,2.3c-1.3,2.2-2,4.7-2.5,7.2c-0.6,3.1-1,6.2-1,9.3c0,1.1,0,2.3,0.1,3.5
		c0,0.5,0.2,0.9,0.4,1.3c0.9,2.2,0.8,4.3-0.7,6.2c-1.5,1.9-3.4,2.8-5.8,2.3c-2.6-0.5-4.2-2.1-5.1-4.5c-0.7-2-1-4-1.1-6.1
		c-0.1-2.9,0.1-5.8,0.4-8.6c0.3-2.5,0.7-4.9,1.2-7.3c0.5-2.3,1.1-4.6,2.1-6.8c0.8-1.7,1.6-3.3,3.3-4.3c3.4-2.1,7.4-0.5,8.8,2.6
		C54.2,55.2,54.2,55.2,54.2,56.7z"/>
</g>
</svg>
