<svg xmlns="http://www.w3.org/2000/svg" xmlns:xlink="http://www.w3.org/1999/xlink" viewBox="0 0 197.58 197.65"><defs><style>.cls-1{fill:none;}.cls-2{clip-path:url(#clip-path);}.cls-3{fill:#305ce1;}.cls-4{fill:#fff;}.cls-5{opacity:0.5;}.cls-6{fill:url(#무제_그라디언트_667);}.cls-7{fill:url(#무제_그라디언트_667-2);}.cls-8{fill:url(#무제_그라디언트_667-3);}.cls-9{fill:url(#무제_그라디언트_667-4);}.cls-10{fill:url(#무제_그라디언트_667-5);}.cls-11{fill:url(#무제_그라디언트_667-6);}.cls-12{fill:url(#무제_그라디언트_667-7);}.cls-13{fill:url(#무제_그라디언트_667-8);}.cls-14{fill:url(#무제_그라디언트_667-9);}.cls-15{fill:url(#무제_그라디언트_667-10);}.cls-16{fill:url(#무제_그라디언트_667-11);}.cls-17{fill:url(#무제_그라디언트_667-12);}.cls-18{fill:url(#무제_그라디언트_667-13);}.cls-19{fill:url(#무제_그라디언트_667-14);}.cls-20{fill:url(#무제_그라디언트_667-15);}.cls-21{fill:#d0e8f7;}.cls-22{fill:url(#무제_그라디언트_707);}.cls-23{fill:#cbcbcb;}.cls-24{fill:url(#무제_그라디언트_707-2);}.cls-25{fill:#231815;}.cls-26{fill:#00ccae;}.cls-27{fill:#f7bd2b;}.cls-28{fill:#ffce31;}</style><clipPath id="clip-path"><path class="cls-1" d="M97.85,197.53a96.89,96.89,0,0,1-69.46-29.21,100.76,100.76,0,0,1,0-141,97.21,97.21,0,0,1,138.92,0,100.76,100.76,0,0,1,0,141A96.87,96.87,0,0,1,97.85,197.53Z"/></clipPath><linearGradient id="무제_그라디언트_667" x1="139.47" y1="0.15" x2="120.39" y2="85.16" gradientTransform="translate(-40.85 16.41) rotate(-4.44)" gradientUnits="userSpaceOnUse"><stop offset="0" stop-color="#ffffce" stop-opacity="0"/><stop offset="1" stop-color="#fffff6"/></linearGradient><linearGradient id="무제_그라디언트_667-2" x1="-941.46" y1="1876.73" x2="-960.48" y2="1961.44" gradientTransform="translate(1650.52 -1438.65) rotate(19.55)" xlink:href="#무제_그라디언트_667"/><linearGradient id="무제_그라디언트_667-3" x1="-1166.14" y1="4030.83" x2="-1185.04" y2="4115.04" gradientTransform="translate(3787.35 -2080.44) rotate(43.53)" xlink:href="#무제_그라디언트_667"/><linearGradient id="무제_그라디언트_667-4" x1="-495.66" y1="6090.14" x2="-514.47" y2="6173.95" gradientTransform="translate(6000.54 -1798.1) rotate(67.52)" xlink:href="#무제_그라디언트_667"/><linearGradient id="무제_그라디언트_667-5" x1="954.13" y1="7698.71" x2="935.33" y2="7782.5" gradientTransform="translate(7907.8 -640.4) rotate(91.51)" xlink:href="#무제_그라디언트_667"/><linearGradient id="무제_그라디언트_667-6" x1="2932.68" y1="8578.65" x2="2913.79" y2="8662.82" gradientTransform="matrix(-0.43, 0.9, -0.9, -0.43, 9179.69, 1192.69)" xlink:href="#무제_그라디언트_667"/><linearGradient id="무제_그라디언트_667-7" x1="5098.06" y1="8578.15" x2="5079.06" y2="8662.82" gradientTransform="translate(9596.52 3384.53) rotate(139.48)" xlink:href="#무제_그라디언트_667"/><linearGradient id="무제_그라디언트_667-8" x1="7076.19" y1="7697.54" x2="7057.12" y2="7782.54" gradientTransform="translate(9086.28 5556.53) rotate(163.47)" xlink:href="#무제_그라디언트_667"/><linearGradient id="무제_그라디언트_667-9" x1="8525.45" y1="6089.13" x2="8506.39" y2="6174.04" gradientTransform="translate(7737.12 7333.51) rotate(-172.54)" xlink:href="#무제_그라디언트_667"/><linearGradient id="무제_그라디언트_667-10" x1="9195.65" y1="4030.73" x2="9176.69" y2="4115.2" gradientTransform="translate(5782.06 8408.54) rotate(-148.55)" xlink:href="#무제_그라디언트_667"/><linearGradient id="무제_그라디언트_667-11" x1="8971.17" y1="1877.68" x2="8952.32" y2="1961.65" gradientTransform="matrix(-0.57, -0.82, 0.82, -0.57, 3558.82, 8595.92)" xlink:href="#무제_그라디언트_667"/><linearGradient id="무제_그라디언트_667-12" x1="7890.81" y1="1.61" x2="7872.02" y2="85.36" gradientTransform="matrix(-0.18, -0.98, 0.98, -0.18, 1451.41, 7863.28)" xlink:href="#무제_그라디언트_667"/><linearGradient id="무제_그라디언트_667-13" x1="6141.11" y1="-1273.56" x2="6122.27" y2="-1189.62" gradientTransform="matrix(0.23, -0.97, 0.97, 0.23, -176.14, 6337.18)" xlink:href="#무제_그라디언트_667"/><linearGradient id="무제_그라디언트_667-14" x1="4024.11" y1="-1727.49" x2="4005.17" y2="-1643.07" gradientTransform="matrix(0.61, -0.79, 0.79, 0.61, -1042.72, 4281.22)" xlink:href="#무제_그라디언트_667"/><linearGradient id="무제_그라디언트_667-15" x1="1905.39" y1="-1281.56" x2="1886.34" y2="-1196.68" gradientTransform="translate(-998.63 2050.53) rotate(-28.62)" xlink:href="#무제_그라디언트_667"/><linearGradient id="무제_그라디언트_707" x1="46.54" y1="94.51" x2="132.6" y2="94.51" gradientUnits="userSpaceOnUse"><stop offset="0" stop-color="#fff"/><stop offset="1" stop-color="#fff"/></linearGradient><linearGradient id="무제_그라디언트_707-2" x1="83.76" y1="158.72" x2="114.79" y2="158.72" xlink:href="#무제_그라디언트_707"/></defs><title>badge</title><g id="레이어_3" data-name="레이어 3"><g class="cls-2"><path class="cls-3" d="M97.85,197.53a96.89,96.89,0,0,1-69.46-29.21,100.76,100.76,0,0,1,0-141,97.21,97.21,0,0,1,138.92,0,100.76,100.76,0,0,1,0,141A96.87,96.87,0,0,1,97.85,197.53Z"/><path class="cls-4" d="M97.73,184.08a81.21,81.21,0,0,1-58.26-24.49,83.7,83.7,0,0,1-24.13-59.13h.34a83.39,83.39,0,0,0,24,58.88,81.19,81.19,0,0,0,116,0,83.39,83.39,0,0,0,24-58.88h.34A83.7,83.7,0,0,1,156,159.59,81.21,81.21,0,0,1,97.73,184.08Z"/><rect class="cls-3" x="6.2" y="95.74" width="179.94" height="34.64"/><path class="cls-4" d="M22.4,118.42l-4.28,5.11-.81-3.17,2.26-2.62-3.23-1.16-.8-3.17,6.18,2.36,4.83-1.27.68,2.65Z"/><path class="cls-4" d="M20.3,110.86a5.32,5.32,0,0,1-2.19-.22,5.16,5.16,0,0,1-1.85-1,5.42,5.42,0,0,1-1.34-1.71,6.27,6.27,0,0,1-.65-2.3,6.43,6.43,0,0,1,.18-2.38,5.69,5.69,0,0,1,1-2,5.41,5.41,0,0,1,1.62-1.38,5.41,5.41,0,0,1,6.15.59,5.54,5.54,0,0,1,1.34,1.73,6.75,6.75,0,0,1,.46,4.68,5.43,5.43,0,0,1-1,2,5.32,5.32,0,0,1-3.72,2ZM20,108a2.73,2.73,0,0,0,1.11-.35,2.86,2.86,0,0,0,.85-.73,3,3,0,0,0,.6-2.16,3.17,3.17,0,0,0-.32-1.11,2.91,2.91,0,0,0-1.66-1.45,2.85,2.85,0,0,0-1.17-.12,2.74,2.74,0,0,0-1.11.36,2.84,2.84,0,0,0-.84.74,3,3,0,0,0-.51,1,3.39,3.39,0,0,0-.1,1.15,3,3,0,0,0,.33,1.11,2.87,2.87,0,0,0,.69.88,2.66,2.66,0,0,0,1,.55A2.79,2.79,0,0,0,20,108Z"/><path class="cls-4" d="M14.21,92.85l5.64.41c.3,0,.62,0,.93,0a2.5,2.5,0,0,0,.88-.15,1.46,1.46,0,0,0,.66-.5,2,2,0,0,0,.32-1,2,2,0,0,0-.17-1.07,1.48,1.48,0,0,0-.59-.6,2.51,2.51,0,0,0-.84-.27c-.32-.05-.63-.08-.93-.1l-5.64-.41.19-2.72,6,.43a4.77,4.77,0,0,1,3.46,1.38,5.95,5.95,0,0,1-.48,6.91A4.75,4.75,0,0,1,20,96l-6-.43Z"/><path class="cls-4" d="M27.44,76.2l-.79,2.62-9.94-3.06L18,71.58a3.77,3.77,0,0,1,1.65-2.34,3.36,3.36,0,0,1,2.72-.14,3.37,3.37,0,0,1,2.18,1.66,3.82,3.82,0,0,1,.1,2.87l-.47,1.55Zm-5.38-1.66.26-.87c.29-1,0-1.57-.81-1.83s-1.39.1-1.67,1.06l-.26.88Z"/><path class="cls-4" d="M30.55,63.05,28.92,66.6l1.37,1.34-1.22,2.65L21.32,62.5l1.25-2.72,11.09.82-1.21,2.65Zm-2.17-.22-3.65-.37,2.63,2.6Z"/><path class="cls-4" d="M39.49,51.71l-1.87,2.84-4.76-.08,3.33,2.26L34.69,59,26,53.15l2.33-3.55a4.35,4.35,0,0,1,1.06-1.14A2.81,2.81,0,0,1,31.8,48a3.49,3.49,0,0,1,1.15.52,3.13,3.13,0,0,1,1.29,1.57,3,3,0,0,1-.11,2Zm-8.08,1.78.28-.43a2,2,0,0,0,.41-1.23,1.15,1.15,0,0,0-.56-.89,1.09,1.09,0,0,0-1-.18,2,2,0,0,0-1,.85l-.29.43Z"/><path class="cls-4" d="M37.2,41.87l6.12,5.39-1.77,2.07-6.12-5.39L34,45.64l-1.73-1.52,4.68-5.48,1.73,1.53Z"/><path class="cls-4" d="M41,34.65l7.19,7.63-2,1.89L39,36.55Z"/><path class="cls-4" d="M52,30a2.86,2.86,0,0,0-2.53.52,2.73,2.73,0,0,0-.75.88,2.61,2.61,0,0,0-.34,1,2.9,2.9,0,0,0,.09,1.09,3,3,0,0,0,.52,1,3.1,3.1,0,0,0,.87.79,2.71,2.71,0,0,0,1,.36A2.64,2.64,0,0,0,52,35.65a2.77,2.77,0,0,0,1-.5,3.19,3.19,0,0,0,1.18-2.33l2,2.57-.16.25a8.15,8.15,0,0,1-.72,1,5.51,5.51,0,0,1-.78.75,5.3,5.3,0,0,1-1.88,1,5.36,5.36,0,0,1-2.07.16,5.9,5.9,0,0,1-2-.66,5.51,5.51,0,0,1-1.71-1.5,5.37,5.37,0,0,1-1-2,5.69,5.69,0,0,1-.1-2.13,5.56,5.56,0,0,1,.69-2,5.43,5.43,0,0,1,1.4-1.62,6,6,0,0,1,1-.65,7.94,7.94,0,0,1,1.25-.46Z"/><path class="cls-4" d="M55.26,23.83l5.44,9-2.31,1.43-5.43-9Z"/><path class="cls-4" d="M65.67,30.13,63.22,31.3l-4.44-9.54,3.89-1.87a3.63,3.63,0,0,1,2.81-.32,3.41,3.41,0,0,1,1.94,1.94,3.5,3.5,0,0,1,.25,2.76,3.71,3.71,0,0,1-2,2l-1.45.7ZM63.26,25l.81-.39c.9-.43,1.16-1,.79-1.84s-1-1-1.9-.54l-.81.39Z"/><path class="cls-4" d="M77.35,23.63l-3.68,1.16-.06,1.94-2.75.86.69-11.27,2.82-.88,6.86,8.88-2.75.87Zm-1.29-1.78-2.19-3-.13,3.72Z"/><path class="cls-4" d="M85.18,15.36l1.39,8.11-2.66.47-1.39-8.11-2.19.39-.39-2.29,7-1.24L87.37,15Z"/><path class="cls-4" d="M96.14,14.33l-3.21.19.1,1.76,3-.18.14,2.32-3,.18.1,1.82,3.21-.2.13,2.32-5.9.36L90.1,12.36,96,12Z"/><path class="cls-4" d="M100.06,12l4,.31a4.71,4.71,0,0,1,2,.59,5.46,5.46,0,0,1,1.54,1.28,5.57,5.57,0,0,1,1,1.76,5.18,5.18,0,0,1,.25,2A5.44,5.44,0,0,1,107,21.49a5.5,5.5,0,0,1-1.71,1,4.62,4.62,0,0,1-2,.27l-4-.31Zm2.07,8.42.62,0A3.26,3.26,0,0,0,104,20.3a2.62,2.62,0,0,0,1-.54,2.73,2.73,0,0,0,.65-.88,3.51,3.51,0,0,0,.17-2.36,2.78,2.78,0,0,0-.51-1,2.6,2.6,0,0,0-.88-.68,3.14,3.14,0,0,0-1.22-.32l-.62,0Z"/><path class="cls-4" d="M121.56,15.49l-2.78,10.17-2.6-.73L119,14.76Z"/><path class="cls-4" d="M121.6,26.38l4-9.72,2.49,1.07,2.13,7.91,2.47-5.95,2.47,1.06-4,9.73-2.47-1.06-2.13-7.92-2.47,5.95Z"/><path class="cls-4" d="M143.33,32.27l.18-6.7,2.59,1.95L146,31l3.23-1.16,2.59,1.95L145.5,33.9l-3,4.07-2.17-1.63Z"/><path class="cls-4" d="M149.63,36.8a5.47,5.47,0,0,1,1.83-1.23,5.37,5.37,0,0,1,2.07-.4,5.31,5.31,0,0,1,2.11.48A6.06,6.06,0,0,1,157.57,37a6.44,6.44,0,0,1,1.34,2,5.68,5.68,0,0,1,.45,2.15,5.45,5.45,0,0,1-.39,2.11,5.63,5.63,0,0,1-1.24,1.85,5.3,5.3,0,0,1-6,1.14,6.67,6.67,0,0,1-3.27-3.35,5.82,5.82,0,0,1-.45-2.14,5.57,5.57,0,0,1,1.64-4Zm2,2a2.71,2.71,0,0,0-.65,1,3.1,3.1,0,0,0-.2,1.11A3,3,0,0,0,151,42a2.94,2.94,0,0,0,.64,1,2.87,2.87,0,0,0,.94.66,2.84,2.84,0,0,0,2.19.06,2.76,2.76,0,0,0,1-.65,2.66,2.66,0,0,0,.65-1,3,3,0,0,0,.2-1.11,3,3,0,0,0-.24-1.1,2.94,2.94,0,0,0-.64-1,2.87,2.87,0,0,0-.94-.66,2.57,2.57,0,0,0-1.08-.24,2.78,2.78,0,0,0-2.07.84Z"/><path class="cls-4" d="M165.52,46.89l-4.63,3.29a9.29,9.29,0,0,0-.75.57,2.66,2.66,0,0,0-.59.67,1.51,1.51,0,0,0-.2.82,2,2,0,0,0,.4,1,1.87,1.87,0,0,0,.8.72,1.45,1.45,0,0,0,.82.09,2.3,2.3,0,0,0,.83-.32c.28-.17.54-.34.79-.51l4.63-3.29,1.54,2.24-4.94,3.5a4.85,4.85,0,0,1-3.54,1.14,4.63,4.63,0,0,1-2.87-2.19,4.75,4.75,0,0,1-1-3.5,4.91,4.91,0,0,1,2.26-3l4.94-3.5Z"/><path class="cls-4" d="M165.84,68.61l-1.48-3.07,2.45-4.14-3.59,1.79L162,60.73l9.33-4.65,1.86,3.83a4.43,4.43,0,0,1,.44,1.5,3,3,0,0,1-.16,1.28,3,3,0,0,1-.63,1,3.46,3.46,0,0,1-1,.75,3,3,0,0,1-2,.34,2.77,2.77,0,0,1-1.64-1.09Zm2.54-8,.23.47a2,2,0,0,0,.84,1,1.13,1.13,0,0,0,1,0,1.15,1.15,0,0,0,.66-.82,1.91,1.91,0,0,0-.24-1.26l-.23-.47Z"/><path class="cls-4" d="M176.74,81.4a3,3,0,0,0,.56-2.57,3.06,3.06,0,0,0-.48-1,2.77,2.77,0,0,0-.8-.73,2.83,2.83,0,0,0-1-.36,3,3,0,0,0-1.15.07,2.8,2.8,0,0,0-1.06.49,2.56,2.56,0,0,0-.74.8,2.62,2.62,0,0,0-.38,1,2.76,2.76,0,0,0,0,1.14,3.13,3.13,0,0,0,1.63,2l-3.11.78-.16-.25a7.66,7.66,0,0,1-.59-1.06,6.9,6.9,0,0,1-.36-1,5.47,5.47,0,0,1-.09-2.13,5.3,5.3,0,0,1,.69-2A5.86,5.86,0,0,1,171.15,75a5.37,5.37,0,0,1,2-1,5.23,5.23,0,0,1,2.25-.1,5.58,5.58,0,0,1,2,.77,5.44,5.44,0,0,1,1.51,1.44,5.54,5.54,0,0,1,.89,2,5.61,5.61,0,0,1,.17,1.23,8,8,0,0,1-.09,1.34Z"/><path class="cls-4" d="M171.31,94.18l-.34-3.4,3.7-3-4,.42-.28-2.73,10.34-1.1.43,4.25a4.38,4.38,0,0,1-.09,1.56,3.12,3.12,0,0,1-.58,1.15,3.16,3.16,0,0,1-1,.75,3.51,3.51,0,0,1-1.22.34,3,3,0,0,1-2-.37,3,3,0,0,1-1.17-1.6Zm5.11-6.61.05.52a2,2,0,0,0,.46,1.2,1.26,1.26,0,0,0,1.89-.2,2,2,0,0,0,.2-1.27L179,87.3Z"/><path class="cls-4" d="M179.21,102.28,179.3,99l-1.74,0-.08,3.08-2.29-.06.08-3.08-1.79,0-.08,3.27-2.29-.06.15-6,10.39.27-.15,6Z"/><path class="cls-4" d="M181,108.46l-6.94.47,6.17,3.51-.42,2.15-7,.88,6.24,3.1-.55,2.81-9.6-5.12.53-2.75,6.31-.85-5.52-3.21.53-2.75,10.8-1Z"/><g class="cls-5"><path class="cls-6" d="M95.68,98.8,88.13.18s7.92-6.32,19.4,1.31Z"/><path class="cls-7" d="M95.68,98.8l32.6-93.22s9.77-2.5,17.2,9.21Z"/><path class="cls-8" d="M95.68,98.8,162.8,27.08s9.92,1.75,12,15.51Z"/><path class="cls-9" d="M95.68,98.8l90-37.82s8.36,5.69,4.77,19.13Z"/><path class="cls-10" d="M95.68,98.8l97.42,2.6s5.36,8.65-3.3,19.45Z"/><path class="cls-11" d="M95.68,98.8l88,42.57s1.44,10.12-10.8,16.41Z"/><path class="cls-12" d="M95.68,98.8,159,174s-2.74,9.84-16.44,10.54Z"/><path class="cls-13" d="M95.68,98.8l27.72,94.82s-6.44,7.86-19.24,2.84Z"/><path class="cls-14" d="M95.68,98.8,83,196.88s-9,4.51-18.72-5.35Z"/><path class="cls-15" d="M95.68,98.8,44.84,183.19s-10.07.4-15-12.61Z"/><path class="cls-16" d="M95.68,98.8,15.43,154.92s-9.36-3.79-8.62-17.69Z"/><path class="cls-17" d="M95.68,98.8-.12,117s-7-7.32-.79-19.72Z"/><path class="cls-18" d="M95.68,98.8.88,75.86s-3.49-9.59,7.18-18.34Z"/><path class="cls-19" d="M95.68,98.8,18.25,38.72s.66-10.2,13.91-13.79Z"/><path class="cls-20" d="M95.68,98.8,49,12s4.68-9,18.23-6.86Z"/></g><path class="cls-21" d="M132.6,56.44,66.5,66.09l71.3.89C137.91,55.47,132.6,56.44,132.6,56.44Z"/><path d="M138.31,67.52,66.5,66.61l-.07-1,66.09-9.65a3.8,3.8,0,0,1,3,1c1.93,1.65,2.89,5.05,2.84,10.08ZM73.16,65.65l64.12.8c0-5.44-1.33-7.75-2.44-8.72a2.83,2.83,0,0,0-2.15-.78h0Z"/><path class="cls-22" d="M132.6,56.44s-11.47.43-11.84,26.73a74.87,74.87,0,0,0,2.38,19.34c2.29,9.57,3.1,30.68-7,31.71-.47.05-23-2.89-23.44-2.93l-46.19-7.21s5.75-1.74,13.5-14.85a47.62,47.62,0,0,0,6.13-29.11c-.93-9-1.44-25.81,7.77-25.31A286.77,286.77,0,0,0,132.6,56.44Z"/><path d="M116.19,134.74c-.49,0-4.81-.53-17.9-2.21-2.92-.38-5.43-.7-5.6-.71h0l-48.47-7.57,2.21-.67a12.36,12.36,0,0,0,3.74-2.48c2.15-1.86,5.54-5.48,9.47-12.13a47.42,47.42,0,0,0,6.06-28.79c-1.57-15.23.87-21.39,3.2-23.87a6.22,6.22,0,0,1,5.11-2h0a289.64,289.64,0,0,0,58.47,1.63h.09l.06,1.05h0c-.33,0-2.89.37-5.45,3.41-4.66,5.52-5.76,15.45-5.86,22.81a74.55,74.55,0,0,0,2.36,19.21c1.94,8.08,2.63,22.41-1.92,28.92a7.45,7.45,0,0,1-5.5,3.43Zm-23.39-4,5.62.72c6.36.81,17,2.18,17.72,2.21a6.54,6.54,0,0,0,4.74-3c4.31-6.18,3.6-20.41,1.76-28.08a74.92,74.92,0,0,1-2.39-19.47c.15-11,2.23-19,6.18-23.56a12.21,12.21,0,0,1,2.72-2.41,288.23,288.23,0,0,1-55.26-1.86A5.22,5.22,0,0,0,69.61,57c-4.16,4.44-3.62,16.34-2.92,23a48.46,48.46,0,0,1-6.21,29.43c-5.48,9.28-10,12.94-12.24,14.31Z"/><path class="cls-21" d="M115.63,134.22s-5.46-1.42-1.81-15.46l-71.11-9.19s-3.07,8.13.39,13.7a4.79,4.79,0,0,0,3.45,2.31Z"/><path d="M115.56,134.74,46.49,126.1a5.31,5.31,0,0,1-3.83-2.55c-1.48-2.38-2-5.59-1.57-9.29a22.21,22.21,0,0,1,1.14-4.88l.14-.39.4.05,71.7,9.28-.15.57c-3.44,13.24,1.39,14.81,1.44,14.82Zm-72.5-24.6c-.54,1.65-2.38,8.24.48,12.85a4.28,4.28,0,0,0,3.07,2.07l67.16,8.4a7.14,7.14,0,0,1-.52-.76c-1.1-1.9-2-5.79-.07-13.49Z"/><path d="M111.69,112h0l-40.34-3.14a.53.53,0,0,1-.47-.57.51.51,0,0,1,.55-.48L111.73,111a.53.53,0,0,1,0,1.05Z"/><path d="M108.58,108.86h0l-34.13-3.15a.54.54,0,0,1-.47-.57.52.52,0,0,1,.56-.48l34.13,3.15a.53.53,0,0,1,0,1Z"/><polygon class="cls-3" points="79.07 96.07 81.27 95.41 82.31 97.48 83.01 98.87 83.05 98.89 86.71 90.2 81.22 87.81 77.56 96.5 77.6 96.52 79.07 96.07"/><path d="M83.32,99.57l-.69-.29L81,96l-3.43,1-.69-.3L81,87.12l6.44,2.8Zm-1.79-4.79L83,97.68l3-7.21-4.55-2-3,7.21Z"/><polygon class="cls-3" points="97.61 96.07 95.41 95.41 94.37 97.48 93.67 98.87 93.63 98.89 89.97 90.2 95.46 87.81 99.12 96.5 99.08 96.52 97.61 96.07"/><path d="M93.36,99.57l-4.07-9.65,6.44-2.8,4.07,9.66-.69.3-3.43-1-1.63,3.25Zm-2.71-9.1,3,7.21,1.46-2.9,3.08.93-3-7.21Z"/><path class="cls-23" d="M90.62,68.34h0a2.13,2.13,0,0,1,3.89,1.29h0a2.13,2.13,0,0,0,2.85,2.09h0a2.16,2.16,0,0,1,2.4,3.37h0a2.17,2.17,0,0,0,1.09,3.39h0a2.18,2.18,0,0,1,0,4.16h0A2.17,2.17,0,0,0,99.76,86h0a2.15,2.15,0,0,1-2.4,3.36h0a2.14,2.14,0,0,0-2.85,2.1h0a2.13,2.13,0,0,1-3.89,1.29h0a2.11,2.11,0,0,0-3.52,0h0a2.13,2.13,0,0,1-3.89-1.29h0a2.14,2.14,0,0,0-2.85-2.1h0A2.16,2.16,0,0,1,78,86h0a2.17,2.17,0,0,0-1.08-3.39h0a2.18,2.18,0,0,1,0-4.16h0A2.17,2.17,0,0,0,78,75.09h0a2.16,2.16,0,0,1,2.41-3.37h0a2.14,2.14,0,0,0,2.85-2.09h0a2.13,2.13,0,0,1,3.89-1.29h0A2.11,2.11,0,0,0,90.62,68.34Z"/><path d="M92.35,94.25a2.59,2.59,0,0,1-2.16-1.18,1.59,1.59,0,0,0-1.33-.71h0a1.61,1.61,0,0,0-1.34.71,2.57,2.57,0,0,1-3,1,2.63,2.63,0,0,1-1.83-2.63A1.63,1.63,0,0,0,82,90.11a1.54,1.54,0,0,0-1.49-.22,2.58,2.58,0,0,1-3-1,2.67,2.67,0,0,1,0-3.22,1.62,1.62,0,0,0,.26-1.5,1.59,1.59,0,0,0-1.08-1.07,2.7,2.7,0,0,1,0-5.16,1.64,1.64,0,0,0,.82-2.57,2.69,2.69,0,0,1,0-3.23,2.57,2.57,0,0,1,3-1A1.56,1.56,0,0,0,82,71a1.63,1.63,0,0,0,.67-1.37A2.63,2.63,0,0,1,84.52,67a2.57,2.57,0,0,1,3,1,1.61,1.61,0,0,0,1.34.71,1.59,1.59,0,0,0,1.33-.71h0a2.58,2.58,0,0,1,3-1A2.64,2.64,0,0,1,95,69.64,1.6,1.6,0,0,0,95.69,71a1.57,1.57,0,0,0,1.49.22,2.57,2.57,0,0,1,3,1,2.67,2.67,0,0,1,0,3.23A1.64,1.64,0,0,0,101,78a2.7,2.7,0,0,1,0,5.16,1.61,1.61,0,0,0-1.08,1.07,1.64,1.64,0,0,0,.26,1.5,2.66,2.66,0,0,1,0,3.22,2.57,2.57,0,0,1-3,1,1.54,1.54,0,0,0-1.49.22A1.6,1.6,0,0,0,95,91.48a2.65,2.65,0,0,1-1.83,2.63A2.85,2.85,0,0,1,92.35,94.25Zm-3.49-2.94h0A2.63,2.63,0,0,1,91,92.48a1.55,1.55,0,0,0,1.84.63A1.58,1.58,0,0,0,94,91.51a2.73,2.73,0,0,1,1.09-2.25,2.62,2.62,0,0,1,2.45-.36,1.56,1.56,0,0,0,1.85-.58,1.63,1.63,0,0,0,0-2,2.72,2.72,0,0,1-.42-2.47,2.67,2.67,0,0,1,1.77-1.75,1.64,1.64,0,0,0,0-3.14,2.69,2.69,0,0,1-1.77-1.75,2.75,2.75,0,0,1,.42-2.48,1.62,1.62,0,0,0,0-2,1.56,1.56,0,0,0-1.85-.58,2.63,2.63,0,0,1-2.45-.36A2.73,2.73,0,0,1,94,69.61,1.58,1.58,0,0,0,92.88,68a1.55,1.55,0,0,0-1.84.63,2.63,2.63,0,0,1-4.37,0A1.54,1.54,0,0,0,84.84,68a1.59,1.59,0,0,0-1.12,1.6,2.67,2.67,0,0,1-1.09,2.25,2.62,2.62,0,0,1-2.45.36,1.55,1.55,0,0,0-1.84.58,1.6,1.6,0,0,0,0,2,2.72,2.72,0,0,1,.42,2.48A2.67,2.67,0,0,1,77,79a1.64,1.64,0,0,0,0,3.14,2.71,2.71,0,0,1,1.35,4.22,1.61,1.61,0,0,0,0,2,1.55,1.55,0,0,0,1.84.58,2.62,2.62,0,0,1,2.45.36,2.67,2.67,0,0,1,1.09,2.25,1.59,1.59,0,0,0,1.12,1.6,1.54,1.54,0,0,0,1.83-.63A2.64,2.64,0,0,1,88.86,91.31Z"/><ellipse class="cls-21" cx="88.86" cy="80.56" rx="8.45" ry="8.58"/><path d="M88.86,89.66a9.11,9.11,0,1,1,9-9.1A9,9,0,0,1,88.86,89.66Zm0-17.16a8.06,8.06,0,1,0,7.93,8.06A8,8,0,0,0,88.86,72.5Z"/><path d="M86.87,83.88,83.4,80.36a.53.53,0,0,1,0-.74.52.52,0,0,1,.73,0l2.74,2.78,5.84-5.93a.52.52,0,0,1,.73,0,.53.53,0,0,1,0,.74Z"/><ellipse class="cls-24" cx="99.28" cy="158.72" rx="15.51" ry="15.74"/><path d="M99.28,175a16.27,16.27,0,1,1,16-16.27A16.17,16.17,0,0,1,99.28,175Zm0-31.49a15.22,15.22,0,1,0,15,15.22A15.12,15.12,0,0,0,99.28,143.5Z"/><path class="cls-25" d="M94.31,155.23h-1.8v-2.76h5V165H94.31Z"/><path class="cls-25" d="M100.66,157.68H104v-3.4h2.1v3.4h3.33v2.13H106.1v3.39H104v-3.39h-3.34Z"/><path class="cls-26" d="M152.07,72.75c0-.11,0-.21-.07-.32a15,15,0,0,0-3.5-6.57h0l-.23-.24-.22-.23c-.15-.16-.31-.31-.47-.46h0a14.64,14.64,0,0,0-6.48-3.55l-.31-.07C135.64,60,134,65,133.52,67.7A20.39,20.39,0,0,1,131,74.59a28.41,28.41,0,0,1-6.32,7.29l3.46,3.52,3.68,3.73A28.1,28.1,0,0,1,139,82.72a19.82,19.82,0,0,1,6.8-2.6C148.46,79.62,153.31,78,152.07,72.75Z"/><path d="M131.84,89.93l-8-8.1.47-.37a27.84,27.84,0,0,0,6.2-7.14A20,20,0,0,0,133,67.6c.38-2.07,1.27-4.82,3.36-6.2a5.56,5.56,0,0,1,4.54-.61l.3.07a15.08,15.08,0,0,1,6.35,3.34h0l.37.34.49.48.15.16.14.15a1.45,1.45,0,0,1,.17.18l.34.37h0a15.52,15.52,0,0,1,3.29,6.44c0,.1.05.2.07.3h0a5.79,5.79,0,0,1-.6,4.61c-1.36,2.12-4.07,3-6.11,3.41a19.3,19.3,0,0,0-6.62,2.52,27.83,27.83,0,0,0-7,6.29Zm-6.42-8,6.33,6.42a28.88,28.88,0,0,1,6.95-6.08,20.24,20.24,0,0,1,7-2.66c1.51-.29,4.21-1,5.43-3a4.74,4.74,0,0,0,.46-3.79h0c0-.11-.05-.22-.07-.33a14.48,14.48,0,0,0-3.37-6.33l-.14-.15h0l-.16-.16-.13-.14-.31-.3-.15-.14A13.92,13.92,0,0,0,141,61.89l-.31-.08a4.6,4.6,0,0,0-3.75.47c-1.87,1.24-2.62,4-2.9,5.51a20.89,20.89,0,0,1-2.62,7.08A29.49,29.49,0,0,1,125.42,81.93Z"/><path class="cls-27" d="M127.74,85.05l.36.36h0l-3.46-3.52h0Z"/><polygon points="128.1 86.13 127.38 85.42 123.85 81.84 124.68 81.2 125.01 81.51 128.84 85.4 128.1 86.13"/><path class="cls-27" d="M128.1,85.41l.57.58,3.11,3.16v0l-3.68-3.73Z"/><polygon points="131.85 89.94 131.41 89.52 127.36 85.4 128.11 84.66 132.47 89.08 131.85 89.94"/><path class="cls-23" d="M117,96.26,106.52,85.59l-.7,1.15a2.34,2.34,0,0,0,.33,2.85l8.69,8.82,9.24,9.38a2.15,2.15,0,0,0,2.61.36l1.32-.75Z"/><path d="M125.62,109a2.64,2.64,0,0,1-1.9-.8L105.78,90a2.86,2.86,0,0,1-.4-3.49l1-1.72,22.43,22.76-1.91,1.1A2.61,2.61,0,0,1,125.62,109Zm-19-22.53-.36.59a1.8,1.8,0,0,0,.25,2.2l17.94,18.2a1.64,1.64,0,0,0,2,.28l.73-.42Z"/><path class="cls-28" d="M133.61,96l-8-8.12-8-8.16a6.32,6.32,0,0,0-9.78.89L106.12,83a1.89,1.89,0,0,0,.4,2.62L117,96.26l11,11.14c.58.59,1.25,1.36,2.51.45l.13-.09,1.64-1.12A7.14,7.14,0,0,0,133.61,96Z"/><path d="M129.45,108.8a2.53,2.53,0,0,1-1.75-1l-.06-.06L106.15,86a2.37,2.37,0,0,1-.44-3.3l1.66-2.39a6.83,6.83,0,0,1,10.57-1L134,95.6a7.54,7.54,0,0,1,1.92,6,7.67,7.67,0,0,1-3.32,5.51l-1.64,1.11-.12.09A2.34,2.34,0,0,1,129.45,108.8ZM113.1,78.3a6,6,0,0,0-4.88,2.57l-1.7,2.43c-.45.57-.33,1.21.37,1.92l21.54,21.87c.62.62,1,.92,1.8.34l.13-.11,1.65-1.11a6.69,6.69,0,0,0,2.87-4.76,6.51,6.51,0,0,0-1.65-5.13l-16-16.27a5.86,5.86,0,0,0-2.34-1.46A5.43,5.43,0,0,0,113.1,78.3Z"/><path class="cls-28" d="M133.36,90.73l-1.57-1.6v0L128.67,86l-.57-.58-.36-.36-3.11-3.16h0L122.77,80a3.47,3.47,0,0,0-3.64-.85l-1.56.55,6,6.12-6-6.12,8,8.16h0l7.83,7.94.17.18.55-1.52A3.55,3.55,0,0,0,133.36,90.73Z"/><path d="M133.8,96.94l-.57-.62-.16-.17L116.62,79.46l2.35-.83a4,4,0,0,1,4.17,1l2.3,2.33h0l6.29,6.4h0l.44.41,1.57,1.6a4.1,4.1,0,0,1,.92,4.26Zm-8.17-9.82.35.35L133.4,95l.28-.76A3,3,0,0,0,133,91.1l-1.15-1.16-.44-.42-7.56-7.68h0l-1.45-1.48a3,3,0,0,0-3.11-.72l-.78.27L124,85.43h0Z"/><path class="cls-28" d="M125.61,87.84h0l8,8.12-.17-.18Z"/><path d="M133.24,96.33l-8.36-8.49.73-.74.37.37,7.82,7.94.18.19Z"/></g></g></svg>