<?xml version="1.0" encoding="utf-8"?>
<!-- Generator: Adobe Illustrator 24.0.1, SVG Export Plug-In . SVG Version: 6.00 Build 0)  -->
<svg version="1.1" id="레이어_1" xmlns="http://www.w3.org/2000/svg" xmlns:xlink="http://www.w3.org/1999/xlink" x="0px"
	 y="0px" viewBox="0 0 450 156.6" style="enable-background:new 0 0 450 156.6;" xml:space="preserve">
<style type="text/css">
	.st0{fill:#FFFFFF;}
	.st1{fill:#00D0AE;}
	.st2{fill:#ABE8D4;}
	.st3{fill:#FEFFFF;}
	.st4{fill:#FDFFFE;}
</style>
<g>
	<path class="st0" d="M43.3-168.2c-3.4,2.3-6.3,5-9.1,8c-2.9,3.1-5.4,6.5-7.6,10.1c-2,3.3-3.7,6.8-5,10.5c-0.9,2.5-1.8,5-2.3,7.7
		c-0.8,4.1-1.2,8.1-0.1,12.2c0.8,2.9,2.4,5.3,4.6,7.3c2.6,2.4,5.6,4.2,8.8,5.6c3.1,1.3,6.4,2.4,9.7,3.1c3.7,0.8,7.4,1.5,11.2,1.7
		c2,0.1,4.1,0.3,6.1,0.3c3.5-0.1,7-0.3,10.4-1c5-1,9.7-2.7,14.3-4.9c4.3-2,8.1-4.7,11.7-7.9c3.3-3,6-6.5,7.9-10.6
		c1.6-3.4,2.5-6.9,2.5-10.7c0-3.7-0.3-7.3-1.5-10.8c-1.2-3.4-3.2-6.3-5.5-8.9c-4-4.4-8.9-7.4-14.3-9.8c-1.7-0.7-3.5-1.3-5.3-1.8
		c-0.5-0.1-1-0.3-1.5-0.5c-0.1,0-0.2-0.1-0.3-0.2c-3.5,0.6-8.9,1.4-16.9,1.7c0,0-12.1-0.2-15.5-1.7c0,0-0.5-0.1-1.1-0.4
		c0,0-0.1,0-0.1,0C44-168.6,43.6-168.4,43.3-168.2z M55.4-142.8c0-2.4,0.3-4.8,0.8-7.1c0.3-1.5,0.6-3.1,1-4.6c0.2-0.8,0.5-1.4,1-2.1
		c0.8-1.1,2-1.5,3.2-0.9c1,0.5,1.6,1.4,1.7,2.5c0.1,1.3-0.2,2.6-0.4,4c-0.4,2.2-0.7,4.4-0.9,6.6c-0.1,1.2-0.2,2.4-0.4,3.6
		c-0.2,0.9-0.6,1.8-1.4,2.4c-1.6,1.2-3.7,0.5-4.3-1.5C55.4-140.9,55.4-141.9,55.4-142.8z M54.3-117.6c2.7-0.4,5.4-1.1,7.9-2.2
		c2.6-1.2,5-2.6,7-4.6c1.8-1.7,3.3-3.6,4.2-5.9c0.2-0.4,0.3-0.9,0.5-1.3c0.2-0.4,0-0.7-0.5-0.6c-0.6,0.2-1.1,0.3-1.7,0.6
		c-0.9,0.4-1.7,0.2-2.5-0.4c-0.7-0.6-0.9-1.5-0.7-2.4c0.1-0.5,0.4-0.9,0.9-1.2c2-1.2,4.1-1.7,6.4-1.3c1.8,0.3,3.4,1.1,4.7,2.4
		c1.2,1.2,2,2.7,2.4,4.4c0.4,1.8,0.4,3.5,0.1,5.3c-0.2,1-1.5,2-2.5,1.8c-1.3-0.2-2.3-1.5-2.1-2.6c0-0.6,0.2-1.2,0.2-1.9
		c0-0.5-0.1-1-0.2-1.5c0-0.2-0.1-0.3-0.3-0.3c-0.2,0-0.3,0.1-0.3,0.3c-0.2,0.5-0.4,1-0.7,1.5c-1,2-2.3,3.8-3.9,5.4
		c-1,1.1-2.1,2.1-3.3,3c-1.4,1-2.8,1.9-4.4,2.7c-1.4,0.7-2.8,1.3-4.2,1.8c-1.7,0.6-3.5,1.1-5.3,1.3c-0.8,0.1-1.5,0.2-2.3,0.3
		c-2.1,0.2-4.1,0.2-6.2,0c-2-0.1-3.9-0.5-5.8-1.1c-1.5-0.5-2.9-1.1-4.3-1.8c-1.6-0.9-3.1-2-4.4-3.2c-2.4-2.4-4-5.2-4.5-8.6
		c-0.1-0.6-0.2-1.2,0-1.8c0.3-1,1.3-1.8,2.2-1.7c1.2,0.2,2.2,0.8,2.3,2.2c0.3,3.3,1.9,5.8,4.5,7.8c2.1,1.6,4.5,2.6,7,3.2
		C47.9-117.2,51.1-117.2,54.3-117.6z M45.6-158.1c1.5-0.3,3,1.4,2.6,3c-0.3,1.5-0.8,3-1.1,4.6c-0.3,1.7-0.6,3.3-0.7,5
		c-0.1,1.5-0.3,3.1-0.5,4.6c-0.2,1-0.7,1.9-1.5,2.5c-0.4,0.4-1,0.6-1.5,0.5c-1.1,0-2.2-0.7-2.6-1.7c-0.4-1.1-0.5-2.3-0.4-3.5
		c0.1-1.1,0.1-2.1,0.2-3.2c0.3-2.9,0.9-5.8,2.2-8.5c0.4-0.9,1-1.8,1.8-2.5C44.5-157.7,45.1-158,45.6-158.1z"/>
	<path class="st0" d="M78.2-168.5c0.5,0.2,1,0.3,1.5,0.5c1.8,0.5,3.6,1,5.3,1.8c5.4,2.3,10.3,5.3,14.3,9.8c2.4,2.6,4.4,5.5,5.5,8.9
		c1.2,3.5,1.5,7.1,1.5,10.8c0,3.8-1,7.3-2.5,10.7c-1.9,4.1-4.5,7.6-7.9,10.6c-3.5,3.2-7.4,5.8-11.7,7.9c-4.6,2.2-9.3,3.8-14.3,4.9
		c-3.4,0.7-6.9,0.9-10.4,1c-2,0.1-4-0.1-6.1-0.3c-3.8-0.2-7.5-0.9-11.2-1.7c-3.3-0.7-6.5-1.8-9.7-3.1c-3.3-1.4-6.2-3.2-8.8-5.6
		c-2.2-2-3.8-4.4-4.6-7.3c-1.1-4.1-0.7-8.2,0.1-12.2c0.5-2.6,1.4-5.2,2.3-7.7c1.3-3.7,3-7.1,5-10.5c2.2-3.6,4.7-7,7.6-10.1
		c2.8-3,5.7-5.7,9.1-8c0.3-0.2,0.8-0.4,0.9-0.9c0,0,0,0,0,0c-1.2,0.9-2.5,1.7-3.6,2.6c-1.7,1.3-3.3,2.8-4.8,4.3
		c-1.1,1.1-2.2,2.2-3.2,3.4c-1.8,2.1-3.5,4.4-5,6.7c-1,1.6-2,3.2-2.8,4.8c-1.2,2.4-2.4,4.8-3.3,7.3c-0.9,2.4-1.7,4.8-2.2,7.4
		c-0.3,1.5-0.6,3-0.7,4.6c-0.2,2.2-0.3,4.4,0.2,6.6c0.4,2,1,3.8,2,5.5c1.8,2.9,4.4,5,7.2,6.8c1.3,0.8,2.6,1.5,4,2.1
		c2.3,1,4.7,1.9,7.1,2.6c1.9,0.6,3.8,1,5.7,1.4c1.4,0.3,2.7,0.5,4.1,0.7c1.6,0.3,3.3,0.4,4.9,0.5c2,0.1,3.9,0.3,5.9,0.3
		c1.1,0,2.2-0.1,3.3-0.2c0,0,0.1,0,0.1,0c1.5-0.1,2.9-0.3,4.4-0.4c1.5-0.1,2.9-0.5,4.3-0.8c1.8-0.4,3.6-1,5.4-1.6
		c1.6-0.6,3.2-1.2,4.8-1.8c1.4-0.6,2.8-1.3,4.1-1.9c1.7-0.9,3.3-1.9,4.9-2.9c2-1.4,3.9-2.9,5.7-4.5c2-1.8,3.7-3.9,5.2-6.1
		c1.2-1.9,2.3-3.9,3.1-6c0.7-1.8,1.2-3.6,1.5-5.5c0.3-2.1,0.3-4.1,0.2-6.2c-0.1-1.8-0.4-3.6-0.7-5.4c-0.7-3.2-2.1-6.1-4-8.8
		c-1.5-2.1-3.3-4-5.2-5.7c-1.9-1.7-4.1-3.1-6.3-4.4c-1.5-0.9-3.1-1.7-4.8-2.4c-1-0.4-2-0.8-3-1.1c-1.5-0.5-3-0.9-4.4-1.3
		c-0.1,0-0.2,0-0.2,0C77.9-168.6,78-168.5,78.2-168.5z"/>
	<path class="st0" d="M81.3-186.7c0-1.6-0.5-2.2-2.1-2.5c-2.3-0.4-4.4,0.4-6.4,1.4c-2.8,1.4-5.2,3.3-7.2,5.6
		c-0.4,0.4-0.6,0.8-0.9,1.3c-0.2,0.3-0.3,0.6-0.6,0.7c3.5,0.3,8.3,0.8,13.8,1.7c0.2-0.9,0.9-1.4,1.3-2.2
		C80.3-182.6,81.4-184.5,81.3-186.7z"/>
	<path class="st0" d="M64.7-181c0.3-0.4,0.6-0.9,0.9-1.3c2.1-2.3,4.5-4.2,7.2-5.6c2-1,4.1-1.8,6.4-1.4c1.6,0.3,2.1,0.9,2.1,2.5
		c0,2.3-1,4.1-2.2,6c-0.4,0.7-1.1,1.3-1.3,2.2c0,0,0,0,0,0c0.2-0.3,0.4-0.5,0.5-0.8c1.2-1.6,2.2-3.3,2.8-5.2
		c0.3-1.1,0.5-2.2,0.2-3.3c-0.2-0.8-0.7-1.3-1.5-1.5c-0.7-0.2-1.4-0.3-2-0.2c-1.8,0.1-3.5,0.6-5,1.4c-2.5,1.3-4.8,2.9-6.7,5
		c-0.8,0.9-1.6,1.8-2.1,2.9c0,0,0,0,0,0C64.4-180.4,64.5-180.7,64.7-181z"/>
	<path class="st0" d="M58.7-183.1c-0.1-1,0-2-0.3-3c-0.2-0.8-0.4-0.8-1.1-0.4c-1.1,0.7-2,1.7-2.7,2.8c-0.7,0.9-1.2,1.9-1.7,2.9
		c0,0.1-0.1,0.1-0.1,0.1c1.5-0.1,3.2-0.1,5,0c0,0,0.3,0,1,0C58.5-181.4,58.7-182.3,58.7-183.1z"/>
	<path class="st0" d="M52.8-180.8c0.5-1,1-2,1.7-2.9c0.8-1.1,1.6-2.1,2.7-2.8c0.7-0.4,0.8-0.4,1.1,0.4c0.3,1,0.3,2,0.3,3
		c0.1,0.8-0.1,1.7,0.1,2.5c0,0,0,0,0.1,0c0.1-1.5,0.1-2.9,0-4.4c0-0.6-0.2-1.2-0.5-1.8c-0.1-0.3-0.2-0.3-0.5-0.2
		c-0.5,0.2-1,0.4-1.4,0.8c-1.7,1.5-2.9,3.4-3.8,5.4c0,0,0,0.1-0.1,0.1c0.1,0,0.1,0,0.2,0C52.8-180.7,52.8-180.8,52.8-180.8z"/>
	<path class="st1" d="M37.7-121.2c-2.5-2-4.2-4.5-4.5-7.8c-0.1-1.4-1-2-2.3-2.2c-0.9-0.1-1.9,0.7-2.2,1.7c-0.2,0.6-0.1,1.2,0,1.8
		c0.5,3.4,2,6.2,4.5,8.6c1.3,1.3,2.8,2.4,4.4,3.2c1.4,0.8,2.8,1.4,4.3,1.8c1.9,0.6,3.8,1,5.8,1.1c2.1,0.1,4.1,0.2,6.2,0
		c0.8-0.1,1.5-0.2,2.3-0.3c1.8-0.2,3.6-0.8,5.3-1.3c1.5-0.5,2.9-1.1,4.2-1.8c1.5-0.8,3-1.7,4.4-2.7c1.2-0.9,2.3-1.9,3.3-3
		c1.6-1.6,2.9-3.4,3.9-5.4c0.2-0.5,0.4-1,0.7-1.5c0.1-0.2,0.1-0.3,0.3-0.3c0.2,0,0.3,0.2,0.3,0.3c0.1,0.5,0.2,1,0.2,1.5
		c0,0.6-0.2,1.3-0.2,1.9c-0.2,1.1,0.8,2.4,2.1,2.6c0.9,0.1,2.3-0.8,2.5-1.8c0.3-1.8,0.4-3.5-0.1-5.3c-0.4-1.7-1.2-3.2-2.4-4.4
		c-1.3-1.3-2.8-2.1-4.7-2.4c-2.3-0.4-4.4,0.1-6.4,1.3c-0.5,0.3-0.7,0.7-0.9,1.2c-0.2,0.9,0,1.8,0.7,2.4c0.7,0.6,1.5,0.8,2.5,0.4
		c0.5-0.2,1.1-0.4,1.7-0.6c0.4-0.1,0.7,0.2,0.5,0.6c-0.3,0.4-0.3,0.9-0.5,1.3c-1,2.3-2.4,4.2-4.2,5.9c-2.1,1.9-4.5,3.4-7,4.6
		c-2.5,1.1-5.2,1.9-7.9,2.2c-3.2,0.4-6.4,0.3-9.6-0.5C42.2-118.7,39.8-119.6,37.7-121.2z"/>
	<path class="st1" d="M40.1-146.2c-0.1,1.1-0.2,2.1-0.2,3.2c-0.1,1.2,0,2.3,0.4,3.5c0.4,1,1.5,1.7,2.6,1.7c0.6,0,1.1-0.2,1.5-0.5
		c0.8-0.6,1.3-1.5,1.5-2.5c0.2-1.5,0.4-3.1,0.5-4.6c0.2-1.7,0.4-3.4,0.7-5c0.3-1.5,0.8-3,1.1-4.6c0.3-1.6-1.1-3.3-2.6-3
		c-0.6,0.1-1.1,0.4-1.5,0.8c-0.8,0.7-1.3,1.6-1.8,2.5C41.1-152.1,40.5-149.2,40.1-146.2z"/>
	<path class="st1" d="M60-138.5c0.8-0.6,1.2-1.4,1.4-2.4c0.3-1.2,0.3-2.4,0.4-3.6c0.2-2.2,0.5-4.4,0.9-6.6c0.2-1.3,0.5-2.6,0.4-4
		c-0.1-1.2-0.6-2-1.7-2.5c-1.1-0.6-2.4-0.1-3.2,0.9c-0.5,0.6-0.8,1.3-1,2.1c-0.4,1.5-0.7,3-1,4.6c-0.5,2.4-0.8,4.7-0.8,7.1
		c0,1,0,1.9,0.3,2.9C56.3-138,58.3-137.3,60-138.5z"/>
	<path class="st2" d="M50.6-186.9c0.3-0.3,0.6-0.7,0.8-1c-0.9,1-1.7,2.1-2.4,3.5c0.2-0.3,0.4-0.7,0.6-1
		C50-186,50.4-186.4,50.6-186.9z"/>
	<path class="st1" d="M52.6-180.7C52.6-180.7,52.6-180.7,52.6-180.7c1-2.2,2.2-4,3.9-5.5c0.4-0.4,0.9-0.6,1.4-0.8
		c0.3-0.1,0.4,0,0.5,0.2c0.2,0.6,0.4,1.2,0.5,1.8c0.1,1.5,0.1,2.9,0,4.4c1,0,2.8,0.1,5.2,0.3c0.6-1.1,1.3-2,2.1-2.9
		c1.9-2.1,4.2-3.7,6.7-5c1.6-0.8,3.3-1.3,5-1.4c0.7-0.1,1.4,0.1,2,0.2c0.8,0.2,1.2,0.7,1.5,1.5c0.4,1.1,0.1,2.2-0.2,3.3
		c-0.6,1.9-1.6,3.6-2.8,5.2c-0.2,0.3-0.4,0.5-0.5,0.8c0.8,0.1,1.6,0.3,2.5,0.4c0,0,1,0.2,1.6,0.3c0,0,0.5,0.3,0.9-0.5
		c0,0,0.4-0.8,1.7-1.7c0-0.1,0.1-0.2,0.1-0.2c0,0,0,0,0,0c0.1-0.1,0.1-0.2,0.2-0.3c0-0.1,0.1-0.1,0.1-0.2c0.3-0.9,0.6-1.7,1-2.6
		c0.1-0.3,0.1-0.7,0.2-1c0.3-1.5,0.3-2.9,0-4.4c-0.1-0.7-0.5-1.2-0.7-1.9c-0.2-0.1-0.2-0.3-0.3-0.5c-0.5-0.7-1.1-1.3-1.8-1.9
		c-0.1,0-0.2,0-0.3-0.2c-0.5-0.1-1-0.5-1.5-0.7c-1.3-0.4-2.7-0.5-4-0.5c-1.1,0.1-2.3,0.3-3.4,0.5c-0.8,0.4-1.7,0.6-2.6,1
		c-1,0.5-2,1.1-3,1.6c-0.1,0.1-0.2,0.2-0.3,0.2c-0.1,0.2-0.3,0.3-0.5,0.3c-0.1,0.2-0.3,0.2-0.5,0.3c-0.4,0.4-0.9,0.7-1.3,1.1
		c-0.8,0.6-1.6,1.3-2.3,2c-0.1,0.2-0.4,0.4-0.4,0c-0.1-0.6-0.4-1.2-0.6-1.8c-0.5-0.7-1-1.4-1.6-1.9c-0.2-0.1-0.4-0.1-0.5-0.3
		c-0.2-0.1-0.5-0.2-0.6-0.3c-1.1-0.3-2.2-0.3-3.3,0c0,0,0,0,0,0c0,0-2.3,0.9-4.6,3.3c0,0.1-0.1,0.1-0.2,0.2
		c-0.1,0.1-0.2,0.2-0.3,0.3c-0.2,0.4-0.5,0.7-0.8,1c-0.3,0.5-0.6,1-1,1.4c-0.2,0.3-0.4,0.7-0.6,1c0,0.1-0.1,0.1-0.1,0.2
		c-0.2,0.5-0.4,1-0.7,1.6c-0.3,0.8-0.5,1.8-0.7,2.7c1.1-0.3,2.3-0.5,3.7-0.6C51.7-180.6,52.1-180.6,52.6-180.7z"/>
	<g>
		<polygon class="st2" points="91.8,-182 91.8,-182 91.8,-182 		"/>
		<path class="st2" d="M49-184.4C49-184.4,49-184.3,49-184.4C49-184.4,49-184.4,49-184.4C49-184.4,49-184.4,49-184.4z"/>
		<path class="st2" d="M93.2-177.2c-1-0.2-0.5-0.7-0.5-0.7c1-1.5,0.5-2.4,0.5-2.4c-0.8-2.1-3.3-1.8-3.3-1.8
			c-2.6,0.6-4.3,1.4-5.4,2.2c-1.3,0.9-1.7,1.7-1.7,1.7c-0.5,0.8-0.9,0.5-0.9,0.5c-0.5-0.2-1.6-0.3-1.6-0.3c-0.8-0.2-1.7-0.3-2.5-0.4
			c0,0,0,0,0,0c-5.5-0.9-10.3-1.4-13.8-1.7c0,0,0,0,0,0c-2.4-0.2-4.2-0.3-5.2-0.3c0,0,0,0-0.1,0c-0.6,0-1,0-1,0
			c-1.9-0.1-3.5-0.1-5,0c-0.1,0-0.1,0-0.2,0c-0.4,0-0.8,0.1-1.2,0.1c-1.4,0.1-2.7,0.3-3.7,0.6c0,0,0,0,0,0c-6.2,1.5-6.9,4.7-6.9,4.7
			c-0.4,1.1-0.4,2-0.1,2.7c0.6,1.8,2.4,2.9,3.7,3.5c0,0,0,0,0,0c0,0,0,0,0,0c0,0,0.1,0,0.1,0c0.6,0.3,1.1,0.4,1.1,0.4
			c3.5,1.5,15.5,1.7,15.5,1.7c8-0.4,13.5-1.1,16.9-1.7c0.1,0,0.2,0,0.2,0c3.5-0.7,4.9-1.2,4.9-1.2c1.9-0.8,3.3-0.5,3.3-0.5
			c0.5,0.2,2.1,0.4,2.1,0.4c0.1,0,0.1,0,0.2,0c0.1,0,0.2,0,0.2,0c0,0,0,0,0,0c0,0,0,0,0.1,0c0,0,0,0,0,0c0,0,0,0,0,0
			c6.3-0.2,7-3.3,7-3.3C97.1-176.5,93.2-177.2,93.2-177.2z M95.5-176.1C95.5-176.1,95.5-176.1,95.5-176.1L95.5-176.1
			C95.5-176.1,95.5-176.1,95.5-176.1z M96.1-174.8L96.1-174.8C96.1-174.8,96.1-174.8,96.1-174.8C96.1-174.8,96.1-174.8,96.1-174.8z"
			/>
		<path class="st2" d="M48.3-182.7c0.2-0.5,0.4-1.1,0.7-1.6C48.7-183.8,48.5-183.3,48.3-182.7z"/>
		<polygon class="st2" points="56.5,-191.7 56.5,-191.7 56.5,-191.7 		"/>
		<path class="st2" d="M51.9-188.5c-0.1,0.1-0.1,0.1-0.2,0.2C51.8-188.3,51.9-188.4,51.9-188.5z"/>
	</g>
	<g>
		<polygon class="st1" points="93.7,-171 93.7,-171 93.7,-171 		"/>
		<polygon class="st1" points="96,-173 96,-173 96,-173 		"/>
		<path class="st1" d="M126.6-141.3c-0.2-1-0.5-1.9-0.7-2.8c-0.2-0.2-0.3-0.5-0.3-0.8c-0.5-0.8-1.1-1.6-1.6-2.4
			c-0.5-0.5-1.1-1.1-1.6-1.6c-0.3-0.1-0.5-0.3-0.6-0.5c-0.1,0-0.1-0.1-0.2-0.1c-0.1,0-0.2,0-0.3-0.2c-0.2,0-0.4-0.1-0.5-0.3
			c-0.5-0.3-1.1-0.5-1.6-0.8c-0.3-0.1-0.6-0.1-0.8-0.3c-0.4-0.1-0.8-0.1-1.1-0.3c-0.2,0-0.4,0-0.6-0.1c-1.4-0.3-2.9-0.1-4.3,0.2
			c-1.1,0.3-2.1,0.8-3.1,1.3c-0.5-1.3-1-2.4-1.6-3.6c-0.2-0.4-0.4-0.7-0.6-1.1c0,0,0,0,0,0c0,0,0-0.1-0.1-0.1c0,0,0,0,0-0.1
			c0,0,0,0,0,0c0,0,0,0,0-0.1c0,0,0-0.1-0.1-0.1c0,0,0,0,0,0c0,0,0,0,0,0l0,0c0,0,0,0,0-0.1c0-0.1-0.1-0.1-0.1-0.2c0,0,0,0,0,0
			c0,0,0-0.1-0.1-0.1c0,0,0-0.1-0.1-0.1c0,0-0.1-0.1-0.1-0.1c0,0,0,0,0,0c0,0,0-0.1,0-0.1l0,0c-0.1-0.1-0.1-0.2-0.2-0.3
			c0,0,0,0,0-0.1c0,0-0.5-0.7-0.6-0.8c0,0,0,0,0,0c-0.2-0.3-0.4-0.6-0.7-0.9c0,0,0,0,0,0c-0.2-0.3-0.4-0.5-0.6-0.8c0,0,0,0,0-0.1
			c-0.3-0.4-0.6-0.7-0.9-1c0,0-0.1-0.1-0.1-0.1c0,0-0.1-0.1-0.1-0.1c-0.1-0.1-0.1-0.1-0.2-0.2c-0.8-0.8-1.6-1.6-2.3-2.3
			c-0.4-0.3-0.7-0.6-1.1-1c-0.3-0.3-0.7-0.5-1-0.8c0,0-0.1-0.1-0.1-0.1c0,0-0.1,0-0.1-0.1c-0.1,0-0.1-0.1-0.2-0.1
			c-0.2-0.1-0.3-0.3-0.5-0.4c-0.1-0.1-0.2-0.1-0.3-0.2c-0.1-0.1-0.2-0.1-0.3-0.2c-0.1-0.1-0.1-0.1-0.2-0.2c-0.1-0.1-0.2-0.2-0.4-0.3
			c-0.2-0.1-0.3-0.2-0.5-0.3c-0.3-0.2-0.6-0.4-0.8-0.6c-0.2-0.1-0.4-0.3-0.6-0.4c-0.5-0.3-1-0.6-1.4-0.9c-0.1-0.1-0.3-0.1-0.4-0.2
			c-0.1,0-0.1-0.1-0.2-0.1c-0.1,0-0.1-0.1-0.2-0.1c-0.3-0.2-0.5-0.3-0.8-0.4c-0.1-0.1-0.2-0.1-0.3-0.2c-0.2-0.1-0.3-0.2-0.5-0.2
			c-0.8-0.4-1.5-0.7-1.9-0.9c-0.1,0-0.2,0-0.3,0c-0.1,0-0.1,0-0.2,0c0,0-1.7-0.2-2.1-0.4c0,0-1.4-0.3-3.3,0.5c0,0-1.4,0.6-4.9,1.2
			c1.5,0.4,3,0.8,4.4,1.3c1,0.3,2,0.7,3,1.1c1.6,0.7,3.2,1.5,4.8,2.4c2.2,1.3,4.3,2.7,6.3,4.4c2,1.7,3.7,3.6,5.2,5.7
			c1.9,2.7,3.4,5.6,4,8.8c0.4,1.8,0.6,3.6,0.7,5.4c0.2,2.1,0.1,4.2-0.2,6.2c-0.3,1.9-0.8,3.7-1.5,5.5c-0.8,2.1-1.9,4.1-3.1,6
			c-1.5,2.3-3.2,4.3-5.2,6.1c-1.8,1.7-3.7,3.2-5.7,4.5c-1.6,1.1-3.2,2.1-4.9,2.9c-1.4,0.7-2.7,1.3-4.1,1.9c-1.6,0.7-3.2,1.3-4.8,1.8
			c-1.8,0.6-3.6,1.2-5.4,1.6c-1.4,0.3-2.8,0.7-4.3,0.8c-1.5,0.1-2.9,0.3-4.4,0.4c0,0-0.1,0-0.1,0c-1.1,0.1-2.2,0.1-3.3,0.2
			c-2,0.1-3.9-0.1-5.9-0.3c-1.6-0.1-3.3-0.2-4.9-0.5c-1.4-0.2-2.7-0.5-4.1-0.7c-1.9-0.4-3.9-0.8-5.7-1.4c-2.4-0.7-4.8-1.6-7.1-2.6
			c-1.4-0.6-2.8-1.3-4-2.1c-2.8-1.8-5.4-3.9-7.2-6.8c-1.1-1.7-1.6-3.5-2-5.5c-0.4-2.2-0.4-4.4-0.2-6.6c0.1-1.5,0.4-3,0.7-4.6
			c0.5-2.5,1.4-5,2.2-7.4c0.9-2.5,2.1-4.9,3.3-7.3c0.9-1.6,1.8-3.2,2.8-4.8c1.5-2.3,3.2-4.6,5-6.7c1-1.2,2.1-2.3,3.2-3.4
			c1.5-1.6,3.1-3,4.8-4.3c1.2-0.9,2.4-1.7,3.6-2.6c0,0,0,0,0,0c0,0,0,0,0,0c0,0,0,0,0,0c-1.2-0.6-3.1-1.7-3.7-3.5c0,0,0,0,0,0
			c-1.1,0.9-2.2,1.8-3.3,2.6c-0.1,0.1-0.1,0.1-0.2,0.2c-2.9,2.4-5.6,5-8,7.9c-2.7,3.2-5.1,6.5-7.2,10.2c-1.2,2-2.3,4.1-3.2,6.3
			c-0.4,1.1-1,2.3-1.4,3.4c-0.2,0.5-0.5,0.6-1,0.6c-0.7,0-1.3-0.1-2-0.1c-1.8-0.1-3.6-0.7-5.2-1.4c-2.2-1-3.1-3-3-5.2
			c0.1-1.9,0.8-3.7,1.6-5.4c0.8-1.5,1.8-2.9,3-4c0.3-0.2,0.5-0.3,0.8-0.1c0.8,0.6,1.6,0.6,2.5,0.5c0.6-0.1,1.2-0.3,1.8-0.6
			c1.6-0.8,2.5-2,2.5-3.9c0-1.4-1-2.6-2.6-2.9c-0.9-0.2-1.8,0.1-2.8,0.3c-1.6,0.4-3.1,1.1-4.4,2c-2.4,1.8-4.2,4.2-5.5,6.8
			c-0.9,1.7-1.5,3.5-1.9,5.4c-0.1,1.3-0.1,2.6,0,3.8c0.1,0.5,0.2,1.1,0.3,1.6c0.2,0.4,0.4,0.8,0.5,1.3c0.1,0,0.1,0.1,0.1,0.2
			c0.1,0.2,0.2,0.4,0.3,0.6c0.2,0.1,0.2,0.3,0.3,0.5c0.2,0.1,0.3,0.3,0.3,0.5c0.3,0.3,0.6,0.6,0.8,1c0.3,0.3,0.6,0.5,1,0.8
			c0.1,0,0.1,0.1,0.2,0.2c0.2,0.1,0.3,0.2,0.5,0.3c0.2,0.1,0.4,0.2,0.5,0.3c0.1,0,0.2,0,0.3,0.2c0.2,0.1,0.5,0.2,0.6,0.3
			c0.1,0,0.2,0.1,0.3,0.2c0.1,0,0.2,0,0.3,0.2c0.3,0.1,0.6,0.1,0.8,0.3c2.2,0.8,4.6,1.1,7,1c-0.4,1.5-0.7,2.8-1,4.2
			c0,0.2,0,0.3,0,0.5c-0.5,3.3-0.9,6.7-0.5,10c0.1,1.2,0.3,2.4,0.7,3.6c0.3,1,0.6,2,1,3c0.1,0.1,0.2,0.2,0.2,0.3
			c0.2,0.2,0.3,0.5,0.3,0.8c0.1,0,0.1,0.1,0.1,0.2c0.3,0.3,0.5,0.7,0.6,1.1c0.2,0.2,0.4,0.5,0.5,0.8c0.1,0,0.1,0.1,0.1,0.2
			c0.5,0.5,0.9,1,1.3,1.6c0.9,0.8,1.7,1.7,2.6,2.5c0.2,0.1,0.3,0.2,0.5,0.4c0.1,0.1,0.2,0.2,0.3,0.3c0.3,0.1,0.6,0.3,0.8,0.6
			c0.3,0.2,0.7,0.4,0.9,0.7c0.5,0.3,1,0.6,1.5,0.9c0.4,0.3,0.9,0.5,1.3,0.8c0.5,0.3,1.1,0.5,1.6,0.8c1,0.5,2,1,3,1.4
			c0.2,0,0.3,0,0.5,0.2c0,0,0,0,0,0c0.1,0.1,0.1,0.2,0,0.3c-0.8,0.4-1.6,0.9-2.4,1.3c-0.3,0.3-0.7,0.6-1.1,0.8
			c-0.8,0.8-1.6,1.6-2.4,2.4c-0.1,0.3-0.2,0.5-0.5,0.6c-0.1,0.3-0.3,0.5-0.5,0.6c-0.1,0.3-0.4,0.6-0.6,0.8c-0.3,0.4-0.3,0.4-0.8,0
			c-0.1-0.1-0.1-0.2-0.2-0.2c-0.6-0.4-1.2-0.8-1.8-1.3c-0.2,0-0.4-0.1-0.5-0.3c-0.4-0.2-0.7-0.3-0.9-0.7c-0.6-0.3-1.2-0.7-1.8-1.1
			c-0.7-0.2-1.2-0.8-1.9-1c-1.1-0.4-2.4,0.1-3,1.2c-0.4,0.9-0.3,1.7,0.1,2.6c0.4,0.3,0.7,0.6,1.1,1c0.2,0.1,0.4,0.1,0.5,0.3
			c0.2,0.1,0.4,0.2,0.6,0.3c0.6,0.3,1.2,0.7,1.8,1.1c0.4,0.2,0.8,0.4,1.1,0.8c0.1,0,0.2,0.1,0.3,0.2c0.7,0.4,1.2,0.9,1.8,1.4
			c0.5,0.4,0.8,0.8,1.1,1.3c0.1,0,0.1,0.1,0.2,0.2c0.3,0.3,0.7,0.5,1.1,0.7c1,0.4,2,0.4,2.9-0.3c0.3-0.3,0.5-0.6,0.8-1
			c0.1-0.2,0.2-0.5,0.5-0.6c0.2-0.4,0.3-0.7,0.6-1c0.3-0.6,0.7-1.1,1.1-1.6c0.4-0.7,1-1.4,1.6-1.9c0.4-0.5,1-1,1.6-1.3
			c0.1-0.1,0.2-0.2,0.3-0.2c0.2-0.3,0.5-0.4,0.8-0.5c0.1-0.1,0.2-0.1,0.3-0.1c0.1-0.1,0.2-0.2,0.3-0.2c0.4-0.3,0.8-0.4,1.3-0.5
			c0.7-0.4,1.4-0.5,2.2-0.7c1.7-0.5,3.5-0.7,5.3-0.2c2.8,0.7,5.7,1.1,8.6,1.4c1.6,0.2,3.3,0.3,4.9,0.4c2.6,0.2,5.2,0.1,7.8-0.1
			c1.6-0.1,3.2-0.4,4.9-0.5c0.5-0.2,1.1-0.2,1.6-0.3c1.1-0.2,2.1-0.5,3.2-0.7c0.7-0.2,1.4-0.5,2.2-0.6c0.5-0.2,1-0.4,1.6-0.5
			c0.5-0.4,1.2-0.4,1.8-0.6c0.2-0.2,0.4-0.1,0.6-0.2c0.8-0.5,0.9-0.5,1.3,0.2c0.3,0.3,0.6,0.7,0.8,1.1c0.5,0.5,0.9,1,1.3,1.6
			c0.2,0,0.3,0.2,0.3,0.3c0.1,0,0.1,0.1,0.2,0.2c0.1,0.1,0.2,0.2,0.3,0.3c0.5,0.4,1,0.8,1.4,1.3c0.9,0.5,1.8,1.1,2.7,1.6
			c0.2,0.1,0.4,0.1,0.6,0.2c2.3,0.9,4.7,1.4,7.2,1c0.4-0.1,0.9-0.1,1.3-0.2c0.6-0.3,1.3-0.4,1.9-0.6c0.2-0.2,0.4-0.2,0.7-0.3
			c0.3-0.2,0.7-0.4,1.1-0.5c0.1-0.3,0.4-0.3,0.6-0.3c0.1-0.1,0.2-0.1,0.3-0.1c0.1-0.1,0.2-0.2,0.3-0.2c0.1-0.1,0.2-0.2,0.3-0.2
			c0.1-0.2,0.3-0.2,0.4-0.3c0.6-0.3,0.5-0.3,0.7,0.3c0.5,1.6,0.7,3.1,1,4.7c0.5,1.2,1.5,1.8,2.8,1.7c0.3-0.2,0.5-0.3,0.8-0.3
			c0.2-0.3,0.5-0.5,0.8-0.7c0.3-0.7,0.5-1.3,0.4-2.1c-0.5-2.8-1.2-5.6-1.9-8.4c-0.1-0.5-0.3-1-0.6-1.4c-0.7-0.9-1.6-1.1-2.6-1
			c-0.1,0.2-0.3,0.1-0.5,0.2c-0.1,0.2-0.3,0.3-0.5,0.3c0,0.1-0.1,0.1-0.2,0.2c-0.2,0.2-0.4,0.4-0.6,0.5c0,0.1-0.1,0.1-0.2,0.2
			c-0.2,0.3-0.5,0.5-0.8,0.6c-0.5,0.5-1.1,0.9-1.8,1.1c-0.1,0.1-0.2,0.2-0.3,0.3c-1,0.5-2.1,1-3.2,1.4c-1.9,0.6-3.8,0.5-5.6-0.4
			c-0.6-0.1-1.1-0.5-1.6-0.8c-0.4-0.1-0.7-0.3-1-0.6c-1.1-0.7-2-1.5-2.7-2.6c-0.2-0.1-0.3-0.3-0.1-0.4c0.2-0.1,0.4-0.2,0.5-0.3
			c0.1-0.2,0.3-0.3,0.5-0.3c0.2-0.1,0.4-0.3,0.7-0.3c0.3-0.2,0.6-0.4,1-0.5c0.5-0.4,1.1-0.7,1.8-1c0.1-0.1,0.2-0.1,0.3-0.2
			c0-0.1,0.1-0.1,0.2-0.1c0.1-0.1,0.2-0.1,0.3-0.2c0.2-0.3,0.5-0.4,0.8-0.5c0.1-0.2,0.3-0.3,0.5-0.3c0.1-0.1,0.2-0.2,0.3-0.2
			c0-0.1,0.1-0.1,0.2-0.1c0.1-0.1,0.2-0.2,0.3-0.2c0.1-0.2,0.3-0.3,0.5-0.3c0.1-0.2,0.3-0.3,0.5-0.3c0-0.1,0.1-0.1,0.2-0.2
			c0.4-0.4,0.8-0.7,1.3-0.9c0.1-0.1,0.2-0.2,0.3-0.2c0-0.1,0.1-0.1,0.2-0.2c0.1-0.2,0.3-0.3,0.5-0.3c0-0.1,0.1-0.1,0.2-0.2
			c0.3-0.2,0.4-0.6,0.8-0.6c0-0.1,0.1-0.1,0.2-0.2c0.2-0.2,0.3-0.4,0.6-0.5c0-0.1,0.1-0.1,0.2-0.2c0.5-0.5,0.9-0.9,1.5-1.3
			c0.8-0.8,1.6-1.6,2.4-2.4c0.1-0.1,0.2-0.2,0.3-0.3c0-0.1,0.1-0.1,0.2-0.2c0-0.2,0.1-0.3,0.3-0.3c0.6-0.9,1.2-1.7,1.9-2.4
			c0.5-1,1.1-1.8,1.8-2.7c0.4-0.9,0.9-1.8,1.4-2.6c0.3-0.9,0.8-1.7,1.1-2.6c0.1-0.2,0.1-0.5,0.2-0.7c0.7-1.5,1.1-3.2,1.5-4.8
			c0.2-1.1,0.4-2.1,0.5-3.2c0.2-2.4,0.2-4.8,0-7.2c-0.1-1.1-0.3-2.2-0.4-3.2c-0.1-0.6,0.1-1,0.6-1.3c0.2-0.1,0.4-0.3,0.7-0.3
			c0.1-0.2,0.3-0.2,0.5-0.2c0.1-0.1,0.2-0.1,0.3-0.2c2.2-0.6,4.3-0.2,6,1.3c0.2,0.1,0.4,0.3,0.6,0.5c0.3,0.3,0.7,0.5,0.8,0.9
			c0.2,0.1,0.3,0.3,0.3,0.5c0.2,0.1,0.2,0.3,0.3,0.4c0.5,1.2,0.8,2.4,0.9,3.8c0.1,1.5-0.1,2.9-0.4,4.3c-0.1,0.3-0.1,0.7-0.3,1
			c0,0,0,0.1,0,0.1c-0.3,1.5-1.1,2.8-1.7,4.2c-0.2,0.4-0.4,0.3-0.7,0.2c-0.7-0.3-1.5-0.4-2.3-0.2c-0.7,0.2-1.3,0.6-1.9,1
			c-0.1,0.3-0.4,0.5-0.5,0.8c-1.1,2-1.3,4-0.4,6.1c0.3,0.2,0.6,0.5,0.8,0.8c0.1,0,0.1,0.1,0.2,0.2c0.7,0.3,1.3,0.5,2.1,0.4
			c0.5-0.1,0.9-0.3,1.4-0.4c0.5-0.3,1-0.6,1.5-0.9c0.1-0.1,0.2-0.2,0.3-0.2c0.4-0.4,0.8-0.7,1.2-1.1c0.1-0.1,0.2-0.3,0.3-0.3
			c0.5-0.7,1.1-1.4,1.6-2.1c0.1-0.3,0.2-0.6,0.5-0.8c0.3-0.7,0.7-1.4,1.1-2.1c0.2-0.4,0.3-0.9,0.6-1.3c0-0.2,0-0.4,0.1-0.5
			c0.5-1.2,0.9-2.4,1.2-3.7C127-136.2,127.1-138.7,126.6-141.3z"/>
		<polygon class="st1" points="96.1,-174.8 96.1,-174.8 96.1,-174.8 		"/>
		<polygon class="st1" points="95.5,-176.1 95.5,-176.1 95.5,-176.1 		"/>
	</g>
</g>
<g>
	<path class="st1" d="M1.2,124.7c0-0.4,0-0.7,0.1-1.1c0.1-0.3,0.3-0.6,0.5-0.9c0.3-0.2,0.6-0.4,1.1-0.6c0.5-0.1,1.1-0.2,1.8-0.2
		h12.1c0.7,0,1.3,0.1,1.8,0.2c0.5,0.1,0.8,0.3,1.1,0.6c0.3,0.2,0.4,0.5,0.5,0.9c0.1,0.3,0.1,0.7,0.1,1.1c0,0.3,0,0.6-0.1,0.9
		c-0.1,0.3-0.3,0.6-0.5,0.9c-0.3,0.2-0.6,0.4-1.1,0.6c-0.5,0.2-1.1,0.2-1.8,0.2h-2.4V138c0,1.1,0.1,2.1,0.3,3c0.2,0.9,0.5,1.7,1,2.5
		c0.5,0.8,1,1.5,1.7,2.3c0.7,0.7,1.6,1.5,2.6,2.2c0.8,0.6,1.4,1.3,1.6,2c0.3,0.7,0.1,1.5-0.4,2.4c-0.3,0.4-0.6,0.8-1,1
		c-0.4,0.2-0.8,0.3-1.3,0.4c-0.3,0-0.6,0-0.9-0.1c-0.3-0.1-0.6-0.2-0.9-0.4c-1.2-0.9-2.3-1.8-3.3-2.8c-0.9-1-1.8-2.1-2.5-3.2
		c-0.7,1.2-1.5,2.4-2.4,3.4c-0.9,1-1.9,1.9-3.1,2.6c-0.7,0.4-1.5,0.7-2.3,0.7c-0.4,0-0.9-0.1-1.4-0.2c-0.5-0.2-0.9-0.5-1.2-1
		c-0.5-0.8-0.6-1.6-0.4-2.4c0.3-0.7,0.8-1.4,1.6-2c1-0.7,1.9-1.5,2.6-2.2c0.7-0.8,1.3-1.6,1.7-2.4c0.5-0.8,0.8-1.7,1-2.6
		c0.2-0.9,0.3-1.9,0.3-3v-10.6H4.8c-0.7,0-1.3-0.1-1.8-0.2c-0.5-0.2-0.8-0.4-1.1-0.6c-0.3-0.2-0.4-0.5-0.5-0.9
		C1.3,125.3,1.2,125,1.2,124.7z M26.6,124.8c0-1.3,0.3-2.2,0.9-2.6c0.6-0.5,1.4-0.7,2.2-0.7c0.4,0,0.8,0.1,1.2,0.2
		c0.4,0.1,0.7,0.3,1,0.5c0.3,0.3,0.5,0.6,0.7,1c0.2,0.4,0.3,1,0.3,1.6v26.4c0,0.7-0.1,1.2-0.3,1.7c-0.2,0.4-0.4,0.8-0.7,1
		c-0.3,0.3-0.6,0.4-1,0.5c-0.4,0.1-0.8,0.2-1.2,0.2c-0.4,0-0.8-0.1-1.2-0.2c-0.4-0.1-0.7-0.3-1-0.5c-0.3-0.3-0.5-0.6-0.7-1
		c-0.2-0.4-0.3-1-0.3-1.7V124.8z"/>
	<path class="st1" d="M38,142.8c0-0.4,0-0.7,0.1-1.1c0.1-0.3,0.3-0.6,0.5-0.9c0.3-0.2,0.6-0.4,1.1-0.6c0.5-0.1,1.1-0.2,1.8-0.2h26.9
		c0.7,0,1.3,0.1,1.8,0.2c0.5,0.1,0.8,0.3,1.1,0.6c0.3,0.2,0.4,0.5,0.5,0.9c0.1,0.3,0.1,0.7,0.1,1.1c0,0.3,0,0.6-0.1,0.9
		c-0.1,0.3-0.3,0.6-0.5,0.9c-0.3,0.2-0.6,0.4-1.1,0.6c-0.5,0.2-1.1,0.2-1.8,0.2H58.1v5.7c0,0.7-0.1,1.2-0.3,1.7
		c-0.2,0.4-0.4,0.8-0.7,1c-0.3,0.3-0.6,0.4-1,0.5c-0.4,0.1-0.8,0.2-1.2,0.2c-0.4,0-0.8-0.1-1.2-0.2c-0.4-0.1-0.7-0.3-1-0.5
		c-0.3-0.3-0.5-0.6-0.7-1c-0.2-0.4-0.3-1-0.3-1.7v-5.7H41.6c-0.7,0-1.3-0.1-1.8-0.2c-0.5-0.2-0.8-0.4-1.1-0.6
		c-0.3-0.2-0.4-0.5-0.5-0.9C38.1,143.4,38,143.1,38,142.8z M65.8,121.8c0.7,0,1.2,0.1,1.6,0.2c0.4,0.1,0.7,0.3,0.9,0.6
		c0.2,0.2,0.3,0.5,0.4,0.9c0.1,0.4,0.1,0.8,0.1,1.2v2.3c0,0.6,0,1.4-0.1,2.1c-0.1,0.8-0.1,1.6-0.3,2.4c-0.1,0.8-0.3,1.6-0.5,2.3
		c-0.2,0.8-0.5,1.4-0.9,2c-0.2,0.4-0.5,0.6-0.8,0.9c-0.3,0.2-0.7,0.3-1,0.4c-0.3,0.1-0.7,0.1-1.1,0.1c-0.4,0-0.7-0.1-1-0.2
		c-0.6-0.2-1.1-0.6-1.5-1.1c-0.3-0.5-0.4-1.2-0.2-2c0.2-0.9,0.4-1.7,0.5-2.2c0.1-0.6,0.2-1.1,0.2-1.5c0.1-0.4,0.1-0.8,0.1-1.1
		c0-0.3,0-0.6,0-1v-1H44.1c-0.7,0-1.3-0.1-1.8-0.2c-0.5-0.1-0.8-0.3-1.1-0.6c-0.3-0.2-0.4-0.5-0.5-0.9c-0.1-0.3-0.1-0.7-0.1-1.1
		c0-0.3,0-0.6,0.1-0.9c0.1-0.3,0.3-0.6,0.5-0.9c0.3-0.2,0.6-0.4,1.1-0.6c0.5-0.2,1.1-0.2,1.8-0.2H65.8z"/>
	<path class="st1" d="M77.3,140.1c-0.9,0-1.6-0.1-2-0.4c-0.4-0.3-0.6-0.8-0.6-1.5c0-0.6,0.2-1,0.6-1.4c0.4-0.3,1.1-0.5,2-0.5h28.9
		c0.9,0,1.6,0.2,2,0.5c0.4,0.3,0.6,0.8,0.6,1.4c0,0.7-0.2,1.2-0.6,1.5c-0.4,0.3-1.1,0.4-2,0.4H77.3z M83.8,130.2v1.2h20
		c1.1,0,1.8,0.2,2.2,0.5c0.4,0.3,0.6,0.8,0.6,1.4c0,0.7-0.2,1.2-0.6,1.5c-0.4,0.3-1.1,0.4-2.2,0.4H80.6c-0.7,0-1.3-0.1-1.7-0.2
		c-0.4-0.1-0.7-0.3-0.9-0.5c-0.2-0.2-0.4-0.5-0.4-0.8c-0.1-0.3-0.1-0.6-0.1-1v-4c0-0.3,0-0.5,0.1-0.8c0.1-0.2,0.2-0.5,0.4-0.7
		c0.2-0.2,0.5-0.3,0.9-0.5c0.4-0.1,0.9-0.2,1.5-0.2h19.3v-1.1H79.9c-0.9,0-1.6-0.2-2-0.5c-0.4-0.3-0.6-0.8-0.6-1.5
		c0-0.5,0.2-1,0.6-1.4c0.4-0.4,1.1-0.6,2-0.6h23.2c0.6,0,1.1,0.1,1.5,0.2c0.4,0.1,0.7,0.3,0.9,0.5c0.2,0.2,0.3,0.4,0.4,0.7
		c0.1,0.3,0.1,0.5,0.1,0.8v4.2c0,0.6-0.2,1.1-0.5,1.5c-0.4,0.4-1.2,0.6-2.4,0.6H83.8z M83.8,150.2v1.2h19.6c0.7,0,1.3,0,1.8,0.1
		c0.5,0.1,0.8,0.2,1.1,0.4c0.3,0.2,0.4,0.4,0.5,0.6c0.1,0.2,0.1,0.5,0.1,0.8c0,0.4,0,0.7-0.1,0.9c-0.1,0.2-0.3,0.4-0.5,0.6
		c-0.3,0.2-0.6,0.3-1.1,0.3c-0.5,0.1-1.1,0.1-1.8,0.1H80.6c-0.7,0-1.3-0.1-1.7-0.2c-0.4-0.1-0.7-0.3-0.9-0.5
		c-0.2-0.2-0.4-0.5-0.4-0.8c-0.1-0.3-0.1-0.6-0.1-1v-4.6c0-0.3,0-0.5,0.1-0.8c0.1-0.2,0.2-0.5,0.4-0.7c0.2-0.2,0.5-0.3,0.9-0.5
		c0.4-0.1,0.9-0.2,1.5-0.2h19.3v-1.1H80.1c-1.1,0-1.8-0.2-2.2-0.5c-0.4-0.3-0.5-0.8-0.5-1.5c0-0.5,0.2-1,0.5-1.4
		c0.4-0.4,1.1-0.6,2.2-0.6h23c0.6,0,1.1,0.1,1.5,0.2c0.4,0.1,0.7,0.3,0.9,0.5c0.2,0.2,0.3,0.4,0.4,0.7c0.1,0.3,0.1,0.5,0.1,0.8v4.6
		c0,0.6-0.2,1.1-0.5,1.5c-0.4,0.4-1.2,0.5-2.4,0.5H83.8z"/>
	<path class="st1" d="M123.1,142.8c0-0.4,0-0.7,0.1-1.1c0.1-0.3,0.3-0.6,0.5-0.9c0.3-0.2,0.6-0.4,1.1-0.6c0.5-0.1,1.1-0.2,1.8-0.2
		h26.9c0.7,0,1.3,0.1,1.8,0.2c0.5,0.1,0.8,0.3,1.1,0.6c0.3,0.2,0.4,0.5,0.5,0.9c0.1,0.3,0.1,0.7,0.1,1.1c0,0.3,0,0.6-0.1,0.9
		c-0.1,0.3-0.3,0.6-0.5,0.9c-0.3,0.2-0.6,0.4-1.1,0.6c-0.5,0.2-1.1,0.2-1.8,0.2h-10.3v5.7c0,0.7-0.1,1.2-0.3,1.7
		c-0.2,0.4-0.4,0.8-0.7,1c-0.3,0.3-0.6,0.4-1,0.5c-0.4,0.1-0.8,0.2-1.2,0.2c-0.4,0-0.8-0.1-1.2-0.2c-0.4-0.1-0.7-0.3-1-0.5
		c-0.3-0.3-0.5-0.6-0.7-1c-0.2-0.4-0.3-1-0.3-1.7v-5.7h-10.3c-0.7,0-1.3-0.1-1.8-0.2c-0.5-0.2-0.8-0.4-1.1-0.6
		c-0.3-0.2-0.4-0.5-0.5-0.9C123.2,143.4,123.1,143.1,123.1,142.8z M150.9,121.8c0.7,0,1.2,0.1,1.6,0.2c0.4,0.1,0.7,0.3,0.9,0.6
		c0.2,0.2,0.3,0.5,0.4,0.9c0.1,0.4,0.1,0.8,0.1,1.2v2.3c0,0.6,0,1.4-0.1,2.1c-0.1,0.8-0.1,1.6-0.3,2.4c-0.1,0.8-0.3,1.6-0.5,2.3
		c-0.2,0.8-0.5,1.4-0.9,2c-0.2,0.4-0.5,0.6-0.8,0.9c-0.3,0.2-0.7,0.3-1,0.4s-0.7,0.1-1.1,0.1c-0.4,0-0.7-0.1-1-0.2
		c-0.6-0.2-1.1-0.6-1.5-1.1c-0.3-0.5-0.4-1.2-0.2-2c0.2-0.9,0.4-1.7,0.5-2.2c0.1-0.6,0.2-1.1,0.2-1.5c0.1-0.4,0.1-0.8,0.1-1.1
		c0-0.3,0-0.6,0-1v-1h-18.2c-0.7,0-1.3-0.1-1.8-0.2c-0.5-0.1-0.8-0.3-1.1-0.6c-0.3-0.2-0.4-0.5-0.5-0.9c-0.1-0.3-0.1-0.7-0.1-1.1
		c0-0.3,0-0.6,0.1-0.9c0.1-0.3,0.3-0.6,0.5-0.9c0.3-0.2,0.6-0.4,1.1-0.6c0.5-0.2,1.1-0.2,1.8-0.2H150.9z"/>
	<path class="st1" d="M159.5,130.7c0-0.4,0-0.7,0.1-1c0.1-0.3,0.3-0.6,0.5-0.8c0.3-0.2,0.6-0.4,1.1-0.5c0.5-0.1,1.1-0.2,1.8-0.2
		h12.7c0.7,0,1.3,0.1,1.8,0.2c0.5,0.1,0.8,0.3,1.1,0.5c0.3,0.2,0.4,0.5,0.5,0.8c0.1,0.3,0.1,0.7,0.1,1c0,0.3,0,0.6-0.1,0.9
		c-0.1,0.3-0.3,0.6-0.5,0.8c-0.3,0.2-0.6,0.4-1.1,0.6c-0.5,0.1-1.1,0.2-1.8,0.2H163c-0.7,0-1.3-0.1-1.8-0.2
		c-0.5-0.1-0.8-0.3-1.1-0.6c-0.3-0.2-0.4-0.5-0.5-0.8C159.5,131.3,159.5,131,159.5,130.7z M169.6,134.8c1.4,0,2.6,0.2,3.6,0.5
		c1,0.3,1.8,0.9,2.5,1.5c0.6,0.7,1.1,1.5,1.5,2.5c0.3,1,0.5,2.1,0.6,3.4v3.9c-0.1,2.6-0.7,4.6-2,5.8c-1.3,1.3-3.3,1.9-6.2,1.9
		c-1.5,0-2.7-0.2-3.8-0.5c-1-0.3-1.8-0.8-2.5-1.5c-0.6-0.7-1.1-1.5-1.4-2.4c-0.3-1-0.5-2.1-0.6-3.3v-3.9c0.1-1.3,0.3-2.4,0.6-3.4
		c0.3-1,0.8-1.8,1.4-2.5c0.6-0.7,1.5-1.2,2.5-1.5C166.8,135,168.1,134.8,169.6,134.8z M161.9,123.6c0-0.4,0-0.7,0.1-1
		c0.1-0.3,0.3-0.6,0.5-0.8c0.3-0.2,0.6-0.4,1.1-0.5c0.5-0.1,1.1-0.2,1.8-0.2h7.8c0.7,0,1.3,0.1,1.8,0.2c0.5,0.1,0.8,0.3,1.1,0.5
		c0.3,0.2,0.4,0.5,0.5,0.8c0.1,0.3,0.1,0.7,0.1,1c0,0.3,0,0.6-0.1,0.9c-0.1,0.3-0.3,0.6-0.5,0.8c-0.3,0.2-0.6,0.4-1.1,0.6
		c-0.5,0.1-1.1,0.2-1.8,0.2h-7.8c-0.7,0-1.3-0.1-1.8-0.2c-0.5-0.1-0.8-0.3-1.1-0.6c-0.3-0.2-0.4-0.5-0.5-0.8
		C162,124.2,161.9,123.9,161.9,123.6z M171.6,142.5c0-0.5-0.1-1-0.2-1.3c-0.1-0.3-0.3-0.6-0.5-0.8c-0.2-0.2-0.4-0.3-0.6-0.3
		c-0.2-0.1-0.5-0.1-0.7-0.1c-0.2,0-0.4,0-0.6,0.1c-0.2,0.1-0.4,0.2-0.6,0.4c-0.2,0.2-0.3,0.4-0.5,0.8c-0.1,0.3-0.2,0.8-0.2,1.3v4.2
		c0,0.6,0.1,1.1,0.2,1.4c0.1,0.3,0.3,0.6,0.4,0.8c0.2,0.2,0.4,0.3,0.6,0.3c0.2,0,0.5,0.1,0.7,0.1c0.2,0,0.4,0,0.6-0.1
		c0.2,0,0.4-0.1,0.6-0.3c0.2-0.2,0.3-0.4,0.5-0.8c0.1-0.3,0.2-0.8,0.2-1.4V142.5z M183,124.8c0-1.3,0.3-2.2,0.9-2.6
		c0.6-0.5,1.4-0.7,2.2-0.7c0.4,0,0.8,0.1,1.2,0.2c0.4,0.1,0.7,0.3,1,0.5c0.3,0.3,0.5,0.6,0.7,1c0.2,0.4,0.3,1,0.3,1.6v10h2.2
		c0.7,0,1.3,0.1,1.8,0.2c0.5,0.2,0.8,0.4,1.1,0.6c0.3,0.2,0.4,0.5,0.5,0.9c0.1,0.3,0.1,0.6,0.1,0.9c0,0.4,0,0.7-0.1,1.1
		c-0.1,0.3-0.3,0.6-0.5,0.9c-0.3,0.2-0.6,0.4-1.1,0.6c-0.5,0.1-1.1,0.2-1.8,0.2h-2.2v11.1c0,0.7-0.1,1.2-0.3,1.7
		c-0.2,0.4-0.4,0.8-0.7,1c-0.3,0.3-0.6,0.4-1,0.5c-0.4,0.1-0.8,0.2-1.2,0.2c-0.4,0-0.8-0.1-1.2-0.2c-0.4-0.1-0.7-0.3-1-0.5
		c-0.3-0.3-0.5-0.6-0.7-1c-0.2-0.4-0.3-1-0.3-1.7V124.8z"/>
	<path class="st1" d="M199.5,141.5c-0.6,0-1.2-0.1-1.5-0.2c-0.4-0.1-0.7-0.3-0.9-0.5c-0.2-0.2-0.3-0.5-0.4-0.8
		c-0.1-0.3-0.1-0.6-0.1-1c0-0.3,0-0.6,0.1-0.9c0.1-0.3,0.2-0.5,0.4-0.8c0.2-0.2,0.5-0.4,0.9-0.6c0.4-0.1,0.9-0.2,1.5-0.2h28.1
		c0.6,0,1.2,0.1,1.5,0.2c0.4,0.1,0.7,0.3,0.9,0.6c0.2,0.2,0.3,0.5,0.4,0.8c0.1,0.3,0.1,0.6,0.1,0.9c0,0.4,0,0.7-0.1,1
		c-0.1,0.3-0.2,0.6-0.4,0.8c-0.2,0.2-0.5,0.4-0.9,0.5c-0.4,0.1-0.9,0.2-1.5,0.2H199.5z M202.4,133.1c-0.7,0-1.3-0.1-1.7-0.2
		c-0.4-0.1-0.7-0.3-0.9-0.6c-0.2-0.2-0.4-0.5-0.4-0.9c-0.1-0.3-0.1-0.7-0.1-1.1v-5.6c0-1.3,0.3-2.2,0.9-2.6c0.6-0.5,1.4-0.7,2.2-0.7
		c0.4,0,0.8,0.1,1.2,0.2c0.4,0.1,0.7,0.3,1,0.5c0.3,0.3,0.5,0.6,0.7,1c0.2,0.4,0.3,1,0.3,1.6v3.4h19.3c0.6,0,1.2,0.1,1.5,0.2
		c0.4,0.2,0.7,0.3,0.9,0.6c0.2,0.2,0.3,0.5,0.4,0.8c0.1,0.3,0.1,0.6,0.1,0.8c0,0.3,0,0.7-0.1,0.9c-0.1,0.3-0.2,0.6-0.4,0.8
		c-0.2,0.2-0.5,0.4-0.9,0.6c-0.4,0.1-0.9,0.2-1.5,0.2H202.4z M202.4,155c-0.7,0-1.3-0.1-1.7-0.2c-0.4-0.1-0.7-0.3-0.9-0.6
		c-0.2-0.2-0.4-0.5-0.4-0.9c-0.1-0.3-0.1-0.7-0.1-1.1v-5c0-1.3,0.3-2.2,0.9-2.6c0.6-0.5,1.4-0.7,2.2-0.7c0.4,0,0.8,0.1,1.2,0.2
		c0.4,0.1,0.7,0.3,1,0.5c0.3,0.3,0.5,0.6,0.7,1c0.2,0.4,0.3,1,0.3,1.6v2.7h19.3c0.6,0,1.2,0.1,1.5,0.2c0.4,0.2,0.7,0.3,0.9,0.6
		c0.2,0.2,0.3,0.5,0.4,0.8c0.1,0.3,0.1,0.6,0.1,0.8c0,0.3,0,0.7-0.1,0.9c-0.1,0.3-0.2,0.6-0.4,0.8c-0.2,0.2-0.5,0.4-0.9,0.6
		c-0.4,0.1-0.9,0.2-1.5,0.2H202.4z"/>
	<path class="st1" d="M244.6,128.9c0-0.4,0-0.7,0.1-1c0.1-0.3,0.3-0.5,0.5-0.7c0.3-0.2,0.6-0.3,1.1-0.4c0.5-0.1,1.1-0.2,1.8-0.2
		h12.7c0.7,0,1.3,0.1,1.8,0.2c0.5,0.1,0.8,0.3,1.1,0.4c0.3,0.2,0.4,0.4,0.5,0.7c0.1,0.3,0.1,0.6,0.1,1c0,0.3,0,0.6-0.1,0.9
		c-0.1,0.3-0.3,0.5-0.5,0.7c-0.3,0.2-0.6,0.3-1.1,0.4c-0.5,0.1-1.1,0.2-1.8,0.2h-12.7c-0.7,0-1.3-0.1-1.8-0.2
		c-0.5-0.1-0.8-0.2-1.1-0.4c-0.3-0.2-0.4-0.4-0.5-0.7C244.7,129.5,244.6,129.2,244.6,128.9z M246.2,138.4c0-2.2,0.7-3.7,2-4.6
		c1.3-0.9,3.4-1.4,6.3-1.4s5,0.5,6.3,1.4c1.3,0.9,2,2.5,2,4.6c0,1.2-0.2,2.1-0.5,2.9c-0.3,0.8-0.8,1.4-1.5,1.8
		c-0.7,0.4-1.5,0.7-2.6,0.9c-1.1,0.2-2.3,0.3-3.7,0.3c-2.9,0-5-0.4-6.3-1.3C246.9,142.1,246.2,140.6,246.2,138.4z M253,149.7h19.1
		c0.7,0,1.3,0.1,1.8,0.2c0.5,0.2,0.8,0.4,1.1,0.6c0.3,0.2,0.4,0.5,0.5,0.9c0.1,0.3,0.1,0.6,0.1,0.9c0,0.4,0,0.7-0.1,1.1
		c-0.1,0.3-0.3,0.6-0.5,0.9c-0.3,0.2-0.6,0.4-1.1,0.6c-0.5,0.1-1.1,0.2-1.8,0.2h-22.2c-0.7,0-1.3-0.1-1.7-0.2
		c-0.4-0.1-0.7-0.3-0.9-0.6c-0.2-0.2-0.4-0.5-0.4-0.9c-0.1-0.3-0.1-0.7-0.1-1.1v-4c0-0.6,0.1-1.2,0.3-1.6c0.2-0.4,0.5-0.8,0.8-1
		c0.3-0.2,0.7-0.4,1.1-0.5c0.4-0.1,0.8-0.2,1.2-0.2c0.8,0,1.4,0.2,2,0.7c0.6,0.5,0.9,1.3,0.9,2.6V149.7z M247.1,123.2
		c0-0.7,0.2-1.3,0.7-1.6c0.5-0.3,1.4-0.5,2.8-0.5h7.8c1.4,0,2.4,0.2,2.8,0.5c0.5,0.3,0.7,0.9,0.7,1.6c0,0.6-0.2,1.1-0.7,1.5
		c-0.5,0.3-1.4,0.5-2.8,0.5h-7.8c-1.4,0-2.4-0.2-2.8-0.5C247.3,124.4,247.1,123.9,247.1,123.2z M252.2,138.4c0,0.5,0.1,0.9,0.4,1.2
		c0.3,0.3,0.9,0.4,1.9,0.4c1,0,1.6-0.1,1.9-0.4c0.3-0.3,0.4-0.7,0.4-1.2c0-0.5-0.1-0.9-0.4-1.2c-0.3-0.3-0.9-0.4-1.9-0.4
		c-1,0-1.6,0.1-1.9,0.4C252.4,137.5,252.2,137.9,252.2,138.4z M268.3,124.8c0-1.3,0.3-2.2,0.9-2.6c0.6-0.5,1.4-0.7,2.2-0.7
		c0.4,0,0.8,0.1,1.2,0.2c0.4,0.1,0.7,0.3,1,0.5c0.3,0.3,0.5,0.6,0.7,1c0.2,0.4,0.3,1,0.3,1.6v6.2h2.4c0.7,0,1.3,0.1,1.8,0.2
		c0.5,0.2,0.8,0.4,1.1,0.6c0.3,0.2,0.4,0.5,0.5,0.9c0.1,0.3,0.1,0.6,0.1,0.9c0,0.4,0,0.7-0.1,1.1c-0.1,0.3-0.3,0.6-0.5,0.9
		c-0.3,0.2-0.6,0.4-1.1,0.6c-0.5,0.1-1.1,0.2-1.8,0.2h-2.4v5.8c0,0.7-0.1,1.2-0.3,1.7c-0.2,0.4-0.4,0.8-0.7,1
		c-0.3,0.3-0.6,0.4-1,0.5c-0.4,0.1-0.8,0.2-1.2,0.2c-0.4,0-0.8-0.1-1.2-0.2c-0.4-0.1-0.7-0.3-1-0.5c-0.3-0.3-0.5-0.6-0.7-1
		c-0.2-0.4-0.3-1-0.3-1.7V124.8z"/>
	<path class="st1" d="M284.4,127c-1.3,0-2.1-0.2-2.6-0.7c-0.4-0.5-0.7-1.1-0.7-1.9c0-0.3,0.1-0.6,0.2-0.9c0.1-0.3,0.3-0.6,0.5-0.8
		c0.2-0.2,0.6-0.4,1-0.6c0.4-0.1,0.9-0.2,1.5-0.2h10.3c0.7,0,1.2,0.1,1.6,0.2c0.4,0.1,0.7,0.3,0.9,0.6c0.2,0.2,0.3,0.5,0.4,0.9
		c0.1,0.4,0.1,0.8,0.1,1.2v3.8c0,1.3-0.3,2.7-0.9,4c-0.6,1.4-1.5,2.6-2.9,3.7c-0.6,0.5-1.2,0.8-2,0.9c-0.8,0.1-1.5-0.1-2.2-0.7
		c-0.7-0.5-1.1-1.2-1.2-1.9c-0.1-0.7,0.1-1.5,0.8-2.2c0.3-0.3,0.5-0.6,0.7-0.8c0.2-0.3,0.4-0.5,0.6-0.9c0.2-0.3,0.3-0.7,0.4-1.1
		c0.1-0.4,0.2-0.9,0.2-1.5V127H284.4z M290.1,148.8v1.6h20.6c1.3,0,2.1,0.2,2.5,0.7c0.4,0.4,0.6,1,0.6,1.6c0,0.7-0.2,1.3-0.6,1.7
		c-0.4,0.4-1.3,0.6-2.5,0.6H287c-0.7,0-1.3-0.1-1.7-0.2c-0.4-0.1-0.7-0.3-0.9-0.5c-0.2-0.2-0.4-0.5-0.4-0.8c-0.1-0.3-0.1-0.7-0.1-1
		v-5.8c0-0.3,0-0.5,0.1-0.8c0.1-0.3,0.2-0.5,0.4-0.7c0.2-0.2,0.5-0.4,0.9-0.5c0.4-0.1,0.9-0.2,1.5-0.2h19.9v-1.6h-20
		c-0.6,0-1.2-0.1-1.5-0.2c-0.4-0.1-0.7-0.3-0.9-0.4c-0.2-0.2-0.3-0.4-0.4-0.7c-0.1-0.3-0.1-0.6-0.1-0.9c0-0.3,0-0.5,0.1-0.8
		c0.1-0.3,0.2-0.5,0.4-0.7c0.2-0.2,0.5-0.4,0.9-0.5c0.4-0.1,0.9-0.2,1.5-0.2H310c0.6,0,1.1,0.1,1.5,0.2c0.4,0.1,0.7,0.3,0.9,0.5
		c0.2,0.2,0.4,0.4,0.4,0.7c0.1,0.3,0.1,0.5,0.1,0.8v6c0,0.3,0,0.6-0.1,0.9c-0.1,0.3-0.2,0.5-0.4,0.7c-0.2,0.2-0.5,0.3-0.9,0.4
		c-0.4,0.1-0.9,0.2-1.5,0.2H290.1z M306.7,131.8h-4c-0.7,0-1.3-0.1-1.7-0.2c-0.4-0.1-0.8-0.3-1-0.6c-0.2-0.3-0.4-0.5-0.5-0.9
		c-0.1-0.3-0.1-0.7-0.1-1.1c0-0.3,0-0.6,0.1-0.9c0.1-0.3,0.2-0.6,0.5-0.9c0.2-0.3,0.6-0.5,1-0.6c0.4-0.2,1-0.2,1.7-0.2h4v-1.6
		c0-1.3,0.3-2.2,0.9-2.6c0.6-0.5,1.4-0.7,2.2-0.7c0.4,0,0.8,0.1,1.2,0.2c0.4,0.1,0.7,0.3,1,0.5c0.3,0.3,0.5,0.6,0.7,1
		c0.2,0.4,0.3,1,0.3,1.6v9.1c0,0.7-0.1,1.2-0.3,1.7c-0.2,0.4-0.4,0.8-0.7,1c-0.3,0.3-0.6,0.4-1,0.5c-0.4,0.1-0.8,0.2-1.2,0.2
		c-0.4,0-0.8-0.1-1.2-0.2c-0.4-0.1-0.7-0.3-1-0.5c-0.3-0.3-0.5-0.6-0.7-1c-0.2-0.4-0.3-1-0.3-1.7V131.8z"/>
	<path class="st1" d="M349.5,136.2c0.6,0,1.2,0.1,1.5,0.2c0.4,0.2,0.7,0.3,0.9,0.6c0.2,0.2,0.3,0.5,0.4,0.8c0.1,0.3,0.1,0.6,0.1,0.9
		c0,0.4,0,0.7-0.1,1c-0.1,0.3-0.2,0.6-0.4,0.8c-0.2,0.2-0.5,0.4-0.9,0.5c-0.4,0.1-0.9,0.2-1.5,0.2h-28.1c-0.6,0-1.2-0.1-1.5-0.2
		c-0.4-0.1-0.7-0.3-0.9-0.5c-0.2-0.2-0.3-0.5-0.4-0.8c-0.1-0.3-0.1-0.6-0.1-1c0-0.3,0-0.6,0.1-0.9c0.1-0.3,0.2-0.6,0.4-0.8
		c0.2-0.2,0.5-0.4,0.9-0.6c0.4-0.2,0.9-0.2,1.5-0.2H349.5z M320.8,127.5c0-1.7,0.7-3.1,2-4.1c1.3-1,3.3-1.5,5.9-1.5h13.6
		c2.6,0,4.5,0.5,5.9,1.5c1.3,1,2,2.4,2,4.1v1.3c0,1.8-0.6,3.1-1.8,3.9c-1.2,0.9-3.1,1.3-5.9,1.4h-14c-2.7,0-4.7-0.5-5.9-1.4
		c-1.2-0.9-1.8-2.2-1.8-3.9V127.5z M324.3,155c-0.7,0-1.3-0.1-1.7-0.2c-0.4-0.1-0.7-0.3-0.9-0.6c-0.2-0.2-0.4-0.5-0.4-0.9
		c-0.1-0.3-0.1-0.7-0.1-1.1v-5.9c0-1,0.3-1.8,0.8-2.4c0.5-0.6,1.4-0.9,2.8-0.9h21.9c0.7,0,1.3,0.1,1.7,0.2c0.4,0.1,0.7,0.3,0.9,0.6
		c0.2,0.2,0.4,0.5,0.4,0.9c0.1,0.3,0.1,0.7,0.1,1.1v5.9c0,1.3-0.3,2.2-1,2.6c-0.7,0.5-1.5,0.7-2.5,0.7H324.3z M327,128.2
		c0,0.6,0.4,1,1.1,1.1c0.7,0.1,1.7,0.2,2.8,0.2h9c1.1,0,2-0.1,2.8-0.2c0.7-0.1,1.1-0.5,1.1-1.1v-0.5c0-0.3-0.1-0.6-0.3-0.7
		c-0.2-0.2-0.5-0.3-0.8-0.4c-0.4-0.1-0.8-0.1-1.3-0.2c-0.5,0-1,0-1.6,0H331c-0.6,0-1.1,0-1.6,0c-0.5,0-0.9,0.1-1.3,0.2
		c-0.4,0.1-0.6,0.2-0.8,0.4c-0.2,0.2-0.3,0.4-0.3,0.7V128.2z M327.4,148v2h16.1v-2H327.4z"/>
	<path class="st1" d="M359.2,146.2c1.2,0,2.2,0.3,2.9,0.9c0.7,0.6,1,1.5,1,2.5c0,0.3,0,0.7,0,1.1c0,0.4-0.1,0.9-0.2,1.3
		c-0.1,0.5-0.3,1-0.6,1.5c-0.3,0.5-0.7,1-1.3,1.5c-0.3,0.2-0.6,0.4-0.9,0.6c-0.3,0.2-0.7,0.3-1,0.3c-0.3,0.1-0.7,0.1-1,0
		c-0.3-0.1-0.6-0.2-0.8-0.4c-0.3-0.3-0.5-0.6-0.4-1c0-0.4,0.1-0.6,0.4-0.9c0.3-0.2,0.5-0.5,0.7-0.8c0.2-0.3,0.3-0.8,0.3-1.2
		c-0.3,0-0.7-0.1-1-0.2c-0.3-0.1-0.6-0.3-0.9-0.5c-0.3-0.2-0.5-0.5-0.7-0.8c-0.2-0.3-0.3-0.7-0.3-1.1c0-0.8,0.3-1.5,0.9-2.1
		C356.8,146.5,357.8,146.2,359.2,146.2z"/>
	<path class="st1" d="M408.7,135.2c0.6,0,1.2,0.1,1.5,0.2c0.4,0.2,0.7,0.3,0.9,0.6c0.2,0.2,0.3,0.5,0.4,0.8c0.1,0.3,0.1,0.6,0.1,0.9
		c0,0.4,0,0.7-0.1,1c-0.1,0.3-0.2,0.6-0.4,0.8c-0.2,0.2-0.5,0.4-0.9,0.5c-0.4,0.1-0.9,0.2-1.5,0.2h-11v1c0,0.6-0.1,1.2-0.3,1.6
		c-0.2,0.4-0.4,0.7-0.7,0.9c-0.3,0.2-0.6,0.4-1,0.4c-0.4,0.1-0.8,0.1-1.2,0.1c-0.4,0-0.8,0-1.2-0.1c-0.4-0.1-0.7-0.2-1-0.4
		c-0.3-0.2-0.5-0.5-0.7-0.9c-0.2-0.4-0.3-0.9-0.3-1.6v-1h-10.9c-0.6,0-1.2-0.1-1.5-0.2c-0.4-0.1-0.7-0.3-0.9-0.5
		c-0.2-0.2-0.3-0.5-0.4-0.8c-0.1-0.3-0.1-0.6-0.1-1c0-0.3,0-0.6,0.1-0.9c0.1-0.3,0.2-0.6,0.4-0.8c0.2-0.2,0.5-0.4,0.9-0.6
		c0.4-0.2,0.9-0.2,1.5-0.2H408.7z M380.7,124.1c0-0.4,0-0.7,0.1-1c0.1-0.3,0.3-0.5,0.5-0.7c0.3-0.2,0.6-0.3,1.1-0.4
		c0.5-0.1,1.1-0.1,1.8-0.1h20.7c0.7,0,1.3,0,1.8,0.1c0.5,0.1,0.8,0.2,1.1,0.4c0.3,0.2,0.4,0.4,0.5,0.7c0.1,0.3,0.1,0.6,0.1,1
		c0,0.3,0,0.6-0.1,0.9c-0.1,0.3-0.3,0.5-0.5,0.7c-0.3,0.2-0.6,0.3-1.1,0.5c-0.5,0.1-1.1,0.2-1.8,0.2h-6c0.4,0.5,0.9,0.8,1.5,1.1
		c0.6,0.3,1.2,0.5,1.9,0.8c0.7,0.2,1.4,0.4,2.2,0.5c0.8,0.1,1.6,0.2,2.4,0.3c1,0.1,1.8,0.4,2.2,0.9c0.5,0.4,0.7,1.1,0.5,2.1
		c-0.1,0.5-0.2,0.9-0.4,1.2c-0.2,0.3-0.5,0.5-0.8,0.6c-0.3,0.1-0.7,0.2-1,0.2c-0.4,0-0.8,0-1.2,0c-2.1-0.2-4.2-0.6-6.3-1.4
		c-2.1-0.7-3.8-1.6-5.2-2.7c-1.4,1.1-3.2,2-5.2,2.7c-2,0.7-4.1,1.2-6.3,1.4c-0.4,0-0.8,0-1.2,0c-0.4,0-0.7-0.1-1-0.2
		c-0.3-0.1-0.6-0.3-0.8-0.6c-0.2-0.3-0.4-0.7-0.4-1.2c-0.1-1,0.1-1.7,0.5-2.1c0.5-0.4,1.2-0.7,2.2-0.9c0.8-0.1,1.6-0.2,2.4-0.3
		c0.8-0.1,1.5-0.3,2.2-0.5c0.7-0.2,1.4-0.5,1.9-0.8c0.6-0.3,1.1-0.7,1.5-1.1h-6.5c-0.7,0-1.3-0.1-1.8-0.2c-0.5-0.1-0.8-0.3-1.1-0.5
		c-0.3-0.2-0.4-0.4-0.5-0.7C380.7,124.7,380.7,124.4,380.7,124.1z M383.3,141.6c0.8,0,1.5,0.2,2.1,0.7c0.6,0.5,1,1.3,1,2.6h17
		c0-1.2,0.3-2.1,1-2.6c0.6-0.5,1.3-0.7,2.2-0.7c0.4,0,0.8,0.1,1.1,0.2c0.3,0.1,0.7,0.3,0.9,0.5c0.3,0.3,0.5,0.6,0.6,1
		c0.2,0.4,0.2,1,0.2,1.6v7.4c0,0.4,0,0.7-0.1,1.1c-0.1,0.3-0.2,0.6-0.4,0.9c-0.2,0.2-0.5,0.4-0.9,0.6c-0.4,0.1-1,0.2-1.7,0.2h-22.9
		c-0.7,0-1.3-0.1-1.7-0.2c-0.4-0.1-0.7-0.3-0.9-0.6c-0.2-0.2-0.4-0.5-0.4-0.9c-0.1-0.3-0.1-0.7-0.1-1.1v-7.4c0-1.3,0.3-2.2,0.9-2.6
		C381.8,141.8,382.5,141.6,383.3,141.6z M403.4,150.6V149h-17v1.5H403.4z"/>
	<path class="st1" d="M427.8,121.8c0.7,0,1.2,0.1,1.6,0.2c0.4,0.1,0.7,0.3,0.9,0.6c0.2,0.2,0.3,0.5,0.4,0.9c0.1,0.4,0.1,0.8,0.1,1.2
		v3.8c0,0.8-0.1,1.6-0.3,2.5c-0.2,0.9-0.5,1.8-0.9,2.7c-0.4,0.9-0.9,1.8-1.6,2.6c-0.7,0.8-1.5,1.5-2.4,2.1c-0.7,0.5-1.4,0.6-2.1,0.4
		c-0.6-0.2-1.2-0.4-1.7-0.8c-0.3-0.2-0.5-0.5-0.7-0.8c-0.2-0.3-0.3-0.7-0.3-1c0-0.4,0-0.7,0.1-1.1c0.1-0.4,0.3-0.7,0.6-1
		c0.8-0.8,1.5-1.6,2.1-2.5c0.6-0.9,0.8-1.9,0.8-3v-1.7h-7.1c-0.7,0-1.3-0.1-1.8-0.2c-0.5-0.1-0.8-0.3-1.1-0.6
		c-0.3-0.2-0.4-0.5-0.5-0.9c-0.1-0.3-0.1-0.7-0.1-1.1c0-0.3,0-0.6,0.1-0.9c0.1-0.3,0.3-0.6,0.5-0.9c0.3-0.2,0.6-0.4,1.1-0.6
		c0.5-0.2,1.1-0.2,1.8-0.2H427.8z M422.8,155c-1.2,0-2.2-0.3-3.1-0.7c-0.9-0.4-1.5-1-2.1-1.6c-0.5-0.7-0.9-1.4-1.1-2.3
		s-0.3-1.7-0.3-2.6c0-0.9,0.1-1.8,0.3-2.6c0.2-0.9,0.6-1.6,1.1-2.3c0.5-0.7,1.2-1.2,2.1-1.6c0.9-0.4,2-0.6,3.3-0.7h16.6
		c1.3,0,2.4,0.2,3.3,0.6c0.9,0.4,1.5,1,2.1,1.6c0.5,0.7,0.9,1.4,1.1,2.3c0.2,0.9,0.3,1.7,0.3,2.6c0,0.9-0.1,1.8-0.3,2.6
		s-0.6,1.6-1.1,2.3c-0.5,0.7-1.2,1.2-2.1,1.6c-0.8,0.4-1.9,0.7-3.1,0.7H422.8z M437.8,149.8c0.7-0.1,1.3-0.2,1.6-0.5
		c0.3-0.3,0.5-0.8,0.5-1.5c0-0.7-0.2-1.2-0.5-1.5c-0.3-0.3-0.9-0.4-1.6-0.5h-13.2c-0.7,0.1-1.3,0.2-1.6,0.5
		c-0.3,0.3-0.5,0.8-0.5,1.5c0,0.7,0.2,1.2,0.5,1.5c0.3,0.3,0.9,0.4,1.6,0.5H437.8z M439.4,124.8c0-1.3,0.3-2.2,0.9-2.6
		c0.6-0.5,1.4-0.7,2.2-0.7c0.4,0,0.8,0.1,1.2,0.2c0.4,0.1,0.7,0.3,1,0.5c0.3,0.3,0.5,0.6,0.7,1c0.2,0.4,0.3,1,0.3,1.6v11.3
		c0,0.7-0.1,1.2-0.3,1.7c-0.2,0.4-0.4,0.8-0.7,1c-0.3,0.3-0.6,0.4-1,0.5c-0.4,0.1-0.8,0.2-1.2,0.2c-0.4,0-0.8-0.1-1.2-0.2
		c-0.4-0.1-0.7-0.3-1-0.5c-0.3-0.3-0.5-0.6-0.7-1c-0.2-0.4-0.3-1-0.3-1.7V124.8z"/>
</g>
<g>
	<path class="st1" d="M223.2,47.4c1.9,0,3.5,0.2,4.6,0.7s2,1,2.7,1.7c0.6,0.7,1,1.5,1.2,2.4c0.2,0.9,0.3,1.8,0.3,2.6
		c0,1.1-0.1,2.1-0.3,3c-0.2,0.9-0.6,1.7-1.2,2.4c-0.6,0.7-1.5,1.2-2.7,1.6c-1.2,0.4-2.7,0.6-4.6,0.6h-32.9v2.9
		c0,1.9-0.3,3.5-0.8,4.7c-0.5,1.2-1.2,2.1-2.1,2.8c-0.9,0.7-1.8,1.1-3,1.3c-1.1,0.2-2.3,0.3-3.5,0.3c-1.2,0-2.4-0.1-3.5-0.3
		c-1.1-0.2-2.1-0.7-3-1.3c-0.9-0.7-1.6-1.6-2.1-2.8c-0.5-1.2-0.8-2.8-0.8-4.7v-2.9H139c-1.9,0-3.5-0.2-4.6-0.6
		c-1.2-0.4-2-0.9-2.7-1.6c-0.6-0.7-1-1.5-1.2-2.4c-0.2-0.9-0.3-1.9-0.3-3c0-0.8,0.1-1.7,0.3-2.6c0.2-0.9,0.6-1.7,1.2-2.4
		c0.6-0.7,1.5-1.3,2.7-1.7c1.2-0.5,2.7-0.7,4.6-0.7H223.2z M139.4,14.1c0-1.2,0.1-2.2,0.4-3c0.3-0.8,0.8-1.6,1.6-2.1
		c0.8-0.6,1.9-1,3.2-1.3c1.4-0.3,3.2-0.4,5.3-0.4H212c2.2,0,3.9,0.1,5.3,0.4c1.4,0.3,2.5,0.7,3.2,1.3c0.8,0.6,1.3,1.3,1.6,2.1
		c0.3,0.9,0.4,1.9,0.4,3c0,0.9-0.1,1.8-0.4,2.6c-0.3,0.8-0.8,1.5-1.6,2.1c-0.8,0.6-1.9,1-3.2,1.4c-1.4,0.3-3.2,0.5-5.3,0.5h-17.8
		c1.2,1.4,2.6,2.5,4.3,3.4c1.7,0.9,3.6,1.6,5.7,2.3c2.1,0.6,4.3,1.1,6.7,1.5c2.4,0.4,4.8,0.7,7.2,0.9c3,0.4,5.3,1.2,6.7,2.5
		c1.5,1.3,2,3.4,1.6,6.4c-0.2,1.5-0.7,2.7-1.3,3.5c-0.7,0.8-1.4,1.4-2.4,1.8c-0.9,0.4-2,0.6-3.1,0.6c-1.2,0-2.3,0-3.5-0.1
		c-6.4-0.5-12.7-1.9-18.8-4.1c-6.1-2.2-11.4-4.9-15.7-8.1c-4.3,3.2-9.5,5.9-15.6,8.1c-6.1,2.2-12.4,3.5-18.8,4.1
		c-1.2,0.1-2.3,0.1-3.5,0.1c-1.2,0-2.2-0.2-3.1-0.6c-0.9-0.4-1.7-1-2.4-1.8c-0.7-0.8-1.1-2-1.3-3.5c-0.4-2.9,0.2-5.1,1.6-6.4
		c1.5-1.3,3.7-2.2,6.7-2.5c2.4-0.2,4.8-0.5,7.1-0.9c2.4-0.4,4.6-0.9,6.7-1.5c2.1-0.6,4.1-1.4,5.8-2.3c1.7-0.9,3.2-2,4.3-3.4h-19.3
		c-2.2,0-3.9-0.2-5.3-0.5c-1.4-0.3-2.5-0.8-3.2-1.4c-0.8-0.6-1.3-1.3-1.6-2.1C139.5,15.9,139.4,15,139.4,14.1z M147.2,66.6
		c2.4,0,4.5,0.7,6.4,2.1c1.9,1.4,2.9,3.9,3,7.6h50.9c0.1-3.7,1-6.3,2.9-7.6c1.9-1.4,4-2.1,6.5-2.1c1.2,0,2.4,0.2,3.4,0.5
		c1,0.3,2,0.9,2.8,1.6c0.8,0.8,1.4,1.8,1.9,3.1c0.5,1.3,0.7,2.9,0.7,4.9v22.1c0,1.2-0.1,2.2-0.2,3.2c-0.2,1-0.6,1.8-1.2,2.5
		c-0.7,0.7-1.6,1.3-2.8,1.7c-1.2,0.4-2.9,0.6-5.1,0.6h-68.5c-2.2,0-3.9-0.2-5.1-0.6c-1.2-0.4-2.2-1-2.8-1.7
		c-0.7-0.7-1.1-1.6-1.2-2.5c-0.2-1-0.2-2-0.2-3.2V76.7c0-3.9,0.8-6.5,2.5-7.9C142.7,67.3,144.8,66.6,147.2,66.6z M207.5,93.5v-4.5
		h-50.9v4.5H207.5z"/>
	<path class="st1" d="M277.5,7.5c2.1,0,3.7,0.2,4.9,0.6c1.2,0.4,2,1,2.7,1.7c0.6,0.7,1,1.6,1.2,2.7c0.2,1.1,0.2,2.3,0.2,3.7v11.4
		c0,2.3-0.3,4.8-0.8,7.6c-0.5,2.7-1.4,5.5-2.6,8.2c-1.2,2.7-2.8,5.3-4.7,7.8c-2,2.5-4.4,4.6-7.2,6.4c-2.2,1.4-4.3,1.8-6.3,1.3
		c-1.9-0.5-3.6-1.3-5-2.4c-0.9-0.6-1.5-1.4-2.1-2.4c-0.5-1-0.9-2-1-3.1c-0.1-1.1,0-2.2,0.3-3.3c0.3-1.1,0.9-2.1,1.9-3
		c2.5-2.4,4.5-4.9,6.2-7.4c1.7-2.5,2.5-5.6,2.5-9v-5h-21.2c-2.2,0-3.9-0.2-5.3-0.6c-1.4-0.4-2.5-1-3.2-1.7c-0.8-0.7-1.3-1.6-1.6-2.5
		c-0.3-1-0.4-2-0.4-3.2c0-0.9,0.1-1.9,0.4-2.8c0.3-1,0.8-1.8,1.6-2.5c0.8-0.7,1.9-1.3,3.2-1.8c1.4-0.5,3.2-0.7,5.3-0.7H277.5z
		 M262.4,106.9c-3.6-0.1-6.7-0.8-9.3-2c-2.5-1.3-4.6-2.9-6.1-4.9c-1.5-2-2.7-4.2-3.4-6.8c-0.7-2.5-1-5.2-1-7.9
		c0-2.7,0.3-5.3,0.9-7.9c0.6-2.6,1.7-4.9,3.2-6.8c1.5-2,3.6-3.6,6.1-4.8c2.6-1.2,5.8-1.9,9.8-2h49.6c3.9,0,7.2,0.6,9.8,1.9
		c2.6,1.2,4.6,2.9,6.1,4.9c1.5,2,2.6,4.3,3.2,6.9c0.6,2.6,0.9,5.2,0.9,7.9c0,2.7-0.3,5.3-1,7.9c-0.7,2.5-1.8,4.8-3.4,6.8
		c-1.6,2-3.6,3.6-6.1,4.9c-2.5,1.3-5.6,1.9-9.2,2H262.4z M307.2,91.1c2.2-0.2,3.9-0.6,4.9-1.4c1-0.8,1.5-2.3,1.5-4.3
		c0-2.2-0.5-3.6-1.5-4.5c-1-0.8-2.6-1.3-4.9-1.4h-39.6c-2.2,0.2-3.9,0.6-4.9,1.4c-1,0.8-1.5,2.3-1.5,4.5c0,2.1,0.5,3.5,1.5,4.3
		c1,0.8,2.6,1.3,4.9,1.4H307.2z M312,16.2c0-3.9,0.9-6.5,2.8-7.9c1.9-1.4,4.1-2.1,6.5-2.1c1.2,0,2.4,0.2,3.5,0.5
		c1.1,0.3,2.1,0.9,3,1.6c0.8,0.8,1.5,1.8,2.1,3.1c0.5,1.3,0.8,2.9,0.8,4.9v33.9c0,2-0.3,3.7-0.8,5c-0.5,1.3-1.2,2.4-2.1,3.1
		c-0.9,0.8-1.8,1.3-3,1.6c-1.1,0.3-2.3,0.5-3.5,0.5c-1.2,0-2.4-0.2-3.5-0.5c-1.1-0.3-2.1-0.8-3-1.6c-0.9-0.8-1.6-1.8-2.1-3.1
		c-0.5-1.3-0.8-3-0.8-5V16.2z"/>
</g>
<g>
	<path class="st1" d="M53.9,10.8c0.8-0.7,1.5-1.4,2.3-2c1.6-1.4,3.4-2.6,5.2-3.6c2.3-1.3,4.7-2.1,7.3-2.5c1-0.2,2.1-0.1,3.1,0
		c1,0.1,1.9,0.4,2.8,0.7c1.7,0.7,2.9,2,3.7,3.6c0.4,0.9,0.7,1.8,0.8,2.8c0.2,1.3,0,2.6-0.2,3.8c-0.3,1.7-1,3.3-1.8,4.9
		c-1.2,2.3-2.7,4.4-4.3,6.5c-0.1,0.1-0.2,0.2-0.3,0.3c-0.3,0.4-0.2,0.5,0.3,0.7c1.2,0.3,2.3,0.6,3.5,1c2.3,0.7,4.5,1.4,6.6,2.4
		c2.4,1.1,4.7,2.4,6.9,3.8c1.8,1.1,3.5,2.3,5,3.7c1.7,1.4,3.3,3,4.7,4.7c1.1,1.4,2.2,2.7,3.2,4.2c0.6,0.9,1,1.9,1.4,2.9
		c0.3,0.8,0.7,1.6,1.1,2.4c0.2,0.4,0.3,0.9,0.4,1.3c0.7,2.1,1.5,4.3,1.7,6.5c0.1,0.7,0.3,1.4,0.3,2.1c0.2,2.4,0.2,4.8,0.1,7.2
		c-0.1,1.7-0.4,3.4-0.8,5.1c-0.5,2.2-1.3,4.3-2.1,6.3c-0.4,1-0.9,2.1-1.5,3c-1,1.8-2.1,3.5-3.3,5.1c-1.5,1.9-3.1,3.7-4.9,5.4
		c-1.4,1.3-2.7,2.5-4.2,3.6c-0.9,0.7-1.8,1.4-2.8,2c-1.5,1.1-3.1,2-4.6,2.9c-0.7,0.4-1.4,0.9-2.2,1.1c-0.4,0.1-0.8,0.5-1.2,0.7
		c-1,0.5-2.1,0.8-3.2,1.3c-0.5,0.2-1,0.4-1.5,0.7c-2.1,1-4.4,1.7-6.6,2.4c-1.4,0.4-2.7,0.8-4.1,1.1c-1.6,0.4-3.2,0.6-4.8,0.9
		c-2.1,0.3-4.3,0.5-6.4,0.6c-2.6,0.2-5.3,0.2-7.9,0.1c-2.1-0.1-4.2-0.3-6.3-0.6c-1.7-0.2-3.3-0.5-5-0.7c-1.2-0.2-2.4-0.4-3.6-0.6
		c-1.4-0.3-2.9-0.6-4.3-1.2c-0.6-0.3-1.2-0.4-1.8-0.6c-2.6-0.7-5.1-1.8-7.6-2.9c-2.3-1.1-4.4-2.4-6.4-3.9c-1.5-1.1-2.9-2.4-4.2-3.8
		c-1.4-1.4-2.5-3.1-3.4-4.9c-1-1.9-1.5-3.8-2-5.9c-0.6-3-0.6-6-0.4-9c0.1-1.7,0.3-3.3,0.6-5c0.4-2.1,0.9-4.1,1.5-6.1
		c0.3-0.9,0.6-1.7,0.8-2.6c0.1-0.5,0.5-1,0.6-1.5c0.8-2,1.6-4,2.4-6C7,54.5,7.5,53.8,7.8,53c0.5-1.1,1.1-2.2,1.7-3.3
		c1.1-2,2.4-4,3.7-5.9c1.1-1.6,2.3-3.1,3.5-4.6c1-1.3,2.1-2.4,3.2-3.6c1.5-1.6,3.1-3.1,4.7-4.6c0.6-0.6,1.3-1.1,2-1.6
		c1.2-0.9,2.2-1.9,3.4-2.7c1.6-1.2,3.2-2.3,4.9-3.3c0.3-0.2,0.5-0.4,0.9-0.5c0.3-0.1,0.2-0.3,0.2-0.5c0.2-1.1,0.2-2.2,0.4-3.3
		c0.3-1.3,0.7-2.5,1.1-3.7c0.6-1.6,1.5-3.1,2.5-4.5c1.1-1.5,2.4-3,4-4c1.2-0.8,2.6-1.3,4.1-1.3c1.2,0,2.2,0.4,3.1,1.1
		c1,0.9,1.7,1.9,2.1,3.3C53.5,10.3,53.7,10.5,53.9,10.8z M70.8,80.9c0.1,0.6,0.1,1.1,0.3,1.4c0.7,1.6,1.9,2.6,3.6,2.9
		c2.1,0.3,4.1-0.9,4.9-2.9c0.3-0.6,0.3-1.3,0.4-2c0.2-1.5,0.2-3.1-0.2-4.6c-0.5-2.3-1.6-4.4-3.1-6.2c-1.8-2.3-4.1-3.9-6.9-4.7
		c-2.2-0.7-4.5-0.9-6.8-0.2c-1.6,0.4-3,1.1-4.3,2.2c-1.6,1.4-2.1,3.6-1.1,5.6c0.7,1.5,2.6,2.8,4.9,2.4c0.4-0.1,0.8-0.2,1.2-0.3
		c-0.5,1.2-1.1,2.2-1.9,3.1c-2.2,2.8-5.1,4.8-8.2,6.3c-2.5,1.2-5.2,2.1-7.9,2.6c-1.6,0.3-3.3,0.5-5,0.5c-2.2,0-4.3-0.1-6.4-0.6
		c-2.5-0.6-4.8-1.5-6.8-3.1c-1.6-1.2-2.7-2.8-3.2-4.8c-0.2-0.9-0.2-1.9-0.2-2.9c0-0.7-0.2-1.3-0.5-1.9c-0.8-1.7-2.6-2.7-4.6-2.5
		c-1.8,0.2-3.4,1.5-3.9,3.2c-0.2,0.9-0.3,1.8-0.3,2.7c0.1,3.4,1.1,6.5,3,9.2c2.7,3.9,6.4,6.3,10.7,8c2,0.8,4.1,1.3,6.3,1.6
		c2.7,0.4,5.4,0.6,8.1,0.2c1.1-0.1,2.2-0.2,3.4-0.4c1.8-0.3,3.6-0.7,5.3-1.3c2-0.6,3.9-1.3,5.8-2.2c2.7-1.3,5.2-2.9,7.4-4.8
		c1.9-1.7,3.7-3.5,5.2-5.6C70.4,81.5,70.6,81.2,70.8,80.9z M52.1,38.7c-1.8,0.1-3.2,1-4.1,2.7c-0.8,1.5-1.3,3.1-1.7,4.7
		c-0.7,2.7-1.2,5.4-1.4,8.2c-0.1,1.1-0.2,2.1-0.2,3.2c0.1,1.3,0,2.6,0.2,3.9c0.2,1.5,0.6,3,1.6,4.2c1.1,1.5,2.6,2.3,4.5,2
		c1.8-0.3,3.1-1.4,3.6-3.1c0.4-1.2,0.3-2.6-0.5-3.7c-0.2-0.4-0.4-0.7-0.4-1.1c0-1.9-0.1-3.8,0.2-5.7c0.2-1.5,0.4-3,0.8-4.5
		c0.3-1.3,0.6-2.6,1.2-3.7c0.7-1.4,0.9-2.7,0.3-4.2C55.6,39.9,54,38.7,52.1,38.7z M40.1,44.4c0-1.1,0-1.1-0.4-2.1
		c-1-2.3-4-3.5-6.5-2c-1.2,0.8-1.9,2-2.5,3.2c-0.7,1.6-1.2,3.3-1.6,5c-0.4,1.8-0.7,3.6-0.9,5.5c-0.2,2.1-0.4,4.3-0.3,6.4
		c0.1,1.6,0.3,3.1,0.8,4.6c0.7,1.8,1.9,3,3.8,3.3c1.8,0.3,3.2-0.4,4.3-1.7c1.1-1.4,1.2-3,0.5-4.7c-0.1-0.3-0.3-0.6-0.3-1
		c0-0.9-0.1-1.7-0.1-2.6c0-2.3,0.3-4.7,0.8-7c0.4-1.9,0.9-3.7,1.8-5.4C40,45.6,40.1,45,40.1,44.4z"/>
	<path class="st3" d="M70.8,80.9c-0.3,0.4-0.5,0.6-0.7,0.9c-1.4,2.1-3.2,4-5.2,5.6c-2.3,1.9-4.8,3.5-7.4,4.8
		c-1.9,0.9-3.8,1.6-5.8,2.2c-1.8,0.5-3.5,1-5.3,1.3c-1.1,0.2-2.2,0.3-3.4,0.4c-2.7,0.3-5.4,0.1-8.1-0.2c-2.2-0.3-4.3-0.8-6.3-1.6
		c-4.3-1.6-8-4.1-10.7-8c-1.9-2.8-2.9-5.9-3-9.2c0-0.9,0-1.8,0.3-2.7c0.4-1.6,2.1-3,3.9-3.2c1.9-0.2,3.8,0.8,4.6,2.5
		c0.3,0.6,0.5,1.3,0.5,1.9c0,1,0,1.9,0.2,2.9c0.5,2,1.7,3.5,3.2,4.8c2,1.6,4.3,2.5,6.8,3.1c2.1,0.5,4.3,0.6,6.4,0.6
		c1.7,0,3.3-0.2,5-0.5c2.8-0.5,5.4-1.4,7.9-2.6c3.2-1.6,6-3.6,8.2-6.3c0.8-0.9,1.4-1.9,1.9-3.1c-0.4,0.1-0.8,0.2-1.2,0.3
		c-2.3,0.5-4.1-0.9-4.9-2.4c-1-1.9-0.5-4.2,1.1-5.6c1.2-1.1,2.7-1.7,4.3-2.2c2.3-0.6,4.5-0.5,6.8,0.2c2.8,0.9,5,2.5,6.9,4.7
		c1.5,1.8,2.5,3.9,3.1,6.2c0.4,1.5,0.4,3,0.2,4.6c-0.1,0.7-0.1,1.3-0.4,2c-0.8,2-2.8,3.2-4.9,2.9c-1.7-0.3-2.9-1.3-3.6-2.9
		C71,81.9,71,81.5,70.8,80.9z"/>
	<path class="st3" d="M52.1,38.7c2,0.1,3.5,1.2,4.2,2.8c0.6,1.5,0.4,2.8-0.3,4.2c-0.6,1.2-0.9,2.5-1.2,3.7c-0.4,1.5-0.5,3-0.8,4.5
		c-0.3,1.9-0.2,3.8-0.2,5.7c0,0.4,0.1,0.8,0.4,1.1c0.7,1.2,0.8,2.5,0.5,3.7c-0.5,1.7-1.8,2.8-3.6,3.1c-1.9,0.3-3.4-0.5-4.5-2
		c-0.9-1.2-1.3-2.7-1.6-4.2c-0.2-1.3-0.2-2.6-0.2-3.9c0-1.1,0.1-2.1,0.2-3.2c0.2-2.8,0.7-5.5,1.4-8.2c0.4-1.6,0.9-3.2,1.7-4.7
		C48.8,39.6,50.3,38.8,52.1,38.7z"/>
	<path class="st4" d="M40.1,44.4c0,0.5-0.1,1.1-0.4,1.7c-1,1.7-1.5,3.5-1.8,5.4c-0.5,2.3-0.8,4.6-0.8,7c0,0.9,0,1.7,0.1,2.6
		c0,0.4,0.2,0.7,0.3,1c0.6,1.6,0.6,3.2-0.5,4.7c-1.1,1.4-2.5,2.1-4.3,1.7c-1.9-0.3-3.1-1.6-3.8-3.3c-0.6-1.5-0.8-3-0.8-4.6
		c-0.1-2.2,0.1-4.3,0.3-6.4c0.2-1.8,0.5-3.7,0.9-5.5c0.4-1.7,0.8-3.4,1.6-5c0.6-1.2,1.2-2.5,2.5-3.2c2.5-1.5,5.5-0.4,6.5,2
		C40.1,43.3,40.1,43.3,40.1,44.4z"/>
</g>
</svg>
