<svg width="385" height="289" viewBox="0 0 385 289" fill="none" xmlns="http://www.w3.org/2000/svg">
<g clip-path="url(#clip0_2297_8977)">
<path d="M129.392 163.895C192.605 135.187 216.47 120.357 233.886 108.465C260.553 90.3696 249.968 77.2808 219.545 70.9677C196.252 66.124 189.911 64.1649 182.945 55.7293C171.081 41.3888 182.238 27.5654 192.088 23.0755C201.231 18.8305 235.382 12.599 253.75 9.06148C269.043 6.09543 311.739 0 327.794 0L332.066 10.5038C332.066 10.5038 323.902 9.00713 290.16 16.9529C272.88 21.0074 230.511 29.1708 229.314 38.4771C227.545 52.3006 265.288 51.5386 281.942 53.253C316.474 56.7905 333.944 67.267 340.474 71.0222C335.032 67.8929 383.36 92.356 384.258 134.67C385.32 183.243 360.965 209.338 323.113 241.992C285.262 274.646 263.247 288.252 263.247 288.252L0 219.216C0 219.216 66.152 192.603 129.392 163.895Z" fill="#D7F9F4"/>
<g clip-path="url(#clip1_2297_8977)" filter="url(#filter0_f_2297_8977)">
<g filter="url(#filter1_f_2297_8977)">
<path d="M197.766 192.254C197.766 192.254 218.356 153.413 258.602 162.099C287.299 168.283 254.048 195.211 254.048 195.211C254.048 195.211 210.448 200.152 197.766 192.254Z" fill="#127768" fill-opacity="0.5"/>
</g>
</g>
<path d="M226.138 109.987C226.138 109.987 227.364 105.458 226.493 99.5256C225.622 93.5934 221.062 95.3389 218.965 99.172C216.868 103.005 215.115 108.413 215.115 108.413C215.115 108.413 202.763 116.467 195.064 127.339C187.089 138.587 184.087 146.253 184.293 156.897C184.511 168.499 193.574 179.747 220.203 181.31C246.831 182.884 261.543 169.628 268.372 159.863C275.201 150.098 274.857 138.849 266.711 127.247C262.231 120.859 253.66 114.174 241.755 112.428L248.24 100.575C248.24 100.575 252.09 90.8099 241.24 93.2512C230.389 95.6925 226.138 109.987 226.138 109.987Z" fill="white" stroke="#23C8AF" stroke-width="5" stroke-miterlimit="10" stroke-linecap="round" stroke-linejoin="round"/>
<path d="M205.124 179.04C205.124 179.04 197.596 182.348 197.241 191.076C197.241 191.076 192.864 188.109 189.713 189.33" stroke="#23C8AF" stroke-width="5" stroke-miterlimit="10" stroke-linecap="round" stroke-linejoin="round"/>
<path d="M247.6 178.8C247.6 178.8 254.325 183.523 252.939 192.148C252.939 192.148 257.82 190.106 260.673 191.92" stroke="#23C8AF" stroke-width="5" stroke-miterlimit="10" stroke-linecap="round" stroke-linejoin="round"/>
<path d="M208.172 162.498C208.172 162.498 210.865 159.213 216.869 158.985C224.396 158.699 227.616 162.624 227.616 162.624" stroke="#23C8AF" stroke-width="4" stroke-miterlimit="10" stroke-linecap="round" stroke-linejoin="round"/>
<path d="M232.818 141.599L230.893 146.869C230.893 146.869 228.957 151.569 232.933 151.535C236.943 151.501 234.835 146.812 234.835 146.812L232.818 141.599Z" fill="#6286ED" stroke="#5F7DBE" stroke-width="0.5" stroke-miterlimit="10"/>
<path d="M186.597 142.078C186.597 142.078 177.877 152.334 166.43 154.706C163.027 155.414 162.959 158.893 166.534 157.193C169.112 155.973 168.619 154.809 168.619 154.809" stroke="#23C8AF" stroke-width="5" stroke-miterlimit="10" stroke-linecap="round"/>
<path d="M273.621 142.42C273.621 142.42 285.973 148.523 269.852 148.352C253.73 148.181 245.343 144.371 245.343 144.371C245.343 144.371 243.384 143.606 242.627 145.42C242.123 146.641 245.515 146.561 245.515 146.561C245.515 146.561 247.44 146.481 247.531 145.66" stroke="#23C8AF" stroke-width="5" stroke-miterlimit="10" stroke-linecap="round"/>
<path d="M247.071 106.804C247.071 106.804 250.085 102.651 255.86 102.834C261.623 103.005 255.332 107.249 255.332 107.249C255.332 107.249 260.237 107.694 260.237 110.34C260.237 110.34 260.523 114.208 249.672 113.01C249.672 113.01 244.768 116.216 229.048 116.489C224.682 116.364 211.987 116.467 208.446 112.12C205.914 109.006 210.325 106.564 210.325 106.564C212.525 105.367 214.129 104.26 225.072 104.682C237.813 105.173 247.071 106.804 247.071 106.804Z" fill="#A5E9DF"/>
<path d="M211.026 126.141C208.642 129.985 206.225 140.23 208.78 143.298C211.53 145.489 212.252 141.165 212.252 141.165C212.252 141.165 212.87 133.385 214.715 128.548C215.792 125.707 212.194 124.247 211.026 126.141Z" fill="#23C8AF" stroke="#23C8AF" stroke-miterlimit="10"/>
<path d="M225.153 127.19C222.769 131.035 220.856 140.024 223.411 143.093C226.161 145.283 227.238 141.587 227.238 141.587C227.238 141.587 227.983 134.24 228.636 128.297C228.899 125.935 226.321 125.308 225.153 127.19Z" fill="#23C8AF" stroke="#23C8AF" stroke-miterlimit="10"/>
</g>
<defs>
<filter id="filter0_f_2297_8977" x="194" y="156" width="80" height="43" filterUnits="userSpaceOnUse" color-interpolation-filters="sRGB">
<feFlood flood-opacity="0" result="BackgroundImageFix"/>
<feBlend mode="normal" in="SourceGraphic" in2="BackgroundImageFix" result="shape"/>
<feGaussianBlur stdDeviation="0.5" result="effect1_foregroundBlur_2297_8977"/>
</filter>
<filter id="filter1_f_2297_8977" x="195.766" y="158.833" width="76.5078" height="39.9048" filterUnits="userSpaceOnUse" color-interpolation-filters="sRGB">
<feFlood flood-opacity="0" result="BackgroundImageFix"/>
<feBlend mode="normal" in="SourceGraphic" in2="BackgroundImageFix" result="shape"/>
<feGaussianBlur stdDeviation="1" result="effect1_foregroundBlur_2297_8977"/>
</filter>
<clipPath id="clip0_2297_8977">
<rect width="384.29" height="288.25" fill="white"/>
</clipPath>
<clipPath id="clip1_2297_8977">
<rect width="78" height="41" fill="white" transform="translate(195 157)"/>
</clipPath>
</defs>
</svg>
